%
M48
M72
T01C0.0150
T02C0.0200
T03C0.0295
T04C0.0354
T05C0.0394
T06C0.0400
T07C0.0402
T08C0.0413
T09C0.0709
T10C0.1200
%
T01
X12948Y12311
X13393Y13531
X11078Y13000
X13342Y15854
X16492Y18217
X16885Y21760
X17279Y22154
X18066Y21760
X18460Y22154
X15192Y23453
X13736Y25697
X12692Y26602
X16689Y25697
X17673Y26406
X18677Y26346
X22003Y23335
X22397Y22154
X22377Y21386
X24189Y23728
X24700Y26602
X25685Y26602
X22692Y26602
X27909Y22154
X27909Y21760
X30271Y20776
X31413Y19791
X31943Y20203
X32678Y20215
X32633Y21169
X32240Y21563
X32633Y21957
X31846Y21957
X31846Y21169
X31196Y22547
X31866Y22961
X32397Y22783
X32614Y23157
X33439Y23335
X30881Y23886
X32240Y19004
X33407Y19004
X34208Y17626
X31452Y18020
X30724Y18610
X28696Y18807
X28696Y17035
X29090Y16642
X30271Y14280
X29877Y13689
X32240Y14083
X32240Y12902
X32633Y12508
X34602Y12508
X31525Y10638
X30937Y8646
X29090Y6996
X27122Y6209
X25153Y5815
X24956Y7587
X25940Y7980
X26196Y8354
X26493Y7931
X24366Y10343
X25940Y12311
X25547Y12705
X24759Y13492
X27122Y14280
X27515Y12311
X32870Y8650
X33427Y7809
X33913Y6268
X34917Y6104
X35232Y5854
X31452Y5618
X36964Y9752
X12161Y22941
X9405Y23335
X8224Y23335
X8696Y25480
X6649Y26484
X8724Y17035
X5468Y15461
T02
X30755Y11146
X30755Y10146
X30755Y9146
X31755Y9146
X31755Y10146
X31755Y11146
T03
X34467Y10675
T04
X30271Y6602
X30271Y25106
T05
X32122Y15461
X35114Y15461
T06
X34393Y26331
X33393Y26331
T07
X26189Y25980
X25189Y25980
X24189Y25980
X23189Y25980
X22189Y25980
X21189Y25980
X20189Y25980
X19189Y25980
X18189Y25980
X17189Y25980
X16189Y25980
X15189Y25980
X14189Y25980
X13189Y25980
X12189Y25980
X11189Y25980
X10189Y25980
X9189Y25980
X8189Y25980
X7189Y25980
X7189Y24980
X8189Y24980
X9189Y24980
X10189Y24980
X11189Y24980
X12189Y24980
X13189Y24980
X14189Y24980
X15189Y24980
X16189Y24980
X17189Y24980
X18189Y24980
X19189Y24980
X20189Y24980
X21189Y24980
X22189Y24980
X23189Y24980
X24189Y24980
X25189Y24980
X26189Y24980
T08
X35525Y9617
T09
X25689Y25480
X7689Y25480
T10
X5271Y6209
X28106Y6209
X28106Y25500
X5271Y25500
M30
