G75*
%MOIN*%
%OFA0B0*%
%FSLAX25Y25*%
%IPPOS*%
%LPD*%
%AMOC8*
5,1,8,0,0,1.08239X$1,22.5*
%
%ADD10C,0.00800*%
%ADD11C,0.00000*%
D10*
X0050743Y0048307D02*
X0361767Y0048307D01*
X0362052Y0048310D01*
X0362338Y0048321D01*
X0362623Y0048338D01*
X0362907Y0048362D01*
X0363191Y0048393D01*
X0363474Y0048431D01*
X0363755Y0048476D01*
X0364036Y0048527D01*
X0364316Y0048585D01*
X0364594Y0048650D01*
X0364870Y0048722D01*
X0365144Y0048800D01*
X0365417Y0048885D01*
X0365687Y0048977D01*
X0365955Y0049075D01*
X0366221Y0049179D01*
X0366484Y0049290D01*
X0366744Y0049407D01*
X0367002Y0049530D01*
X0367256Y0049660D01*
X0367507Y0049796D01*
X0367755Y0049937D01*
X0367999Y0050085D01*
X0368240Y0050238D01*
X0368476Y0050398D01*
X0368709Y0050563D01*
X0368938Y0050733D01*
X0369163Y0050909D01*
X0369383Y0051091D01*
X0369599Y0051277D01*
X0369810Y0051469D01*
X0370017Y0051666D01*
X0370219Y0051868D01*
X0370416Y0052075D01*
X0370608Y0052286D01*
X0370794Y0052502D01*
X0370976Y0052722D01*
X0371152Y0052947D01*
X0371322Y0053176D01*
X0371487Y0053409D01*
X0371647Y0053645D01*
X0371800Y0053886D01*
X0371948Y0054130D01*
X0372089Y0054378D01*
X0372225Y0054629D01*
X0372355Y0054883D01*
X0372478Y0055141D01*
X0372595Y0055401D01*
X0372706Y0055664D01*
X0372810Y0055930D01*
X0372908Y0056198D01*
X0373000Y0056468D01*
X0373085Y0056741D01*
X0373163Y0057015D01*
X0373235Y0057291D01*
X0373300Y0057569D01*
X0373358Y0057849D01*
X0373409Y0058130D01*
X0373454Y0058411D01*
X0373492Y0058694D01*
X0373523Y0058978D01*
X0373547Y0059262D01*
X0373564Y0059547D01*
X0373575Y0059833D01*
X0373578Y0060118D01*
X0373578Y0256969D01*
X0373575Y0257254D01*
X0373564Y0257540D01*
X0373547Y0257825D01*
X0373523Y0258109D01*
X0373492Y0258393D01*
X0373454Y0258676D01*
X0373409Y0258957D01*
X0373358Y0259238D01*
X0373300Y0259518D01*
X0373235Y0259796D01*
X0373163Y0260072D01*
X0373085Y0260346D01*
X0373000Y0260619D01*
X0372908Y0260889D01*
X0372810Y0261157D01*
X0372706Y0261423D01*
X0372595Y0261686D01*
X0372478Y0261946D01*
X0372355Y0262204D01*
X0372225Y0262458D01*
X0372089Y0262709D01*
X0371948Y0262957D01*
X0371800Y0263201D01*
X0371647Y0263442D01*
X0371487Y0263678D01*
X0371322Y0263911D01*
X0371152Y0264140D01*
X0370976Y0264365D01*
X0370794Y0264585D01*
X0370608Y0264801D01*
X0370416Y0265012D01*
X0370219Y0265219D01*
X0370017Y0265421D01*
X0369810Y0265618D01*
X0369599Y0265810D01*
X0369383Y0265996D01*
X0369163Y0266178D01*
X0368938Y0266354D01*
X0368709Y0266524D01*
X0368476Y0266689D01*
X0368240Y0266849D01*
X0367999Y0267002D01*
X0367755Y0267150D01*
X0367507Y0267291D01*
X0367256Y0267427D01*
X0367002Y0267557D01*
X0366744Y0267680D01*
X0366484Y0267797D01*
X0366221Y0267908D01*
X0365955Y0268012D01*
X0365687Y0268110D01*
X0365417Y0268202D01*
X0365144Y0268287D01*
X0364870Y0268365D01*
X0364594Y0268437D01*
X0364316Y0268502D01*
X0364036Y0268560D01*
X0363755Y0268611D01*
X0363474Y0268656D01*
X0363191Y0268694D01*
X0362907Y0268725D01*
X0362623Y0268749D01*
X0362338Y0268766D01*
X0362052Y0268777D01*
X0361767Y0268780D01*
X0050743Y0268780D01*
X0050458Y0268777D01*
X0050172Y0268766D01*
X0049887Y0268749D01*
X0049603Y0268725D01*
X0049319Y0268694D01*
X0049036Y0268656D01*
X0048755Y0268611D01*
X0048474Y0268560D01*
X0048194Y0268502D01*
X0047916Y0268437D01*
X0047640Y0268365D01*
X0047366Y0268287D01*
X0047093Y0268202D01*
X0046823Y0268110D01*
X0046555Y0268012D01*
X0046289Y0267908D01*
X0046026Y0267797D01*
X0045766Y0267680D01*
X0045508Y0267557D01*
X0045254Y0267427D01*
X0045003Y0267291D01*
X0044755Y0267150D01*
X0044511Y0267002D01*
X0044270Y0266849D01*
X0044034Y0266689D01*
X0043801Y0266524D01*
X0043572Y0266354D01*
X0043347Y0266178D01*
X0043127Y0265996D01*
X0042911Y0265810D01*
X0042700Y0265618D01*
X0042493Y0265421D01*
X0042291Y0265219D01*
X0042094Y0265012D01*
X0041902Y0264801D01*
X0041716Y0264585D01*
X0041534Y0264365D01*
X0041358Y0264140D01*
X0041188Y0263911D01*
X0041023Y0263678D01*
X0040863Y0263442D01*
X0040710Y0263201D01*
X0040562Y0262957D01*
X0040421Y0262709D01*
X0040285Y0262458D01*
X0040155Y0262204D01*
X0040032Y0261946D01*
X0039915Y0261686D01*
X0039804Y0261423D01*
X0039700Y0261157D01*
X0039602Y0260889D01*
X0039510Y0260619D01*
X0039425Y0260346D01*
X0039347Y0260072D01*
X0039275Y0259796D01*
X0039210Y0259518D01*
X0039152Y0259238D01*
X0039101Y0258957D01*
X0039056Y0258676D01*
X0039018Y0258393D01*
X0038987Y0258109D01*
X0038963Y0257825D01*
X0038946Y0257540D01*
X0038935Y0257254D01*
X0038932Y0256969D01*
X0038932Y0060118D01*
X0038935Y0059833D01*
X0038946Y0059547D01*
X0038963Y0059262D01*
X0038987Y0058978D01*
X0039018Y0058694D01*
X0039056Y0058411D01*
X0039101Y0058130D01*
X0039152Y0057849D01*
X0039210Y0057569D01*
X0039275Y0057291D01*
X0039347Y0057015D01*
X0039425Y0056741D01*
X0039510Y0056468D01*
X0039602Y0056198D01*
X0039700Y0055930D01*
X0039804Y0055664D01*
X0039915Y0055401D01*
X0040032Y0055141D01*
X0040155Y0054883D01*
X0040285Y0054629D01*
X0040421Y0054378D01*
X0040562Y0054130D01*
X0040710Y0053886D01*
X0040863Y0053645D01*
X0041023Y0053409D01*
X0041188Y0053176D01*
X0041358Y0052947D01*
X0041534Y0052722D01*
X0041716Y0052502D01*
X0041902Y0052286D01*
X0042094Y0052075D01*
X0042291Y0051868D01*
X0042493Y0051666D01*
X0042700Y0051469D01*
X0042911Y0051277D01*
X0043127Y0051091D01*
X0043347Y0050909D01*
X0043572Y0050733D01*
X0043801Y0050563D01*
X0044034Y0050398D01*
X0044270Y0050238D01*
X0044511Y0050085D01*
X0044755Y0049937D01*
X0045003Y0049796D01*
X0045254Y0049660D01*
X0045508Y0049530D01*
X0045766Y0049407D01*
X0046026Y0049290D01*
X0046289Y0049179D01*
X0046555Y0049075D01*
X0046823Y0048977D01*
X0047093Y0048885D01*
X0047366Y0048800D01*
X0047640Y0048722D01*
X0047916Y0048650D01*
X0048194Y0048585D01*
X0048474Y0048527D01*
X0048755Y0048476D01*
X0049036Y0048431D01*
X0049319Y0048393D01*
X0049603Y0048362D01*
X0049887Y0048338D01*
X0050172Y0048321D01*
X0050458Y0048310D01*
X0050743Y0048307D01*
D11*
X0046712Y0062087D02*
X0046714Y0062241D01*
X0046720Y0062396D01*
X0046730Y0062550D01*
X0046744Y0062704D01*
X0046762Y0062857D01*
X0046783Y0063010D01*
X0046809Y0063163D01*
X0046839Y0063314D01*
X0046872Y0063465D01*
X0046910Y0063615D01*
X0046951Y0063764D01*
X0046996Y0063912D01*
X0047045Y0064058D01*
X0047098Y0064204D01*
X0047154Y0064347D01*
X0047214Y0064490D01*
X0047278Y0064630D01*
X0047345Y0064770D01*
X0047416Y0064907D01*
X0047490Y0065042D01*
X0047568Y0065176D01*
X0047649Y0065307D01*
X0047734Y0065436D01*
X0047822Y0065564D01*
X0047913Y0065688D01*
X0048007Y0065811D01*
X0048105Y0065931D01*
X0048205Y0066048D01*
X0048309Y0066163D01*
X0048415Y0066275D01*
X0048524Y0066384D01*
X0048636Y0066490D01*
X0048751Y0066594D01*
X0048868Y0066694D01*
X0048988Y0066792D01*
X0049111Y0066886D01*
X0049235Y0066977D01*
X0049363Y0067065D01*
X0049492Y0067150D01*
X0049623Y0067231D01*
X0049757Y0067309D01*
X0049892Y0067383D01*
X0050029Y0067454D01*
X0050169Y0067521D01*
X0050309Y0067585D01*
X0050452Y0067645D01*
X0050595Y0067701D01*
X0050741Y0067754D01*
X0050887Y0067803D01*
X0051035Y0067848D01*
X0051184Y0067889D01*
X0051334Y0067927D01*
X0051485Y0067960D01*
X0051636Y0067990D01*
X0051789Y0068016D01*
X0051942Y0068037D01*
X0052095Y0068055D01*
X0052249Y0068069D01*
X0052403Y0068079D01*
X0052558Y0068085D01*
X0052712Y0068087D01*
X0052866Y0068085D01*
X0053021Y0068079D01*
X0053175Y0068069D01*
X0053329Y0068055D01*
X0053482Y0068037D01*
X0053635Y0068016D01*
X0053788Y0067990D01*
X0053939Y0067960D01*
X0054090Y0067927D01*
X0054240Y0067889D01*
X0054389Y0067848D01*
X0054537Y0067803D01*
X0054683Y0067754D01*
X0054829Y0067701D01*
X0054972Y0067645D01*
X0055115Y0067585D01*
X0055255Y0067521D01*
X0055395Y0067454D01*
X0055532Y0067383D01*
X0055667Y0067309D01*
X0055801Y0067231D01*
X0055932Y0067150D01*
X0056061Y0067065D01*
X0056189Y0066977D01*
X0056313Y0066886D01*
X0056436Y0066792D01*
X0056556Y0066694D01*
X0056673Y0066594D01*
X0056788Y0066490D01*
X0056900Y0066384D01*
X0057009Y0066275D01*
X0057115Y0066163D01*
X0057219Y0066048D01*
X0057319Y0065931D01*
X0057417Y0065811D01*
X0057511Y0065688D01*
X0057602Y0065564D01*
X0057690Y0065436D01*
X0057775Y0065307D01*
X0057856Y0065176D01*
X0057934Y0065042D01*
X0058008Y0064907D01*
X0058079Y0064770D01*
X0058146Y0064630D01*
X0058210Y0064490D01*
X0058270Y0064347D01*
X0058326Y0064204D01*
X0058379Y0064058D01*
X0058428Y0063912D01*
X0058473Y0063764D01*
X0058514Y0063615D01*
X0058552Y0063465D01*
X0058585Y0063314D01*
X0058615Y0063163D01*
X0058641Y0063010D01*
X0058662Y0062857D01*
X0058680Y0062704D01*
X0058694Y0062550D01*
X0058704Y0062396D01*
X0058710Y0062241D01*
X0058712Y0062087D01*
X0058710Y0061933D01*
X0058704Y0061778D01*
X0058694Y0061624D01*
X0058680Y0061470D01*
X0058662Y0061317D01*
X0058641Y0061164D01*
X0058615Y0061011D01*
X0058585Y0060860D01*
X0058552Y0060709D01*
X0058514Y0060559D01*
X0058473Y0060410D01*
X0058428Y0060262D01*
X0058379Y0060116D01*
X0058326Y0059970D01*
X0058270Y0059827D01*
X0058210Y0059684D01*
X0058146Y0059544D01*
X0058079Y0059404D01*
X0058008Y0059267D01*
X0057934Y0059132D01*
X0057856Y0058998D01*
X0057775Y0058867D01*
X0057690Y0058738D01*
X0057602Y0058610D01*
X0057511Y0058486D01*
X0057417Y0058363D01*
X0057319Y0058243D01*
X0057219Y0058126D01*
X0057115Y0058011D01*
X0057009Y0057899D01*
X0056900Y0057790D01*
X0056788Y0057684D01*
X0056673Y0057580D01*
X0056556Y0057480D01*
X0056436Y0057382D01*
X0056313Y0057288D01*
X0056189Y0057197D01*
X0056061Y0057109D01*
X0055932Y0057024D01*
X0055801Y0056943D01*
X0055667Y0056865D01*
X0055532Y0056791D01*
X0055395Y0056720D01*
X0055255Y0056653D01*
X0055115Y0056589D01*
X0054972Y0056529D01*
X0054829Y0056473D01*
X0054683Y0056420D01*
X0054537Y0056371D01*
X0054389Y0056326D01*
X0054240Y0056285D01*
X0054090Y0056247D01*
X0053939Y0056214D01*
X0053788Y0056184D01*
X0053635Y0056158D01*
X0053482Y0056137D01*
X0053329Y0056119D01*
X0053175Y0056105D01*
X0053021Y0056095D01*
X0052866Y0056089D01*
X0052712Y0056087D01*
X0052558Y0056089D01*
X0052403Y0056095D01*
X0052249Y0056105D01*
X0052095Y0056119D01*
X0051942Y0056137D01*
X0051789Y0056158D01*
X0051636Y0056184D01*
X0051485Y0056214D01*
X0051334Y0056247D01*
X0051184Y0056285D01*
X0051035Y0056326D01*
X0050887Y0056371D01*
X0050741Y0056420D01*
X0050595Y0056473D01*
X0050452Y0056529D01*
X0050309Y0056589D01*
X0050169Y0056653D01*
X0050029Y0056720D01*
X0049892Y0056791D01*
X0049757Y0056865D01*
X0049623Y0056943D01*
X0049492Y0057024D01*
X0049363Y0057109D01*
X0049235Y0057197D01*
X0049111Y0057288D01*
X0048988Y0057382D01*
X0048868Y0057480D01*
X0048751Y0057580D01*
X0048636Y0057684D01*
X0048524Y0057790D01*
X0048415Y0057899D01*
X0048309Y0058011D01*
X0048205Y0058126D01*
X0048105Y0058243D01*
X0048007Y0058363D01*
X0047913Y0058486D01*
X0047822Y0058610D01*
X0047734Y0058738D01*
X0047649Y0058867D01*
X0047568Y0058998D01*
X0047490Y0059132D01*
X0047416Y0059267D01*
X0047345Y0059404D01*
X0047278Y0059544D01*
X0047214Y0059684D01*
X0047154Y0059827D01*
X0047098Y0059970D01*
X0047045Y0060116D01*
X0046996Y0060262D01*
X0046951Y0060410D01*
X0046910Y0060559D01*
X0046872Y0060709D01*
X0046839Y0060860D01*
X0046809Y0061011D01*
X0046783Y0061164D01*
X0046762Y0061317D01*
X0046744Y0061470D01*
X0046730Y0061624D01*
X0046720Y0061778D01*
X0046714Y0061933D01*
X0046712Y0062087D01*
X0275058Y0062087D02*
X0275060Y0062241D01*
X0275066Y0062396D01*
X0275076Y0062550D01*
X0275090Y0062704D01*
X0275108Y0062857D01*
X0275129Y0063010D01*
X0275155Y0063163D01*
X0275185Y0063314D01*
X0275218Y0063465D01*
X0275256Y0063615D01*
X0275297Y0063764D01*
X0275342Y0063912D01*
X0275391Y0064058D01*
X0275444Y0064204D01*
X0275500Y0064347D01*
X0275560Y0064490D01*
X0275624Y0064630D01*
X0275691Y0064770D01*
X0275762Y0064907D01*
X0275836Y0065042D01*
X0275914Y0065176D01*
X0275995Y0065307D01*
X0276080Y0065436D01*
X0276168Y0065564D01*
X0276259Y0065688D01*
X0276353Y0065811D01*
X0276451Y0065931D01*
X0276551Y0066048D01*
X0276655Y0066163D01*
X0276761Y0066275D01*
X0276870Y0066384D01*
X0276982Y0066490D01*
X0277097Y0066594D01*
X0277214Y0066694D01*
X0277334Y0066792D01*
X0277457Y0066886D01*
X0277581Y0066977D01*
X0277709Y0067065D01*
X0277838Y0067150D01*
X0277969Y0067231D01*
X0278103Y0067309D01*
X0278238Y0067383D01*
X0278375Y0067454D01*
X0278515Y0067521D01*
X0278655Y0067585D01*
X0278798Y0067645D01*
X0278941Y0067701D01*
X0279087Y0067754D01*
X0279233Y0067803D01*
X0279381Y0067848D01*
X0279530Y0067889D01*
X0279680Y0067927D01*
X0279831Y0067960D01*
X0279982Y0067990D01*
X0280135Y0068016D01*
X0280288Y0068037D01*
X0280441Y0068055D01*
X0280595Y0068069D01*
X0280749Y0068079D01*
X0280904Y0068085D01*
X0281058Y0068087D01*
X0281212Y0068085D01*
X0281367Y0068079D01*
X0281521Y0068069D01*
X0281675Y0068055D01*
X0281828Y0068037D01*
X0281981Y0068016D01*
X0282134Y0067990D01*
X0282285Y0067960D01*
X0282436Y0067927D01*
X0282586Y0067889D01*
X0282735Y0067848D01*
X0282883Y0067803D01*
X0283029Y0067754D01*
X0283175Y0067701D01*
X0283318Y0067645D01*
X0283461Y0067585D01*
X0283601Y0067521D01*
X0283741Y0067454D01*
X0283878Y0067383D01*
X0284013Y0067309D01*
X0284147Y0067231D01*
X0284278Y0067150D01*
X0284407Y0067065D01*
X0284535Y0066977D01*
X0284659Y0066886D01*
X0284782Y0066792D01*
X0284902Y0066694D01*
X0285019Y0066594D01*
X0285134Y0066490D01*
X0285246Y0066384D01*
X0285355Y0066275D01*
X0285461Y0066163D01*
X0285565Y0066048D01*
X0285665Y0065931D01*
X0285763Y0065811D01*
X0285857Y0065688D01*
X0285948Y0065564D01*
X0286036Y0065436D01*
X0286121Y0065307D01*
X0286202Y0065176D01*
X0286280Y0065042D01*
X0286354Y0064907D01*
X0286425Y0064770D01*
X0286492Y0064630D01*
X0286556Y0064490D01*
X0286616Y0064347D01*
X0286672Y0064204D01*
X0286725Y0064058D01*
X0286774Y0063912D01*
X0286819Y0063764D01*
X0286860Y0063615D01*
X0286898Y0063465D01*
X0286931Y0063314D01*
X0286961Y0063163D01*
X0286987Y0063010D01*
X0287008Y0062857D01*
X0287026Y0062704D01*
X0287040Y0062550D01*
X0287050Y0062396D01*
X0287056Y0062241D01*
X0287058Y0062087D01*
X0287056Y0061933D01*
X0287050Y0061778D01*
X0287040Y0061624D01*
X0287026Y0061470D01*
X0287008Y0061317D01*
X0286987Y0061164D01*
X0286961Y0061011D01*
X0286931Y0060860D01*
X0286898Y0060709D01*
X0286860Y0060559D01*
X0286819Y0060410D01*
X0286774Y0060262D01*
X0286725Y0060116D01*
X0286672Y0059970D01*
X0286616Y0059827D01*
X0286556Y0059684D01*
X0286492Y0059544D01*
X0286425Y0059404D01*
X0286354Y0059267D01*
X0286280Y0059132D01*
X0286202Y0058998D01*
X0286121Y0058867D01*
X0286036Y0058738D01*
X0285948Y0058610D01*
X0285857Y0058486D01*
X0285763Y0058363D01*
X0285665Y0058243D01*
X0285565Y0058126D01*
X0285461Y0058011D01*
X0285355Y0057899D01*
X0285246Y0057790D01*
X0285134Y0057684D01*
X0285019Y0057580D01*
X0284902Y0057480D01*
X0284782Y0057382D01*
X0284659Y0057288D01*
X0284535Y0057197D01*
X0284407Y0057109D01*
X0284278Y0057024D01*
X0284147Y0056943D01*
X0284013Y0056865D01*
X0283878Y0056791D01*
X0283741Y0056720D01*
X0283601Y0056653D01*
X0283461Y0056589D01*
X0283318Y0056529D01*
X0283175Y0056473D01*
X0283029Y0056420D01*
X0282883Y0056371D01*
X0282735Y0056326D01*
X0282586Y0056285D01*
X0282436Y0056247D01*
X0282285Y0056214D01*
X0282134Y0056184D01*
X0281981Y0056158D01*
X0281828Y0056137D01*
X0281675Y0056119D01*
X0281521Y0056105D01*
X0281367Y0056095D01*
X0281212Y0056089D01*
X0281058Y0056087D01*
X0280904Y0056089D01*
X0280749Y0056095D01*
X0280595Y0056105D01*
X0280441Y0056119D01*
X0280288Y0056137D01*
X0280135Y0056158D01*
X0279982Y0056184D01*
X0279831Y0056214D01*
X0279680Y0056247D01*
X0279530Y0056285D01*
X0279381Y0056326D01*
X0279233Y0056371D01*
X0279087Y0056420D01*
X0278941Y0056473D01*
X0278798Y0056529D01*
X0278655Y0056589D01*
X0278515Y0056653D01*
X0278375Y0056720D01*
X0278238Y0056791D01*
X0278103Y0056865D01*
X0277969Y0056943D01*
X0277838Y0057024D01*
X0277709Y0057109D01*
X0277581Y0057197D01*
X0277457Y0057288D01*
X0277334Y0057382D01*
X0277214Y0057480D01*
X0277097Y0057580D01*
X0276982Y0057684D01*
X0276870Y0057790D01*
X0276761Y0057899D01*
X0276655Y0058011D01*
X0276551Y0058126D01*
X0276451Y0058243D01*
X0276353Y0058363D01*
X0276259Y0058486D01*
X0276168Y0058610D01*
X0276080Y0058738D01*
X0275995Y0058867D01*
X0275914Y0058998D01*
X0275836Y0059132D01*
X0275762Y0059267D01*
X0275691Y0059404D01*
X0275624Y0059544D01*
X0275560Y0059684D01*
X0275500Y0059827D01*
X0275444Y0059970D01*
X0275391Y0060116D01*
X0275342Y0060262D01*
X0275297Y0060410D01*
X0275256Y0060559D01*
X0275218Y0060709D01*
X0275185Y0060860D01*
X0275155Y0061011D01*
X0275129Y0061164D01*
X0275108Y0061317D01*
X0275090Y0061470D01*
X0275076Y0061624D01*
X0275066Y0061778D01*
X0275060Y0061933D01*
X0275058Y0062087D01*
X0300940Y0066024D02*
X0300942Y0066108D01*
X0300948Y0066191D01*
X0300958Y0066274D01*
X0300972Y0066357D01*
X0300989Y0066439D01*
X0301011Y0066520D01*
X0301036Y0066599D01*
X0301065Y0066678D01*
X0301098Y0066755D01*
X0301134Y0066830D01*
X0301174Y0066904D01*
X0301217Y0066976D01*
X0301264Y0067045D01*
X0301314Y0067112D01*
X0301367Y0067177D01*
X0301423Y0067239D01*
X0301481Y0067299D01*
X0301543Y0067356D01*
X0301607Y0067409D01*
X0301674Y0067460D01*
X0301743Y0067507D01*
X0301814Y0067552D01*
X0301887Y0067592D01*
X0301962Y0067629D01*
X0302039Y0067663D01*
X0302117Y0067693D01*
X0302196Y0067719D01*
X0302277Y0067742D01*
X0302359Y0067760D01*
X0302441Y0067775D01*
X0302524Y0067786D01*
X0302607Y0067793D01*
X0302691Y0067796D01*
X0302775Y0067795D01*
X0302858Y0067790D01*
X0302942Y0067781D01*
X0303024Y0067768D01*
X0303106Y0067752D01*
X0303187Y0067731D01*
X0303268Y0067707D01*
X0303346Y0067679D01*
X0303424Y0067647D01*
X0303500Y0067611D01*
X0303574Y0067572D01*
X0303646Y0067530D01*
X0303716Y0067484D01*
X0303784Y0067435D01*
X0303849Y0067383D01*
X0303912Y0067328D01*
X0303972Y0067270D01*
X0304030Y0067209D01*
X0304084Y0067145D01*
X0304136Y0067079D01*
X0304184Y0067011D01*
X0304229Y0066940D01*
X0304270Y0066867D01*
X0304309Y0066793D01*
X0304343Y0066717D01*
X0304374Y0066639D01*
X0304401Y0066560D01*
X0304425Y0066479D01*
X0304444Y0066398D01*
X0304460Y0066316D01*
X0304472Y0066233D01*
X0304480Y0066149D01*
X0304484Y0066066D01*
X0304484Y0065982D01*
X0304480Y0065899D01*
X0304472Y0065815D01*
X0304460Y0065732D01*
X0304444Y0065650D01*
X0304425Y0065569D01*
X0304401Y0065488D01*
X0304374Y0065409D01*
X0304343Y0065331D01*
X0304309Y0065255D01*
X0304270Y0065181D01*
X0304229Y0065108D01*
X0304184Y0065037D01*
X0304136Y0064969D01*
X0304084Y0064903D01*
X0304030Y0064839D01*
X0303972Y0064778D01*
X0303912Y0064720D01*
X0303849Y0064665D01*
X0303784Y0064613D01*
X0303716Y0064564D01*
X0303646Y0064518D01*
X0303574Y0064476D01*
X0303500Y0064437D01*
X0303424Y0064401D01*
X0303346Y0064369D01*
X0303268Y0064341D01*
X0303187Y0064317D01*
X0303106Y0064296D01*
X0303024Y0064280D01*
X0302942Y0064267D01*
X0302858Y0064258D01*
X0302775Y0064253D01*
X0302691Y0064252D01*
X0302607Y0064255D01*
X0302524Y0064262D01*
X0302441Y0064273D01*
X0302359Y0064288D01*
X0302277Y0064306D01*
X0302196Y0064329D01*
X0302117Y0064355D01*
X0302039Y0064385D01*
X0301962Y0064419D01*
X0301887Y0064456D01*
X0301814Y0064496D01*
X0301743Y0064541D01*
X0301674Y0064588D01*
X0301607Y0064639D01*
X0301543Y0064692D01*
X0301481Y0064749D01*
X0301423Y0064809D01*
X0301367Y0064871D01*
X0301314Y0064936D01*
X0301264Y0065003D01*
X0301217Y0065072D01*
X0301174Y0065144D01*
X0301134Y0065218D01*
X0301098Y0065293D01*
X0301065Y0065370D01*
X0301036Y0065449D01*
X0301011Y0065528D01*
X0300989Y0065609D01*
X0300972Y0065691D01*
X0300958Y0065774D01*
X0300948Y0065857D01*
X0300942Y0065940D01*
X0300940Y0066024D01*
X0343191Y0106746D02*
X0343193Y0106823D01*
X0343199Y0106899D01*
X0343209Y0106975D01*
X0343223Y0107050D01*
X0343240Y0107125D01*
X0343262Y0107198D01*
X0343287Y0107271D01*
X0343317Y0107342D01*
X0343349Y0107411D01*
X0343386Y0107478D01*
X0343425Y0107544D01*
X0343468Y0107607D01*
X0343515Y0107668D01*
X0343564Y0107727D01*
X0343617Y0107783D01*
X0343672Y0107836D01*
X0343730Y0107886D01*
X0343790Y0107933D01*
X0343853Y0107977D01*
X0343918Y0108018D01*
X0343985Y0108055D01*
X0344054Y0108089D01*
X0344124Y0108119D01*
X0344196Y0108145D01*
X0344270Y0108167D01*
X0344344Y0108186D01*
X0344419Y0108201D01*
X0344495Y0108212D01*
X0344571Y0108219D01*
X0344648Y0108222D01*
X0344724Y0108221D01*
X0344801Y0108216D01*
X0344877Y0108207D01*
X0344953Y0108194D01*
X0345027Y0108177D01*
X0345101Y0108157D01*
X0345174Y0108132D01*
X0345245Y0108104D01*
X0345315Y0108072D01*
X0345383Y0108037D01*
X0345449Y0107998D01*
X0345513Y0107956D01*
X0345574Y0107910D01*
X0345634Y0107861D01*
X0345690Y0107810D01*
X0345744Y0107755D01*
X0345795Y0107698D01*
X0345843Y0107638D01*
X0345888Y0107576D01*
X0345929Y0107511D01*
X0345967Y0107445D01*
X0346002Y0107377D01*
X0346032Y0107306D01*
X0346060Y0107235D01*
X0346083Y0107162D01*
X0346103Y0107088D01*
X0346119Y0107013D01*
X0346131Y0106937D01*
X0346139Y0106861D01*
X0346143Y0106784D01*
X0346143Y0106708D01*
X0346139Y0106631D01*
X0346131Y0106555D01*
X0346119Y0106479D01*
X0346103Y0106404D01*
X0346083Y0106330D01*
X0346060Y0106257D01*
X0346032Y0106186D01*
X0346002Y0106115D01*
X0345967Y0106047D01*
X0345929Y0105981D01*
X0345888Y0105916D01*
X0345843Y0105854D01*
X0345795Y0105794D01*
X0345744Y0105737D01*
X0345690Y0105682D01*
X0345634Y0105631D01*
X0345574Y0105582D01*
X0345513Y0105536D01*
X0345449Y0105494D01*
X0345383Y0105455D01*
X0345315Y0105420D01*
X0345245Y0105388D01*
X0345174Y0105360D01*
X0345101Y0105335D01*
X0345027Y0105315D01*
X0344953Y0105298D01*
X0344877Y0105285D01*
X0344801Y0105276D01*
X0344724Y0105271D01*
X0344648Y0105270D01*
X0344571Y0105273D01*
X0344495Y0105280D01*
X0344419Y0105291D01*
X0344344Y0105306D01*
X0344270Y0105325D01*
X0344196Y0105347D01*
X0344124Y0105373D01*
X0344054Y0105403D01*
X0343985Y0105437D01*
X0343918Y0105474D01*
X0343853Y0105515D01*
X0343790Y0105559D01*
X0343730Y0105606D01*
X0343672Y0105656D01*
X0343617Y0105709D01*
X0343564Y0105765D01*
X0343515Y0105824D01*
X0343468Y0105885D01*
X0343425Y0105948D01*
X0343386Y0106014D01*
X0343349Y0106081D01*
X0343317Y0106150D01*
X0343287Y0106221D01*
X0343262Y0106294D01*
X0343240Y0106367D01*
X0343223Y0106442D01*
X0343209Y0106517D01*
X0343199Y0106593D01*
X0343193Y0106669D01*
X0343191Y0106746D01*
X0353178Y0096167D02*
X0353180Y0096258D01*
X0353186Y0096348D01*
X0353196Y0096439D01*
X0353210Y0096528D01*
X0353228Y0096617D01*
X0353249Y0096706D01*
X0353275Y0096793D01*
X0353304Y0096879D01*
X0353338Y0096963D01*
X0353374Y0097046D01*
X0353415Y0097128D01*
X0353459Y0097207D01*
X0353506Y0097285D01*
X0353557Y0097360D01*
X0353611Y0097433D01*
X0353668Y0097503D01*
X0353728Y0097571D01*
X0353791Y0097637D01*
X0353857Y0097699D01*
X0353926Y0097758D01*
X0353997Y0097815D01*
X0354071Y0097868D01*
X0354147Y0097918D01*
X0354225Y0097965D01*
X0354305Y0098008D01*
X0354386Y0098047D01*
X0354470Y0098083D01*
X0354555Y0098115D01*
X0354641Y0098144D01*
X0354728Y0098168D01*
X0354817Y0098189D01*
X0354906Y0098206D01*
X0354996Y0098219D01*
X0355086Y0098228D01*
X0355177Y0098233D01*
X0355268Y0098234D01*
X0355358Y0098231D01*
X0355449Y0098224D01*
X0355539Y0098213D01*
X0355629Y0098198D01*
X0355718Y0098179D01*
X0355806Y0098157D01*
X0355892Y0098130D01*
X0355978Y0098100D01*
X0356062Y0098066D01*
X0356145Y0098028D01*
X0356226Y0097987D01*
X0356305Y0097942D01*
X0356382Y0097893D01*
X0356456Y0097842D01*
X0356529Y0097787D01*
X0356599Y0097729D01*
X0356666Y0097668D01*
X0356730Y0097604D01*
X0356792Y0097538D01*
X0356851Y0097468D01*
X0356906Y0097397D01*
X0356959Y0097322D01*
X0357008Y0097246D01*
X0357054Y0097168D01*
X0357096Y0097087D01*
X0357135Y0097005D01*
X0357170Y0096921D01*
X0357201Y0096836D01*
X0357228Y0096749D01*
X0357252Y0096662D01*
X0357272Y0096573D01*
X0357288Y0096484D01*
X0357300Y0096394D01*
X0357308Y0096303D01*
X0357312Y0096212D01*
X0357312Y0096122D01*
X0357308Y0096031D01*
X0357300Y0095940D01*
X0357288Y0095850D01*
X0357272Y0095761D01*
X0357252Y0095672D01*
X0357228Y0095585D01*
X0357201Y0095498D01*
X0357170Y0095413D01*
X0357135Y0095329D01*
X0357096Y0095247D01*
X0357054Y0095166D01*
X0357008Y0095088D01*
X0356959Y0095012D01*
X0356906Y0094937D01*
X0356851Y0094866D01*
X0356792Y0094796D01*
X0356730Y0094730D01*
X0356666Y0094666D01*
X0356599Y0094605D01*
X0356529Y0094547D01*
X0356456Y0094492D01*
X0356382Y0094441D01*
X0356305Y0094392D01*
X0356226Y0094347D01*
X0356145Y0094306D01*
X0356062Y0094268D01*
X0355978Y0094234D01*
X0355892Y0094204D01*
X0355806Y0094177D01*
X0355718Y0094155D01*
X0355629Y0094136D01*
X0355539Y0094121D01*
X0355449Y0094110D01*
X0355358Y0094103D01*
X0355268Y0094100D01*
X0355177Y0094101D01*
X0355086Y0094106D01*
X0354996Y0094115D01*
X0354906Y0094128D01*
X0354817Y0094145D01*
X0354728Y0094166D01*
X0354641Y0094190D01*
X0354555Y0094219D01*
X0354470Y0094251D01*
X0354386Y0094287D01*
X0354305Y0094326D01*
X0354225Y0094369D01*
X0354147Y0094416D01*
X0354071Y0094466D01*
X0353997Y0094519D01*
X0353926Y0094576D01*
X0353857Y0094635D01*
X0353791Y0094697D01*
X0353728Y0094763D01*
X0353668Y0094831D01*
X0353611Y0094901D01*
X0353557Y0094974D01*
X0353506Y0095049D01*
X0353459Y0095127D01*
X0353415Y0095206D01*
X0353374Y0095288D01*
X0353338Y0095371D01*
X0353304Y0095455D01*
X0353275Y0095541D01*
X0353249Y0095628D01*
X0353228Y0095717D01*
X0353210Y0095806D01*
X0353196Y0095895D01*
X0353186Y0095986D01*
X0353180Y0096076D01*
X0353178Y0096167D01*
X0259877Y0249803D02*
X0259879Y0249892D01*
X0259885Y0249982D01*
X0259895Y0250071D01*
X0259909Y0250159D01*
X0259927Y0250247D01*
X0259948Y0250334D01*
X0259974Y0250419D01*
X0260003Y0250504D01*
X0260036Y0250587D01*
X0260073Y0250668D01*
X0260113Y0250748D01*
X0260157Y0250826D01*
X0260205Y0250902D01*
X0260255Y0250976D01*
X0260309Y0251047D01*
X0260366Y0251116D01*
X0260426Y0251183D01*
X0260489Y0251246D01*
X0260555Y0251307D01*
X0260623Y0251365D01*
X0260694Y0251420D01*
X0260767Y0251471D01*
X0260843Y0251519D01*
X0260920Y0251564D01*
X0260999Y0251605D01*
X0261081Y0251643D01*
X0261163Y0251677D01*
X0261247Y0251707D01*
X0261333Y0251734D01*
X0261420Y0251756D01*
X0261507Y0251775D01*
X0261595Y0251790D01*
X0261684Y0251801D01*
X0261773Y0251808D01*
X0261863Y0251811D01*
X0261952Y0251810D01*
X0262041Y0251805D01*
X0262130Y0251796D01*
X0262219Y0251783D01*
X0262307Y0251766D01*
X0262394Y0251745D01*
X0262480Y0251721D01*
X0262565Y0251692D01*
X0262648Y0251660D01*
X0262730Y0251624D01*
X0262811Y0251585D01*
X0262889Y0251542D01*
X0262965Y0251496D01*
X0263040Y0251446D01*
X0263112Y0251393D01*
X0263181Y0251336D01*
X0263248Y0251277D01*
X0263313Y0251215D01*
X0263374Y0251150D01*
X0263433Y0251082D01*
X0263488Y0251012D01*
X0263540Y0250939D01*
X0263589Y0250865D01*
X0263635Y0250788D01*
X0263677Y0250709D01*
X0263716Y0250628D01*
X0263751Y0250546D01*
X0263782Y0250462D01*
X0263809Y0250377D01*
X0263833Y0250290D01*
X0263853Y0250203D01*
X0263869Y0250115D01*
X0263881Y0250026D01*
X0263889Y0249937D01*
X0263893Y0249848D01*
X0263893Y0249758D01*
X0263889Y0249669D01*
X0263881Y0249580D01*
X0263869Y0249491D01*
X0263853Y0249403D01*
X0263833Y0249316D01*
X0263809Y0249229D01*
X0263782Y0249144D01*
X0263751Y0249060D01*
X0263716Y0248978D01*
X0263677Y0248897D01*
X0263635Y0248818D01*
X0263589Y0248741D01*
X0263540Y0248667D01*
X0263488Y0248594D01*
X0263433Y0248524D01*
X0263374Y0248456D01*
X0263313Y0248391D01*
X0263248Y0248329D01*
X0263181Y0248270D01*
X0263112Y0248213D01*
X0263040Y0248160D01*
X0262965Y0248110D01*
X0262889Y0248064D01*
X0262811Y0248021D01*
X0262730Y0247982D01*
X0262648Y0247946D01*
X0262565Y0247914D01*
X0262480Y0247885D01*
X0262394Y0247861D01*
X0262307Y0247840D01*
X0262219Y0247823D01*
X0262130Y0247810D01*
X0262041Y0247801D01*
X0261952Y0247796D01*
X0261863Y0247795D01*
X0261773Y0247798D01*
X0261684Y0247805D01*
X0261595Y0247816D01*
X0261507Y0247831D01*
X0261420Y0247850D01*
X0261333Y0247872D01*
X0261247Y0247899D01*
X0261163Y0247929D01*
X0261081Y0247963D01*
X0260999Y0248001D01*
X0260920Y0248042D01*
X0260843Y0248087D01*
X0260767Y0248135D01*
X0260694Y0248186D01*
X0260623Y0248241D01*
X0260555Y0248299D01*
X0260489Y0248360D01*
X0260426Y0248423D01*
X0260366Y0248490D01*
X0260309Y0248559D01*
X0260255Y0248630D01*
X0260205Y0248704D01*
X0260157Y0248780D01*
X0260113Y0248858D01*
X0260073Y0248938D01*
X0260036Y0249019D01*
X0260003Y0249102D01*
X0259974Y0249187D01*
X0259948Y0249272D01*
X0259927Y0249359D01*
X0259909Y0249447D01*
X0259895Y0249535D01*
X0259885Y0249624D01*
X0259879Y0249714D01*
X0259877Y0249803D01*
X0253342Y0254803D02*
X0253344Y0254921D01*
X0253350Y0255040D01*
X0253360Y0255158D01*
X0253374Y0255275D01*
X0253391Y0255392D01*
X0253413Y0255509D01*
X0253439Y0255624D01*
X0253468Y0255739D01*
X0253501Y0255853D01*
X0253538Y0255965D01*
X0253579Y0256076D01*
X0253623Y0256186D01*
X0253671Y0256294D01*
X0253723Y0256401D01*
X0253778Y0256506D01*
X0253837Y0256609D01*
X0253899Y0256709D01*
X0253964Y0256808D01*
X0254033Y0256905D01*
X0254104Y0256999D01*
X0254179Y0257090D01*
X0254257Y0257180D01*
X0254338Y0257266D01*
X0254422Y0257350D01*
X0254508Y0257431D01*
X0254598Y0257509D01*
X0254689Y0257584D01*
X0254783Y0257655D01*
X0254880Y0257724D01*
X0254979Y0257789D01*
X0255079Y0257851D01*
X0255182Y0257910D01*
X0255287Y0257965D01*
X0255394Y0258017D01*
X0255502Y0258065D01*
X0255612Y0258109D01*
X0255723Y0258150D01*
X0255835Y0258187D01*
X0255949Y0258220D01*
X0256064Y0258249D01*
X0256179Y0258275D01*
X0256296Y0258297D01*
X0256413Y0258314D01*
X0256530Y0258328D01*
X0256648Y0258338D01*
X0256767Y0258344D01*
X0256885Y0258346D01*
X0257003Y0258344D01*
X0257122Y0258338D01*
X0257240Y0258328D01*
X0257357Y0258314D01*
X0257474Y0258297D01*
X0257591Y0258275D01*
X0257706Y0258249D01*
X0257821Y0258220D01*
X0257935Y0258187D01*
X0258047Y0258150D01*
X0258158Y0258109D01*
X0258268Y0258065D01*
X0258376Y0258017D01*
X0258483Y0257965D01*
X0258588Y0257910D01*
X0258691Y0257851D01*
X0258791Y0257789D01*
X0258890Y0257724D01*
X0258987Y0257655D01*
X0259081Y0257584D01*
X0259172Y0257509D01*
X0259262Y0257431D01*
X0259348Y0257350D01*
X0259432Y0257266D01*
X0259513Y0257180D01*
X0259591Y0257090D01*
X0259666Y0256999D01*
X0259737Y0256905D01*
X0259806Y0256808D01*
X0259871Y0256709D01*
X0259933Y0256609D01*
X0259992Y0256506D01*
X0260047Y0256401D01*
X0260099Y0256294D01*
X0260147Y0256186D01*
X0260191Y0256076D01*
X0260232Y0255965D01*
X0260269Y0255853D01*
X0260302Y0255739D01*
X0260331Y0255624D01*
X0260357Y0255509D01*
X0260379Y0255392D01*
X0260396Y0255275D01*
X0260410Y0255158D01*
X0260420Y0255040D01*
X0260426Y0254921D01*
X0260428Y0254803D01*
X0260426Y0254685D01*
X0260420Y0254566D01*
X0260410Y0254448D01*
X0260396Y0254331D01*
X0260379Y0254214D01*
X0260357Y0254097D01*
X0260331Y0253982D01*
X0260302Y0253867D01*
X0260269Y0253753D01*
X0260232Y0253641D01*
X0260191Y0253530D01*
X0260147Y0253420D01*
X0260099Y0253312D01*
X0260047Y0253205D01*
X0259992Y0253100D01*
X0259933Y0252997D01*
X0259871Y0252897D01*
X0259806Y0252798D01*
X0259737Y0252701D01*
X0259666Y0252607D01*
X0259591Y0252516D01*
X0259513Y0252426D01*
X0259432Y0252340D01*
X0259348Y0252256D01*
X0259262Y0252175D01*
X0259172Y0252097D01*
X0259081Y0252022D01*
X0258987Y0251951D01*
X0258890Y0251882D01*
X0258791Y0251817D01*
X0258691Y0251755D01*
X0258588Y0251696D01*
X0258483Y0251641D01*
X0258376Y0251589D01*
X0258268Y0251541D01*
X0258158Y0251497D01*
X0258047Y0251456D01*
X0257935Y0251419D01*
X0257821Y0251386D01*
X0257706Y0251357D01*
X0257591Y0251331D01*
X0257474Y0251309D01*
X0257357Y0251292D01*
X0257240Y0251278D01*
X0257122Y0251268D01*
X0257003Y0251262D01*
X0256885Y0251260D01*
X0256767Y0251262D01*
X0256648Y0251268D01*
X0256530Y0251278D01*
X0256413Y0251292D01*
X0256296Y0251309D01*
X0256179Y0251331D01*
X0256064Y0251357D01*
X0255949Y0251386D01*
X0255835Y0251419D01*
X0255723Y0251456D01*
X0255612Y0251497D01*
X0255502Y0251541D01*
X0255394Y0251589D01*
X0255287Y0251641D01*
X0255182Y0251696D01*
X0255079Y0251755D01*
X0254979Y0251817D01*
X0254880Y0251882D01*
X0254783Y0251951D01*
X0254689Y0252022D01*
X0254598Y0252097D01*
X0254508Y0252175D01*
X0254422Y0252256D01*
X0254338Y0252340D01*
X0254257Y0252426D01*
X0254179Y0252516D01*
X0254104Y0252607D01*
X0254033Y0252701D01*
X0253964Y0252798D01*
X0253899Y0252897D01*
X0253837Y0252997D01*
X0253778Y0253100D01*
X0253723Y0253205D01*
X0253671Y0253312D01*
X0253623Y0253420D01*
X0253579Y0253530D01*
X0253538Y0253641D01*
X0253501Y0253753D01*
X0253468Y0253867D01*
X0253439Y0253982D01*
X0253413Y0254097D01*
X0253391Y0254214D01*
X0253374Y0254331D01*
X0253360Y0254448D01*
X0253350Y0254566D01*
X0253344Y0254685D01*
X0253342Y0254803D01*
X0249877Y0249803D02*
X0249879Y0249892D01*
X0249885Y0249982D01*
X0249895Y0250071D01*
X0249909Y0250159D01*
X0249927Y0250247D01*
X0249948Y0250334D01*
X0249974Y0250419D01*
X0250003Y0250504D01*
X0250036Y0250587D01*
X0250073Y0250668D01*
X0250113Y0250748D01*
X0250157Y0250826D01*
X0250205Y0250902D01*
X0250255Y0250976D01*
X0250309Y0251047D01*
X0250366Y0251116D01*
X0250426Y0251183D01*
X0250489Y0251246D01*
X0250555Y0251307D01*
X0250623Y0251365D01*
X0250694Y0251420D01*
X0250767Y0251471D01*
X0250843Y0251519D01*
X0250920Y0251564D01*
X0250999Y0251605D01*
X0251081Y0251643D01*
X0251163Y0251677D01*
X0251247Y0251707D01*
X0251333Y0251734D01*
X0251420Y0251756D01*
X0251507Y0251775D01*
X0251595Y0251790D01*
X0251684Y0251801D01*
X0251773Y0251808D01*
X0251863Y0251811D01*
X0251952Y0251810D01*
X0252041Y0251805D01*
X0252130Y0251796D01*
X0252219Y0251783D01*
X0252307Y0251766D01*
X0252394Y0251745D01*
X0252480Y0251721D01*
X0252565Y0251692D01*
X0252648Y0251660D01*
X0252730Y0251624D01*
X0252811Y0251585D01*
X0252889Y0251542D01*
X0252965Y0251496D01*
X0253040Y0251446D01*
X0253112Y0251393D01*
X0253181Y0251336D01*
X0253248Y0251277D01*
X0253313Y0251215D01*
X0253374Y0251150D01*
X0253433Y0251082D01*
X0253488Y0251012D01*
X0253540Y0250939D01*
X0253589Y0250865D01*
X0253635Y0250788D01*
X0253677Y0250709D01*
X0253716Y0250628D01*
X0253751Y0250546D01*
X0253782Y0250462D01*
X0253809Y0250377D01*
X0253833Y0250290D01*
X0253853Y0250203D01*
X0253869Y0250115D01*
X0253881Y0250026D01*
X0253889Y0249937D01*
X0253893Y0249848D01*
X0253893Y0249758D01*
X0253889Y0249669D01*
X0253881Y0249580D01*
X0253869Y0249491D01*
X0253853Y0249403D01*
X0253833Y0249316D01*
X0253809Y0249229D01*
X0253782Y0249144D01*
X0253751Y0249060D01*
X0253716Y0248978D01*
X0253677Y0248897D01*
X0253635Y0248818D01*
X0253589Y0248741D01*
X0253540Y0248667D01*
X0253488Y0248594D01*
X0253433Y0248524D01*
X0253374Y0248456D01*
X0253313Y0248391D01*
X0253248Y0248329D01*
X0253181Y0248270D01*
X0253112Y0248213D01*
X0253040Y0248160D01*
X0252965Y0248110D01*
X0252889Y0248064D01*
X0252811Y0248021D01*
X0252730Y0247982D01*
X0252648Y0247946D01*
X0252565Y0247914D01*
X0252480Y0247885D01*
X0252394Y0247861D01*
X0252307Y0247840D01*
X0252219Y0247823D01*
X0252130Y0247810D01*
X0252041Y0247801D01*
X0251952Y0247796D01*
X0251863Y0247795D01*
X0251773Y0247798D01*
X0251684Y0247805D01*
X0251595Y0247816D01*
X0251507Y0247831D01*
X0251420Y0247850D01*
X0251333Y0247872D01*
X0251247Y0247899D01*
X0251163Y0247929D01*
X0251081Y0247963D01*
X0250999Y0248001D01*
X0250920Y0248042D01*
X0250843Y0248087D01*
X0250767Y0248135D01*
X0250694Y0248186D01*
X0250623Y0248241D01*
X0250555Y0248299D01*
X0250489Y0248360D01*
X0250426Y0248423D01*
X0250366Y0248490D01*
X0250309Y0248559D01*
X0250255Y0248630D01*
X0250205Y0248704D01*
X0250157Y0248780D01*
X0250113Y0248858D01*
X0250073Y0248938D01*
X0250036Y0249019D01*
X0250003Y0249102D01*
X0249974Y0249187D01*
X0249948Y0249272D01*
X0249927Y0249359D01*
X0249909Y0249447D01*
X0249895Y0249535D01*
X0249885Y0249624D01*
X0249879Y0249714D01*
X0249877Y0249803D01*
X0239877Y0249803D02*
X0239879Y0249892D01*
X0239885Y0249982D01*
X0239895Y0250071D01*
X0239909Y0250159D01*
X0239927Y0250247D01*
X0239948Y0250334D01*
X0239974Y0250419D01*
X0240003Y0250504D01*
X0240036Y0250587D01*
X0240073Y0250668D01*
X0240113Y0250748D01*
X0240157Y0250826D01*
X0240205Y0250902D01*
X0240255Y0250976D01*
X0240309Y0251047D01*
X0240366Y0251116D01*
X0240426Y0251183D01*
X0240489Y0251246D01*
X0240555Y0251307D01*
X0240623Y0251365D01*
X0240694Y0251420D01*
X0240767Y0251471D01*
X0240843Y0251519D01*
X0240920Y0251564D01*
X0240999Y0251605D01*
X0241081Y0251643D01*
X0241163Y0251677D01*
X0241247Y0251707D01*
X0241333Y0251734D01*
X0241420Y0251756D01*
X0241507Y0251775D01*
X0241595Y0251790D01*
X0241684Y0251801D01*
X0241773Y0251808D01*
X0241863Y0251811D01*
X0241952Y0251810D01*
X0242041Y0251805D01*
X0242130Y0251796D01*
X0242219Y0251783D01*
X0242307Y0251766D01*
X0242394Y0251745D01*
X0242480Y0251721D01*
X0242565Y0251692D01*
X0242648Y0251660D01*
X0242730Y0251624D01*
X0242811Y0251585D01*
X0242889Y0251542D01*
X0242965Y0251496D01*
X0243040Y0251446D01*
X0243112Y0251393D01*
X0243181Y0251336D01*
X0243248Y0251277D01*
X0243313Y0251215D01*
X0243374Y0251150D01*
X0243433Y0251082D01*
X0243488Y0251012D01*
X0243540Y0250939D01*
X0243589Y0250865D01*
X0243635Y0250788D01*
X0243677Y0250709D01*
X0243716Y0250628D01*
X0243751Y0250546D01*
X0243782Y0250462D01*
X0243809Y0250377D01*
X0243833Y0250290D01*
X0243853Y0250203D01*
X0243869Y0250115D01*
X0243881Y0250026D01*
X0243889Y0249937D01*
X0243893Y0249848D01*
X0243893Y0249758D01*
X0243889Y0249669D01*
X0243881Y0249580D01*
X0243869Y0249491D01*
X0243853Y0249403D01*
X0243833Y0249316D01*
X0243809Y0249229D01*
X0243782Y0249144D01*
X0243751Y0249060D01*
X0243716Y0248978D01*
X0243677Y0248897D01*
X0243635Y0248818D01*
X0243589Y0248741D01*
X0243540Y0248667D01*
X0243488Y0248594D01*
X0243433Y0248524D01*
X0243374Y0248456D01*
X0243313Y0248391D01*
X0243248Y0248329D01*
X0243181Y0248270D01*
X0243112Y0248213D01*
X0243040Y0248160D01*
X0242965Y0248110D01*
X0242889Y0248064D01*
X0242811Y0248021D01*
X0242730Y0247982D01*
X0242648Y0247946D01*
X0242565Y0247914D01*
X0242480Y0247885D01*
X0242394Y0247861D01*
X0242307Y0247840D01*
X0242219Y0247823D01*
X0242130Y0247810D01*
X0242041Y0247801D01*
X0241952Y0247796D01*
X0241863Y0247795D01*
X0241773Y0247798D01*
X0241684Y0247805D01*
X0241595Y0247816D01*
X0241507Y0247831D01*
X0241420Y0247850D01*
X0241333Y0247872D01*
X0241247Y0247899D01*
X0241163Y0247929D01*
X0241081Y0247963D01*
X0240999Y0248001D01*
X0240920Y0248042D01*
X0240843Y0248087D01*
X0240767Y0248135D01*
X0240694Y0248186D01*
X0240623Y0248241D01*
X0240555Y0248299D01*
X0240489Y0248360D01*
X0240426Y0248423D01*
X0240366Y0248490D01*
X0240309Y0248559D01*
X0240255Y0248630D01*
X0240205Y0248704D01*
X0240157Y0248780D01*
X0240113Y0248858D01*
X0240073Y0248938D01*
X0240036Y0249019D01*
X0240003Y0249102D01*
X0239974Y0249187D01*
X0239948Y0249272D01*
X0239927Y0249359D01*
X0239909Y0249447D01*
X0239895Y0249535D01*
X0239885Y0249624D01*
X0239879Y0249714D01*
X0239877Y0249803D01*
X0229877Y0249803D02*
X0229879Y0249892D01*
X0229885Y0249982D01*
X0229895Y0250071D01*
X0229909Y0250159D01*
X0229927Y0250247D01*
X0229948Y0250334D01*
X0229974Y0250419D01*
X0230003Y0250504D01*
X0230036Y0250587D01*
X0230073Y0250668D01*
X0230113Y0250748D01*
X0230157Y0250826D01*
X0230205Y0250902D01*
X0230255Y0250976D01*
X0230309Y0251047D01*
X0230366Y0251116D01*
X0230426Y0251183D01*
X0230489Y0251246D01*
X0230555Y0251307D01*
X0230623Y0251365D01*
X0230694Y0251420D01*
X0230767Y0251471D01*
X0230843Y0251519D01*
X0230920Y0251564D01*
X0230999Y0251605D01*
X0231081Y0251643D01*
X0231163Y0251677D01*
X0231247Y0251707D01*
X0231333Y0251734D01*
X0231420Y0251756D01*
X0231507Y0251775D01*
X0231595Y0251790D01*
X0231684Y0251801D01*
X0231773Y0251808D01*
X0231863Y0251811D01*
X0231952Y0251810D01*
X0232041Y0251805D01*
X0232130Y0251796D01*
X0232219Y0251783D01*
X0232307Y0251766D01*
X0232394Y0251745D01*
X0232480Y0251721D01*
X0232565Y0251692D01*
X0232648Y0251660D01*
X0232730Y0251624D01*
X0232811Y0251585D01*
X0232889Y0251542D01*
X0232965Y0251496D01*
X0233040Y0251446D01*
X0233112Y0251393D01*
X0233181Y0251336D01*
X0233248Y0251277D01*
X0233313Y0251215D01*
X0233374Y0251150D01*
X0233433Y0251082D01*
X0233488Y0251012D01*
X0233540Y0250939D01*
X0233589Y0250865D01*
X0233635Y0250788D01*
X0233677Y0250709D01*
X0233716Y0250628D01*
X0233751Y0250546D01*
X0233782Y0250462D01*
X0233809Y0250377D01*
X0233833Y0250290D01*
X0233853Y0250203D01*
X0233869Y0250115D01*
X0233881Y0250026D01*
X0233889Y0249937D01*
X0233893Y0249848D01*
X0233893Y0249758D01*
X0233889Y0249669D01*
X0233881Y0249580D01*
X0233869Y0249491D01*
X0233853Y0249403D01*
X0233833Y0249316D01*
X0233809Y0249229D01*
X0233782Y0249144D01*
X0233751Y0249060D01*
X0233716Y0248978D01*
X0233677Y0248897D01*
X0233635Y0248818D01*
X0233589Y0248741D01*
X0233540Y0248667D01*
X0233488Y0248594D01*
X0233433Y0248524D01*
X0233374Y0248456D01*
X0233313Y0248391D01*
X0233248Y0248329D01*
X0233181Y0248270D01*
X0233112Y0248213D01*
X0233040Y0248160D01*
X0232965Y0248110D01*
X0232889Y0248064D01*
X0232811Y0248021D01*
X0232730Y0247982D01*
X0232648Y0247946D01*
X0232565Y0247914D01*
X0232480Y0247885D01*
X0232394Y0247861D01*
X0232307Y0247840D01*
X0232219Y0247823D01*
X0232130Y0247810D01*
X0232041Y0247801D01*
X0231952Y0247796D01*
X0231863Y0247795D01*
X0231773Y0247798D01*
X0231684Y0247805D01*
X0231595Y0247816D01*
X0231507Y0247831D01*
X0231420Y0247850D01*
X0231333Y0247872D01*
X0231247Y0247899D01*
X0231163Y0247929D01*
X0231081Y0247963D01*
X0230999Y0248001D01*
X0230920Y0248042D01*
X0230843Y0248087D01*
X0230767Y0248135D01*
X0230694Y0248186D01*
X0230623Y0248241D01*
X0230555Y0248299D01*
X0230489Y0248360D01*
X0230426Y0248423D01*
X0230366Y0248490D01*
X0230309Y0248559D01*
X0230255Y0248630D01*
X0230205Y0248704D01*
X0230157Y0248780D01*
X0230113Y0248858D01*
X0230073Y0248938D01*
X0230036Y0249019D01*
X0230003Y0249102D01*
X0229974Y0249187D01*
X0229948Y0249272D01*
X0229927Y0249359D01*
X0229909Y0249447D01*
X0229895Y0249535D01*
X0229885Y0249624D01*
X0229879Y0249714D01*
X0229877Y0249803D01*
X0219877Y0249803D02*
X0219879Y0249892D01*
X0219885Y0249982D01*
X0219895Y0250071D01*
X0219909Y0250159D01*
X0219927Y0250247D01*
X0219948Y0250334D01*
X0219974Y0250419D01*
X0220003Y0250504D01*
X0220036Y0250587D01*
X0220073Y0250668D01*
X0220113Y0250748D01*
X0220157Y0250826D01*
X0220205Y0250902D01*
X0220255Y0250976D01*
X0220309Y0251047D01*
X0220366Y0251116D01*
X0220426Y0251183D01*
X0220489Y0251246D01*
X0220555Y0251307D01*
X0220623Y0251365D01*
X0220694Y0251420D01*
X0220767Y0251471D01*
X0220843Y0251519D01*
X0220920Y0251564D01*
X0220999Y0251605D01*
X0221081Y0251643D01*
X0221163Y0251677D01*
X0221247Y0251707D01*
X0221333Y0251734D01*
X0221420Y0251756D01*
X0221507Y0251775D01*
X0221595Y0251790D01*
X0221684Y0251801D01*
X0221773Y0251808D01*
X0221863Y0251811D01*
X0221952Y0251810D01*
X0222041Y0251805D01*
X0222130Y0251796D01*
X0222219Y0251783D01*
X0222307Y0251766D01*
X0222394Y0251745D01*
X0222480Y0251721D01*
X0222565Y0251692D01*
X0222648Y0251660D01*
X0222730Y0251624D01*
X0222811Y0251585D01*
X0222889Y0251542D01*
X0222965Y0251496D01*
X0223040Y0251446D01*
X0223112Y0251393D01*
X0223181Y0251336D01*
X0223248Y0251277D01*
X0223313Y0251215D01*
X0223374Y0251150D01*
X0223433Y0251082D01*
X0223488Y0251012D01*
X0223540Y0250939D01*
X0223589Y0250865D01*
X0223635Y0250788D01*
X0223677Y0250709D01*
X0223716Y0250628D01*
X0223751Y0250546D01*
X0223782Y0250462D01*
X0223809Y0250377D01*
X0223833Y0250290D01*
X0223853Y0250203D01*
X0223869Y0250115D01*
X0223881Y0250026D01*
X0223889Y0249937D01*
X0223893Y0249848D01*
X0223893Y0249758D01*
X0223889Y0249669D01*
X0223881Y0249580D01*
X0223869Y0249491D01*
X0223853Y0249403D01*
X0223833Y0249316D01*
X0223809Y0249229D01*
X0223782Y0249144D01*
X0223751Y0249060D01*
X0223716Y0248978D01*
X0223677Y0248897D01*
X0223635Y0248818D01*
X0223589Y0248741D01*
X0223540Y0248667D01*
X0223488Y0248594D01*
X0223433Y0248524D01*
X0223374Y0248456D01*
X0223313Y0248391D01*
X0223248Y0248329D01*
X0223181Y0248270D01*
X0223112Y0248213D01*
X0223040Y0248160D01*
X0222965Y0248110D01*
X0222889Y0248064D01*
X0222811Y0248021D01*
X0222730Y0247982D01*
X0222648Y0247946D01*
X0222565Y0247914D01*
X0222480Y0247885D01*
X0222394Y0247861D01*
X0222307Y0247840D01*
X0222219Y0247823D01*
X0222130Y0247810D01*
X0222041Y0247801D01*
X0221952Y0247796D01*
X0221863Y0247795D01*
X0221773Y0247798D01*
X0221684Y0247805D01*
X0221595Y0247816D01*
X0221507Y0247831D01*
X0221420Y0247850D01*
X0221333Y0247872D01*
X0221247Y0247899D01*
X0221163Y0247929D01*
X0221081Y0247963D01*
X0220999Y0248001D01*
X0220920Y0248042D01*
X0220843Y0248087D01*
X0220767Y0248135D01*
X0220694Y0248186D01*
X0220623Y0248241D01*
X0220555Y0248299D01*
X0220489Y0248360D01*
X0220426Y0248423D01*
X0220366Y0248490D01*
X0220309Y0248559D01*
X0220255Y0248630D01*
X0220205Y0248704D01*
X0220157Y0248780D01*
X0220113Y0248858D01*
X0220073Y0248938D01*
X0220036Y0249019D01*
X0220003Y0249102D01*
X0219974Y0249187D01*
X0219948Y0249272D01*
X0219927Y0249359D01*
X0219909Y0249447D01*
X0219895Y0249535D01*
X0219885Y0249624D01*
X0219879Y0249714D01*
X0219877Y0249803D01*
X0209877Y0249803D02*
X0209879Y0249892D01*
X0209885Y0249982D01*
X0209895Y0250071D01*
X0209909Y0250159D01*
X0209927Y0250247D01*
X0209948Y0250334D01*
X0209974Y0250419D01*
X0210003Y0250504D01*
X0210036Y0250587D01*
X0210073Y0250668D01*
X0210113Y0250748D01*
X0210157Y0250826D01*
X0210205Y0250902D01*
X0210255Y0250976D01*
X0210309Y0251047D01*
X0210366Y0251116D01*
X0210426Y0251183D01*
X0210489Y0251246D01*
X0210555Y0251307D01*
X0210623Y0251365D01*
X0210694Y0251420D01*
X0210767Y0251471D01*
X0210843Y0251519D01*
X0210920Y0251564D01*
X0210999Y0251605D01*
X0211081Y0251643D01*
X0211163Y0251677D01*
X0211247Y0251707D01*
X0211333Y0251734D01*
X0211420Y0251756D01*
X0211507Y0251775D01*
X0211595Y0251790D01*
X0211684Y0251801D01*
X0211773Y0251808D01*
X0211863Y0251811D01*
X0211952Y0251810D01*
X0212041Y0251805D01*
X0212130Y0251796D01*
X0212219Y0251783D01*
X0212307Y0251766D01*
X0212394Y0251745D01*
X0212480Y0251721D01*
X0212565Y0251692D01*
X0212648Y0251660D01*
X0212730Y0251624D01*
X0212811Y0251585D01*
X0212889Y0251542D01*
X0212965Y0251496D01*
X0213040Y0251446D01*
X0213112Y0251393D01*
X0213181Y0251336D01*
X0213248Y0251277D01*
X0213313Y0251215D01*
X0213374Y0251150D01*
X0213433Y0251082D01*
X0213488Y0251012D01*
X0213540Y0250939D01*
X0213589Y0250865D01*
X0213635Y0250788D01*
X0213677Y0250709D01*
X0213716Y0250628D01*
X0213751Y0250546D01*
X0213782Y0250462D01*
X0213809Y0250377D01*
X0213833Y0250290D01*
X0213853Y0250203D01*
X0213869Y0250115D01*
X0213881Y0250026D01*
X0213889Y0249937D01*
X0213893Y0249848D01*
X0213893Y0249758D01*
X0213889Y0249669D01*
X0213881Y0249580D01*
X0213869Y0249491D01*
X0213853Y0249403D01*
X0213833Y0249316D01*
X0213809Y0249229D01*
X0213782Y0249144D01*
X0213751Y0249060D01*
X0213716Y0248978D01*
X0213677Y0248897D01*
X0213635Y0248818D01*
X0213589Y0248741D01*
X0213540Y0248667D01*
X0213488Y0248594D01*
X0213433Y0248524D01*
X0213374Y0248456D01*
X0213313Y0248391D01*
X0213248Y0248329D01*
X0213181Y0248270D01*
X0213112Y0248213D01*
X0213040Y0248160D01*
X0212965Y0248110D01*
X0212889Y0248064D01*
X0212811Y0248021D01*
X0212730Y0247982D01*
X0212648Y0247946D01*
X0212565Y0247914D01*
X0212480Y0247885D01*
X0212394Y0247861D01*
X0212307Y0247840D01*
X0212219Y0247823D01*
X0212130Y0247810D01*
X0212041Y0247801D01*
X0211952Y0247796D01*
X0211863Y0247795D01*
X0211773Y0247798D01*
X0211684Y0247805D01*
X0211595Y0247816D01*
X0211507Y0247831D01*
X0211420Y0247850D01*
X0211333Y0247872D01*
X0211247Y0247899D01*
X0211163Y0247929D01*
X0211081Y0247963D01*
X0210999Y0248001D01*
X0210920Y0248042D01*
X0210843Y0248087D01*
X0210767Y0248135D01*
X0210694Y0248186D01*
X0210623Y0248241D01*
X0210555Y0248299D01*
X0210489Y0248360D01*
X0210426Y0248423D01*
X0210366Y0248490D01*
X0210309Y0248559D01*
X0210255Y0248630D01*
X0210205Y0248704D01*
X0210157Y0248780D01*
X0210113Y0248858D01*
X0210073Y0248938D01*
X0210036Y0249019D01*
X0210003Y0249102D01*
X0209974Y0249187D01*
X0209948Y0249272D01*
X0209927Y0249359D01*
X0209909Y0249447D01*
X0209895Y0249535D01*
X0209885Y0249624D01*
X0209879Y0249714D01*
X0209877Y0249803D01*
X0199877Y0249803D02*
X0199879Y0249892D01*
X0199885Y0249982D01*
X0199895Y0250071D01*
X0199909Y0250159D01*
X0199927Y0250247D01*
X0199948Y0250334D01*
X0199974Y0250419D01*
X0200003Y0250504D01*
X0200036Y0250587D01*
X0200073Y0250668D01*
X0200113Y0250748D01*
X0200157Y0250826D01*
X0200205Y0250902D01*
X0200255Y0250976D01*
X0200309Y0251047D01*
X0200366Y0251116D01*
X0200426Y0251183D01*
X0200489Y0251246D01*
X0200555Y0251307D01*
X0200623Y0251365D01*
X0200694Y0251420D01*
X0200767Y0251471D01*
X0200843Y0251519D01*
X0200920Y0251564D01*
X0200999Y0251605D01*
X0201081Y0251643D01*
X0201163Y0251677D01*
X0201247Y0251707D01*
X0201333Y0251734D01*
X0201420Y0251756D01*
X0201507Y0251775D01*
X0201595Y0251790D01*
X0201684Y0251801D01*
X0201773Y0251808D01*
X0201863Y0251811D01*
X0201952Y0251810D01*
X0202041Y0251805D01*
X0202130Y0251796D01*
X0202219Y0251783D01*
X0202307Y0251766D01*
X0202394Y0251745D01*
X0202480Y0251721D01*
X0202565Y0251692D01*
X0202648Y0251660D01*
X0202730Y0251624D01*
X0202811Y0251585D01*
X0202889Y0251542D01*
X0202965Y0251496D01*
X0203040Y0251446D01*
X0203112Y0251393D01*
X0203181Y0251336D01*
X0203248Y0251277D01*
X0203313Y0251215D01*
X0203374Y0251150D01*
X0203433Y0251082D01*
X0203488Y0251012D01*
X0203540Y0250939D01*
X0203589Y0250865D01*
X0203635Y0250788D01*
X0203677Y0250709D01*
X0203716Y0250628D01*
X0203751Y0250546D01*
X0203782Y0250462D01*
X0203809Y0250377D01*
X0203833Y0250290D01*
X0203853Y0250203D01*
X0203869Y0250115D01*
X0203881Y0250026D01*
X0203889Y0249937D01*
X0203893Y0249848D01*
X0203893Y0249758D01*
X0203889Y0249669D01*
X0203881Y0249580D01*
X0203869Y0249491D01*
X0203853Y0249403D01*
X0203833Y0249316D01*
X0203809Y0249229D01*
X0203782Y0249144D01*
X0203751Y0249060D01*
X0203716Y0248978D01*
X0203677Y0248897D01*
X0203635Y0248818D01*
X0203589Y0248741D01*
X0203540Y0248667D01*
X0203488Y0248594D01*
X0203433Y0248524D01*
X0203374Y0248456D01*
X0203313Y0248391D01*
X0203248Y0248329D01*
X0203181Y0248270D01*
X0203112Y0248213D01*
X0203040Y0248160D01*
X0202965Y0248110D01*
X0202889Y0248064D01*
X0202811Y0248021D01*
X0202730Y0247982D01*
X0202648Y0247946D01*
X0202565Y0247914D01*
X0202480Y0247885D01*
X0202394Y0247861D01*
X0202307Y0247840D01*
X0202219Y0247823D01*
X0202130Y0247810D01*
X0202041Y0247801D01*
X0201952Y0247796D01*
X0201863Y0247795D01*
X0201773Y0247798D01*
X0201684Y0247805D01*
X0201595Y0247816D01*
X0201507Y0247831D01*
X0201420Y0247850D01*
X0201333Y0247872D01*
X0201247Y0247899D01*
X0201163Y0247929D01*
X0201081Y0247963D01*
X0200999Y0248001D01*
X0200920Y0248042D01*
X0200843Y0248087D01*
X0200767Y0248135D01*
X0200694Y0248186D01*
X0200623Y0248241D01*
X0200555Y0248299D01*
X0200489Y0248360D01*
X0200426Y0248423D01*
X0200366Y0248490D01*
X0200309Y0248559D01*
X0200255Y0248630D01*
X0200205Y0248704D01*
X0200157Y0248780D01*
X0200113Y0248858D01*
X0200073Y0248938D01*
X0200036Y0249019D01*
X0200003Y0249102D01*
X0199974Y0249187D01*
X0199948Y0249272D01*
X0199927Y0249359D01*
X0199909Y0249447D01*
X0199895Y0249535D01*
X0199885Y0249624D01*
X0199879Y0249714D01*
X0199877Y0249803D01*
X0189877Y0249803D02*
X0189879Y0249892D01*
X0189885Y0249982D01*
X0189895Y0250071D01*
X0189909Y0250159D01*
X0189927Y0250247D01*
X0189948Y0250334D01*
X0189974Y0250419D01*
X0190003Y0250504D01*
X0190036Y0250587D01*
X0190073Y0250668D01*
X0190113Y0250748D01*
X0190157Y0250826D01*
X0190205Y0250902D01*
X0190255Y0250976D01*
X0190309Y0251047D01*
X0190366Y0251116D01*
X0190426Y0251183D01*
X0190489Y0251246D01*
X0190555Y0251307D01*
X0190623Y0251365D01*
X0190694Y0251420D01*
X0190767Y0251471D01*
X0190843Y0251519D01*
X0190920Y0251564D01*
X0190999Y0251605D01*
X0191081Y0251643D01*
X0191163Y0251677D01*
X0191247Y0251707D01*
X0191333Y0251734D01*
X0191420Y0251756D01*
X0191507Y0251775D01*
X0191595Y0251790D01*
X0191684Y0251801D01*
X0191773Y0251808D01*
X0191863Y0251811D01*
X0191952Y0251810D01*
X0192041Y0251805D01*
X0192130Y0251796D01*
X0192219Y0251783D01*
X0192307Y0251766D01*
X0192394Y0251745D01*
X0192480Y0251721D01*
X0192565Y0251692D01*
X0192648Y0251660D01*
X0192730Y0251624D01*
X0192811Y0251585D01*
X0192889Y0251542D01*
X0192965Y0251496D01*
X0193040Y0251446D01*
X0193112Y0251393D01*
X0193181Y0251336D01*
X0193248Y0251277D01*
X0193313Y0251215D01*
X0193374Y0251150D01*
X0193433Y0251082D01*
X0193488Y0251012D01*
X0193540Y0250939D01*
X0193589Y0250865D01*
X0193635Y0250788D01*
X0193677Y0250709D01*
X0193716Y0250628D01*
X0193751Y0250546D01*
X0193782Y0250462D01*
X0193809Y0250377D01*
X0193833Y0250290D01*
X0193853Y0250203D01*
X0193869Y0250115D01*
X0193881Y0250026D01*
X0193889Y0249937D01*
X0193893Y0249848D01*
X0193893Y0249758D01*
X0193889Y0249669D01*
X0193881Y0249580D01*
X0193869Y0249491D01*
X0193853Y0249403D01*
X0193833Y0249316D01*
X0193809Y0249229D01*
X0193782Y0249144D01*
X0193751Y0249060D01*
X0193716Y0248978D01*
X0193677Y0248897D01*
X0193635Y0248818D01*
X0193589Y0248741D01*
X0193540Y0248667D01*
X0193488Y0248594D01*
X0193433Y0248524D01*
X0193374Y0248456D01*
X0193313Y0248391D01*
X0193248Y0248329D01*
X0193181Y0248270D01*
X0193112Y0248213D01*
X0193040Y0248160D01*
X0192965Y0248110D01*
X0192889Y0248064D01*
X0192811Y0248021D01*
X0192730Y0247982D01*
X0192648Y0247946D01*
X0192565Y0247914D01*
X0192480Y0247885D01*
X0192394Y0247861D01*
X0192307Y0247840D01*
X0192219Y0247823D01*
X0192130Y0247810D01*
X0192041Y0247801D01*
X0191952Y0247796D01*
X0191863Y0247795D01*
X0191773Y0247798D01*
X0191684Y0247805D01*
X0191595Y0247816D01*
X0191507Y0247831D01*
X0191420Y0247850D01*
X0191333Y0247872D01*
X0191247Y0247899D01*
X0191163Y0247929D01*
X0191081Y0247963D01*
X0190999Y0248001D01*
X0190920Y0248042D01*
X0190843Y0248087D01*
X0190767Y0248135D01*
X0190694Y0248186D01*
X0190623Y0248241D01*
X0190555Y0248299D01*
X0190489Y0248360D01*
X0190426Y0248423D01*
X0190366Y0248490D01*
X0190309Y0248559D01*
X0190255Y0248630D01*
X0190205Y0248704D01*
X0190157Y0248780D01*
X0190113Y0248858D01*
X0190073Y0248938D01*
X0190036Y0249019D01*
X0190003Y0249102D01*
X0189974Y0249187D01*
X0189948Y0249272D01*
X0189927Y0249359D01*
X0189909Y0249447D01*
X0189895Y0249535D01*
X0189885Y0249624D01*
X0189879Y0249714D01*
X0189877Y0249803D01*
X0179877Y0249803D02*
X0179879Y0249892D01*
X0179885Y0249982D01*
X0179895Y0250071D01*
X0179909Y0250159D01*
X0179927Y0250247D01*
X0179948Y0250334D01*
X0179974Y0250419D01*
X0180003Y0250504D01*
X0180036Y0250587D01*
X0180073Y0250668D01*
X0180113Y0250748D01*
X0180157Y0250826D01*
X0180205Y0250902D01*
X0180255Y0250976D01*
X0180309Y0251047D01*
X0180366Y0251116D01*
X0180426Y0251183D01*
X0180489Y0251246D01*
X0180555Y0251307D01*
X0180623Y0251365D01*
X0180694Y0251420D01*
X0180767Y0251471D01*
X0180843Y0251519D01*
X0180920Y0251564D01*
X0180999Y0251605D01*
X0181081Y0251643D01*
X0181163Y0251677D01*
X0181247Y0251707D01*
X0181333Y0251734D01*
X0181420Y0251756D01*
X0181507Y0251775D01*
X0181595Y0251790D01*
X0181684Y0251801D01*
X0181773Y0251808D01*
X0181863Y0251811D01*
X0181952Y0251810D01*
X0182041Y0251805D01*
X0182130Y0251796D01*
X0182219Y0251783D01*
X0182307Y0251766D01*
X0182394Y0251745D01*
X0182480Y0251721D01*
X0182565Y0251692D01*
X0182648Y0251660D01*
X0182730Y0251624D01*
X0182811Y0251585D01*
X0182889Y0251542D01*
X0182965Y0251496D01*
X0183040Y0251446D01*
X0183112Y0251393D01*
X0183181Y0251336D01*
X0183248Y0251277D01*
X0183313Y0251215D01*
X0183374Y0251150D01*
X0183433Y0251082D01*
X0183488Y0251012D01*
X0183540Y0250939D01*
X0183589Y0250865D01*
X0183635Y0250788D01*
X0183677Y0250709D01*
X0183716Y0250628D01*
X0183751Y0250546D01*
X0183782Y0250462D01*
X0183809Y0250377D01*
X0183833Y0250290D01*
X0183853Y0250203D01*
X0183869Y0250115D01*
X0183881Y0250026D01*
X0183889Y0249937D01*
X0183893Y0249848D01*
X0183893Y0249758D01*
X0183889Y0249669D01*
X0183881Y0249580D01*
X0183869Y0249491D01*
X0183853Y0249403D01*
X0183833Y0249316D01*
X0183809Y0249229D01*
X0183782Y0249144D01*
X0183751Y0249060D01*
X0183716Y0248978D01*
X0183677Y0248897D01*
X0183635Y0248818D01*
X0183589Y0248741D01*
X0183540Y0248667D01*
X0183488Y0248594D01*
X0183433Y0248524D01*
X0183374Y0248456D01*
X0183313Y0248391D01*
X0183248Y0248329D01*
X0183181Y0248270D01*
X0183112Y0248213D01*
X0183040Y0248160D01*
X0182965Y0248110D01*
X0182889Y0248064D01*
X0182811Y0248021D01*
X0182730Y0247982D01*
X0182648Y0247946D01*
X0182565Y0247914D01*
X0182480Y0247885D01*
X0182394Y0247861D01*
X0182307Y0247840D01*
X0182219Y0247823D01*
X0182130Y0247810D01*
X0182041Y0247801D01*
X0181952Y0247796D01*
X0181863Y0247795D01*
X0181773Y0247798D01*
X0181684Y0247805D01*
X0181595Y0247816D01*
X0181507Y0247831D01*
X0181420Y0247850D01*
X0181333Y0247872D01*
X0181247Y0247899D01*
X0181163Y0247929D01*
X0181081Y0247963D01*
X0180999Y0248001D01*
X0180920Y0248042D01*
X0180843Y0248087D01*
X0180767Y0248135D01*
X0180694Y0248186D01*
X0180623Y0248241D01*
X0180555Y0248299D01*
X0180489Y0248360D01*
X0180426Y0248423D01*
X0180366Y0248490D01*
X0180309Y0248559D01*
X0180255Y0248630D01*
X0180205Y0248704D01*
X0180157Y0248780D01*
X0180113Y0248858D01*
X0180073Y0248938D01*
X0180036Y0249019D01*
X0180003Y0249102D01*
X0179974Y0249187D01*
X0179948Y0249272D01*
X0179927Y0249359D01*
X0179909Y0249447D01*
X0179895Y0249535D01*
X0179885Y0249624D01*
X0179879Y0249714D01*
X0179877Y0249803D01*
X0169877Y0249803D02*
X0169879Y0249892D01*
X0169885Y0249982D01*
X0169895Y0250071D01*
X0169909Y0250159D01*
X0169927Y0250247D01*
X0169948Y0250334D01*
X0169974Y0250419D01*
X0170003Y0250504D01*
X0170036Y0250587D01*
X0170073Y0250668D01*
X0170113Y0250748D01*
X0170157Y0250826D01*
X0170205Y0250902D01*
X0170255Y0250976D01*
X0170309Y0251047D01*
X0170366Y0251116D01*
X0170426Y0251183D01*
X0170489Y0251246D01*
X0170555Y0251307D01*
X0170623Y0251365D01*
X0170694Y0251420D01*
X0170767Y0251471D01*
X0170843Y0251519D01*
X0170920Y0251564D01*
X0170999Y0251605D01*
X0171081Y0251643D01*
X0171163Y0251677D01*
X0171247Y0251707D01*
X0171333Y0251734D01*
X0171420Y0251756D01*
X0171507Y0251775D01*
X0171595Y0251790D01*
X0171684Y0251801D01*
X0171773Y0251808D01*
X0171863Y0251811D01*
X0171952Y0251810D01*
X0172041Y0251805D01*
X0172130Y0251796D01*
X0172219Y0251783D01*
X0172307Y0251766D01*
X0172394Y0251745D01*
X0172480Y0251721D01*
X0172565Y0251692D01*
X0172648Y0251660D01*
X0172730Y0251624D01*
X0172811Y0251585D01*
X0172889Y0251542D01*
X0172965Y0251496D01*
X0173040Y0251446D01*
X0173112Y0251393D01*
X0173181Y0251336D01*
X0173248Y0251277D01*
X0173313Y0251215D01*
X0173374Y0251150D01*
X0173433Y0251082D01*
X0173488Y0251012D01*
X0173540Y0250939D01*
X0173589Y0250865D01*
X0173635Y0250788D01*
X0173677Y0250709D01*
X0173716Y0250628D01*
X0173751Y0250546D01*
X0173782Y0250462D01*
X0173809Y0250377D01*
X0173833Y0250290D01*
X0173853Y0250203D01*
X0173869Y0250115D01*
X0173881Y0250026D01*
X0173889Y0249937D01*
X0173893Y0249848D01*
X0173893Y0249758D01*
X0173889Y0249669D01*
X0173881Y0249580D01*
X0173869Y0249491D01*
X0173853Y0249403D01*
X0173833Y0249316D01*
X0173809Y0249229D01*
X0173782Y0249144D01*
X0173751Y0249060D01*
X0173716Y0248978D01*
X0173677Y0248897D01*
X0173635Y0248818D01*
X0173589Y0248741D01*
X0173540Y0248667D01*
X0173488Y0248594D01*
X0173433Y0248524D01*
X0173374Y0248456D01*
X0173313Y0248391D01*
X0173248Y0248329D01*
X0173181Y0248270D01*
X0173112Y0248213D01*
X0173040Y0248160D01*
X0172965Y0248110D01*
X0172889Y0248064D01*
X0172811Y0248021D01*
X0172730Y0247982D01*
X0172648Y0247946D01*
X0172565Y0247914D01*
X0172480Y0247885D01*
X0172394Y0247861D01*
X0172307Y0247840D01*
X0172219Y0247823D01*
X0172130Y0247810D01*
X0172041Y0247801D01*
X0171952Y0247796D01*
X0171863Y0247795D01*
X0171773Y0247798D01*
X0171684Y0247805D01*
X0171595Y0247816D01*
X0171507Y0247831D01*
X0171420Y0247850D01*
X0171333Y0247872D01*
X0171247Y0247899D01*
X0171163Y0247929D01*
X0171081Y0247963D01*
X0170999Y0248001D01*
X0170920Y0248042D01*
X0170843Y0248087D01*
X0170767Y0248135D01*
X0170694Y0248186D01*
X0170623Y0248241D01*
X0170555Y0248299D01*
X0170489Y0248360D01*
X0170426Y0248423D01*
X0170366Y0248490D01*
X0170309Y0248559D01*
X0170255Y0248630D01*
X0170205Y0248704D01*
X0170157Y0248780D01*
X0170113Y0248858D01*
X0170073Y0248938D01*
X0170036Y0249019D01*
X0170003Y0249102D01*
X0169974Y0249187D01*
X0169948Y0249272D01*
X0169927Y0249359D01*
X0169909Y0249447D01*
X0169895Y0249535D01*
X0169885Y0249624D01*
X0169879Y0249714D01*
X0169877Y0249803D01*
X0159877Y0249803D02*
X0159879Y0249892D01*
X0159885Y0249982D01*
X0159895Y0250071D01*
X0159909Y0250159D01*
X0159927Y0250247D01*
X0159948Y0250334D01*
X0159974Y0250419D01*
X0160003Y0250504D01*
X0160036Y0250587D01*
X0160073Y0250668D01*
X0160113Y0250748D01*
X0160157Y0250826D01*
X0160205Y0250902D01*
X0160255Y0250976D01*
X0160309Y0251047D01*
X0160366Y0251116D01*
X0160426Y0251183D01*
X0160489Y0251246D01*
X0160555Y0251307D01*
X0160623Y0251365D01*
X0160694Y0251420D01*
X0160767Y0251471D01*
X0160843Y0251519D01*
X0160920Y0251564D01*
X0160999Y0251605D01*
X0161081Y0251643D01*
X0161163Y0251677D01*
X0161247Y0251707D01*
X0161333Y0251734D01*
X0161420Y0251756D01*
X0161507Y0251775D01*
X0161595Y0251790D01*
X0161684Y0251801D01*
X0161773Y0251808D01*
X0161863Y0251811D01*
X0161952Y0251810D01*
X0162041Y0251805D01*
X0162130Y0251796D01*
X0162219Y0251783D01*
X0162307Y0251766D01*
X0162394Y0251745D01*
X0162480Y0251721D01*
X0162565Y0251692D01*
X0162648Y0251660D01*
X0162730Y0251624D01*
X0162811Y0251585D01*
X0162889Y0251542D01*
X0162965Y0251496D01*
X0163040Y0251446D01*
X0163112Y0251393D01*
X0163181Y0251336D01*
X0163248Y0251277D01*
X0163313Y0251215D01*
X0163374Y0251150D01*
X0163433Y0251082D01*
X0163488Y0251012D01*
X0163540Y0250939D01*
X0163589Y0250865D01*
X0163635Y0250788D01*
X0163677Y0250709D01*
X0163716Y0250628D01*
X0163751Y0250546D01*
X0163782Y0250462D01*
X0163809Y0250377D01*
X0163833Y0250290D01*
X0163853Y0250203D01*
X0163869Y0250115D01*
X0163881Y0250026D01*
X0163889Y0249937D01*
X0163893Y0249848D01*
X0163893Y0249758D01*
X0163889Y0249669D01*
X0163881Y0249580D01*
X0163869Y0249491D01*
X0163853Y0249403D01*
X0163833Y0249316D01*
X0163809Y0249229D01*
X0163782Y0249144D01*
X0163751Y0249060D01*
X0163716Y0248978D01*
X0163677Y0248897D01*
X0163635Y0248818D01*
X0163589Y0248741D01*
X0163540Y0248667D01*
X0163488Y0248594D01*
X0163433Y0248524D01*
X0163374Y0248456D01*
X0163313Y0248391D01*
X0163248Y0248329D01*
X0163181Y0248270D01*
X0163112Y0248213D01*
X0163040Y0248160D01*
X0162965Y0248110D01*
X0162889Y0248064D01*
X0162811Y0248021D01*
X0162730Y0247982D01*
X0162648Y0247946D01*
X0162565Y0247914D01*
X0162480Y0247885D01*
X0162394Y0247861D01*
X0162307Y0247840D01*
X0162219Y0247823D01*
X0162130Y0247810D01*
X0162041Y0247801D01*
X0161952Y0247796D01*
X0161863Y0247795D01*
X0161773Y0247798D01*
X0161684Y0247805D01*
X0161595Y0247816D01*
X0161507Y0247831D01*
X0161420Y0247850D01*
X0161333Y0247872D01*
X0161247Y0247899D01*
X0161163Y0247929D01*
X0161081Y0247963D01*
X0160999Y0248001D01*
X0160920Y0248042D01*
X0160843Y0248087D01*
X0160767Y0248135D01*
X0160694Y0248186D01*
X0160623Y0248241D01*
X0160555Y0248299D01*
X0160489Y0248360D01*
X0160426Y0248423D01*
X0160366Y0248490D01*
X0160309Y0248559D01*
X0160255Y0248630D01*
X0160205Y0248704D01*
X0160157Y0248780D01*
X0160113Y0248858D01*
X0160073Y0248938D01*
X0160036Y0249019D01*
X0160003Y0249102D01*
X0159974Y0249187D01*
X0159948Y0249272D01*
X0159927Y0249359D01*
X0159909Y0249447D01*
X0159895Y0249535D01*
X0159885Y0249624D01*
X0159879Y0249714D01*
X0159877Y0249803D01*
X0149877Y0249803D02*
X0149879Y0249892D01*
X0149885Y0249982D01*
X0149895Y0250071D01*
X0149909Y0250159D01*
X0149927Y0250247D01*
X0149948Y0250334D01*
X0149974Y0250419D01*
X0150003Y0250504D01*
X0150036Y0250587D01*
X0150073Y0250668D01*
X0150113Y0250748D01*
X0150157Y0250826D01*
X0150205Y0250902D01*
X0150255Y0250976D01*
X0150309Y0251047D01*
X0150366Y0251116D01*
X0150426Y0251183D01*
X0150489Y0251246D01*
X0150555Y0251307D01*
X0150623Y0251365D01*
X0150694Y0251420D01*
X0150767Y0251471D01*
X0150843Y0251519D01*
X0150920Y0251564D01*
X0150999Y0251605D01*
X0151081Y0251643D01*
X0151163Y0251677D01*
X0151247Y0251707D01*
X0151333Y0251734D01*
X0151420Y0251756D01*
X0151507Y0251775D01*
X0151595Y0251790D01*
X0151684Y0251801D01*
X0151773Y0251808D01*
X0151863Y0251811D01*
X0151952Y0251810D01*
X0152041Y0251805D01*
X0152130Y0251796D01*
X0152219Y0251783D01*
X0152307Y0251766D01*
X0152394Y0251745D01*
X0152480Y0251721D01*
X0152565Y0251692D01*
X0152648Y0251660D01*
X0152730Y0251624D01*
X0152811Y0251585D01*
X0152889Y0251542D01*
X0152965Y0251496D01*
X0153040Y0251446D01*
X0153112Y0251393D01*
X0153181Y0251336D01*
X0153248Y0251277D01*
X0153313Y0251215D01*
X0153374Y0251150D01*
X0153433Y0251082D01*
X0153488Y0251012D01*
X0153540Y0250939D01*
X0153589Y0250865D01*
X0153635Y0250788D01*
X0153677Y0250709D01*
X0153716Y0250628D01*
X0153751Y0250546D01*
X0153782Y0250462D01*
X0153809Y0250377D01*
X0153833Y0250290D01*
X0153853Y0250203D01*
X0153869Y0250115D01*
X0153881Y0250026D01*
X0153889Y0249937D01*
X0153893Y0249848D01*
X0153893Y0249758D01*
X0153889Y0249669D01*
X0153881Y0249580D01*
X0153869Y0249491D01*
X0153853Y0249403D01*
X0153833Y0249316D01*
X0153809Y0249229D01*
X0153782Y0249144D01*
X0153751Y0249060D01*
X0153716Y0248978D01*
X0153677Y0248897D01*
X0153635Y0248818D01*
X0153589Y0248741D01*
X0153540Y0248667D01*
X0153488Y0248594D01*
X0153433Y0248524D01*
X0153374Y0248456D01*
X0153313Y0248391D01*
X0153248Y0248329D01*
X0153181Y0248270D01*
X0153112Y0248213D01*
X0153040Y0248160D01*
X0152965Y0248110D01*
X0152889Y0248064D01*
X0152811Y0248021D01*
X0152730Y0247982D01*
X0152648Y0247946D01*
X0152565Y0247914D01*
X0152480Y0247885D01*
X0152394Y0247861D01*
X0152307Y0247840D01*
X0152219Y0247823D01*
X0152130Y0247810D01*
X0152041Y0247801D01*
X0151952Y0247796D01*
X0151863Y0247795D01*
X0151773Y0247798D01*
X0151684Y0247805D01*
X0151595Y0247816D01*
X0151507Y0247831D01*
X0151420Y0247850D01*
X0151333Y0247872D01*
X0151247Y0247899D01*
X0151163Y0247929D01*
X0151081Y0247963D01*
X0150999Y0248001D01*
X0150920Y0248042D01*
X0150843Y0248087D01*
X0150767Y0248135D01*
X0150694Y0248186D01*
X0150623Y0248241D01*
X0150555Y0248299D01*
X0150489Y0248360D01*
X0150426Y0248423D01*
X0150366Y0248490D01*
X0150309Y0248559D01*
X0150255Y0248630D01*
X0150205Y0248704D01*
X0150157Y0248780D01*
X0150113Y0248858D01*
X0150073Y0248938D01*
X0150036Y0249019D01*
X0150003Y0249102D01*
X0149974Y0249187D01*
X0149948Y0249272D01*
X0149927Y0249359D01*
X0149909Y0249447D01*
X0149895Y0249535D01*
X0149885Y0249624D01*
X0149879Y0249714D01*
X0149877Y0249803D01*
X0139877Y0249803D02*
X0139879Y0249892D01*
X0139885Y0249982D01*
X0139895Y0250071D01*
X0139909Y0250159D01*
X0139927Y0250247D01*
X0139948Y0250334D01*
X0139974Y0250419D01*
X0140003Y0250504D01*
X0140036Y0250587D01*
X0140073Y0250668D01*
X0140113Y0250748D01*
X0140157Y0250826D01*
X0140205Y0250902D01*
X0140255Y0250976D01*
X0140309Y0251047D01*
X0140366Y0251116D01*
X0140426Y0251183D01*
X0140489Y0251246D01*
X0140555Y0251307D01*
X0140623Y0251365D01*
X0140694Y0251420D01*
X0140767Y0251471D01*
X0140843Y0251519D01*
X0140920Y0251564D01*
X0140999Y0251605D01*
X0141081Y0251643D01*
X0141163Y0251677D01*
X0141247Y0251707D01*
X0141333Y0251734D01*
X0141420Y0251756D01*
X0141507Y0251775D01*
X0141595Y0251790D01*
X0141684Y0251801D01*
X0141773Y0251808D01*
X0141863Y0251811D01*
X0141952Y0251810D01*
X0142041Y0251805D01*
X0142130Y0251796D01*
X0142219Y0251783D01*
X0142307Y0251766D01*
X0142394Y0251745D01*
X0142480Y0251721D01*
X0142565Y0251692D01*
X0142648Y0251660D01*
X0142730Y0251624D01*
X0142811Y0251585D01*
X0142889Y0251542D01*
X0142965Y0251496D01*
X0143040Y0251446D01*
X0143112Y0251393D01*
X0143181Y0251336D01*
X0143248Y0251277D01*
X0143313Y0251215D01*
X0143374Y0251150D01*
X0143433Y0251082D01*
X0143488Y0251012D01*
X0143540Y0250939D01*
X0143589Y0250865D01*
X0143635Y0250788D01*
X0143677Y0250709D01*
X0143716Y0250628D01*
X0143751Y0250546D01*
X0143782Y0250462D01*
X0143809Y0250377D01*
X0143833Y0250290D01*
X0143853Y0250203D01*
X0143869Y0250115D01*
X0143881Y0250026D01*
X0143889Y0249937D01*
X0143893Y0249848D01*
X0143893Y0249758D01*
X0143889Y0249669D01*
X0143881Y0249580D01*
X0143869Y0249491D01*
X0143853Y0249403D01*
X0143833Y0249316D01*
X0143809Y0249229D01*
X0143782Y0249144D01*
X0143751Y0249060D01*
X0143716Y0248978D01*
X0143677Y0248897D01*
X0143635Y0248818D01*
X0143589Y0248741D01*
X0143540Y0248667D01*
X0143488Y0248594D01*
X0143433Y0248524D01*
X0143374Y0248456D01*
X0143313Y0248391D01*
X0143248Y0248329D01*
X0143181Y0248270D01*
X0143112Y0248213D01*
X0143040Y0248160D01*
X0142965Y0248110D01*
X0142889Y0248064D01*
X0142811Y0248021D01*
X0142730Y0247982D01*
X0142648Y0247946D01*
X0142565Y0247914D01*
X0142480Y0247885D01*
X0142394Y0247861D01*
X0142307Y0247840D01*
X0142219Y0247823D01*
X0142130Y0247810D01*
X0142041Y0247801D01*
X0141952Y0247796D01*
X0141863Y0247795D01*
X0141773Y0247798D01*
X0141684Y0247805D01*
X0141595Y0247816D01*
X0141507Y0247831D01*
X0141420Y0247850D01*
X0141333Y0247872D01*
X0141247Y0247899D01*
X0141163Y0247929D01*
X0141081Y0247963D01*
X0140999Y0248001D01*
X0140920Y0248042D01*
X0140843Y0248087D01*
X0140767Y0248135D01*
X0140694Y0248186D01*
X0140623Y0248241D01*
X0140555Y0248299D01*
X0140489Y0248360D01*
X0140426Y0248423D01*
X0140366Y0248490D01*
X0140309Y0248559D01*
X0140255Y0248630D01*
X0140205Y0248704D01*
X0140157Y0248780D01*
X0140113Y0248858D01*
X0140073Y0248938D01*
X0140036Y0249019D01*
X0140003Y0249102D01*
X0139974Y0249187D01*
X0139948Y0249272D01*
X0139927Y0249359D01*
X0139909Y0249447D01*
X0139895Y0249535D01*
X0139885Y0249624D01*
X0139879Y0249714D01*
X0139877Y0249803D01*
X0129877Y0249803D02*
X0129879Y0249892D01*
X0129885Y0249982D01*
X0129895Y0250071D01*
X0129909Y0250159D01*
X0129927Y0250247D01*
X0129948Y0250334D01*
X0129974Y0250419D01*
X0130003Y0250504D01*
X0130036Y0250587D01*
X0130073Y0250668D01*
X0130113Y0250748D01*
X0130157Y0250826D01*
X0130205Y0250902D01*
X0130255Y0250976D01*
X0130309Y0251047D01*
X0130366Y0251116D01*
X0130426Y0251183D01*
X0130489Y0251246D01*
X0130555Y0251307D01*
X0130623Y0251365D01*
X0130694Y0251420D01*
X0130767Y0251471D01*
X0130843Y0251519D01*
X0130920Y0251564D01*
X0130999Y0251605D01*
X0131081Y0251643D01*
X0131163Y0251677D01*
X0131247Y0251707D01*
X0131333Y0251734D01*
X0131420Y0251756D01*
X0131507Y0251775D01*
X0131595Y0251790D01*
X0131684Y0251801D01*
X0131773Y0251808D01*
X0131863Y0251811D01*
X0131952Y0251810D01*
X0132041Y0251805D01*
X0132130Y0251796D01*
X0132219Y0251783D01*
X0132307Y0251766D01*
X0132394Y0251745D01*
X0132480Y0251721D01*
X0132565Y0251692D01*
X0132648Y0251660D01*
X0132730Y0251624D01*
X0132811Y0251585D01*
X0132889Y0251542D01*
X0132965Y0251496D01*
X0133040Y0251446D01*
X0133112Y0251393D01*
X0133181Y0251336D01*
X0133248Y0251277D01*
X0133313Y0251215D01*
X0133374Y0251150D01*
X0133433Y0251082D01*
X0133488Y0251012D01*
X0133540Y0250939D01*
X0133589Y0250865D01*
X0133635Y0250788D01*
X0133677Y0250709D01*
X0133716Y0250628D01*
X0133751Y0250546D01*
X0133782Y0250462D01*
X0133809Y0250377D01*
X0133833Y0250290D01*
X0133853Y0250203D01*
X0133869Y0250115D01*
X0133881Y0250026D01*
X0133889Y0249937D01*
X0133893Y0249848D01*
X0133893Y0249758D01*
X0133889Y0249669D01*
X0133881Y0249580D01*
X0133869Y0249491D01*
X0133853Y0249403D01*
X0133833Y0249316D01*
X0133809Y0249229D01*
X0133782Y0249144D01*
X0133751Y0249060D01*
X0133716Y0248978D01*
X0133677Y0248897D01*
X0133635Y0248818D01*
X0133589Y0248741D01*
X0133540Y0248667D01*
X0133488Y0248594D01*
X0133433Y0248524D01*
X0133374Y0248456D01*
X0133313Y0248391D01*
X0133248Y0248329D01*
X0133181Y0248270D01*
X0133112Y0248213D01*
X0133040Y0248160D01*
X0132965Y0248110D01*
X0132889Y0248064D01*
X0132811Y0248021D01*
X0132730Y0247982D01*
X0132648Y0247946D01*
X0132565Y0247914D01*
X0132480Y0247885D01*
X0132394Y0247861D01*
X0132307Y0247840D01*
X0132219Y0247823D01*
X0132130Y0247810D01*
X0132041Y0247801D01*
X0131952Y0247796D01*
X0131863Y0247795D01*
X0131773Y0247798D01*
X0131684Y0247805D01*
X0131595Y0247816D01*
X0131507Y0247831D01*
X0131420Y0247850D01*
X0131333Y0247872D01*
X0131247Y0247899D01*
X0131163Y0247929D01*
X0131081Y0247963D01*
X0130999Y0248001D01*
X0130920Y0248042D01*
X0130843Y0248087D01*
X0130767Y0248135D01*
X0130694Y0248186D01*
X0130623Y0248241D01*
X0130555Y0248299D01*
X0130489Y0248360D01*
X0130426Y0248423D01*
X0130366Y0248490D01*
X0130309Y0248559D01*
X0130255Y0248630D01*
X0130205Y0248704D01*
X0130157Y0248780D01*
X0130113Y0248858D01*
X0130073Y0248938D01*
X0130036Y0249019D01*
X0130003Y0249102D01*
X0129974Y0249187D01*
X0129948Y0249272D01*
X0129927Y0249359D01*
X0129909Y0249447D01*
X0129895Y0249535D01*
X0129885Y0249624D01*
X0129879Y0249714D01*
X0129877Y0249803D01*
X0119877Y0249803D02*
X0119879Y0249892D01*
X0119885Y0249982D01*
X0119895Y0250071D01*
X0119909Y0250159D01*
X0119927Y0250247D01*
X0119948Y0250334D01*
X0119974Y0250419D01*
X0120003Y0250504D01*
X0120036Y0250587D01*
X0120073Y0250668D01*
X0120113Y0250748D01*
X0120157Y0250826D01*
X0120205Y0250902D01*
X0120255Y0250976D01*
X0120309Y0251047D01*
X0120366Y0251116D01*
X0120426Y0251183D01*
X0120489Y0251246D01*
X0120555Y0251307D01*
X0120623Y0251365D01*
X0120694Y0251420D01*
X0120767Y0251471D01*
X0120843Y0251519D01*
X0120920Y0251564D01*
X0120999Y0251605D01*
X0121081Y0251643D01*
X0121163Y0251677D01*
X0121247Y0251707D01*
X0121333Y0251734D01*
X0121420Y0251756D01*
X0121507Y0251775D01*
X0121595Y0251790D01*
X0121684Y0251801D01*
X0121773Y0251808D01*
X0121863Y0251811D01*
X0121952Y0251810D01*
X0122041Y0251805D01*
X0122130Y0251796D01*
X0122219Y0251783D01*
X0122307Y0251766D01*
X0122394Y0251745D01*
X0122480Y0251721D01*
X0122565Y0251692D01*
X0122648Y0251660D01*
X0122730Y0251624D01*
X0122811Y0251585D01*
X0122889Y0251542D01*
X0122965Y0251496D01*
X0123040Y0251446D01*
X0123112Y0251393D01*
X0123181Y0251336D01*
X0123248Y0251277D01*
X0123313Y0251215D01*
X0123374Y0251150D01*
X0123433Y0251082D01*
X0123488Y0251012D01*
X0123540Y0250939D01*
X0123589Y0250865D01*
X0123635Y0250788D01*
X0123677Y0250709D01*
X0123716Y0250628D01*
X0123751Y0250546D01*
X0123782Y0250462D01*
X0123809Y0250377D01*
X0123833Y0250290D01*
X0123853Y0250203D01*
X0123869Y0250115D01*
X0123881Y0250026D01*
X0123889Y0249937D01*
X0123893Y0249848D01*
X0123893Y0249758D01*
X0123889Y0249669D01*
X0123881Y0249580D01*
X0123869Y0249491D01*
X0123853Y0249403D01*
X0123833Y0249316D01*
X0123809Y0249229D01*
X0123782Y0249144D01*
X0123751Y0249060D01*
X0123716Y0248978D01*
X0123677Y0248897D01*
X0123635Y0248818D01*
X0123589Y0248741D01*
X0123540Y0248667D01*
X0123488Y0248594D01*
X0123433Y0248524D01*
X0123374Y0248456D01*
X0123313Y0248391D01*
X0123248Y0248329D01*
X0123181Y0248270D01*
X0123112Y0248213D01*
X0123040Y0248160D01*
X0122965Y0248110D01*
X0122889Y0248064D01*
X0122811Y0248021D01*
X0122730Y0247982D01*
X0122648Y0247946D01*
X0122565Y0247914D01*
X0122480Y0247885D01*
X0122394Y0247861D01*
X0122307Y0247840D01*
X0122219Y0247823D01*
X0122130Y0247810D01*
X0122041Y0247801D01*
X0121952Y0247796D01*
X0121863Y0247795D01*
X0121773Y0247798D01*
X0121684Y0247805D01*
X0121595Y0247816D01*
X0121507Y0247831D01*
X0121420Y0247850D01*
X0121333Y0247872D01*
X0121247Y0247899D01*
X0121163Y0247929D01*
X0121081Y0247963D01*
X0120999Y0248001D01*
X0120920Y0248042D01*
X0120843Y0248087D01*
X0120767Y0248135D01*
X0120694Y0248186D01*
X0120623Y0248241D01*
X0120555Y0248299D01*
X0120489Y0248360D01*
X0120426Y0248423D01*
X0120366Y0248490D01*
X0120309Y0248559D01*
X0120255Y0248630D01*
X0120205Y0248704D01*
X0120157Y0248780D01*
X0120113Y0248858D01*
X0120073Y0248938D01*
X0120036Y0249019D01*
X0120003Y0249102D01*
X0119974Y0249187D01*
X0119948Y0249272D01*
X0119927Y0249359D01*
X0119909Y0249447D01*
X0119895Y0249535D01*
X0119885Y0249624D01*
X0119879Y0249714D01*
X0119877Y0249803D01*
X0109877Y0249803D02*
X0109879Y0249892D01*
X0109885Y0249982D01*
X0109895Y0250071D01*
X0109909Y0250159D01*
X0109927Y0250247D01*
X0109948Y0250334D01*
X0109974Y0250419D01*
X0110003Y0250504D01*
X0110036Y0250587D01*
X0110073Y0250668D01*
X0110113Y0250748D01*
X0110157Y0250826D01*
X0110205Y0250902D01*
X0110255Y0250976D01*
X0110309Y0251047D01*
X0110366Y0251116D01*
X0110426Y0251183D01*
X0110489Y0251246D01*
X0110555Y0251307D01*
X0110623Y0251365D01*
X0110694Y0251420D01*
X0110767Y0251471D01*
X0110843Y0251519D01*
X0110920Y0251564D01*
X0110999Y0251605D01*
X0111081Y0251643D01*
X0111163Y0251677D01*
X0111247Y0251707D01*
X0111333Y0251734D01*
X0111420Y0251756D01*
X0111507Y0251775D01*
X0111595Y0251790D01*
X0111684Y0251801D01*
X0111773Y0251808D01*
X0111863Y0251811D01*
X0111952Y0251810D01*
X0112041Y0251805D01*
X0112130Y0251796D01*
X0112219Y0251783D01*
X0112307Y0251766D01*
X0112394Y0251745D01*
X0112480Y0251721D01*
X0112565Y0251692D01*
X0112648Y0251660D01*
X0112730Y0251624D01*
X0112811Y0251585D01*
X0112889Y0251542D01*
X0112965Y0251496D01*
X0113040Y0251446D01*
X0113112Y0251393D01*
X0113181Y0251336D01*
X0113248Y0251277D01*
X0113313Y0251215D01*
X0113374Y0251150D01*
X0113433Y0251082D01*
X0113488Y0251012D01*
X0113540Y0250939D01*
X0113589Y0250865D01*
X0113635Y0250788D01*
X0113677Y0250709D01*
X0113716Y0250628D01*
X0113751Y0250546D01*
X0113782Y0250462D01*
X0113809Y0250377D01*
X0113833Y0250290D01*
X0113853Y0250203D01*
X0113869Y0250115D01*
X0113881Y0250026D01*
X0113889Y0249937D01*
X0113893Y0249848D01*
X0113893Y0249758D01*
X0113889Y0249669D01*
X0113881Y0249580D01*
X0113869Y0249491D01*
X0113853Y0249403D01*
X0113833Y0249316D01*
X0113809Y0249229D01*
X0113782Y0249144D01*
X0113751Y0249060D01*
X0113716Y0248978D01*
X0113677Y0248897D01*
X0113635Y0248818D01*
X0113589Y0248741D01*
X0113540Y0248667D01*
X0113488Y0248594D01*
X0113433Y0248524D01*
X0113374Y0248456D01*
X0113313Y0248391D01*
X0113248Y0248329D01*
X0113181Y0248270D01*
X0113112Y0248213D01*
X0113040Y0248160D01*
X0112965Y0248110D01*
X0112889Y0248064D01*
X0112811Y0248021D01*
X0112730Y0247982D01*
X0112648Y0247946D01*
X0112565Y0247914D01*
X0112480Y0247885D01*
X0112394Y0247861D01*
X0112307Y0247840D01*
X0112219Y0247823D01*
X0112130Y0247810D01*
X0112041Y0247801D01*
X0111952Y0247796D01*
X0111863Y0247795D01*
X0111773Y0247798D01*
X0111684Y0247805D01*
X0111595Y0247816D01*
X0111507Y0247831D01*
X0111420Y0247850D01*
X0111333Y0247872D01*
X0111247Y0247899D01*
X0111163Y0247929D01*
X0111081Y0247963D01*
X0110999Y0248001D01*
X0110920Y0248042D01*
X0110843Y0248087D01*
X0110767Y0248135D01*
X0110694Y0248186D01*
X0110623Y0248241D01*
X0110555Y0248299D01*
X0110489Y0248360D01*
X0110426Y0248423D01*
X0110366Y0248490D01*
X0110309Y0248559D01*
X0110255Y0248630D01*
X0110205Y0248704D01*
X0110157Y0248780D01*
X0110113Y0248858D01*
X0110073Y0248938D01*
X0110036Y0249019D01*
X0110003Y0249102D01*
X0109974Y0249187D01*
X0109948Y0249272D01*
X0109927Y0249359D01*
X0109909Y0249447D01*
X0109895Y0249535D01*
X0109885Y0249624D01*
X0109879Y0249714D01*
X0109877Y0249803D01*
X0099877Y0249803D02*
X0099879Y0249892D01*
X0099885Y0249982D01*
X0099895Y0250071D01*
X0099909Y0250159D01*
X0099927Y0250247D01*
X0099948Y0250334D01*
X0099974Y0250419D01*
X0100003Y0250504D01*
X0100036Y0250587D01*
X0100073Y0250668D01*
X0100113Y0250748D01*
X0100157Y0250826D01*
X0100205Y0250902D01*
X0100255Y0250976D01*
X0100309Y0251047D01*
X0100366Y0251116D01*
X0100426Y0251183D01*
X0100489Y0251246D01*
X0100555Y0251307D01*
X0100623Y0251365D01*
X0100694Y0251420D01*
X0100767Y0251471D01*
X0100843Y0251519D01*
X0100920Y0251564D01*
X0100999Y0251605D01*
X0101081Y0251643D01*
X0101163Y0251677D01*
X0101247Y0251707D01*
X0101333Y0251734D01*
X0101420Y0251756D01*
X0101507Y0251775D01*
X0101595Y0251790D01*
X0101684Y0251801D01*
X0101773Y0251808D01*
X0101863Y0251811D01*
X0101952Y0251810D01*
X0102041Y0251805D01*
X0102130Y0251796D01*
X0102219Y0251783D01*
X0102307Y0251766D01*
X0102394Y0251745D01*
X0102480Y0251721D01*
X0102565Y0251692D01*
X0102648Y0251660D01*
X0102730Y0251624D01*
X0102811Y0251585D01*
X0102889Y0251542D01*
X0102965Y0251496D01*
X0103040Y0251446D01*
X0103112Y0251393D01*
X0103181Y0251336D01*
X0103248Y0251277D01*
X0103313Y0251215D01*
X0103374Y0251150D01*
X0103433Y0251082D01*
X0103488Y0251012D01*
X0103540Y0250939D01*
X0103589Y0250865D01*
X0103635Y0250788D01*
X0103677Y0250709D01*
X0103716Y0250628D01*
X0103751Y0250546D01*
X0103782Y0250462D01*
X0103809Y0250377D01*
X0103833Y0250290D01*
X0103853Y0250203D01*
X0103869Y0250115D01*
X0103881Y0250026D01*
X0103889Y0249937D01*
X0103893Y0249848D01*
X0103893Y0249758D01*
X0103889Y0249669D01*
X0103881Y0249580D01*
X0103869Y0249491D01*
X0103853Y0249403D01*
X0103833Y0249316D01*
X0103809Y0249229D01*
X0103782Y0249144D01*
X0103751Y0249060D01*
X0103716Y0248978D01*
X0103677Y0248897D01*
X0103635Y0248818D01*
X0103589Y0248741D01*
X0103540Y0248667D01*
X0103488Y0248594D01*
X0103433Y0248524D01*
X0103374Y0248456D01*
X0103313Y0248391D01*
X0103248Y0248329D01*
X0103181Y0248270D01*
X0103112Y0248213D01*
X0103040Y0248160D01*
X0102965Y0248110D01*
X0102889Y0248064D01*
X0102811Y0248021D01*
X0102730Y0247982D01*
X0102648Y0247946D01*
X0102565Y0247914D01*
X0102480Y0247885D01*
X0102394Y0247861D01*
X0102307Y0247840D01*
X0102219Y0247823D01*
X0102130Y0247810D01*
X0102041Y0247801D01*
X0101952Y0247796D01*
X0101863Y0247795D01*
X0101773Y0247798D01*
X0101684Y0247805D01*
X0101595Y0247816D01*
X0101507Y0247831D01*
X0101420Y0247850D01*
X0101333Y0247872D01*
X0101247Y0247899D01*
X0101163Y0247929D01*
X0101081Y0247963D01*
X0100999Y0248001D01*
X0100920Y0248042D01*
X0100843Y0248087D01*
X0100767Y0248135D01*
X0100694Y0248186D01*
X0100623Y0248241D01*
X0100555Y0248299D01*
X0100489Y0248360D01*
X0100426Y0248423D01*
X0100366Y0248490D01*
X0100309Y0248559D01*
X0100255Y0248630D01*
X0100205Y0248704D01*
X0100157Y0248780D01*
X0100113Y0248858D01*
X0100073Y0248938D01*
X0100036Y0249019D01*
X0100003Y0249102D01*
X0099974Y0249187D01*
X0099948Y0249272D01*
X0099927Y0249359D01*
X0099909Y0249447D01*
X0099895Y0249535D01*
X0099885Y0249624D01*
X0099879Y0249714D01*
X0099877Y0249803D01*
X0089877Y0249803D02*
X0089879Y0249892D01*
X0089885Y0249982D01*
X0089895Y0250071D01*
X0089909Y0250159D01*
X0089927Y0250247D01*
X0089948Y0250334D01*
X0089974Y0250419D01*
X0090003Y0250504D01*
X0090036Y0250587D01*
X0090073Y0250668D01*
X0090113Y0250748D01*
X0090157Y0250826D01*
X0090205Y0250902D01*
X0090255Y0250976D01*
X0090309Y0251047D01*
X0090366Y0251116D01*
X0090426Y0251183D01*
X0090489Y0251246D01*
X0090555Y0251307D01*
X0090623Y0251365D01*
X0090694Y0251420D01*
X0090767Y0251471D01*
X0090843Y0251519D01*
X0090920Y0251564D01*
X0090999Y0251605D01*
X0091081Y0251643D01*
X0091163Y0251677D01*
X0091247Y0251707D01*
X0091333Y0251734D01*
X0091420Y0251756D01*
X0091507Y0251775D01*
X0091595Y0251790D01*
X0091684Y0251801D01*
X0091773Y0251808D01*
X0091863Y0251811D01*
X0091952Y0251810D01*
X0092041Y0251805D01*
X0092130Y0251796D01*
X0092219Y0251783D01*
X0092307Y0251766D01*
X0092394Y0251745D01*
X0092480Y0251721D01*
X0092565Y0251692D01*
X0092648Y0251660D01*
X0092730Y0251624D01*
X0092811Y0251585D01*
X0092889Y0251542D01*
X0092965Y0251496D01*
X0093040Y0251446D01*
X0093112Y0251393D01*
X0093181Y0251336D01*
X0093248Y0251277D01*
X0093313Y0251215D01*
X0093374Y0251150D01*
X0093433Y0251082D01*
X0093488Y0251012D01*
X0093540Y0250939D01*
X0093589Y0250865D01*
X0093635Y0250788D01*
X0093677Y0250709D01*
X0093716Y0250628D01*
X0093751Y0250546D01*
X0093782Y0250462D01*
X0093809Y0250377D01*
X0093833Y0250290D01*
X0093853Y0250203D01*
X0093869Y0250115D01*
X0093881Y0250026D01*
X0093889Y0249937D01*
X0093893Y0249848D01*
X0093893Y0249758D01*
X0093889Y0249669D01*
X0093881Y0249580D01*
X0093869Y0249491D01*
X0093853Y0249403D01*
X0093833Y0249316D01*
X0093809Y0249229D01*
X0093782Y0249144D01*
X0093751Y0249060D01*
X0093716Y0248978D01*
X0093677Y0248897D01*
X0093635Y0248818D01*
X0093589Y0248741D01*
X0093540Y0248667D01*
X0093488Y0248594D01*
X0093433Y0248524D01*
X0093374Y0248456D01*
X0093313Y0248391D01*
X0093248Y0248329D01*
X0093181Y0248270D01*
X0093112Y0248213D01*
X0093040Y0248160D01*
X0092965Y0248110D01*
X0092889Y0248064D01*
X0092811Y0248021D01*
X0092730Y0247982D01*
X0092648Y0247946D01*
X0092565Y0247914D01*
X0092480Y0247885D01*
X0092394Y0247861D01*
X0092307Y0247840D01*
X0092219Y0247823D01*
X0092130Y0247810D01*
X0092041Y0247801D01*
X0091952Y0247796D01*
X0091863Y0247795D01*
X0091773Y0247798D01*
X0091684Y0247805D01*
X0091595Y0247816D01*
X0091507Y0247831D01*
X0091420Y0247850D01*
X0091333Y0247872D01*
X0091247Y0247899D01*
X0091163Y0247929D01*
X0091081Y0247963D01*
X0090999Y0248001D01*
X0090920Y0248042D01*
X0090843Y0248087D01*
X0090767Y0248135D01*
X0090694Y0248186D01*
X0090623Y0248241D01*
X0090555Y0248299D01*
X0090489Y0248360D01*
X0090426Y0248423D01*
X0090366Y0248490D01*
X0090309Y0248559D01*
X0090255Y0248630D01*
X0090205Y0248704D01*
X0090157Y0248780D01*
X0090113Y0248858D01*
X0090073Y0248938D01*
X0090036Y0249019D01*
X0090003Y0249102D01*
X0089974Y0249187D01*
X0089948Y0249272D01*
X0089927Y0249359D01*
X0089909Y0249447D01*
X0089895Y0249535D01*
X0089885Y0249624D01*
X0089879Y0249714D01*
X0089877Y0249803D01*
X0079877Y0249803D02*
X0079879Y0249892D01*
X0079885Y0249982D01*
X0079895Y0250071D01*
X0079909Y0250159D01*
X0079927Y0250247D01*
X0079948Y0250334D01*
X0079974Y0250419D01*
X0080003Y0250504D01*
X0080036Y0250587D01*
X0080073Y0250668D01*
X0080113Y0250748D01*
X0080157Y0250826D01*
X0080205Y0250902D01*
X0080255Y0250976D01*
X0080309Y0251047D01*
X0080366Y0251116D01*
X0080426Y0251183D01*
X0080489Y0251246D01*
X0080555Y0251307D01*
X0080623Y0251365D01*
X0080694Y0251420D01*
X0080767Y0251471D01*
X0080843Y0251519D01*
X0080920Y0251564D01*
X0080999Y0251605D01*
X0081081Y0251643D01*
X0081163Y0251677D01*
X0081247Y0251707D01*
X0081333Y0251734D01*
X0081420Y0251756D01*
X0081507Y0251775D01*
X0081595Y0251790D01*
X0081684Y0251801D01*
X0081773Y0251808D01*
X0081863Y0251811D01*
X0081952Y0251810D01*
X0082041Y0251805D01*
X0082130Y0251796D01*
X0082219Y0251783D01*
X0082307Y0251766D01*
X0082394Y0251745D01*
X0082480Y0251721D01*
X0082565Y0251692D01*
X0082648Y0251660D01*
X0082730Y0251624D01*
X0082811Y0251585D01*
X0082889Y0251542D01*
X0082965Y0251496D01*
X0083040Y0251446D01*
X0083112Y0251393D01*
X0083181Y0251336D01*
X0083248Y0251277D01*
X0083313Y0251215D01*
X0083374Y0251150D01*
X0083433Y0251082D01*
X0083488Y0251012D01*
X0083540Y0250939D01*
X0083589Y0250865D01*
X0083635Y0250788D01*
X0083677Y0250709D01*
X0083716Y0250628D01*
X0083751Y0250546D01*
X0083782Y0250462D01*
X0083809Y0250377D01*
X0083833Y0250290D01*
X0083853Y0250203D01*
X0083869Y0250115D01*
X0083881Y0250026D01*
X0083889Y0249937D01*
X0083893Y0249848D01*
X0083893Y0249758D01*
X0083889Y0249669D01*
X0083881Y0249580D01*
X0083869Y0249491D01*
X0083853Y0249403D01*
X0083833Y0249316D01*
X0083809Y0249229D01*
X0083782Y0249144D01*
X0083751Y0249060D01*
X0083716Y0248978D01*
X0083677Y0248897D01*
X0083635Y0248818D01*
X0083589Y0248741D01*
X0083540Y0248667D01*
X0083488Y0248594D01*
X0083433Y0248524D01*
X0083374Y0248456D01*
X0083313Y0248391D01*
X0083248Y0248329D01*
X0083181Y0248270D01*
X0083112Y0248213D01*
X0083040Y0248160D01*
X0082965Y0248110D01*
X0082889Y0248064D01*
X0082811Y0248021D01*
X0082730Y0247982D01*
X0082648Y0247946D01*
X0082565Y0247914D01*
X0082480Y0247885D01*
X0082394Y0247861D01*
X0082307Y0247840D01*
X0082219Y0247823D01*
X0082130Y0247810D01*
X0082041Y0247801D01*
X0081952Y0247796D01*
X0081863Y0247795D01*
X0081773Y0247798D01*
X0081684Y0247805D01*
X0081595Y0247816D01*
X0081507Y0247831D01*
X0081420Y0247850D01*
X0081333Y0247872D01*
X0081247Y0247899D01*
X0081163Y0247929D01*
X0081081Y0247963D01*
X0080999Y0248001D01*
X0080920Y0248042D01*
X0080843Y0248087D01*
X0080767Y0248135D01*
X0080694Y0248186D01*
X0080623Y0248241D01*
X0080555Y0248299D01*
X0080489Y0248360D01*
X0080426Y0248423D01*
X0080366Y0248490D01*
X0080309Y0248559D01*
X0080255Y0248630D01*
X0080205Y0248704D01*
X0080157Y0248780D01*
X0080113Y0248858D01*
X0080073Y0248938D01*
X0080036Y0249019D01*
X0080003Y0249102D01*
X0079974Y0249187D01*
X0079948Y0249272D01*
X0079927Y0249359D01*
X0079909Y0249447D01*
X0079895Y0249535D01*
X0079885Y0249624D01*
X0079879Y0249714D01*
X0079877Y0249803D01*
X0073342Y0254803D02*
X0073344Y0254921D01*
X0073350Y0255040D01*
X0073360Y0255158D01*
X0073374Y0255275D01*
X0073391Y0255392D01*
X0073413Y0255509D01*
X0073439Y0255624D01*
X0073468Y0255739D01*
X0073501Y0255853D01*
X0073538Y0255965D01*
X0073579Y0256076D01*
X0073623Y0256186D01*
X0073671Y0256294D01*
X0073723Y0256401D01*
X0073778Y0256506D01*
X0073837Y0256609D01*
X0073899Y0256709D01*
X0073964Y0256808D01*
X0074033Y0256905D01*
X0074104Y0256999D01*
X0074179Y0257090D01*
X0074257Y0257180D01*
X0074338Y0257266D01*
X0074422Y0257350D01*
X0074508Y0257431D01*
X0074598Y0257509D01*
X0074689Y0257584D01*
X0074783Y0257655D01*
X0074880Y0257724D01*
X0074979Y0257789D01*
X0075079Y0257851D01*
X0075182Y0257910D01*
X0075287Y0257965D01*
X0075394Y0258017D01*
X0075502Y0258065D01*
X0075612Y0258109D01*
X0075723Y0258150D01*
X0075835Y0258187D01*
X0075949Y0258220D01*
X0076064Y0258249D01*
X0076179Y0258275D01*
X0076296Y0258297D01*
X0076413Y0258314D01*
X0076530Y0258328D01*
X0076648Y0258338D01*
X0076767Y0258344D01*
X0076885Y0258346D01*
X0077003Y0258344D01*
X0077122Y0258338D01*
X0077240Y0258328D01*
X0077357Y0258314D01*
X0077474Y0258297D01*
X0077591Y0258275D01*
X0077706Y0258249D01*
X0077821Y0258220D01*
X0077935Y0258187D01*
X0078047Y0258150D01*
X0078158Y0258109D01*
X0078268Y0258065D01*
X0078376Y0258017D01*
X0078483Y0257965D01*
X0078588Y0257910D01*
X0078691Y0257851D01*
X0078791Y0257789D01*
X0078890Y0257724D01*
X0078987Y0257655D01*
X0079081Y0257584D01*
X0079172Y0257509D01*
X0079262Y0257431D01*
X0079348Y0257350D01*
X0079432Y0257266D01*
X0079513Y0257180D01*
X0079591Y0257090D01*
X0079666Y0256999D01*
X0079737Y0256905D01*
X0079806Y0256808D01*
X0079871Y0256709D01*
X0079933Y0256609D01*
X0079992Y0256506D01*
X0080047Y0256401D01*
X0080099Y0256294D01*
X0080147Y0256186D01*
X0080191Y0256076D01*
X0080232Y0255965D01*
X0080269Y0255853D01*
X0080302Y0255739D01*
X0080331Y0255624D01*
X0080357Y0255509D01*
X0080379Y0255392D01*
X0080396Y0255275D01*
X0080410Y0255158D01*
X0080420Y0255040D01*
X0080426Y0254921D01*
X0080428Y0254803D01*
X0080426Y0254685D01*
X0080420Y0254566D01*
X0080410Y0254448D01*
X0080396Y0254331D01*
X0080379Y0254214D01*
X0080357Y0254097D01*
X0080331Y0253982D01*
X0080302Y0253867D01*
X0080269Y0253753D01*
X0080232Y0253641D01*
X0080191Y0253530D01*
X0080147Y0253420D01*
X0080099Y0253312D01*
X0080047Y0253205D01*
X0079992Y0253100D01*
X0079933Y0252997D01*
X0079871Y0252897D01*
X0079806Y0252798D01*
X0079737Y0252701D01*
X0079666Y0252607D01*
X0079591Y0252516D01*
X0079513Y0252426D01*
X0079432Y0252340D01*
X0079348Y0252256D01*
X0079262Y0252175D01*
X0079172Y0252097D01*
X0079081Y0252022D01*
X0078987Y0251951D01*
X0078890Y0251882D01*
X0078791Y0251817D01*
X0078691Y0251755D01*
X0078588Y0251696D01*
X0078483Y0251641D01*
X0078376Y0251589D01*
X0078268Y0251541D01*
X0078158Y0251497D01*
X0078047Y0251456D01*
X0077935Y0251419D01*
X0077821Y0251386D01*
X0077706Y0251357D01*
X0077591Y0251331D01*
X0077474Y0251309D01*
X0077357Y0251292D01*
X0077240Y0251278D01*
X0077122Y0251268D01*
X0077003Y0251262D01*
X0076885Y0251260D01*
X0076767Y0251262D01*
X0076648Y0251268D01*
X0076530Y0251278D01*
X0076413Y0251292D01*
X0076296Y0251309D01*
X0076179Y0251331D01*
X0076064Y0251357D01*
X0075949Y0251386D01*
X0075835Y0251419D01*
X0075723Y0251456D01*
X0075612Y0251497D01*
X0075502Y0251541D01*
X0075394Y0251589D01*
X0075287Y0251641D01*
X0075182Y0251696D01*
X0075079Y0251755D01*
X0074979Y0251817D01*
X0074880Y0251882D01*
X0074783Y0251951D01*
X0074689Y0252022D01*
X0074598Y0252097D01*
X0074508Y0252175D01*
X0074422Y0252256D01*
X0074338Y0252340D01*
X0074257Y0252426D01*
X0074179Y0252516D01*
X0074104Y0252607D01*
X0074033Y0252701D01*
X0073964Y0252798D01*
X0073899Y0252897D01*
X0073837Y0252997D01*
X0073778Y0253100D01*
X0073723Y0253205D01*
X0073671Y0253312D01*
X0073623Y0253420D01*
X0073579Y0253530D01*
X0073538Y0253641D01*
X0073501Y0253753D01*
X0073468Y0253867D01*
X0073439Y0253982D01*
X0073413Y0254097D01*
X0073391Y0254214D01*
X0073374Y0254331D01*
X0073360Y0254448D01*
X0073350Y0254566D01*
X0073344Y0254685D01*
X0073342Y0254803D01*
X0069877Y0249803D02*
X0069879Y0249892D01*
X0069885Y0249982D01*
X0069895Y0250071D01*
X0069909Y0250159D01*
X0069927Y0250247D01*
X0069948Y0250334D01*
X0069974Y0250419D01*
X0070003Y0250504D01*
X0070036Y0250587D01*
X0070073Y0250668D01*
X0070113Y0250748D01*
X0070157Y0250826D01*
X0070205Y0250902D01*
X0070255Y0250976D01*
X0070309Y0251047D01*
X0070366Y0251116D01*
X0070426Y0251183D01*
X0070489Y0251246D01*
X0070555Y0251307D01*
X0070623Y0251365D01*
X0070694Y0251420D01*
X0070767Y0251471D01*
X0070843Y0251519D01*
X0070920Y0251564D01*
X0070999Y0251605D01*
X0071081Y0251643D01*
X0071163Y0251677D01*
X0071247Y0251707D01*
X0071333Y0251734D01*
X0071420Y0251756D01*
X0071507Y0251775D01*
X0071595Y0251790D01*
X0071684Y0251801D01*
X0071773Y0251808D01*
X0071863Y0251811D01*
X0071952Y0251810D01*
X0072041Y0251805D01*
X0072130Y0251796D01*
X0072219Y0251783D01*
X0072307Y0251766D01*
X0072394Y0251745D01*
X0072480Y0251721D01*
X0072565Y0251692D01*
X0072648Y0251660D01*
X0072730Y0251624D01*
X0072811Y0251585D01*
X0072889Y0251542D01*
X0072965Y0251496D01*
X0073040Y0251446D01*
X0073112Y0251393D01*
X0073181Y0251336D01*
X0073248Y0251277D01*
X0073313Y0251215D01*
X0073374Y0251150D01*
X0073433Y0251082D01*
X0073488Y0251012D01*
X0073540Y0250939D01*
X0073589Y0250865D01*
X0073635Y0250788D01*
X0073677Y0250709D01*
X0073716Y0250628D01*
X0073751Y0250546D01*
X0073782Y0250462D01*
X0073809Y0250377D01*
X0073833Y0250290D01*
X0073853Y0250203D01*
X0073869Y0250115D01*
X0073881Y0250026D01*
X0073889Y0249937D01*
X0073893Y0249848D01*
X0073893Y0249758D01*
X0073889Y0249669D01*
X0073881Y0249580D01*
X0073869Y0249491D01*
X0073853Y0249403D01*
X0073833Y0249316D01*
X0073809Y0249229D01*
X0073782Y0249144D01*
X0073751Y0249060D01*
X0073716Y0248978D01*
X0073677Y0248897D01*
X0073635Y0248818D01*
X0073589Y0248741D01*
X0073540Y0248667D01*
X0073488Y0248594D01*
X0073433Y0248524D01*
X0073374Y0248456D01*
X0073313Y0248391D01*
X0073248Y0248329D01*
X0073181Y0248270D01*
X0073112Y0248213D01*
X0073040Y0248160D01*
X0072965Y0248110D01*
X0072889Y0248064D01*
X0072811Y0248021D01*
X0072730Y0247982D01*
X0072648Y0247946D01*
X0072565Y0247914D01*
X0072480Y0247885D01*
X0072394Y0247861D01*
X0072307Y0247840D01*
X0072219Y0247823D01*
X0072130Y0247810D01*
X0072041Y0247801D01*
X0071952Y0247796D01*
X0071863Y0247795D01*
X0071773Y0247798D01*
X0071684Y0247805D01*
X0071595Y0247816D01*
X0071507Y0247831D01*
X0071420Y0247850D01*
X0071333Y0247872D01*
X0071247Y0247899D01*
X0071163Y0247929D01*
X0071081Y0247963D01*
X0070999Y0248001D01*
X0070920Y0248042D01*
X0070843Y0248087D01*
X0070767Y0248135D01*
X0070694Y0248186D01*
X0070623Y0248241D01*
X0070555Y0248299D01*
X0070489Y0248360D01*
X0070426Y0248423D01*
X0070366Y0248490D01*
X0070309Y0248559D01*
X0070255Y0248630D01*
X0070205Y0248704D01*
X0070157Y0248780D01*
X0070113Y0248858D01*
X0070073Y0248938D01*
X0070036Y0249019D01*
X0070003Y0249102D01*
X0069974Y0249187D01*
X0069948Y0249272D01*
X0069927Y0249359D01*
X0069909Y0249447D01*
X0069895Y0249535D01*
X0069885Y0249624D01*
X0069879Y0249714D01*
X0069877Y0249803D01*
X0069877Y0259803D02*
X0069879Y0259892D01*
X0069885Y0259982D01*
X0069895Y0260071D01*
X0069909Y0260159D01*
X0069927Y0260247D01*
X0069948Y0260334D01*
X0069974Y0260419D01*
X0070003Y0260504D01*
X0070036Y0260587D01*
X0070073Y0260668D01*
X0070113Y0260748D01*
X0070157Y0260826D01*
X0070205Y0260902D01*
X0070255Y0260976D01*
X0070309Y0261047D01*
X0070366Y0261116D01*
X0070426Y0261183D01*
X0070489Y0261246D01*
X0070555Y0261307D01*
X0070623Y0261365D01*
X0070694Y0261420D01*
X0070767Y0261471D01*
X0070843Y0261519D01*
X0070920Y0261564D01*
X0070999Y0261605D01*
X0071081Y0261643D01*
X0071163Y0261677D01*
X0071247Y0261707D01*
X0071333Y0261734D01*
X0071420Y0261756D01*
X0071507Y0261775D01*
X0071595Y0261790D01*
X0071684Y0261801D01*
X0071773Y0261808D01*
X0071863Y0261811D01*
X0071952Y0261810D01*
X0072041Y0261805D01*
X0072130Y0261796D01*
X0072219Y0261783D01*
X0072307Y0261766D01*
X0072394Y0261745D01*
X0072480Y0261721D01*
X0072565Y0261692D01*
X0072648Y0261660D01*
X0072730Y0261624D01*
X0072811Y0261585D01*
X0072889Y0261542D01*
X0072965Y0261496D01*
X0073040Y0261446D01*
X0073112Y0261393D01*
X0073181Y0261336D01*
X0073248Y0261277D01*
X0073313Y0261215D01*
X0073374Y0261150D01*
X0073433Y0261082D01*
X0073488Y0261012D01*
X0073540Y0260939D01*
X0073589Y0260865D01*
X0073635Y0260788D01*
X0073677Y0260709D01*
X0073716Y0260628D01*
X0073751Y0260546D01*
X0073782Y0260462D01*
X0073809Y0260377D01*
X0073833Y0260290D01*
X0073853Y0260203D01*
X0073869Y0260115D01*
X0073881Y0260026D01*
X0073889Y0259937D01*
X0073893Y0259848D01*
X0073893Y0259758D01*
X0073889Y0259669D01*
X0073881Y0259580D01*
X0073869Y0259491D01*
X0073853Y0259403D01*
X0073833Y0259316D01*
X0073809Y0259229D01*
X0073782Y0259144D01*
X0073751Y0259060D01*
X0073716Y0258978D01*
X0073677Y0258897D01*
X0073635Y0258818D01*
X0073589Y0258741D01*
X0073540Y0258667D01*
X0073488Y0258594D01*
X0073433Y0258524D01*
X0073374Y0258456D01*
X0073313Y0258391D01*
X0073248Y0258329D01*
X0073181Y0258270D01*
X0073112Y0258213D01*
X0073040Y0258160D01*
X0072965Y0258110D01*
X0072889Y0258064D01*
X0072811Y0258021D01*
X0072730Y0257982D01*
X0072648Y0257946D01*
X0072565Y0257914D01*
X0072480Y0257885D01*
X0072394Y0257861D01*
X0072307Y0257840D01*
X0072219Y0257823D01*
X0072130Y0257810D01*
X0072041Y0257801D01*
X0071952Y0257796D01*
X0071863Y0257795D01*
X0071773Y0257798D01*
X0071684Y0257805D01*
X0071595Y0257816D01*
X0071507Y0257831D01*
X0071420Y0257850D01*
X0071333Y0257872D01*
X0071247Y0257899D01*
X0071163Y0257929D01*
X0071081Y0257963D01*
X0070999Y0258001D01*
X0070920Y0258042D01*
X0070843Y0258087D01*
X0070767Y0258135D01*
X0070694Y0258186D01*
X0070623Y0258241D01*
X0070555Y0258299D01*
X0070489Y0258360D01*
X0070426Y0258423D01*
X0070366Y0258490D01*
X0070309Y0258559D01*
X0070255Y0258630D01*
X0070205Y0258704D01*
X0070157Y0258780D01*
X0070113Y0258858D01*
X0070073Y0258938D01*
X0070036Y0259019D01*
X0070003Y0259102D01*
X0069974Y0259187D01*
X0069948Y0259272D01*
X0069927Y0259359D01*
X0069909Y0259447D01*
X0069895Y0259535D01*
X0069885Y0259624D01*
X0069879Y0259714D01*
X0069877Y0259803D01*
X0079877Y0259803D02*
X0079879Y0259892D01*
X0079885Y0259982D01*
X0079895Y0260071D01*
X0079909Y0260159D01*
X0079927Y0260247D01*
X0079948Y0260334D01*
X0079974Y0260419D01*
X0080003Y0260504D01*
X0080036Y0260587D01*
X0080073Y0260668D01*
X0080113Y0260748D01*
X0080157Y0260826D01*
X0080205Y0260902D01*
X0080255Y0260976D01*
X0080309Y0261047D01*
X0080366Y0261116D01*
X0080426Y0261183D01*
X0080489Y0261246D01*
X0080555Y0261307D01*
X0080623Y0261365D01*
X0080694Y0261420D01*
X0080767Y0261471D01*
X0080843Y0261519D01*
X0080920Y0261564D01*
X0080999Y0261605D01*
X0081081Y0261643D01*
X0081163Y0261677D01*
X0081247Y0261707D01*
X0081333Y0261734D01*
X0081420Y0261756D01*
X0081507Y0261775D01*
X0081595Y0261790D01*
X0081684Y0261801D01*
X0081773Y0261808D01*
X0081863Y0261811D01*
X0081952Y0261810D01*
X0082041Y0261805D01*
X0082130Y0261796D01*
X0082219Y0261783D01*
X0082307Y0261766D01*
X0082394Y0261745D01*
X0082480Y0261721D01*
X0082565Y0261692D01*
X0082648Y0261660D01*
X0082730Y0261624D01*
X0082811Y0261585D01*
X0082889Y0261542D01*
X0082965Y0261496D01*
X0083040Y0261446D01*
X0083112Y0261393D01*
X0083181Y0261336D01*
X0083248Y0261277D01*
X0083313Y0261215D01*
X0083374Y0261150D01*
X0083433Y0261082D01*
X0083488Y0261012D01*
X0083540Y0260939D01*
X0083589Y0260865D01*
X0083635Y0260788D01*
X0083677Y0260709D01*
X0083716Y0260628D01*
X0083751Y0260546D01*
X0083782Y0260462D01*
X0083809Y0260377D01*
X0083833Y0260290D01*
X0083853Y0260203D01*
X0083869Y0260115D01*
X0083881Y0260026D01*
X0083889Y0259937D01*
X0083893Y0259848D01*
X0083893Y0259758D01*
X0083889Y0259669D01*
X0083881Y0259580D01*
X0083869Y0259491D01*
X0083853Y0259403D01*
X0083833Y0259316D01*
X0083809Y0259229D01*
X0083782Y0259144D01*
X0083751Y0259060D01*
X0083716Y0258978D01*
X0083677Y0258897D01*
X0083635Y0258818D01*
X0083589Y0258741D01*
X0083540Y0258667D01*
X0083488Y0258594D01*
X0083433Y0258524D01*
X0083374Y0258456D01*
X0083313Y0258391D01*
X0083248Y0258329D01*
X0083181Y0258270D01*
X0083112Y0258213D01*
X0083040Y0258160D01*
X0082965Y0258110D01*
X0082889Y0258064D01*
X0082811Y0258021D01*
X0082730Y0257982D01*
X0082648Y0257946D01*
X0082565Y0257914D01*
X0082480Y0257885D01*
X0082394Y0257861D01*
X0082307Y0257840D01*
X0082219Y0257823D01*
X0082130Y0257810D01*
X0082041Y0257801D01*
X0081952Y0257796D01*
X0081863Y0257795D01*
X0081773Y0257798D01*
X0081684Y0257805D01*
X0081595Y0257816D01*
X0081507Y0257831D01*
X0081420Y0257850D01*
X0081333Y0257872D01*
X0081247Y0257899D01*
X0081163Y0257929D01*
X0081081Y0257963D01*
X0080999Y0258001D01*
X0080920Y0258042D01*
X0080843Y0258087D01*
X0080767Y0258135D01*
X0080694Y0258186D01*
X0080623Y0258241D01*
X0080555Y0258299D01*
X0080489Y0258360D01*
X0080426Y0258423D01*
X0080366Y0258490D01*
X0080309Y0258559D01*
X0080255Y0258630D01*
X0080205Y0258704D01*
X0080157Y0258780D01*
X0080113Y0258858D01*
X0080073Y0258938D01*
X0080036Y0259019D01*
X0080003Y0259102D01*
X0079974Y0259187D01*
X0079948Y0259272D01*
X0079927Y0259359D01*
X0079909Y0259447D01*
X0079895Y0259535D01*
X0079885Y0259624D01*
X0079879Y0259714D01*
X0079877Y0259803D01*
X0089877Y0259803D02*
X0089879Y0259892D01*
X0089885Y0259982D01*
X0089895Y0260071D01*
X0089909Y0260159D01*
X0089927Y0260247D01*
X0089948Y0260334D01*
X0089974Y0260419D01*
X0090003Y0260504D01*
X0090036Y0260587D01*
X0090073Y0260668D01*
X0090113Y0260748D01*
X0090157Y0260826D01*
X0090205Y0260902D01*
X0090255Y0260976D01*
X0090309Y0261047D01*
X0090366Y0261116D01*
X0090426Y0261183D01*
X0090489Y0261246D01*
X0090555Y0261307D01*
X0090623Y0261365D01*
X0090694Y0261420D01*
X0090767Y0261471D01*
X0090843Y0261519D01*
X0090920Y0261564D01*
X0090999Y0261605D01*
X0091081Y0261643D01*
X0091163Y0261677D01*
X0091247Y0261707D01*
X0091333Y0261734D01*
X0091420Y0261756D01*
X0091507Y0261775D01*
X0091595Y0261790D01*
X0091684Y0261801D01*
X0091773Y0261808D01*
X0091863Y0261811D01*
X0091952Y0261810D01*
X0092041Y0261805D01*
X0092130Y0261796D01*
X0092219Y0261783D01*
X0092307Y0261766D01*
X0092394Y0261745D01*
X0092480Y0261721D01*
X0092565Y0261692D01*
X0092648Y0261660D01*
X0092730Y0261624D01*
X0092811Y0261585D01*
X0092889Y0261542D01*
X0092965Y0261496D01*
X0093040Y0261446D01*
X0093112Y0261393D01*
X0093181Y0261336D01*
X0093248Y0261277D01*
X0093313Y0261215D01*
X0093374Y0261150D01*
X0093433Y0261082D01*
X0093488Y0261012D01*
X0093540Y0260939D01*
X0093589Y0260865D01*
X0093635Y0260788D01*
X0093677Y0260709D01*
X0093716Y0260628D01*
X0093751Y0260546D01*
X0093782Y0260462D01*
X0093809Y0260377D01*
X0093833Y0260290D01*
X0093853Y0260203D01*
X0093869Y0260115D01*
X0093881Y0260026D01*
X0093889Y0259937D01*
X0093893Y0259848D01*
X0093893Y0259758D01*
X0093889Y0259669D01*
X0093881Y0259580D01*
X0093869Y0259491D01*
X0093853Y0259403D01*
X0093833Y0259316D01*
X0093809Y0259229D01*
X0093782Y0259144D01*
X0093751Y0259060D01*
X0093716Y0258978D01*
X0093677Y0258897D01*
X0093635Y0258818D01*
X0093589Y0258741D01*
X0093540Y0258667D01*
X0093488Y0258594D01*
X0093433Y0258524D01*
X0093374Y0258456D01*
X0093313Y0258391D01*
X0093248Y0258329D01*
X0093181Y0258270D01*
X0093112Y0258213D01*
X0093040Y0258160D01*
X0092965Y0258110D01*
X0092889Y0258064D01*
X0092811Y0258021D01*
X0092730Y0257982D01*
X0092648Y0257946D01*
X0092565Y0257914D01*
X0092480Y0257885D01*
X0092394Y0257861D01*
X0092307Y0257840D01*
X0092219Y0257823D01*
X0092130Y0257810D01*
X0092041Y0257801D01*
X0091952Y0257796D01*
X0091863Y0257795D01*
X0091773Y0257798D01*
X0091684Y0257805D01*
X0091595Y0257816D01*
X0091507Y0257831D01*
X0091420Y0257850D01*
X0091333Y0257872D01*
X0091247Y0257899D01*
X0091163Y0257929D01*
X0091081Y0257963D01*
X0090999Y0258001D01*
X0090920Y0258042D01*
X0090843Y0258087D01*
X0090767Y0258135D01*
X0090694Y0258186D01*
X0090623Y0258241D01*
X0090555Y0258299D01*
X0090489Y0258360D01*
X0090426Y0258423D01*
X0090366Y0258490D01*
X0090309Y0258559D01*
X0090255Y0258630D01*
X0090205Y0258704D01*
X0090157Y0258780D01*
X0090113Y0258858D01*
X0090073Y0258938D01*
X0090036Y0259019D01*
X0090003Y0259102D01*
X0089974Y0259187D01*
X0089948Y0259272D01*
X0089927Y0259359D01*
X0089909Y0259447D01*
X0089895Y0259535D01*
X0089885Y0259624D01*
X0089879Y0259714D01*
X0089877Y0259803D01*
X0099877Y0259803D02*
X0099879Y0259892D01*
X0099885Y0259982D01*
X0099895Y0260071D01*
X0099909Y0260159D01*
X0099927Y0260247D01*
X0099948Y0260334D01*
X0099974Y0260419D01*
X0100003Y0260504D01*
X0100036Y0260587D01*
X0100073Y0260668D01*
X0100113Y0260748D01*
X0100157Y0260826D01*
X0100205Y0260902D01*
X0100255Y0260976D01*
X0100309Y0261047D01*
X0100366Y0261116D01*
X0100426Y0261183D01*
X0100489Y0261246D01*
X0100555Y0261307D01*
X0100623Y0261365D01*
X0100694Y0261420D01*
X0100767Y0261471D01*
X0100843Y0261519D01*
X0100920Y0261564D01*
X0100999Y0261605D01*
X0101081Y0261643D01*
X0101163Y0261677D01*
X0101247Y0261707D01*
X0101333Y0261734D01*
X0101420Y0261756D01*
X0101507Y0261775D01*
X0101595Y0261790D01*
X0101684Y0261801D01*
X0101773Y0261808D01*
X0101863Y0261811D01*
X0101952Y0261810D01*
X0102041Y0261805D01*
X0102130Y0261796D01*
X0102219Y0261783D01*
X0102307Y0261766D01*
X0102394Y0261745D01*
X0102480Y0261721D01*
X0102565Y0261692D01*
X0102648Y0261660D01*
X0102730Y0261624D01*
X0102811Y0261585D01*
X0102889Y0261542D01*
X0102965Y0261496D01*
X0103040Y0261446D01*
X0103112Y0261393D01*
X0103181Y0261336D01*
X0103248Y0261277D01*
X0103313Y0261215D01*
X0103374Y0261150D01*
X0103433Y0261082D01*
X0103488Y0261012D01*
X0103540Y0260939D01*
X0103589Y0260865D01*
X0103635Y0260788D01*
X0103677Y0260709D01*
X0103716Y0260628D01*
X0103751Y0260546D01*
X0103782Y0260462D01*
X0103809Y0260377D01*
X0103833Y0260290D01*
X0103853Y0260203D01*
X0103869Y0260115D01*
X0103881Y0260026D01*
X0103889Y0259937D01*
X0103893Y0259848D01*
X0103893Y0259758D01*
X0103889Y0259669D01*
X0103881Y0259580D01*
X0103869Y0259491D01*
X0103853Y0259403D01*
X0103833Y0259316D01*
X0103809Y0259229D01*
X0103782Y0259144D01*
X0103751Y0259060D01*
X0103716Y0258978D01*
X0103677Y0258897D01*
X0103635Y0258818D01*
X0103589Y0258741D01*
X0103540Y0258667D01*
X0103488Y0258594D01*
X0103433Y0258524D01*
X0103374Y0258456D01*
X0103313Y0258391D01*
X0103248Y0258329D01*
X0103181Y0258270D01*
X0103112Y0258213D01*
X0103040Y0258160D01*
X0102965Y0258110D01*
X0102889Y0258064D01*
X0102811Y0258021D01*
X0102730Y0257982D01*
X0102648Y0257946D01*
X0102565Y0257914D01*
X0102480Y0257885D01*
X0102394Y0257861D01*
X0102307Y0257840D01*
X0102219Y0257823D01*
X0102130Y0257810D01*
X0102041Y0257801D01*
X0101952Y0257796D01*
X0101863Y0257795D01*
X0101773Y0257798D01*
X0101684Y0257805D01*
X0101595Y0257816D01*
X0101507Y0257831D01*
X0101420Y0257850D01*
X0101333Y0257872D01*
X0101247Y0257899D01*
X0101163Y0257929D01*
X0101081Y0257963D01*
X0100999Y0258001D01*
X0100920Y0258042D01*
X0100843Y0258087D01*
X0100767Y0258135D01*
X0100694Y0258186D01*
X0100623Y0258241D01*
X0100555Y0258299D01*
X0100489Y0258360D01*
X0100426Y0258423D01*
X0100366Y0258490D01*
X0100309Y0258559D01*
X0100255Y0258630D01*
X0100205Y0258704D01*
X0100157Y0258780D01*
X0100113Y0258858D01*
X0100073Y0258938D01*
X0100036Y0259019D01*
X0100003Y0259102D01*
X0099974Y0259187D01*
X0099948Y0259272D01*
X0099927Y0259359D01*
X0099909Y0259447D01*
X0099895Y0259535D01*
X0099885Y0259624D01*
X0099879Y0259714D01*
X0099877Y0259803D01*
X0109877Y0259803D02*
X0109879Y0259892D01*
X0109885Y0259982D01*
X0109895Y0260071D01*
X0109909Y0260159D01*
X0109927Y0260247D01*
X0109948Y0260334D01*
X0109974Y0260419D01*
X0110003Y0260504D01*
X0110036Y0260587D01*
X0110073Y0260668D01*
X0110113Y0260748D01*
X0110157Y0260826D01*
X0110205Y0260902D01*
X0110255Y0260976D01*
X0110309Y0261047D01*
X0110366Y0261116D01*
X0110426Y0261183D01*
X0110489Y0261246D01*
X0110555Y0261307D01*
X0110623Y0261365D01*
X0110694Y0261420D01*
X0110767Y0261471D01*
X0110843Y0261519D01*
X0110920Y0261564D01*
X0110999Y0261605D01*
X0111081Y0261643D01*
X0111163Y0261677D01*
X0111247Y0261707D01*
X0111333Y0261734D01*
X0111420Y0261756D01*
X0111507Y0261775D01*
X0111595Y0261790D01*
X0111684Y0261801D01*
X0111773Y0261808D01*
X0111863Y0261811D01*
X0111952Y0261810D01*
X0112041Y0261805D01*
X0112130Y0261796D01*
X0112219Y0261783D01*
X0112307Y0261766D01*
X0112394Y0261745D01*
X0112480Y0261721D01*
X0112565Y0261692D01*
X0112648Y0261660D01*
X0112730Y0261624D01*
X0112811Y0261585D01*
X0112889Y0261542D01*
X0112965Y0261496D01*
X0113040Y0261446D01*
X0113112Y0261393D01*
X0113181Y0261336D01*
X0113248Y0261277D01*
X0113313Y0261215D01*
X0113374Y0261150D01*
X0113433Y0261082D01*
X0113488Y0261012D01*
X0113540Y0260939D01*
X0113589Y0260865D01*
X0113635Y0260788D01*
X0113677Y0260709D01*
X0113716Y0260628D01*
X0113751Y0260546D01*
X0113782Y0260462D01*
X0113809Y0260377D01*
X0113833Y0260290D01*
X0113853Y0260203D01*
X0113869Y0260115D01*
X0113881Y0260026D01*
X0113889Y0259937D01*
X0113893Y0259848D01*
X0113893Y0259758D01*
X0113889Y0259669D01*
X0113881Y0259580D01*
X0113869Y0259491D01*
X0113853Y0259403D01*
X0113833Y0259316D01*
X0113809Y0259229D01*
X0113782Y0259144D01*
X0113751Y0259060D01*
X0113716Y0258978D01*
X0113677Y0258897D01*
X0113635Y0258818D01*
X0113589Y0258741D01*
X0113540Y0258667D01*
X0113488Y0258594D01*
X0113433Y0258524D01*
X0113374Y0258456D01*
X0113313Y0258391D01*
X0113248Y0258329D01*
X0113181Y0258270D01*
X0113112Y0258213D01*
X0113040Y0258160D01*
X0112965Y0258110D01*
X0112889Y0258064D01*
X0112811Y0258021D01*
X0112730Y0257982D01*
X0112648Y0257946D01*
X0112565Y0257914D01*
X0112480Y0257885D01*
X0112394Y0257861D01*
X0112307Y0257840D01*
X0112219Y0257823D01*
X0112130Y0257810D01*
X0112041Y0257801D01*
X0111952Y0257796D01*
X0111863Y0257795D01*
X0111773Y0257798D01*
X0111684Y0257805D01*
X0111595Y0257816D01*
X0111507Y0257831D01*
X0111420Y0257850D01*
X0111333Y0257872D01*
X0111247Y0257899D01*
X0111163Y0257929D01*
X0111081Y0257963D01*
X0110999Y0258001D01*
X0110920Y0258042D01*
X0110843Y0258087D01*
X0110767Y0258135D01*
X0110694Y0258186D01*
X0110623Y0258241D01*
X0110555Y0258299D01*
X0110489Y0258360D01*
X0110426Y0258423D01*
X0110366Y0258490D01*
X0110309Y0258559D01*
X0110255Y0258630D01*
X0110205Y0258704D01*
X0110157Y0258780D01*
X0110113Y0258858D01*
X0110073Y0258938D01*
X0110036Y0259019D01*
X0110003Y0259102D01*
X0109974Y0259187D01*
X0109948Y0259272D01*
X0109927Y0259359D01*
X0109909Y0259447D01*
X0109895Y0259535D01*
X0109885Y0259624D01*
X0109879Y0259714D01*
X0109877Y0259803D01*
X0119877Y0259803D02*
X0119879Y0259892D01*
X0119885Y0259982D01*
X0119895Y0260071D01*
X0119909Y0260159D01*
X0119927Y0260247D01*
X0119948Y0260334D01*
X0119974Y0260419D01*
X0120003Y0260504D01*
X0120036Y0260587D01*
X0120073Y0260668D01*
X0120113Y0260748D01*
X0120157Y0260826D01*
X0120205Y0260902D01*
X0120255Y0260976D01*
X0120309Y0261047D01*
X0120366Y0261116D01*
X0120426Y0261183D01*
X0120489Y0261246D01*
X0120555Y0261307D01*
X0120623Y0261365D01*
X0120694Y0261420D01*
X0120767Y0261471D01*
X0120843Y0261519D01*
X0120920Y0261564D01*
X0120999Y0261605D01*
X0121081Y0261643D01*
X0121163Y0261677D01*
X0121247Y0261707D01*
X0121333Y0261734D01*
X0121420Y0261756D01*
X0121507Y0261775D01*
X0121595Y0261790D01*
X0121684Y0261801D01*
X0121773Y0261808D01*
X0121863Y0261811D01*
X0121952Y0261810D01*
X0122041Y0261805D01*
X0122130Y0261796D01*
X0122219Y0261783D01*
X0122307Y0261766D01*
X0122394Y0261745D01*
X0122480Y0261721D01*
X0122565Y0261692D01*
X0122648Y0261660D01*
X0122730Y0261624D01*
X0122811Y0261585D01*
X0122889Y0261542D01*
X0122965Y0261496D01*
X0123040Y0261446D01*
X0123112Y0261393D01*
X0123181Y0261336D01*
X0123248Y0261277D01*
X0123313Y0261215D01*
X0123374Y0261150D01*
X0123433Y0261082D01*
X0123488Y0261012D01*
X0123540Y0260939D01*
X0123589Y0260865D01*
X0123635Y0260788D01*
X0123677Y0260709D01*
X0123716Y0260628D01*
X0123751Y0260546D01*
X0123782Y0260462D01*
X0123809Y0260377D01*
X0123833Y0260290D01*
X0123853Y0260203D01*
X0123869Y0260115D01*
X0123881Y0260026D01*
X0123889Y0259937D01*
X0123893Y0259848D01*
X0123893Y0259758D01*
X0123889Y0259669D01*
X0123881Y0259580D01*
X0123869Y0259491D01*
X0123853Y0259403D01*
X0123833Y0259316D01*
X0123809Y0259229D01*
X0123782Y0259144D01*
X0123751Y0259060D01*
X0123716Y0258978D01*
X0123677Y0258897D01*
X0123635Y0258818D01*
X0123589Y0258741D01*
X0123540Y0258667D01*
X0123488Y0258594D01*
X0123433Y0258524D01*
X0123374Y0258456D01*
X0123313Y0258391D01*
X0123248Y0258329D01*
X0123181Y0258270D01*
X0123112Y0258213D01*
X0123040Y0258160D01*
X0122965Y0258110D01*
X0122889Y0258064D01*
X0122811Y0258021D01*
X0122730Y0257982D01*
X0122648Y0257946D01*
X0122565Y0257914D01*
X0122480Y0257885D01*
X0122394Y0257861D01*
X0122307Y0257840D01*
X0122219Y0257823D01*
X0122130Y0257810D01*
X0122041Y0257801D01*
X0121952Y0257796D01*
X0121863Y0257795D01*
X0121773Y0257798D01*
X0121684Y0257805D01*
X0121595Y0257816D01*
X0121507Y0257831D01*
X0121420Y0257850D01*
X0121333Y0257872D01*
X0121247Y0257899D01*
X0121163Y0257929D01*
X0121081Y0257963D01*
X0120999Y0258001D01*
X0120920Y0258042D01*
X0120843Y0258087D01*
X0120767Y0258135D01*
X0120694Y0258186D01*
X0120623Y0258241D01*
X0120555Y0258299D01*
X0120489Y0258360D01*
X0120426Y0258423D01*
X0120366Y0258490D01*
X0120309Y0258559D01*
X0120255Y0258630D01*
X0120205Y0258704D01*
X0120157Y0258780D01*
X0120113Y0258858D01*
X0120073Y0258938D01*
X0120036Y0259019D01*
X0120003Y0259102D01*
X0119974Y0259187D01*
X0119948Y0259272D01*
X0119927Y0259359D01*
X0119909Y0259447D01*
X0119895Y0259535D01*
X0119885Y0259624D01*
X0119879Y0259714D01*
X0119877Y0259803D01*
X0129877Y0259803D02*
X0129879Y0259892D01*
X0129885Y0259982D01*
X0129895Y0260071D01*
X0129909Y0260159D01*
X0129927Y0260247D01*
X0129948Y0260334D01*
X0129974Y0260419D01*
X0130003Y0260504D01*
X0130036Y0260587D01*
X0130073Y0260668D01*
X0130113Y0260748D01*
X0130157Y0260826D01*
X0130205Y0260902D01*
X0130255Y0260976D01*
X0130309Y0261047D01*
X0130366Y0261116D01*
X0130426Y0261183D01*
X0130489Y0261246D01*
X0130555Y0261307D01*
X0130623Y0261365D01*
X0130694Y0261420D01*
X0130767Y0261471D01*
X0130843Y0261519D01*
X0130920Y0261564D01*
X0130999Y0261605D01*
X0131081Y0261643D01*
X0131163Y0261677D01*
X0131247Y0261707D01*
X0131333Y0261734D01*
X0131420Y0261756D01*
X0131507Y0261775D01*
X0131595Y0261790D01*
X0131684Y0261801D01*
X0131773Y0261808D01*
X0131863Y0261811D01*
X0131952Y0261810D01*
X0132041Y0261805D01*
X0132130Y0261796D01*
X0132219Y0261783D01*
X0132307Y0261766D01*
X0132394Y0261745D01*
X0132480Y0261721D01*
X0132565Y0261692D01*
X0132648Y0261660D01*
X0132730Y0261624D01*
X0132811Y0261585D01*
X0132889Y0261542D01*
X0132965Y0261496D01*
X0133040Y0261446D01*
X0133112Y0261393D01*
X0133181Y0261336D01*
X0133248Y0261277D01*
X0133313Y0261215D01*
X0133374Y0261150D01*
X0133433Y0261082D01*
X0133488Y0261012D01*
X0133540Y0260939D01*
X0133589Y0260865D01*
X0133635Y0260788D01*
X0133677Y0260709D01*
X0133716Y0260628D01*
X0133751Y0260546D01*
X0133782Y0260462D01*
X0133809Y0260377D01*
X0133833Y0260290D01*
X0133853Y0260203D01*
X0133869Y0260115D01*
X0133881Y0260026D01*
X0133889Y0259937D01*
X0133893Y0259848D01*
X0133893Y0259758D01*
X0133889Y0259669D01*
X0133881Y0259580D01*
X0133869Y0259491D01*
X0133853Y0259403D01*
X0133833Y0259316D01*
X0133809Y0259229D01*
X0133782Y0259144D01*
X0133751Y0259060D01*
X0133716Y0258978D01*
X0133677Y0258897D01*
X0133635Y0258818D01*
X0133589Y0258741D01*
X0133540Y0258667D01*
X0133488Y0258594D01*
X0133433Y0258524D01*
X0133374Y0258456D01*
X0133313Y0258391D01*
X0133248Y0258329D01*
X0133181Y0258270D01*
X0133112Y0258213D01*
X0133040Y0258160D01*
X0132965Y0258110D01*
X0132889Y0258064D01*
X0132811Y0258021D01*
X0132730Y0257982D01*
X0132648Y0257946D01*
X0132565Y0257914D01*
X0132480Y0257885D01*
X0132394Y0257861D01*
X0132307Y0257840D01*
X0132219Y0257823D01*
X0132130Y0257810D01*
X0132041Y0257801D01*
X0131952Y0257796D01*
X0131863Y0257795D01*
X0131773Y0257798D01*
X0131684Y0257805D01*
X0131595Y0257816D01*
X0131507Y0257831D01*
X0131420Y0257850D01*
X0131333Y0257872D01*
X0131247Y0257899D01*
X0131163Y0257929D01*
X0131081Y0257963D01*
X0130999Y0258001D01*
X0130920Y0258042D01*
X0130843Y0258087D01*
X0130767Y0258135D01*
X0130694Y0258186D01*
X0130623Y0258241D01*
X0130555Y0258299D01*
X0130489Y0258360D01*
X0130426Y0258423D01*
X0130366Y0258490D01*
X0130309Y0258559D01*
X0130255Y0258630D01*
X0130205Y0258704D01*
X0130157Y0258780D01*
X0130113Y0258858D01*
X0130073Y0258938D01*
X0130036Y0259019D01*
X0130003Y0259102D01*
X0129974Y0259187D01*
X0129948Y0259272D01*
X0129927Y0259359D01*
X0129909Y0259447D01*
X0129895Y0259535D01*
X0129885Y0259624D01*
X0129879Y0259714D01*
X0129877Y0259803D01*
X0139877Y0259803D02*
X0139879Y0259892D01*
X0139885Y0259982D01*
X0139895Y0260071D01*
X0139909Y0260159D01*
X0139927Y0260247D01*
X0139948Y0260334D01*
X0139974Y0260419D01*
X0140003Y0260504D01*
X0140036Y0260587D01*
X0140073Y0260668D01*
X0140113Y0260748D01*
X0140157Y0260826D01*
X0140205Y0260902D01*
X0140255Y0260976D01*
X0140309Y0261047D01*
X0140366Y0261116D01*
X0140426Y0261183D01*
X0140489Y0261246D01*
X0140555Y0261307D01*
X0140623Y0261365D01*
X0140694Y0261420D01*
X0140767Y0261471D01*
X0140843Y0261519D01*
X0140920Y0261564D01*
X0140999Y0261605D01*
X0141081Y0261643D01*
X0141163Y0261677D01*
X0141247Y0261707D01*
X0141333Y0261734D01*
X0141420Y0261756D01*
X0141507Y0261775D01*
X0141595Y0261790D01*
X0141684Y0261801D01*
X0141773Y0261808D01*
X0141863Y0261811D01*
X0141952Y0261810D01*
X0142041Y0261805D01*
X0142130Y0261796D01*
X0142219Y0261783D01*
X0142307Y0261766D01*
X0142394Y0261745D01*
X0142480Y0261721D01*
X0142565Y0261692D01*
X0142648Y0261660D01*
X0142730Y0261624D01*
X0142811Y0261585D01*
X0142889Y0261542D01*
X0142965Y0261496D01*
X0143040Y0261446D01*
X0143112Y0261393D01*
X0143181Y0261336D01*
X0143248Y0261277D01*
X0143313Y0261215D01*
X0143374Y0261150D01*
X0143433Y0261082D01*
X0143488Y0261012D01*
X0143540Y0260939D01*
X0143589Y0260865D01*
X0143635Y0260788D01*
X0143677Y0260709D01*
X0143716Y0260628D01*
X0143751Y0260546D01*
X0143782Y0260462D01*
X0143809Y0260377D01*
X0143833Y0260290D01*
X0143853Y0260203D01*
X0143869Y0260115D01*
X0143881Y0260026D01*
X0143889Y0259937D01*
X0143893Y0259848D01*
X0143893Y0259758D01*
X0143889Y0259669D01*
X0143881Y0259580D01*
X0143869Y0259491D01*
X0143853Y0259403D01*
X0143833Y0259316D01*
X0143809Y0259229D01*
X0143782Y0259144D01*
X0143751Y0259060D01*
X0143716Y0258978D01*
X0143677Y0258897D01*
X0143635Y0258818D01*
X0143589Y0258741D01*
X0143540Y0258667D01*
X0143488Y0258594D01*
X0143433Y0258524D01*
X0143374Y0258456D01*
X0143313Y0258391D01*
X0143248Y0258329D01*
X0143181Y0258270D01*
X0143112Y0258213D01*
X0143040Y0258160D01*
X0142965Y0258110D01*
X0142889Y0258064D01*
X0142811Y0258021D01*
X0142730Y0257982D01*
X0142648Y0257946D01*
X0142565Y0257914D01*
X0142480Y0257885D01*
X0142394Y0257861D01*
X0142307Y0257840D01*
X0142219Y0257823D01*
X0142130Y0257810D01*
X0142041Y0257801D01*
X0141952Y0257796D01*
X0141863Y0257795D01*
X0141773Y0257798D01*
X0141684Y0257805D01*
X0141595Y0257816D01*
X0141507Y0257831D01*
X0141420Y0257850D01*
X0141333Y0257872D01*
X0141247Y0257899D01*
X0141163Y0257929D01*
X0141081Y0257963D01*
X0140999Y0258001D01*
X0140920Y0258042D01*
X0140843Y0258087D01*
X0140767Y0258135D01*
X0140694Y0258186D01*
X0140623Y0258241D01*
X0140555Y0258299D01*
X0140489Y0258360D01*
X0140426Y0258423D01*
X0140366Y0258490D01*
X0140309Y0258559D01*
X0140255Y0258630D01*
X0140205Y0258704D01*
X0140157Y0258780D01*
X0140113Y0258858D01*
X0140073Y0258938D01*
X0140036Y0259019D01*
X0140003Y0259102D01*
X0139974Y0259187D01*
X0139948Y0259272D01*
X0139927Y0259359D01*
X0139909Y0259447D01*
X0139895Y0259535D01*
X0139885Y0259624D01*
X0139879Y0259714D01*
X0139877Y0259803D01*
X0149877Y0259803D02*
X0149879Y0259892D01*
X0149885Y0259982D01*
X0149895Y0260071D01*
X0149909Y0260159D01*
X0149927Y0260247D01*
X0149948Y0260334D01*
X0149974Y0260419D01*
X0150003Y0260504D01*
X0150036Y0260587D01*
X0150073Y0260668D01*
X0150113Y0260748D01*
X0150157Y0260826D01*
X0150205Y0260902D01*
X0150255Y0260976D01*
X0150309Y0261047D01*
X0150366Y0261116D01*
X0150426Y0261183D01*
X0150489Y0261246D01*
X0150555Y0261307D01*
X0150623Y0261365D01*
X0150694Y0261420D01*
X0150767Y0261471D01*
X0150843Y0261519D01*
X0150920Y0261564D01*
X0150999Y0261605D01*
X0151081Y0261643D01*
X0151163Y0261677D01*
X0151247Y0261707D01*
X0151333Y0261734D01*
X0151420Y0261756D01*
X0151507Y0261775D01*
X0151595Y0261790D01*
X0151684Y0261801D01*
X0151773Y0261808D01*
X0151863Y0261811D01*
X0151952Y0261810D01*
X0152041Y0261805D01*
X0152130Y0261796D01*
X0152219Y0261783D01*
X0152307Y0261766D01*
X0152394Y0261745D01*
X0152480Y0261721D01*
X0152565Y0261692D01*
X0152648Y0261660D01*
X0152730Y0261624D01*
X0152811Y0261585D01*
X0152889Y0261542D01*
X0152965Y0261496D01*
X0153040Y0261446D01*
X0153112Y0261393D01*
X0153181Y0261336D01*
X0153248Y0261277D01*
X0153313Y0261215D01*
X0153374Y0261150D01*
X0153433Y0261082D01*
X0153488Y0261012D01*
X0153540Y0260939D01*
X0153589Y0260865D01*
X0153635Y0260788D01*
X0153677Y0260709D01*
X0153716Y0260628D01*
X0153751Y0260546D01*
X0153782Y0260462D01*
X0153809Y0260377D01*
X0153833Y0260290D01*
X0153853Y0260203D01*
X0153869Y0260115D01*
X0153881Y0260026D01*
X0153889Y0259937D01*
X0153893Y0259848D01*
X0153893Y0259758D01*
X0153889Y0259669D01*
X0153881Y0259580D01*
X0153869Y0259491D01*
X0153853Y0259403D01*
X0153833Y0259316D01*
X0153809Y0259229D01*
X0153782Y0259144D01*
X0153751Y0259060D01*
X0153716Y0258978D01*
X0153677Y0258897D01*
X0153635Y0258818D01*
X0153589Y0258741D01*
X0153540Y0258667D01*
X0153488Y0258594D01*
X0153433Y0258524D01*
X0153374Y0258456D01*
X0153313Y0258391D01*
X0153248Y0258329D01*
X0153181Y0258270D01*
X0153112Y0258213D01*
X0153040Y0258160D01*
X0152965Y0258110D01*
X0152889Y0258064D01*
X0152811Y0258021D01*
X0152730Y0257982D01*
X0152648Y0257946D01*
X0152565Y0257914D01*
X0152480Y0257885D01*
X0152394Y0257861D01*
X0152307Y0257840D01*
X0152219Y0257823D01*
X0152130Y0257810D01*
X0152041Y0257801D01*
X0151952Y0257796D01*
X0151863Y0257795D01*
X0151773Y0257798D01*
X0151684Y0257805D01*
X0151595Y0257816D01*
X0151507Y0257831D01*
X0151420Y0257850D01*
X0151333Y0257872D01*
X0151247Y0257899D01*
X0151163Y0257929D01*
X0151081Y0257963D01*
X0150999Y0258001D01*
X0150920Y0258042D01*
X0150843Y0258087D01*
X0150767Y0258135D01*
X0150694Y0258186D01*
X0150623Y0258241D01*
X0150555Y0258299D01*
X0150489Y0258360D01*
X0150426Y0258423D01*
X0150366Y0258490D01*
X0150309Y0258559D01*
X0150255Y0258630D01*
X0150205Y0258704D01*
X0150157Y0258780D01*
X0150113Y0258858D01*
X0150073Y0258938D01*
X0150036Y0259019D01*
X0150003Y0259102D01*
X0149974Y0259187D01*
X0149948Y0259272D01*
X0149927Y0259359D01*
X0149909Y0259447D01*
X0149895Y0259535D01*
X0149885Y0259624D01*
X0149879Y0259714D01*
X0149877Y0259803D01*
X0159877Y0259803D02*
X0159879Y0259892D01*
X0159885Y0259982D01*
X0159895Y0260071D01*
X0159909Y0260159D01*
X0159927Y0260247D01*
X0159948Y0260334D01*
X0159974Y0260419D01*
X0160003Y0260504D01*
X0160036Y0260587D01*
X0160073Y0260668D01*
X0160113Y0260748D01*
X0160157Y0260826D01*
X0160205Y0260902D01*
X0160255Y0260976D01*
X0160309Y0261047D01*
X0160366Y0261116D01*
X0160426Y0261183D01*
X0160489Y0261246D01*
X0160555Y0261307D01*
X0160623Y0261365D01*
X0160694Y0261420D01*
X0160767Y0261471D01*
X0160843Y0261519D01*
X0160920Y0261564D01*
X0160999Y0261605D01*
X0161081Y0261643D01*
X0161163Y0261677D01*
X0161247Y0261707D01*
X0161333Y0261734D01*
X0161420Y0261756D01*
X0161507Y0261775D01*
X0161595Y0261790D01*
X0161684Y0261801D01*
X0161773Y0261808D01*
X0161863Y0261811D01*
X0161952Y0261810D01*
X0162041Y0261805D01*
X0162130Y0261796D01*
X0162219Y0261783D01*
X0162307Y0261766D01*
X0162394Y0261745D01*
X0162480Y0261721D01*
X0162565Y0261692D01*
X0162648Y0261660D01*
X0162730Y0261624D01*
X0162811Y0261585D01*
X0162889Y0261542D01*
X0162965Y0261496D01*
X0163040Y0261446D01*
X0163112Y0261393D01*
X0163181Y0261336D01*
X0163248Y0261277D01*
X0163313Y0261215D01*
X0163374Y0261150D01*
X0163433Y0261082D01*
X0163488Y0261012D01*
X0163540Y0260939D01*
X0163589Y0260865D01*
X0163635Y0260788D01*
X0163677Y0260709D01*
X0163716Y0260628D01*
X0163751Y0260546D01*
X0163782Y0260462D01*
X0163809Y0260377D01*
X0163833Y0260290D01*
X0163853Y0260203D01*
X0163869Y0260115D01*
X0163881Y0260026D01*
X0163889Y0259937D01*
X0163893Y0259848D01*
X0163893Y0259758D01*
X0163889Y0259669D01*
X0163881Y0259580D01*
X0163869Y0259491D01*
X0163853Y0259403D01*
X0163833Y0259316D01*
X0163809Y0259229D01*
X0163782Y0259144D01*
X0163751Y0259060D01*
X0163716Y0258978D01*
X0163677Y0258897D01*
X0163635Y0258818D01*
X0163589Y0258741D01*
X0163540Y0258667D01*
X0163488Y0258594D01*
X0163433Y0258524D01*
X0163374Y0258456D01*
X0163313Y0258391D01*
X0163248Y0258329D01*
X0163181Y0258270D01*
X0163112Y0258213D01*
X0163040Y0258160D01*
X0162965Y0258110D01*
X0162889Y0258064D01*
X0162811Y0258021D01*
X0162730Y0257982D01*
X0162648Y0257946D01*
X0162565Y0257914D01*
X0162480Y0257885D01*
X0162394Y0257861D01*
X0162307Y0257840D01*
X0162219Y0257823D01*
X0162130Y0257810D01*
X0162041Y0257801D01*
X0161952Y0257796D01*
X0161863Y0257795D01*
X0161773Y0257798D01*
X0161684Y0257805D01*
X0161595Y0257816D01*
X0161507Y0257831D01*
X0161420Y0257850D01*
X0161333Y0257872D01*
X0161247Y0257899D01*
X0161163Y0257929D01*
X0161081Y0257963D01*
X0160999Y0258001D01*
X0160920Y0258042D01*
X0160843Y0258087D01*
X0160767Y0258135D01*
X0160694Y0258186D01*
X0160623Y0258241D01*
X0160555Y0258299D01*
X0160489Y0258360D01*
X0160426Y0258423D01*
X0160366Y0258490D01*
X0160309Y0258559D01*
X0160255Y0258630D01*
X0160205Y0258704D01*
X0160157Y0258780D01*
X0160113Y0258858D01*
X0160073Y0258938D01*
X0160036Y0259019D01*
X0160003Y0259102D01*
X0159974Y0259187D01*
X0159948Y0259272D01*
X0159927Y0259359D01*
X0159909Y0259447D01*
X0159895Y0259535D01*
X0159885Y0259624D01*
X0159879Y0259714D01*
X0159877Y0259803D01*
X0169877Y0259803D02*
X0169879Y0259892D01*
X0169885Y0259982D01*
X0169895Y0260071D01*
X0169909Y0260159D01*
X0169927Y0260247D01*
X0169948Y0260334D01*
X0169974Y0260419D01*
X0170003Y0260504D01*
X0170036Y0260587D01*
X0170073Y0260668D01*
X0170113Y0260748D01*
X0170157Y0260826D01*
X0170205Y0260902D01*
X0170255Y0260976D01*
X0170309Y0261047D01*
X0170366Y0261116D01*
X0170426Y0261183D01*
X0170489Y0261246D01*
X0170555Y0261307D01*
X0170623Y0261365D01*
X0170694Y0261420D01*
X0170767Y0261471D01*
X0170843Y0261519D01*
X0170920Y0261564D01*
X0170999Y0261605D01*
X0171081Y0261643D01*
X0171163Y0261677D01*
X0171247Y0261707D01*
X0171333Y0261734D01*
X0171420Y0261756D01*
X0171507Y0261775D01*
X0171595Y0261790D01*
X0171684Y0261801D01*
X0171773Y0261808D01*
X0171863Y0261811D01*
X0171952Y0261810D01*
X0172041Y0261805D01*
X0172130Y0261796D01*
X0172219Y0261783D01*
X0172307Y0261766D01*
X0172394Y0261745D01*
X0172480Y0261721D01*
X0172565Y0261692D01*
X0172648Y0261660D01*
X0172730Y0261624D01*
X0172811Y0261585D01*
X0172889Y0261542D01*
X0172965Y0261496D01*
X0173040Y0261446D01*
X0173112Y0261393D01*
X0173181Y0261336D01*
X0173248Y0261277D01*
X0173313Y0261215D01*
X0173374Y0261150D01*
X0173433Y0261082D01*
X0173488Y0261012D01*
X0173540Y0260939D01*
X0173589Y0260865D01*
X0173635Y0260788D01*
X0173677Y0260709D01*
X0173716Y0260628D01*
X0173751Y0260546D01*
X0173782Y0260462D01*
X0173809Y0260377D01*
X0173833Y0260290D01*
X0173853Y0260203D01*
X0173869Y0260115D01*
X0173881Y0260026D01*
X0173889Y0259937D01*
X0173893Y0259848D01*
X0173893Y0259758D01*
X0173889Y0259669D01*
X0173881Y0259580D01*
X0173869Y0259491D01*
X0173853Y0259403D01*
X0173833Y0259316D01*
X0173809Y0259229D01*
X0173782Y0259144D01*
X0173751Y0259060D01*
X0173716Y0258978D01*
X0173677Y0258897D01*
X0173635Y0258818D01*
X0173589Y0258741D01*
X0173540Y0258667D01*
X0173488Y0258594D01*
X0173433Y0258524D01*
X0173374Y0258456D01*
X0173313Y0258391D01*
X0173248Y0258329D01*
X0173181Y0258270D01*
X0173112Y0258213D01*
X0173040Y0258160D01*
X0172965Y0258110D01*
X0172889Y0258064D01*
X0172811Y0258021D01*
X0172730Y0257982D01*
X0172648Y0257946D01*
X0172565Y0257914D01*
X0172480Y0257885D01*
X0172394Y0257861D01*
X0172307Y0257840D01*
X0172219Y0257823D01*
X0172130Y0257810D01*
X0172041Y0257801D01*
X0171952Y0257796D01*
X0171863Y0257795D01*
X0171773Y0257798D01*
X0171684Y0257805D01*
X0171595Y0257816D01*
X0171507Y0257831D01*
X0171420Y0257850D01*
X0171333Y0257872D01*
X0171247Y0257899D01*
X0171163Y0257929D01*
X0171081Y0257963D01*
X0170999Y0258001D01*
X0170920Y0258042D01*
X0170843Y0258087D01*
X0170767Y0258135D01*
X0170694Y0258186D01*
X0170623Y0258241D01*
X0170555Y0258299D01*
X0170489Y0258360D01*
X0170426Y0258423D01*
X0170366Y0258490D01*
X0170309Y0258559D01*
X0170255Y0258630D01*
X0170205Y0258704D01*
X0170157Y0258780D01*
X0170113Y0258858D01*
X0170073Y0258938D01*
X0170036Y0259019D01*
X0170003Y0259102D01*
X0169974Y0259187D01*
X0169948Y0259272D01*
X0169927Y0259359D01*
X0169909Y0259447D01*
X0169895Y0259535D01*
X0169885Y0259624D01*
X0169879Y0259714D01*
X0169877Y0259803D01*
X0179877Y0259803D02*
X0179879Y0259892D01*
X0179885Y0259982D01*
X0179895Y0260071D01*
X0179909Y0260159D01*
X0179927Y0260247D01*
X0179948Y0260334D01*
X0179974Y0260419D01*
X0180003Y0260504D01*
X0180036Y0260587D01*
X0180073Y0260668D01*
X0180113Y0260748D01*
X0180157Y0260826D01*
X0180205Y0260902D01*
X0180255Y0260976D01*
X0180309Y0261047D01*
X0180366Y0261116D01*
X0180426Y0261183D01*
X0180489Y0261246D01*
X0180555Y0261307D01*
X0180623Y0261365D01*
X0180694Y0261420D01*
X0180767Y0261471D01*
X0180843Y0261519D01*
X0180920Y0261564D01*
X0180999Y0261605D01*
X0181081Y0261643D01*
X0181163Y0261677D01*
X0181247Y0261707D01*
X0181333Y0261734D01*
X0181420Y0261756D01*
X0181507Y0261775D01*
X0181595Y0261790D01*
X0181684Y0261801D01*
X0181773Y0261808D01*
X0181863Y0261811D01*
X0181952Y0261810D01*
X0182041Y0261805D01*
X0182130Y0261796D01*
X0182219Y0261783D01*
X0182307Y0261766D01*
X0182394Y0261745D01*
X0182480Y0261721D01*
X0182565Y0261692D01*
X0182648Y0261660D01*
X0182730Y0261624D01*
X0182811Y0261585D01*
X0182889Y0261542D01*
X0182965Y0261496D01*
X0183040Y0261446D01*
X0183112Y0261393D01*
X0183181Y0261336D01*
X0183248Y0261277D01*
X0183313Y0261215D01*
X0183374Y0261150D01*
X0183433Y0261082D01*
X0183488Y0261012D01*
X0183540Y0260939D01*
X0183589Y0260865D01*
X0183635Y0260788D01*
X0183677Y0260709D01*
X0183716Y0260628D01*
X0183751Y0260546D01*
X0183782Y0260462D01*
X0183809Y0260377D01*
X0183833Y0260290D01*
X0183853Y0260203D01*
X0183869Y0260115D01*
X0183881Y0260026D01*
X0183889Y0259937D01*
X0183893Y0259848D01*
X0183893Y0259758D01*
X0183889Y0259669D01*
X0183881Y0259580D01*
X0183869Y0259491D01*
X0183853Y0259403D01*
X0183833Y0259316D01*
X0183809Y0259229D01*
X0183782Y0259144D01*
X0183751Y0259060D01*
X0183716Y0258978D01*
X0183677Y0258897D01*
X0183635Y0258818D01*
X0183589Y0258741D01*
X0183540Y0258667D01*
X0183488Y0258594D01*
X0183433Y0258524D01*
X0183374Y0258456D01*
X0183313Y0258391D01*
X0183248Y0258329D01*
X0183181Y0258270D01*
X0183112Y0258213D01*
X0183040Y0258160D01*
X0182965Y0258110D01*
X0182889Y0258064D01*
X0182811Y0258021D01*
X0182730Y0257982D01*
X0182648Y0257946D01*
X0182565Y0257914D01*
X0182480Y0257885D01*
X0182394Y0257861D01*
X0182307Y0257840D01*
X0182219Y0257823D01*
X0182130Y0257810D01*
X0182041Y0257801D01*
X0181952Y0257796D01*
X0181863Y0257795D01*
X0181773Y0257798D01*
X0181684Y0257805D01*
X0181595Y0257816D01*
X0181507Y0257831D01*
X0181420Y0257850D01*
X0181333Y0257872D01*
X0181247Y0257899D01*
X0181163Y0257929D01*
X0181081Y0257963D01*
X0180999Y0258001D01*
X0180920Y0258042D01*
X0180843Y0258087D01*
X0180767Y0258135D01*
X0180694Y0258186D01*
X0180623Y0258241D01*
X0180555Y0258299D01*
X0180489Y0258360D01*
X0180426Y0258423D01*
X0180366Y0258490D01*
X0180309Y0258559D01*
X0180255Y0258630D01*
X0180205Y0258704D01*
X0180157Y0258780D01*
X0180113Y0258858D01*
X0180073Y0258938D01*
X0180036Y0259019D01*
X0180003Y0259102D01*
X0179974Y0259187D01*
X0179948Y0259272D01*
X0179927Y0259359D01*
X0179909Y0259447D01*
X0179895Y0259535D01*
X0179885Y0259624D01*
X0179879Y0259714D01*
X0179877Y0259803D01*
X0189877Y0259803D02*
X0189879Y0259892D01*
X0189885Y0259982D01*
X0189895Y0260071D01*
X0189909Y0260159D01*
X0189927Y0260247D01*
X0189948Y0260334D01*
X0189974Y0260419D01*
X0190003Y0260504D01*
X0190036Y0260587D01*
X0190073Y0260668D01*
X0190113Y0260748D01*
X0190157Y0260826D01*
X0190205Y0260902D01*
X0190255Y0260976D01*
X0190309Y0261047D01*
X0190366Y0261116D01*
X0190426Y0261183D01*
X0190489Y0261246D01*
X0190555Y0261307D01*
X0190623Y0261365D01*
X0190694Y0261420D01*
X0190767Y0261471D01*
X0190843Y0261519D01*
X0190920Y0261564D01*
X0190999Y0261605D01*
X0191081Y0261643D01*
X0191163Y0261677D01*
X0191247Y0261707D01*
X0191333Y0261734D01*
X0191420Y0261756D01*
X0191507Y0261775D01*
X0191595Y0261790D01*
X0191684Y0261801D01*
X0191773Y0261808D01*
X0191863Y0261811D01*
X0191952Y0261810D01*
X0192041Y0261805D01*
X0192130Y0261796D01*
X0192219Y0261783D01*
X0192307Y0261766D01*
X0192394Y0261745D01*
X0192480Y0261721D01*
X0192565Y0261692D01*
X0192648Y0261660D01*
X0192730Y0261624D01*
X0192811Y0261585D01*
X0192889Y0261542D01*
X0192965Y0261496D01*
X0193040Y0261446D01*
X0193112Y0261393D01*
X0193181Y0261336D01*
X0193248Y0261277D01*
X0193313Y0261215D01*
X0193374Y0261150D01*
X0193433Y0261082D01*
X0193488Y0261012D01*
X0193540Y0260939D01*
X0193589Y0260865D01*
X0193635Y0260788D01*
X0193677Y0260709D01*
X0193716Y0260628D01*
X0193751Y0260546D01*
X0193782Y0260462D01*
X0193809Y0260377D01*
X0193833Y0260290D01*
X0193853Y0260203D01*
X0193869Y0260115D01*
X0193881Y0260026D01*
X0193889Y0259937D01*
X0193893Y0259848D01*
X0193893Y0259758D01*
X0193889Y0259669D01*
X0193881Y0259580D01*
X0193869Y0259491D01*
X0193853Y0259403D01*
X0193833Y0259316D01*
X0193809Y0259229D01*
X0193782Y0259144D01*
X0193751Y0259060D01*
X0193716Y0258978D01*
X0193677Y0258897D01*
X0193635Y0258818D01*
X0193589Y0258741D01*
X0193540Y0258667D01*
X0193488Y0258594D01*
X0193433Y0258524D01*
X0193374Y0258456D01*
X0193313Y0258391D01*
X0193248Y0258329D01*
X0193181Y0258270D01*
X0193112Y0258213D01*
X0193040Y0258160D01*
X0192965Y0258110D01*
X0192889Y0258064D01*
X0192811Y0258021D01*
X0192730Y0257982D01*
X0192648Y0257946D01*
X0192565Y0257914D01*
X0192480Y0257885D01*
X0192394Y0257861D01*
X0192307Y0257840D01*
X0192219Y0257823D01*
X0192130Y0257810D01*
X0192041Y0257801D01*
X0191952Y0257796D01*
X0191863Y0257795D01*
X0191773Y0257798D01*
X0191684Y0257805D01*
X0191595Y0257816D01*
X0191507Y0257831D01*
X0191420Y0257850D01*
X0191333Y0257872D01*
X0191247Y0257899D01*
X0191163Y0257929D01*
X0191081Y0257963D01*
X0190999Y0258001D01*
X0190920Y0258042D01*
X0190843Y0258087D01*
X0190767Y0258135D01*
X0190694Y0258186D01*
X0190623Y0258241D01*
X0190555Y0258299D01*
X0190489Y0258360D01*
X0190426Y0258423D01*
X0190366Y0258490D01*
X0190309Y0258559D01*
X0190255Y0258630D01*
X0190205Y0258704D01*
X0190157Y0258780D01*
X0190113Y0258858D01*
X0190073Y0258938D01*
X0190036Y0259019D01*
X0190003Y0259102D01*
X0189974Y0259187D01*
X0189948Y0259272D01*
X0189927Y0259359D01*
X0189909Y0259447D01*
X0189895Y0259535D01*
X0189885Y0259624D01*
X0189879Y0259714D01*
X0189877Y0259803D01*
X0199877Y0259803D02*
X0199879Y0259892D01*
X0199885Y0259982D01*
X0199895Y0260071D01*
X0199909Y0260159D01*
X0199927Y0260247D01*
X0199948Y0260334D01*
X0199974Y0260419D01*
X0200003Y0260504D01*
X0200036Y0260587D01*
X0200073Y0260668D01*
X0200113Y0260748D01*
X0200157Y0260826D01*
X0200205Y0260902D01*
X0200255Y0260976D01*
X0200309Y0261047D01*
X0200366Y0261116D01*
X0200426Y0261183D01*
X0200489Y0261246D01*
X0200555Y0261307D01*
X0200623Y0261365D01*
X0200694Y0261420D01*
X0200767Y0261471D01*
X0200843Y0261519D01*
X0200920Y0261564D01*
X0200999Y0261605D01*
X0201081Y0261643D01*
X0201163Y0261677D01*
X0201247Y0261707D01*
X0201333Y0261734D01*
X0201420Y0261756D01*
X0201507Y0261775D01*
X0201595Y0261790D01*
X0201684Y0261801D01*
X0201773Y0261808D01*
X0201863Y0261811D01*
X0201952Y0261810D01*
X0202041Y0261805D01*
X0202130Y0261796D01*
X0202219Y0261783D01*
X0202307Y0261766D01*
X0202394Y0261745D01*
X0202480Y0261721D01*
X0202565Y0261692D01*
X0202648Y0261660D01*
X0202730Y0261624D01*
X0202811Y0261585D01*
X0202889Y0261542D01*
X0202965Y0261496D01*
X0203040Y0261446D01*
X0203112Y0261393D01*
X0203181Y0261336D01*
X0203248Y0261277D01*
X0203313Y0261215D01*
X0203374Y0261150D01*
X0203433Y0261082D01*
X0203488Y0261012D01*
X0203540Y0260939D01*
X0203589Y0260865D01*
X0203635Y0260788D01*
X0203677Y0260709D01*
X0203716Y0260628D01*
X0203751Y0260546D01*
X0203782Y0260462D01*
X0203809Y0260377D01*
X0203833Y0260290D01*
X0203853Y0260203D01*
X0203869Y0260115D01*
X0203881Y0260026D01*
X0203889Y0259937D01*
X0203893Y0259848D01*
X0203893Y0259758D01*
X0203889Y0259669D01*
X0203881Y0259580D01*
X0203869Y0259491D01*
X0203853Y0259403D01*
X0203833Y0259316D01*
X0203809Y0259229D01*
X0203782Y0259144D01*
X0203751Y0259060D01*
X0203716Y0258978D01*
X0203677Y0258897D01*
X0203635Y0258818D01*
X0203589Y0258741D01*
X0203540Y0258667D01*
X0203488Y0258594D01*
X0203433Y0258524D01*
X0203374Y0258456D01*
X0203313Y0258391D01*
X0203248Y0258329D01*
X0203181Y0258270D01*
X0203112Y0258213D01*
X0203040Y0258160D01*
X0202965Y0258110D01*
X0202889Y0258064D01*
X0202811Y0258021D01*
X0202730Y0257982D01*
X0202648Y0257946D01*
X0202565Y0257914D01*
X0202480Y0257885D01*
X0202394Y0257861D01*
X0202307Y0257840D01*
X0202219Y0257823D01*
X0202130Y0257810D01*
X0202041Y0257801D01*
X0201952Y0257796D01*
X0201863Y0257795D01*
X0201773Y0257798D01*
X0201684Y0257805D01*
X0201595Y0257816D01*
X0201507Y0257831D01*
X0201420Y0257850D01*
X0201333Y0257872D01*
X0201247Y0257899D01*
X0201163Y0257929D01*
X0201081Y0257963D01*
X0200999Y0258001D01*
X0200920Y0258042D01*
X0200843Y0258087D01*
X0200767Y0258135D01*
X0200694Y0258186D01*
X0200623Y0258241D01*
X0200555Y0258299D01*
X0200489Y0258360D01*
X0200426Y0258423D01*
X0200366Y0258490D01*
X0200309Y0258559D01*
X0200255Y0258630D01*
X0200205Y0258704D01*
X0200157Y0258780D01*
X0200113Y0258858D01*
X0200073Y0258938D01*
X0200036Y0259019D01*
X0200003Y0259102D01*
X0199974Y0259187D01*
X0199948Y0259272D01*
X0199927Y0259359D01*
X0199909Y0259447D01*
X0199895Y0259535D01*
X0199885Y0259624D01*
X0199879Y0259714D01*
X0199877Y0259803D01*
X0209877Y0259803D02*
X0209879Y0259892D01*
X0209885Y0259982D01*
X0209895Y0260071D01*
X0209909Y0260159D01*
X0209927Y0260247D01*
X0209948Y0260334D01*
X0209974Y0260419D01*
X0210003Y0260504D01*
X0210036Y0260587D01*
X0210073Y0260668D01*
X0210113Y0260748D01*
X0210157Y0260826D01*
X0210205Y0260902D01*
X0210255Y0260976D01*
X0210309Y0261047D01*
X0210366Y0261116D01*
X0210426Y0261183D01*
X0210489Y0261246D01*
X0210555Y0261307D01*
X0210623Y0261365D01*
X0210694Y0261420D01*
X0210767Y0261471D01*
X0210843Y0261519D01*
X0210920Y0261564D01*
X0210999Y0261605D01*
X0211081Y0261643D01*
X0211163Y0261677D01*
X0211247Y0261707D01*
X0211333Y0261734D01*
X0211420Y0261756D01*
X0211507Y0261775D01*
X0211595Y0261790D01*
X0211684Y0261801D01*
X0211773Y0261808D01*
X0211863Y0261811D01*
X0211952Y0261810D01*
X0212041Y0261805D01*
X0212130Y0261796D01*
X0212219Y0261783D01*
X0212307Y0261766D01*
X0212394Y0261745D01*
X0212480Y0261721D01*
X0212565Y0261692D01*
X0212648Y0261660D01*
X0212730Y0261624D01*
X0212811Y0261585D01*
X0212889Y0261542D01*
X0212965Y0261496D01*
X0213040Y0261446D01*
X0213112Y0261393D01*
X0213181Y0261336D01*
X0213248Y0261277D01*
X0213313Y0261215D01*
X0213374Y0261150D01*
X0213433Y0261082D01*
X0213488Y0261012D01*
X0213540Y0260939D01*
X0213589Y0260865D01*
X0213635Y0260788D01*
X0213677Y0260709D01*
X0213716Y0260628D01*
X0213751Y0260546D01*
X0213782Y0260462D01*
X0213809Y0260377D01*
X0213833Y0260290D01*
X0213853Y0260203D01*
X0213869Y0260115D01*
X0213881Y0260026D01*
X0213889Y0259937D01*
X0213893Y0259848D01*
X0213893Y0259758D01*
X0213889Y0259669D01*
X0213881Y0259580D01*
X0213869Y0259491D01*
X0213853Y0259403D01*
X0213833Y0259316D01*
X0213809Y0259229D01*
X0213782Y0259144D01*
X0213751Y0259060D01*
X0213716Y0258978D01*
X0213677Y0258897D01*
X0213635Y0258818D01*
X0213589Y0258741D01*
X0213540Y0258667D01*
X0213488Y0258594D01*
X0213433Y0258524D01*
X0213374Y0258456D01*
X0213313Y0258391D01*
X0213248Y0258329D01*
X0213181Y0258270D01*
X0213112Y0258213D01*
X0213040Y0258160D01*
X0212965Y0258110D01*
X0212889Y0258064D01*
X0212811Y0258021D01*
X0212730Y0257982D01*
X0212648Y0257946D01*
X0212565Y0257914D01*
X0212480Y0257885D01*
X0212394Y0257861D01*
X0212307Y0257840D01*
X0212219Y0257823D01*
X0212130Y0257810D01*
X0212041Y0257801D01*
X0211952Y0257796D01*
X0211863Y0257795D01*
X0211773Y0257798D01*
X0211684Y0257805D01*
X0211595Y0257816D01*
X0211507Y0257831D01*
X0211420Y0257850D01*
X0211333Y0257872D01*
X0211247Y0257899D01*
X0211163Y0257929D01*
X0211081Y0257963D01*
X0210999Y0258001D01*
X0210920Y0258042D01*
X0210843Y0258087D01*
X0210767Y0258135D01*
X0210694Y0258186D01*
X0210623Y0258241D01*
X0210555Y0258299D01*
X0210489Y0258360D01*
X0210426Y0258423D01*
X0210366Y0258490D01*
X0210309Y0258559D01*
X0210255Y0258630D01*
X0210205Y0258704D01*
X0210157Y0258780D01*
X0210113Y0258858D01*
X0210073Y0258938D01*
X0210036Y0259019D01*
X0210003Y0259102D01*
X0209974Y0259187D01*
X0209948Y0259272D01*
X0209927Y0259359D01*
X0209909Y0259447D01*
X0209895Y0259535D01*
X0209885Y0259624D01*
X0209879Y0259714D01*
X0209877Y0259803D01*
X0219877Y0259803D02*
X0219879Y0259892D01*
X0219885Y0259982D01*
X0219895Y0260071D01*
X0219909Y0260159D01*
X0219927Y0260247D01*
X0219948Y0260334D01*
X0219974Y0260419D01*
X0220003Y0260504D01*
X0220036Y0260587D01*
X0220073Y0260668D01*
X0220113Y0260748D01*
X0220157Y0260826D01*
X0220205Y0260902D01*
X0220255Y0260976D01*
X0220309Y0261047D01*
X0220366Y0261116D01*
X0220426Y0261183D01*
X0220489Y0261246D01*
X0220555Y0261307D01*
X0220623Y0261365D01*
X0220694Y0261420D01*
X0220767Y0261471D01*
X0220843Y0261519D01*
X0220920Y0261564D01*
X0220999Y0261605D01*
X0221081Y0261643D01*
X0221163Y0261677D01*
X0221247Y0261707D01*
X0221333Y0261734D01*
X0221420Y0261756D01*
X0221507Y0261775D01*
X0221595Y0261790D01*
X0221684Y0261801D01*
X0221773Y0261808D01*
X0221863Y0261811D01*
X0221952Y0261810D01*
X0222041Y0261805D01*
X0222130Y0261796D01*
X0222219Y0261783D01*
X0222307Y0261766D01*
X0222394Y0261745D01*
X0222480Y0261721D01*
X0222565Y0261692D01*
X0222648Y0261660D01*
X0222730Y0261624D01*
X0222811Y0261585D01*
X0222889Y0261542D01*
X0222965Y0261496D01*
X0223040Y0261446D01*
X0223112Y0261393D01*
X0223181Y0261336D01*
X0223248Y0261277D01*
X0223313Y0261215D01*
X0223374Y0261150D01*
X0223433Y0261082D01*
X0223488Y0261012D01*
X0223540Y0260939D01*
X0223589Y0260865D01*
X0223635Y0260788D01*
X0223677Y0260709D01*
X0223716Y0260628D01*
X0223751Y0260546D01*
X0223782Y0260462D01*
X0223809Y0260377D01*
X0223833Y0260290D01*
X0223853Y0260203D01*
X0223869Y0260115D01*
X0223881Y0260026D01*
X0223889Y0259937D01*
X0223893Y0259848D01*
X0223893Y0259758D01*
X0223889Y0259669D01*
X0223881Y0259580D01*
X0223869Y0259491D01*
X0223853Y0259403D01*
X0223833Y0259316D01*
X0223809Y0259229D01*
X0223782Y0259144D01*
X0223751Y0259060D01*
X0223716Y0258978D01*
X0223677Y0258897D01*
X0223635Y0258818D01*
X0223589Y0258741D01*
X0223540Y0258667D01*
X0223488Y0258594D01*
X0223433Y0258524D01*
X0223374Y0258456D01*
X0223313Y0258391D01*
X0223248Y0258329D01*
X0223181Y0258270D01*
X0223112Y0258213D01*
X0223040Y0258160D01*
X0222965Y0258110D01*
X0222889Y0258064D01*
X0222811Y0258021D01*
X0222730Y0257982D01*
X0222648Y0257946D01*
X0222565Y0257914D01*
X0222480Y0257885D01*
X0222394Y0257861D01*
X0222307Y0257840D01*
X0222219Y0257823D01*
X0222130Y0257810D01*
X0222041Y0257801D01*
X0221952Y0257796D01*
X0221863Y0257795D01*
X0221773Y0257798D01*
X0221684Y0257805D01*
X0221595Y0257816D01*
X0221507Y0257831D01*
X0221420Y0257850D01*
X0221333Y0257872D01*
X0221247Y0257899D01*
X0221163Y0257929D01*
X0221081Y0257963D01*
X0220999Y0258001D01*
X0220920Y0258042D01*
X0220843Y0258087D01*
X0220767Y0258135D01*
X0220694Y0258186D01*
X0220623Y0258241D01*
X0220555Y0258299D01*
X0220489Y0258360D01*
X0220426Y0258423D01*
X0220366Y0258490D01*
X0220309Y0258559D01*
X0220255Y0258630D01*
X0220205Y0258704D01*
X0220157Y0258780D01*
X0220113Y0258858D01*
X0220073Y0258938D01*
X0220036Y0259019D01*
X0220003Y0259102D01*
X0219974Y0259187D01*
X0219948Y0259272D01*
X0219927Y0259359D01*
X0219909Y0259447D01*
X0219895Y0259535D01*
X0219885Y0259624D01*
X0219879Y0259714D01*
X0219877Y0259803D01*
X0229877Y0259803D02*
X0229879Y0259892D01*
X0229885Y0259982D01*
X0229895Y0260071D01*
X0229909Y0260159D01*
X0229927Y0260247D01*
X0229948Y0260334D01*
X0229974Y0260419D01*
X0230003Y0260504D01*
X0230036Y0260587D01*
X0230073Y0260668D01*
X0230113Y0260748D01*
X0230157Y0260826D01*
X0230205Y0260902D01*
X0230255Y0260976D01*
X0230309Y0261047D01*
X0230366Y0261116D01*
X0230426Y0261183D01*
X0230489Y0261246D01*
X0230555Y0261307D01*
X0230623Y0261365D01*
X0230694Y0261420D01*
X0230767Y0261471D01*
X0230843Y0261519D01*
X0230920Y0261564D01*
X0230999Y0261605D01*
X0231081Y0261643D01*
X0231163Y0261677D01*
X0231247Y0261707D01*
X0231333Y0261734D01*
X0231420Y0261756D01*
X0231507Y0261775D01*
X0231595Y0261790D01*
X0231684Y0261801D01*
X0231773Y0261808D01*
X0231863Y0261811D01*
X0231952Y0261810D01*
X0232041Y0261805D01*
X0232130Y0261796D01*
X0232219Y0261783D01*
X0232307Y0261766D01*
X0232394Y0261745D01*
X0232480Y0261721D01*
X0232565Y0261692D01*
X0232648Y0261660D01*
X0232730Y0261624D01*
X0232811Y0261585D01*
X0232889Y0261542D01*
X0232965Y0261496D01*
X0233040Y0261446D01*
X0233112Y0261393D01*
X0233181Y0261336D01*
X0233248Y0261277D01*
X0233313Y0261215D01*
X0233374Y0261150D01*
X0233433Y0261082D01*
X0233488Y0261012D01*
X0233540Y0260939D01*
X0233589Y0260865D01*
X0233635Y0260788D01*
X0233677Y0260709D01*
X0233716Y0260628D01*
X0233751Y0260546D01*
X0233782Y0260462D01*
X0233809Y0260377D01*
X0233833Y0260290D01*
X0233853Y0260203D01*
X0233869Y0260115D01*
X0233881Y0260026D01*
X0233889Y0259937D01*
X0233893Y0259848D01*
X0233893Y0259758D01*
X0233889Y0259669D01*
X0233881Y0259580D01*
X0233869Y0259491D01*
X0233853Y0259403D01*
X0233833Y0259316D01*
X0233809Y0259229D01*
X0233782Y0259144D01*
X0233751Y0259060D01*
X0233716Y0258978D01*
X0233677Y0258897D01*
X0233635Y0258818D01*
X0233589Y0258741D01*
X0233540Y0258667D01*
X0233488Y0258594D01*
X0233433Y0258524D01*
X0233374Y0258456D01*
X0233313Y0258391D01*
X0233248Y0258329D01*
X0233181Y0258270D01*
X0233112Y0258213D01*
X0233040Y0258160D01*
X0232965Y0258110D01*
X0232889Y0258064D01*
X0232811Y0258021D01*
X0232730Y0257982D01*
X0232648Y0257946D01*
X0232565Y0257914D01*
X0232480Y0257885D01*
X0232394Y0257861D01*
X0232307Y0257840D01*
X0232219Y0257823D01*
X0232130Y0257810D01*
X0232041Y0257801D01*
X0231952Y0257796D01*
X0231863Y0257795D01*
X0231773Y0257798D01*
X0231684Y0257805D01*
X0231595Y0257816D01*
X0231507Y0257831D01*
X0231420Y0257850D01*
X0231333Y0257872D01*
X0231247Y0257899D01*
X0231163Y0257929D01*
X0231081Y0257963D01*
X0230999Y0258001D01*
X0230920Y0258042D01*
X0230843Y0258087D01*
X0230767Y0258135D01*
X0230694Y0258186D01*
X0230623Y0258241D01*
X0230555Y0258299D01*
X0230489Y0258360D01*
X0230426Y0258423D01*
X0230366Y0258490D01*
X0230309Y0258559D01*
X0230255Y0258630D01*
X0230205Y0258704D01*
X0230157Y0258780D01*
X0230113Y0258858D01*
X0230073Y0258938D01*
X0230036Y0259019D01*
X0230003Y0259102D01*
X0229974Y0259187D01*
X0229948Y0259272D01*
X0229927Y0259359D01*
X0229909Y0259447D01*
X0229895Y0259535D01*
X0229885Y0259624D01*
X0229879Y0259714D01*
X0229877Y0259803D01*
X0239877Y0259803D02*
X0239879Y0259892D01*
X0239885Y0259982D01*
X0239895Y0260071D01*
X0239909Y0260159D01*
X0239927Y0260247D01*
X0239948Y0260334D01*
X0239974Y0260419D01*
X0240003Y0260504D01*
X0240036Y0260587D01*
X0240073Y0260668D01*
X0240113Y0260748D01*
X0240157Y0260826D01*
X0240205Y0260902D01*
X0240255Y0260976D01*
X0240309Y0261047D01*
X0240366Y0261116D01*
X0240426Y0261183D01*
X0240489Y0261246D01*
X0240555Y0261307D01*
X0240623Y0261365D01*
X0240694Y0261420D01*
X0240767Y0261471D01*
X0240843Y0261519D01*
X0240920Y0261564D01*
X0240999Y0261605D01*
X0241081Y0261643D01*
X0241163Y0261677D01*
X0241247Y0261707D01*
X0241333Y0261734D01*
X0241420Y0261756D01*
X0241507Y0261775D01*
X0241595Y0261790D01*
X0241684Y0261801D01*
X0241773Y0261808D01*
X0241863Y0261811D01*
X0241952Y0261810D01*
X0242041Y0261805D01*
X0242130Y0261796D01*
X0242219Y0261783D01*
X0242307Y0261766D01*
X0242394Y0261745D01*
X0242480Y0261721D01*
X0242565Y0261692D01*
X0242648Y0261660D01*
X0242730Y0261624D01*
X0242811Y0261585D01*
X0242889Y0261542D01*
X0242965Y0261496D01*
X0243040Y0261446D01*
X0243112Y0261393D01*
X0243181Y0261336D01*
X0243248Y0261277D01*
X0243313Y0261215D01*
X0243374Y0261150D01*
X0243433Y0261082D01*
X0243488Y0261012D01*
X0243540Y0260939D01*
X0243589Y0260865D01*
X0243635Y0260788D01*
X0243677Y0260709D01*
X0243716Y0260628D01*
X0243751Y0260546D01*
X0243782Y0260462D01*
X0243809Y0260377D01*
X0243833Y0260290D01*
X0243853Y0260203D01*
X0243869Y0260115D01*
X0243881Y0260026D01*
X0243889Y0259937D01*
X0243893Y0259848D01*
X0243893Y0259758D01*
X0243889Y0259669D01*
X0243881Y0259580D01*
X0243869Y0259491D01*
X0243853Y0259403D01*
X0243833Y0259316D01*
X0243809Y0259229D01*
X0243782Y0259144D01*
X0243751Y0259060D01*
X0243716Y0258978D01*
X0243677Y0258897D01*
X0243635Y0258818D01*
X0243589Y0258741D01*
X0243540Y0258667D01*
X0243488Y0258594D01*
X0243433Y0258524D01*
X0243374Y0258456D01*
X0243313Y0258391D01*
X0243248Y0258329D01*
X0243181Y0258270D01*
X0243112Y0258213D01*
X0243040Y0258160D01*
X0242965Y0258110D01*
X0242889Y0258064D01*
X0242811Y0258021D01*
X0242730Y0257982D01*
X0242648Y0257946D01*
X0242565Y0257914D01*
X0242480Y0257885D01*
X0242394Y0257861D01*
X0242307Y0257840D01*
X0242219Y0257823D01*
X0242130Y0257810D01*
X0242041Y0257801D01*
X0241952Y0257796D01*
X0241863Y0257795D01*
X0241773Y0257798D01*
X0241684Y0257805D01*
X0241595Y0257816D01*
X0241507Y0257831D01*
X0241420Y0257850D01*
X0241333Y0257872D01*
X0241247Y0257899D01*
X0241163Y0257929D01*
X0241081Y0257963D01*
X0240999Y0258001D01*
X0240920Y0258042D01*
X0240843Y0258087D01*
X0240767Y0258135D01*
X0240694Y0258186D01*
X0240623Y0258241D01*
X0240555Y0258299D01*
X0240489Y0258360D01*
X0240426Y0258423D01*
X0240366Y0258490D01*
X0240309Y0258559D01*
X0240255Y0258630D01*
X0240205Y0258704D01*
X0240157Y0258780D01*
X0240113Y0258858D01*
X0240073Y0258938D01*
X0240036Y0259019D01*
X0240003Y0259102D01*
X0239974Y0259187D01*
X0239948Y0259272D01*
X0239927Y0259359D01*
X0239909Y0259447D01*
X0239895Y0259535D01*
X0239885Y0259624D01*
X0239879Y0259714D01*
X0239877Y0259803D01*
X0249877Y0259803D02*
X0249879Y0259892D01*
X0249885Y0259982D01*
X0249895Y0260071D01*
X0249909Y0260159D01*
X0249927Y0260247D01*
X0249948Y0260334D01*
X0249974Y0260419D01*
X0250003Y0260504D01*
X0250036Y0260587D01*
X0250073Y0260668D01*
X0250113Y0260748D01*
X0250157Y0260826D01*
X0250205Y0260902D01*
X0250255Y0260976D01*
X0250309Y0261047D01*
X0250366Y0261116D01*
X0250426Y0261183D01*
X0250489Y0261246D01*
X0250555Y0261307D01*
X0250623Y0261365D01*
X0250694Y0261420D01*
X0250767Y0261471D01*
X0250843Y0261519D01*
X0250920Y0261564D01*
X0250999Y0261605D01*
X0251081Y0261643D01*
X0251163Y0261677D01*
X0251247Y0261707D01*
X0251333Y0261734D01*
X0251420Y0261756D01*
X0251507Y0261775D01*
X0251595Y0261790D01*
X0251684Y0261801D01*
X0251773Y0261808D01*
X0251863Y0261811D01*
X0251952Y0261810D01*
X0252041Y0261805D01*
X0252130Y0261796D01*
X0252219Y0261783D01*
X0252307Y0261766D01*
X0252394Y0261745D01*
X0252480Y0261721D01*
X0252565Y0261692D01*
X0252648Y0261660D01*
X0252730Y0261624D01*
X0252811Y0261585D01*
X0252889Y0261542D01*
X0252965Y0261496D01*
X0253040Y0261446D01*
X0253112Y0261393D01*
X0253181Y0261336D01*
X0253248Y0261277D01*
X0253313Y0261215D01*
X0253374Y0261150D01*
X0253433Y0261082D01*
X0253488Y0261012D01*
X0253540Y0260939D01*
X0253589Y0260865D01*
X0253635Y0260788D01*
X0253677Y0260709D01*
X0253716Y0260628D01*
X0253751Y0260546D01*
X0253782Y0260462D01*
X0253809Y0260377D01*
X0253833Y0260290D01*
X0253853Y0260203D01*
X0253869Y0260115D01*
X0253881Y0260026D01*
X0253889Y0259937D01*
X0253893Y0259848D01*
X0253893Y0259758D01*
X0253889Y0259669D01*
X0253881Y0259580D01*
X0253869Y0259491D01*
X0253853Y0259403D01*
X0253833Y0259316D01*
X0253809Y0259229D01*
X0253782Y0259144D01*
X0253751Y0259060D01*
X0253716Y0258978D01*
X0253677Y0258897D01*
X0253635Y0258818D01*
X0253589Y0258741D01*
X0253540Y0258667D01*
X0253488Y0258594D01*
X0253433Y0258524D01*
X0253374Y0258456D01*
X0253313Y0258391D01*
X0253248Y0258329D01*
X0253181Y0258270D01*
X0253112Y0258213D01*
X0253040Y0258160D01*
X0252965Y0258110D01*
X0252889Y0258064D01*
X0252811Y0258021D01*
X0252730Y0257982D01*
X0252648Y0257946D01*
X0252565Y0257914D01*
X0252480Y0257885D01*
X0252394Y0257861D01*
X0252307Y0257840D01*
X0252219Y0257823D01*
X0252130Y0257810D01*
X0252041Y0257801D01*
X0251952Y0257796D01*
X0251863Y0257795D01*
X0251773Y0257798D01*
X0251684Y0257805D01*
X0251595Y0257816D01*
X0251507Y0257831D01*
X0251420Y0257850D01*
X0251333Y0257872D01*
X0251247Y0257899D01*
X0251163Y0257929D01*
X0251081Y0257963D01*
X0250999Y0258001D01*
X0250920Y0258042D01*
X0250843Y0258087D01*
X0250767Y0258135D01*
X0250694Y0258186D01*
X0250623Y0258241D01*
X0250555Y0258299D01*
X0250489Y0258360D01*
X0250426Y0258423D01*
X0250366Y0258490D01*
X0250309Y0258559D01*
X0250255Y0258630D01*
X0250205Y0258704D01*
X0250157Y0258780D01*
X0250113Y0258858D01*
X0250073Y0258938D01*
X0250036Y0259019D01*
X0250003Y0259102D01*
X0249974Y0259187D01*
X0249948Y0259272D01*
X0249927Y0259359D01*
X0249909Y0259447D01*
X0249895Y0259535D01*
X0249885Y0259624D01*
X0249879Y0259714D01*
X0249877Y0259803D01*
X0259877Y0259803D02*
X0259879Y0259892D01*
X0259885Y0259982D01*
X0259895Y0260071D01*
X0259909Y0260159D01*
X0259927Y0260247D01*
X0259948Y0260334D01*
X0259974Y0260419D01*
X0260003Y0260504D01*
X0260036Y0260587D01*
X0260073Y0260668D01*
X0260113Y0260748D01*
X0260157Y0260826D01*
X0260205Y0260902D01*
X0260255Y0260976D01*
X0260309Y0261047D01*
X0260366Y0261116D01*
X0260426Y0261183D01*
X0260489Y0261246D01*
X0260555Y0261307D01*
X0260623Y0261365D01*
X0260694Y0261420D01*
X0260767Y0261471D01*
X0260843Y0261519D01*
X0260920Y0261564D01*
X0260999Y0261605D01*
X0261081Y0261643D01*
X0261163Y0261677D01*
X0261247Y0261707D01*
X0261333Y0261734D01*
X0261420Y0261756D01*
X0261507Y0261775D01*
X0261595Y0261790D01*
X0261684Y0261801D01*
X0261773Y0261808D01*
X0261863Y0261811D01*
X0261952Y0261810D01*
X0262041Y0261805D01*
X0262130Y0261796D01*
X0262219Y0261783D01*
X0262307Y0261766D01*
X0262394Y0261745D01*
X0262480Y0261721D01*
X0262565Y0261692D01*
X0262648Y0261660D01*
X0262730Y0261624D01*
X0262811Y0261585D01*
X0262889Y0261542D01*
X0262965Y0261496D01*
X0263040Y0261446D01*
X0263112Y0261393D01*
X0263181Y0261336D01*
X0263248Y0261277D01*
X0263313Y0261215D01*
X0263374Y0261150D01*
X0263433Y0261082D01*
X0263488Y0261012D01*
X0263540Y0260939D01*
X0263589Y0260865D01*
X0263635Y0260788D01*
X0263677Y0260709D01*
X0263716Y0260628D01*
X0263751Y0260546D01*
X0263782Y0260462D01*
X0263809Y0260377D01*
X0263833Y0260290D01*
X0263853Y0260203D01*
X0263869Y0260115D01*
X0263881Y0260026D01*
X0263889Y0259937D01*
X0263893Y0259848D01*
X0263893Y0259758D01*
X0263889Y0259669D01*
X0263881Y0259580D01*
X0263869Y0259491D01*
X0263853Y0259403D01*
X0263833Y0259316D01*
X0263809Y0259229D01*
X0263782Y0259144D01*
X0263751Y0259060D01*
X0263716Y0258978D01*
X0263677Y0258897D01*
X0263635Y0258818D01*
X0263589Y0258741D01*
X0263540Y0258667D01*
X0263488Y0258594D01*
X0263433Y0258524D01*
X0263374Y0258456D01*
X0263313Y0258391D01*
X0263248Y0258329D01*
X0263181Y0258270D01*
X0263112Y0258213D01*
X0263040Y0258160D01*
X0262965Y0258110D01*
X0262889Y0258064D01*
X0262811Y0258021D01*
X0262730Y0257982D01*
X0262648Y0257946D01*
X0262565Y0257914D01*
X0262480Y0257885D01*
X0262394Y0257861D01*
X0262307Y0257840D01*
X0262219Y0257823D01*
X0262130Y0257810D01*
X0262041Y0257801D01*
X0261952Y0257796D01*
X0261863Y0257795D01*
X0261773Y0257798D01*
X0261684Y0257805D01*
X0261595Y0257816D01*
X0261507Y0257831D01*
X0261420Y0257850D01*
X0261333Y0257872D01*
X0261247Y0257899D01*
X0261163Y0257929D01*
X0261081Y0257963D01*
X0260999Y0258001D01*
X0260920Y0258042D01*
X0260843Y0258087D01*
X0260767Y0258135D01*
X0260694Y0258186D01*
X0260623Y0258241D01*
X0260555Y0258299D01*
X0260489Y0258360D01*
X0260426Y0258423D01*
X0260366Y0258490D01*
X0260309Y0258559D01*
X0260255Y0258630D01*
X0260205Y0258704D01*
X0260157Y0258780D01*
X0260113Y0258858D01*
X0260073Y0258938D01*
X0260036Y0259019D01*
X0260003Y0259102D01*
X0259974Y0259187D01*
X0259948Y0259272D01*
X0259927Y0259359D01*
X0259909Y0259447D01*
X0259895Y0259535D01*
X0259885Y0259624D01*
X0259879Y0259714D01*
X0259877Y0259803D01*
X0275058Y0255000D02*
X0275060Y0255154D01*
X0275066Y0255309D01*
X0275076Y0255463D01*
X0275090Y0255617D01*
X0275108Y0255770D01*
X0275129Y0255923D01*
X0275155Y0256076D01*
X0275185Y0256227D01*
X0275218Y0256378D01*
X0275256Y0256528D01*
X0275297Y0256677D01*
X0275342Y0256825D01*
X0275391Y0256971D01*
X0275444Y0257117D01*
X0275500Y0257260D01*
X0275560Y0257403D01*
X0275624Y0257543D01*
X0275691Y0257683D01*
X0275762Y0257820D01*
X0275836Y0257955D01*
X0275914Y0258089D01*
X0275995Y0258220D01*
X0276080Y0258349D01*
X0276168Y0258477D01*
X0276259Y0258601D01*
X0276353Y0258724D01*
X0276451Y0258844D01*
X0276551Y0258961D01*
X0276655Y0259076D01*
X0276761Y0259188D01*
X0276870Y0259297D01*
X0276982Y0259403D01*
X0277097Y0259507D01*
X0277214Y0259607D01*
X0277334Y0259705D01*
X0277457Y0259799D01*
X0277581Y0259890D01*
X0277709Y0259978D01*
X0277838Y0260063D01*
X0277969Y0260144D01*
X0278103Y0260222D01*
X0278238Y0260296D01*
X0278375Y0260367D01*
X0278515Y0260434D01*
X0278655Y0260498D01*
X0278798Y0260558D01*
X0278941Y0260614D01*
X0279087Y0260667D01*
X0279233Y0260716D01*
X0279381Y0260761D01*
X0279530Y0260802D01*
X0279680Y0260840D01*
X0279831Y0260873D01*
X0279982Y0260903D01*
X0280135Y0260929D01*
X0280288Y0260950D01*
X0280441Y0260968D01*
X0280595Y0260982D01*
X0280749Y0260992D01*
X0280904Y0260998D01*
X0281058Y0261000D01*
X0281212Y0260998D01*
X0281367Y0260992D01*
X0281521Y0260982D01*
X0281675Y0260968D01*
X0281828Y0260950D01*
X0281981Y0260929D01*
X0282134Y0260903D01*
X0282285Y0260873D01*
X0282436Y0260840D01*
X0282586Y0260802D01*
X0282735Y0260761D01*
X0282883Y0260716D01*
X0283029Y0260667D01*
X0283175Y0260614D01*
X0283318Y0260558D01*
X0283461Y0260498D01*
X0283601Y0260434D01*
X0283741Y0260367D01*
X0283878Y0260296D01*
X0284013Y0260222D01*
X0284147Y0260144D01*
X0284278Y0260063D01*
X0284407Y0259978D01*
X0284535Y0259890D01*
X0284659Y0259799D01*
X0284782Y0259705D01*
X0284902Y0259607D01*
X0285019Y0259507D01*
X0285134Y0259403D01*
X0285246Y0259297D01*
X0285355Y0259188D01*
X0285461Y0259076D01*
X0285565Y0258961D01*
X0285665Y0258844D01*
X0285763Y0258724D01*
X0285857Y0258601D01*
X0285948Y0258477D01*
X0286036Y0258349D01*
X0286121Y0258220D01*
X0286202Y0258089D01*
X0286280Y0257955D01*
X0286354Y0257820D01*
X0286425Y0257683D01*
X0286492Y0257543D01*
X0286556Y0257403D01*
X0286616Y0257260D01*
X0286672Y0257117D01*
X0286725Y0256971D01*
X0286774Y0256825D01*
X0286819Y0256677D01*
X0286860Y0256528D01*
X0286898Y0256378D01*
X0286931Y0256227D01*
X0286961Y0256076D01*
X0286987Y0255923D01*
X0287008Y0255770D01*
X0287026Y0255617D01*
X0287040Y0255463D01*
X0287050Y0255309D01*
X0287056Y0255154D01*
X0287058Y0255000D01*
X0287056Y0254846D01*
X0287050Y0254691D01*
X0287040Y0254537D01*
X0287026Y0254383D01*
X0287008Y0254230D01*
X0286987Y0254077D01*
X0286961Y0253924D01*
X0286931Y0253773D01*
X0286898Y0253622D01*
X0286860Y0253472D01*
X0286819Y0253323D01*
X0286774Y0253175D01*
X0286725Y0253029D01*
X0286672Y0252883D01*
X0286616Y0252740D01*
X0286556Y0252597D01*
X0286492Y0252457D01*
X0286425Y0252317D01*
X0286354Y0252180D01*
X0286280Y0252045D01*
X0286202Y0251911D01*
X0286121Y0251780D01*
X0286036Y0251651D01*
X0285948Y0251523D01*
X0285857Y0251399D01*
X0285763Y0251276D01*
X0285665Y0251156D01*
X0285565Y0251039D01*
X0285461Y0250924D01*
X0285355Y0250812D01*
X0285246Y0250703D01*
X0285134Y0250597D01*
X0285019Y0250493D01*
X0284902Y0250393D01*
X0284782Y0250295D01*
X0284659Y0250201D01*
X0284535Y0250110D01*
X0284407Y0250022D01*
X0284278Y0249937D01*
X0284147Y0249856D01*
X0284013Y0249778D01*
X0283878Y0249704D01*
X0283741Y0249633D01*
X0283601Y0249566D01*
X0283461Y0249502D01*
X0283318Y0249442D01*
X0283175Y0249386D01*
X0283029Y0249333D01*
X0282883Y0249284D01*
X0282735Y0249239D01*
X0282586Y0249198D01*
X0282436Y0249160D01*
X0282285Y0249127D01*
X0282134Y0249097D01*
X0281981Y0249071D01*
X0281828Y0249050D01*
X0281675Y0249032D01*
X0281521Y0249018D01*
X0281367Y0249008D01*
X0281212Y0249002D01*
X0281058Y0249000D01*
X0280904Y0249002D01*
X0280749Y0249008D01*
X0280595Y0249018D01*
X0280441Y0249032D01*
X0280288Y0249050D01*
X0280135Y0249071D01*
X0279982Y0249097D01*
X0279831Y0249127D01*
X0279680Y0249160D01*
X0279530Y0249198D01*
X0279381Y0249239D01*
X0279233Y0249284D01*
X0279087Y0249333D01*
X0278941Y0249386D01*
X0278798Y0249442D01*
X0278655Y0249502D01*
X0278515Y0249566D01*
X0278375Y0249633D01*
X0278238Y0249704D01*
X0278103Y0249778D01*
X0277969Y0249856D01*
X0277838Y0249937D01*
X0277709Y0250022D01*
X0277581Y0250110D01*
X0277457Y0250201D01*
X0277334Y0250295D01*
X0277214Y0250393D01*
X0277097Y0250493D01*
X0276982Y0250597D01*
X0276870Y0250703D01*
X0276761Y0250812D01*
X0276655Y0250924D01*
X0276551Y0251039D01*
X0276451Y0251156D01*
X0276353Y0251276D01*
X0276259Y0251399D01*
X0276168Y0251523D01*
X0276080Y0251651D01*
X0275995Y0251780D01*
X0275914Y0251911D01*
X0275836Y0252045D01*
X0275762Y0252180D01*
X0275691Y0252317D01*
X0275624Y0252457D01*
X0275560Y0252597D01*
X0275500Y0252740D01*
X0275444Y0252883D01*
X0275391Y0253029D01*
X0275342Y0253175D01*
X0275297Y0253323D01*
X0275256Y0253472D01*
X0275218Y0253622D01*
X0275185Y0253773D01*
X0275155Y0253924D01*
X0275129Y0254077D01*
X0275108Y0254230D01*
X0275090Y0254383D01*
X0275076Y0254537D01*
X0275066Y0254691D01*
X0275060Y0254846D01*
X0275058Y0255000D01*
X0300940Y0251063D02*
X0300942Y0251147D01*
X0300948Y0251230D01*
X0300958Y0251313D01*
X0300972Y0251396D01*
X0300989Y0251478D01*
X0301011Y0251559D01*
X0301036Y0251638D01*
X0301065Y0251717D01*
X0301098Y0251794D01*
X0301134Y0251869D01*
X0301174Y0251943D01*
X0301217Y0252015D01*
X0301264Y0252084D01*
X0301314Y0252151D01*
X0301367Y0252216D01*
X0301423Y0252278D01*
X0301481Y0252338D01*
X0301543Y0252395D01*
X0301607Y0252448D01*
X0301674Y0252499D01*
X0301743Y0252546D01*
X0301814Y0252591D01*
X0301887Y0252631D01*
X0301962Y0252668D01*
X0302039Y0252702D01*
X0302117Y0252732D01*
X0302196Y0252758D01*
X0302277Y0252781D01*
X0302359Y0252799D01*
X0302441Y0252814D01*
X0302524Y0252825D01*
X0302607Y0252832D01*
X0302691Y0252835D01*
X0302775Y0252834D01*
X0302858Y0252829D01*
X0302942Y0252820D01*
X0303024Y0252807D01*
X0303106Y0252791D01*
X0303187Y0252770D01*
X0303268Y0252746D01*
X0303346Y0252718D01*
X0303424Y0252686D01*
X0303500Y0252650D01*
X0303574Y0252611D01*
X0303646Y0252569D01*
X0303716Y0252523D01*
X0303784Y0252474D01*
X0303849Y0252422D01*
X0303912Y0252367D01*
X0303972Y0252309D01*
X0304030Y0252248D01*
X0304084Y0252184D01*
X0304136Y0252118D01*
X0304184Y0252050D01*
X0304229Y0251979D01*
X0304270Y0251906D01*
X0304309Y0251832D01*
X0304343Y0251756D01*
X0304374Y0251678D01*
X0304401Y0251599D01*
X0304425Y0251518D01*
X0304444Y0251437D01*
X0304460Y0251355D01*
X0304472Y0251272D01*
X0304480Y0251188D01*
X0304484Y0251105D01*
X0304484Y0251021D01*
X0304480Y0250938D01*
X0304472Y0250854D01*
X0304460Y0250771D01*
X0304444Y0250689D01*
X0304425Y0250608D01*
X0304401Y0250527D01*
X0304374Y0250448D01*
X0304343Y0250370D01*
X0304309Y0250294D01*
X0304270Y0250220D01*
X0304229Y0250147D01*
X0304184Y0250076D01*
X0304136Y0250008D01*
X0304084Y0249942D01*
X0304030Y0249878D01*
X0303972Y0249817D01*
X0303912Y0249759D01*
X0303849Y0249704D01*
X0303784Y0249652D01*
X0303716Y0249603D01*
X0303646Y0249557D01*
X0303574Y0249515D01*
X0303500Y0249476D01*
X0303424Y0249440D01*
X0303346Y0249408D01*
X0303268Y0249380D01*
X0303187Y0249356D01*
X0303106Y0249335D01*
X0303024Y0249319D01*
X0302942Y0249306D01*
X0302858Y0249297D01*
X0302775Y0249292D01*
X0302691Y0249291D01*
X0302607Y0249294D01*
X0302524Y0249301D01*
X0302441Y0249312D01*
X0302359Y0249327D01*
X0302277Y0249345D01*
X0302196Y0249368D01*
X0302117Y0249394D01*
X0302039Y0249424D01*
X0301962Y0249458D01*
X0301887Y0249495D01*
X0301814Y0249535D01*
X0301743Y0249580D01*
X0301674Y0249627D01*
X0301607Y0249678D01*
X0301543Y0249731D01*
X0301481Y0249788D01*
X0301423Y0249848D01*
X0301367Y0249910D01*
X0301314Y0249975D01*
X0301264Y0250042D01*
X0301217Y0250111D01*
X0301174Y0250183D01*
X0301134Y0250257D01*
X0301098Y0250332D01*
X0301065Y0250409D01*
X0301036Y0250488D01*
X0301011Y0250567D01*
X0300989Y0250648D01*
X0300972Y0250730D01*
X0300958Y0250813D01*
X0300948Y0250896D01*
X0300942Y0250979D01*
X0300940Y0251063D01*
X0046712Y0255000D02*
X0046714Y0255154D01*
X0046720Y0255309D01*
X0046730Y0255463D01*
X0046744Y0255617D01*
X0046762Y0255770D01*
X0046783Y0255923D01*
X0046809Y0256076D01*
X0046839Y0256227D01*
X0046872Y0256378D01*
X0046910Y0256528D01*
X0046951Y0256677D01*
X0046996Y0256825D01*
X0047045Y0256971D01*
X0047098Y0257117D01*
X0047154Y0257260D01*
X0047214Y0257403D01*
X0047278Y0257543D01*
X0047345Y0257683D01*
X0047416Y0257820D01*
X0047490Y0257955D01*
X0047568Y0258089D01*
X0047649Y0258220D01*
X0047734Y0258349D01*
X0047822Y0258477D01*
X0047913Y0258601D01*
X0048007Y0258724D01*
X0048105Y0258844D01*
X0048205Y0258961D01*
X0048309Y0259076D01*
X0048415Y0259188D01*
X0048524Y0259297D01*
X0048636Y0259403D01*
X0048751Y0259507D01*
X0048868Y0259607D01*
X0048988Y0259705D01*
X0049111Y0259799D01*
X0049235Y0259890D01*
X0049363Y0259978D01*
X0049492Y0260063D01*
X0049623Y0260144D01*
X0049757Y0260222D01*
X0049892Y0260296D01*
X0050029Y0260367D01*
X0050169Y0260434D01*
X0050309Y0260498D01*
X0050452Y0260558D01*
X0050595Y0260614D01*
X0050741Y0260667D01*
X0050887Y0260716D01*
X0051035Y0260761D01*
X0051184Y0260802D01*
X0051334Y0260840D01*
X0051485Y0260873D01*
X0051636Y0260903D01*
X0051789Y0260929D01*
X0051942Y0260950D01*
X0052095Y0260968D01*
X0052249Y0260982D01*
X0052403Y0260992D01*
X0052558Y0260998D01*
X0052712Y0261000D01*
X0052866Y0260998D01*
X0053021Y0260992D01*
X0053175Y0260982D01*
X0053329Y0260968D01*
X0053482Y0260950D01*
X0053635Y0260929D01*
X0053788Y0260903D01*
X0053939Y0260873D01*
X0054090Y0260840D01*
X0054240Y0260802D01*
X0054389Y0260761D01*
X0054537Y0260716D01*
X0054683Y0260667D01*
X0054829Y0260614D01*
X0054972Y0260558D01*
X0055115Y0260498D01*
X0055255Y0260434D01*
X0055395Y0260367D01*
X0055532Y0260296D01*
X0055667Y0260222D01*
X0055801Y0260144D01*
X0055932Y0260063D01*
X0056061Y0259978D01*
X0056189Y0259890D01*
X0056313Y0259799D01*
X0056436Y0259705D01*
X0056556Y0259607D01*
X0056673Y0259507D01*
X0056788Y0259403D01*
X0056900Y0259297D01*
X0057009Y0259188D01*
X0057115Y0259076D01*
X0057219Y0258961D01*
X0057319Y0258844D01*
X0057417Y0258724D01*
X0057511Y0258601D01*
X0057602Y0258477D01*
X0057690Y0258349D01*
X0057775Y0258220D01*
X0057856Y0258089D01*
X0057934Y0257955D01*
X0058008Y0257820D01*
X0058079Y0257683D01*
X0058146Y0257543D01*
X0058210Y0257403D01*
X0058270Y0257260D01*
X0058326Y0257117D01*
X0058379Y0256971D01*
X0058428Y0256825D01*
X0058473Y0256677D01*
X0058514Y0256528D01*
X0058552Y0256378D01*
X0058585Y0256227D01*
X0058615Y0256076D01*
X0058641Y0255923D01*
X0058662Y0255770D01*
X0058680Y0255617D01*
X0058694Y0255463D01*
X0058704Y0255309D01*
X0058710Y0255154D01*
X0058712Y0255000D01*
X0058710Y0254846D01*
X0058704Y0254691D01*
X0058694Y0254537D01*
X0058680Y0254383D01*
X0058662Y0254230D01*
X0058641Y0254077D01*
X0058615Y0253924D01*
X0058585Y0253773D01*
X0058552Y0253622D01*
X0058514Y0253472D01*
X0058473Y0253323D01*
X0058428Y0253175D01*
X0058379Y0253029D01*
X0058326Y0252883D01*
X0058270Y0252740D01*
X0058210Y0252597D01*
X0058146Y0252457D01*
X0058079Y0252317D01*
X0058008Y0252180D01*
X0057934Y0252045D01*
X0057856Y0251911D01*
X0057775Y0251780D01*
X0057690Y0251651D01*
X0057602Y0251523D01*
X0057511Y0251399D01*
X0057417Y0251276D01*
X0057319Y0251156D01*
X0057219Y0251039D01*
X0057115Y0250924D01*
X0057009Y0250812D01*
X0056900Y0250703D01*
X0056788Y0250597D01*
X0056673Y0250493D01*
X0056556Y0250393D01*
X0056436Y0250295D01*
X0056313Y0250201D01*
X0056189Y0250110D01*
X0056061Y0250022D01*
X0055932Y0249937D01*
X0055801Y0249856D01*
X0055667Y0249778D01*
X0055532Y0249704D01*
X0055395Y0249633D01*
X0055255Y0249566D01*
X0055115Y0249502D01*
X0054972Y0249442D01*
X0054829Y0249386D01*
X0054683Y0249333D01*
X0054537Y0249284D01*
X0054389Y0249239D01*
X0054240Y0249198D01*
X0054090Y0249160D01*
X0053939Y0249127D01*
X0053788Y0249097D01*
X0053635Y0249071D01*
X0053482Y0249050D01*
X0053329Y0249032D01*
X0053175Y0249018D01*
X0053021Y0249008D01*
X0052866Y0249002D01*
X0052712Y0249000D01*
X0052558Y0249002D01*
X0052403Y0249008D01*
X0052249Y0249018D01*
X0052095Y0249032D01*
X0051942Y0249050D01*
X0051789Y0249071D01*
X0051636Y0249097D01*
X0051485Y0249127D01*
X0051334Y0249160D01*
X0051184Y0249198D01*
X0051035Y0249239D01*
X0050887Y0249284D01*
X0050741Y0249333D01*
X0050595Y0249386D01*
X0050452Y0249442D01*
X0050309Y0249502D01*
X0050169Y0249566D01*
X0050029Y0249633D01*
X0049892Y0249704D01*
X0049757Y0249778D01*
X0049623Y0249856D01*
X0049492Y0249937D01*
X0049363Y0250022D01*
X0049235Y0250110D01*
X0049111Y0250201D01*
X0048988Y0250295D01*
X0048868Y0250393D01*
X0048751Y0250493D01*
X0048636Y0250597D01*
X0048524Y0250703D01*
X0048415Y0250812D01*
X0048309Y0250924D01*
X0048205Y0251039D01*
X0048105Y0251156D01*
X0048007Y0251276D01*
X0047913Y0251399D01*
X0047822Y0251523D01*
X0047734Y0251651D01*
X0047649Y0251780D01*
X0047568Y0251911D01*
X0047490Y0252045D01*
X0047416Y0252180D01*
X0047345Y0252317D01*
X0047278Y0252457D01*
X0047214Y0252597D01*
X0047154Y0252740D01*
X0047098Y0252883D01*
X0047045Y0253029D01*
X0046996Y0253175D01*
X0046951Y0253323D01*
X0046910Y0253472D01*
X0046872Y0253622D01*
X0046839Y0253773D01*
X0046809Y0253924D01*
X0046783Y0254077D01*
X0046762Y0254230D01*
X0046744Y0254383D01*
X0046730Y0254537D01*
X0046720Y0254691D01*
X0046714Y0254846D01*
X0046712Y0255000D01*
M02*
