G75*
%MOIN*%
%OFA0B0*%
%FSLAX25Y25*%
%IPPOS*%
%LPD*%
%AMOC8*
5,1,8,0,0,1.08239X$1,22.5*
%
%ADD10C,0.00800*%
%ADD11C,0.00600*%
%ADD12C,0.01600*%
%ADD13R,0.00157X0.00787*%
%ADD14R,0.00157X0.00630*%
%ADD15R,0.00157X0.00157*%
%ADD16R,0.00157X0.01102*%
%ADD17R,0.00157X0.00945*%
%ADD18R,0.00157X0.00315*%
%ADD19R,0.00157X0.01260*%
%ADD20R,0.00157X0.01417*%
%ADD21R,0.00157X0.01575*%
%ADD22R,0.00157X0.01732*%
%ADD23R,0.00157X0.01890*%
%ADD24R,0.00157X0.02047*%
%ADD25R,0.00157X0.02362*%
%ADD26R,0.00157X0.02520*%
%ADD27R,0.00157X0.02205*%
%ADD28R,0.00157X0.02677*%
%ADD29R,0.00157X0.02835*%
%ADD30R,0.00157X0.04567*%
%ADD31R,0.00157X0.03307*%
%ADD32R,0.00157X0.02992*%
%ADD33R,0.00157X0.00472*%
%ADD34R,0.00157X0.03465*%
%ADD35R,0.00157X0.03937*%
%ADD36R,0.00157X0.04094*%
%ADD37R,0.00157X0.03780*%
%ADD38R,0.00157X0.03622*%
%ADD39C,0.00300*%
%ADD40C,0.00050*%
%ADD41R,0.00157X0.04882*%
%ADD42R,0.00157X0.05827*%
%ADD43R,0.00157X0.06457*%
%ADD44R,0.00157X0.07087*%
%ADD45R,0.00157X0.07402*%
%ADD46R,0.00157X0.07717*%
%ADD47R,0.00157X0.08031*%
%ADD48R,0.00157X0.03150*%
%ADD49R,0.00157X0.06772*%
%ADD50R,0.00157X0.05039*%
%ADD51R,0.00157X0.08346*%
%ADD52R,0.00157X0.08661*%
%ADD53R,0.00157X0.08976*%
%ADD54R,0.00157X0.09291*%
%ADD55R,0.00157X0.04409*%
%ADD56R,0.00157X0.04252*%
%ADD57R,0.00157X0.05197*%
%ADD58R,0.00157X0.06142*%
%ADD59R,0.10551X0.00157*%
%ADD60R,0.11496X0.00157*%
%ADD61R,0.11969X0.00157*%
%ADD62R,0.12441X0.00157*%
%ADD63R,0.12756X0.00157*%
%ADD64R,0.13071X0.00157*%
%ADD65R,0.13386X0.00157*%
%ADD66R,0.05197X0.00157*%
%ADD67R,0.03465X0.00157*%
%ADD68R,0.03780X0.00157*%
%ADD69R,0.02992X0.00157*%
%ADD70R,0.01260X0.00157*%
%ADD71R,0.02520X0.00157*%
%ADD72R,0.03307X0.00157*%
%ADD73R,0.02835X0.00157*%
%ADD74R,0.00945X0.00157*%
%ADD75R,0.01890X0.00157*%
%ADD76R,0.03150X0.00157*%
%ADD77R,0.00630X0.00157*%
%ADD78R,0.01575X0.00157*%
%ADD79R,0.01102X0.00157*%
%ADD80R,0.00472X0.00157*%
%ADD81R,0.00787X0.00157*%
%ADD82R,0.00315X0.00157*%
%ADD83R,0.03622X0.00157*%
%ADD84R,0.05669X0.00157*%
%ADD85R,0.05827X0.00157*%
%ADD86R,0.02047X0.00157*%
%ADD87R,0.01732X0.00157*%
%ADD88R,0.01417X0.00157*%
%ADD89R,0.05512X0.00157*%
%ADD90R,0.11811X0.00157*%
D10*
X0068422Y0051887D02*
X0068622Y0051887D01*
X0068622Y0051877D01*
X0088182Y0051877D01*
X0088182Y0052767D01*
X0088302Y0058687D02*
X0088302Y0062087D01*
X0078302Y0052087D01*
X0068422Y0051887D02*
X0068422Y0052957D01*
X0068302Y0058587D02*
X0068302Y0065287D01*
X0068502Y0071387D02*
X0068502Y0072387D01*
X0068702Y0072387D01*
X0068702Y0072367D01*
X0088192Y0072367D01*
X0088192Y0071457D01*
X0088302Y0065487D02*
X0088302Y0062087D01*
X0103736Y0065287D02*
X0103736Y0058587D01*
X0103856Y0052957D02*
X0103856Y0051887D01*
X0104056Y0051887D01*
X0104056Y0051877D01*
X0123616Y0051877D01*
X0123616Y0052767D01*
X0123736Y0058687D02*
X0123736Y0062087D01*
X0113736Y0052087D01*
X0123736Y0062087D02*
X0123736Y0065487D01*
X0123626Y0071457D02*
X0123626Y0072367D01*
X0104136Y0072367D01*
X0104136Y0072387D01*
X0103936Y0072387D01*
X0103936Y0071387D01*
X0139369Y0071387D02*
X0139369Y0072387D01*
X0139569Y0072387D01*
X0139569Y0072367D01*
X0159059Y0072367D01*
X0159059Y0071457D01*
X0159169Y0065487D02*
X0159169Y0062087D01*
X0149169Y0052087D01*
X0139489Y0051877D02*
X0159049Y0051877D01*
X0159049Y0052767D01*
X0159169Y0058687D02*
X0159169Y0062087D01*
X0174602Y0065287D02*
X0174602Y0058587D01*
X0174722Y0052957D02*
X0174722Y0051887D01*
X0174922Y0051887D01*
X0174922Y0051877D01*
X0194482Y0051877D01*
X0194482Y0052767D01*
X0194602Y0058687D02*
X0194602Y0062087D01*
X0184602Y0052087D01*
X0194602Y0062087D02*
X0194602Y0065487D01*
X0194492Y0071457D02*
X0194492Y0072367D01*
X0175002Y0072367D01*
X0175002Y0072387D01*
X0174802Y0072387D01*
X0174802Y0071387D01*
X0210035Y0065287D02*
X0210035Y0058587D01*
X0210155Y0052957D02*
X0210155Y0051887D01*
X0210355Y0051887D01*
X0210355Y0051877D01*
X0229915Y0051877D01*
X0229915Y0052767D01*
X0230035Y0058687D02*
X0230035Y0062087D01*
X0220035Y0052087D01*
X0230035Y0062087D02*
X0230035Y0065487D01*
X0229925Y0071457D02*
X0229925Y0072367D01*
X0210435Y0072367D01*
X0210435Y0072387D01*
X0210235Y0072387D01*
X0210235Y0071387D01*
X0245668Y0071387D02*
X0245668Y0072387D01*
X0245868Y0072387D01*
X0245868Y0072367D01*
X0265358Y0072367D01*
X0265358Y0071457D01*
X0265468Y0065487D02*
X0265468Y0062087D01*
X0255468Y0052087D01*
X0245788Y0051887D02*
X0245788Y0051877D01*
X0265348Y0051877D01*
X0265348Y0052767D01*
X0265468Y0058687D02*
X0265468Y0062087D01*
X0245468Y0065287D02*
X0245468Y0058587D01*
X0245588Y0052957D02*
X0245588Y0051887D01*
X0245788Y0051887D01*
X0296806Y0058150D02*
X0302712Y0058150D01*
X0296806Y0058150D02*
X0296806Y0061693D01*
X0296806Y0070354D02*
X0296806Y0073898D01*
X0302712Y0073898D01*
X0311767Y0073898D02*
X0316098Y0073898D01*
X0316098Y0058150D01*
X0311767Y0058150D01*
X0316918Y0075236D02*
X0316920Y0075276D01*
X0316926Y0075315D01*
X0316936Y0075354D01*
X0316949Y0075391D01*
X0316967Y0075427D01*
X0316988Y0075461D01*
X0317012Y0075493D01*
X0317039Y0075522D01*
X0317069Y0075549D01*
X0317101Y0075572D01*
X0317136Y0075592D01*
X0317172Y0075608D01*
X0317210Y0075621D01*
X0317249Y0075630D01*
X0317288Y0075635D01*
X0317328Y0075636D01*
X0317368Y0075633D01*
X0317407Y0075626D01*
X0317445Y0075615D01*
X0317483Y0075601D01*
X0317518Y0075582D01*
X0317551Y0075561D01*
X0317583Y0075536D01*
X0317611Y0075508D01*
X0317637Y0075478D01*
X0317659Y0075445D01*
X0317678Y0075410D01*
X0317694Y0075373D01*
X0317706Y0075335D01*
X0317714Y0075296D01*
X0317718Y0075256D01*
X0317718Y0075216D01*
X0317714Y0075176D01*
X0317706Y0075137D01*
X0317694Y0075099D01*
X0317678Y0075062D01*
X0317659Y0075027D01*
X0317637Y0074994D01*
X0317611Y0074964D01*
X0317583Y0074936D01*
X0317551Y0074911D01*
X0317518Y0074890D01*
X0317483Y0074871D01*
X0317445Y0074857D01*
X0317407Y0074846D01*
X0317368Y0074839D01*
X0317328Y0074836D01*
X0317288Y0074837D01*
X0317249Y0074842D01*
X0317210Y0074851D01*
X0317172Y0074864D01*
X0317136Y0074880D01*
X0317101Y0074900D01*
X0317069Y0074923D01*
X0317039Y0074950D01*
X0317012Y0074979D01*
X0316988Y0075011D01*
X0316967Y0075045D01*
X0316949Y0075081D01*
X0316936Y0075118D01*
X0316926Y0075157D01*
X0316920Y0075196D01*
X0316918Y0075236D01*
X0318717Y0083257D02*
X0306392Y0083257D01*
X0306321Y0083248D01*
X0306250Y0083243D01*
X0306178Y0083242D01*
X0306107Y0083245D01*
X0306036Y0083252D01*
X0305965Y0083262D01*
X0305896Y0083276D01*
X0305826Y0083295D01*
X0305758Y0083316D01*
X0305692Y0083342D01*
X0305627Y0083371D01*
X0305563Y0083403D01*
X0305501Y0083439D01*
X0305442Y0083478D01*
X0305384Y0083521D01*
X0305329Y0083566D01*
X0305277Y0083615D01*
X0305227Y0083666D01*
X0305180Y0083719D01*
X0305136Y0083776D01*
X0305095Y0083834D01*
X0305057Y0083895D01*
X0305023Y0083957D01*
X0304992Y0084022D01*
X0304965Y0084088D01*
X0304941Y0084155D01*
X0304921Y0084223D01*
X0304904Y0084293D01*
X0304892Y0084363D01*
X0304892Y0118157D01*
X0304883Y0118227D01*
X0304878Y0118299D01*
X0304877Y0118370D01*
X0304880Y0118441D01*
X0304887Y0118512D01*
X0304897Y0118583D01*
X0304911Y0118653D01*
X0304929Y0118722D01*
X0304951Y0118790D01*
X0304977Y0118857D01*
X0305006Y0118922D01*
X0305038Y0118985D01*
X0305074Y0119047D01*
X0305113Y0119107D01*
X0305156Y0119164D01*
X0305201Y0119219D01*
X0305249Y0119272D01*
X0305301Y0119322D01*
X0305354Y0119369D01*
X0305410Y0119413D01*
X0305469Y0119453D01*
X0305530Y0119491D01*
X0305592Y0119525D01*
X0305656Y0119556D01*
X0305722Y0119584D01*
X0305790Y0119607D01*
X0305858Y0119627D01*
X0305928Y0119644D01*
X0305998Y0119656D01*
X0305998Y0119657D02*
X0309954Y0119657D01*
X0309954Y0119457D02*
X0309956Y0119359D01*
X0309962Y0119261D01*
X0309971Y0119163D01*
X0309985Y0119066D01*
X0310002Y0118969D01*
X0310023Y0118873D01*
X0310048Y0118778D01*
X0310076Y0118684D01*
X0310109Y0118592D01*
X0310144Y0118500D01*
X0310184Y0118410D01*
X0310226Y0118322D01*
X0310273Y0118235D01*
X0310322Y0118151D01*
X0310375Y0118068D01*
X0310431Y0117988D01*
X0310491Y0117909D01*
X0310553Y0117833D01*
X0310618Y0117760D01*
X0310686Y0117689D01*
X0310757Y0117621D01*
X0310830Y0117556D01*
X0310906Y0117494D01*
X0310985Y0117434D01*
X0311065Y0117378D01*
X0311148Y0117325D01*
X0311232Y0117276D01*
X0311319Y0117229D01*
X0311407Y0117187D01*
X0311497Y0117147D01*
X0311589Y0117112D01*
X0311681Y0117079D01*
X0311775Y0117051D01*
X0311870Y0117026D01*
X0311966Y0117005D01*
X0312063Y0116988D01*
X0312160Y0116974D01*
X0312258Y0116965D01*
X0312356Y0116959D01*
X0312454Y0116957D01*
X0312552Y0116959D01*
X0312650Y0116965D01*
X0312748Y0116974D01*
X0312845Y0116988D01*
X0312942Y0117005D01*
X0313038Y0117026D01*
X0313133Y0117051D01*
X0313227Y0117079D01*
X0313319Y0117112D01*
X0313411Y0117147D01*
X0313501Y0117187D01*
X0313589Y0117229D01*
X0313676Y0117276D01*
X0313760Y0117325D01*
X0313843Y0117378D01*
X0313923Y0117434D01*
X0314002Y0117494D01*
X0314078Y0117556D01*
X0314151Y0117621D01*
X0314222Y0117689D01*
X0314290Y0117760D01*
X0314355Y0117833D01*
X0314417Y0117909D01*
X0314477Y0117988D01*
X0314533Y0118068D01*
X0314586Y0118151D01*
X0314635Y0118235D01*
X0314682Y0118322D01*
X0314724Y0118410D01*
X0314764Y0118500D01*
X0314799Y0118592D01*
X0314832Y0118684D01*
X0314860Y0118778D01*
X0314885Y0118873D01*
X0314906Y0118969D01*
X0314923Y0119066D01*
X0314937Y0119163D01*
X0314946Y0119261D01*
X0314952Y0119359D01*
X0314954Y0119457D01*
X0314954Y0119657D02*
X0318273Y0119657D01*
X0318323Y0119657D02*
X0318404Y0119664D01*
X0318485Y0119668D01*
X0318566Y0119667D01*
X0318648Y0119663D01*
X0318728Y0119655D01*
X0318809Y0119643D01*
X0318889Y0119628D01*
X0318968Y0119608D01*
X0319046Y0119585D01*
X0319122Y0119558D01*
X0319198Y0119528D01*
X0319272Y0119494D01*
X0319344Y0119456D01*
X0319414Y0119415D01*
X0319482Y0119371D01*
X0319548Y0119324D01*
X0319612Y0119273D01*
X0319673Y0119220D01*
X0319732Y0119163D01*
X0319788Y0119104D01*
X0319841Y0119043D01*
X0319891Y0118979D01*
X0319938Y0118912D01*
X0319982Y0118844D01*
X0320022Y0118773D01*
X0320059Y0118701D01*
X0320093Y0118627D01*
X0320122Y0118551D01*
X0320149Y0118474D01*
X0320171Y0118396D01*
X0320190Y0118317D01*
X0320205Y0118237D01*
X0320217Y0118156D01*
X0320217Y0118157D02*
X0320217Y0084757D01*
X0320217Y0084756D02*
X0320215Y0084680D01*
X0320209Y0084605D01*
X0320200Y0084529D01*
X0320186Y0084454D01*
X0320169Y0084380D01*
X0320148Y0084307D01*
X0320124Y0084235D01*
X0320096Y0084165D01*
X0320064Y0084096D01*
X0320029Y0084028D01*
X0319990Y0083963D01*
X0319948Y0083899D01*
X0319903Y0083838D01*
X0319855Y0083779D01*
X0319804Y0083723D01*
X0319750Y0083669D01*
X0319694Y0083618D01*
X0319635Y0083570D01*
X0319574Y0083525D01*
X0319510Y0083483D01*
X0319445Y0083444D01*
X0319377Y0083409D01*
X0319308Y0083377D01*
X0319238Y0083349D01*
X0319166Y0083325D01*
X0319093Y0083304D01*
X0319019Y0083287D01*
X0318944Y0083273D01*
X0318868Y0083264D01*
X0318793Y0083258D01*
X0318717Y0083256D01*
X0333319Y0097064D02*
X0332482Y0097902D01*
X0332482Y0104177D01*
X0336721Y0108416D01*
X0339377Y0103127D02*
X0337707Y0101457D01*
X0339377Y0099786D01*
X0337707Y0101457D02*
X0342718Y0101457D01*
X0346059Y0103386D02*
X0346059Y0099528D01*
X0346058Y0099528D02*
X0346060Y0099442D01*
X0346065Y0099356D01*
X0346075Y0099271D01*
X0346088Y0099186D01*
X0346105Y0099102D01*
X0346125Y0099018D01*
X0346149Y0098936D01*
X0346177Y0098855D01*
X0346208Y0098774D01*
X0346242Y0098696D01*
X0346280Y0098619D01*
X0346322Y0098544D01*
X0346366Y0098470D01*
X0346414Y0098399D01*
X0346465Y0098329D01*
X0346519Y0098262D01*
X0346575Y0098198D01*
X0346635Y0098136D01*
X0346697Y0098076D01*
X0346761Y0098020D01*
X0346828Y0097966D01*
X0346898Y0097915D01*
X0346969Y0097867D01*
X0347043Y0097823D01*
X0347118Y0097781D01*
X0347195Y0097743D01*
X0347273Y0097709D01*
X0347354Y0097678D01*
X0347435Y0097650D01*
X0347517Y0097626D01*
X0347601Y0097606D01*
X0347685Y0097589D01*
X0347770Y0097576D01*
X0347855Y0097566D01*
X0347941Y0097561D01*
X0348027Y0097559D01*
X0351885Y0097559D01*
X0351971Y0097561D01*
X0352057Y0097566D01*
X0352142Y0097576D01*
X0352227Y0097589D01*
X0352311Y0097606D01*
X0352395Y0097626D01*
X0352477Y0097650D01*
X0352558Y0097678D01*
X0352639Y0097709D01*
X0352717Y0097743D01*
X0352794Y0097781D01*
X0352870Y0097823D01*
X0352943Y0097867D01*
X0353014Y0097915D01*
X0353084Y0097966D01*
X0353151Y0098020D01*
X0353215Y0098076D01*
X0353277Y0098136D01*
X0353337Y0098198D01*
X0353393Y0098262D01*
X0353447Y0098329D01*
X0353498Y0098399D01*
X0353546Y0098470D01*
X0353590Y0098544D01*
X0353632Y0098619D01*
X0353670Y0098696D01*
X0353704Y0098774D01*
X0353735Y0098855D01*
X0353763Y0098936D01*
X0353787Y0099018D01*
X0353807Y0099102D01*
X0353824Y0099186D01*
X0353837Y0099271D01*
X0353847Y0099356D01*
X0353852Y0099442D01*
X0353854Y0099528D01*
X0353853Y0099528D02*
X0353853Y0103386D01*
X0353854Y0103386D02*
X0353852Y0103472D01*
X0353847Y0103558D01*
X0353837Y0103643D01*
X0353824Y0103728D01*
X0353807Y0103812D01*
X0353787Y0103896D01*
X0353763Y0103978D01*
X0353735Y0104059D01*
X0353704Y0104140D01*
X0353670Y0104218D01*
X0353632Y0104295D01*
X0353590Y0104371D01*
X0353546Y0104444D01*
X0353498Y0104515D01*
X0353447Y0104585D01*
X0353393Y0104652D01*
X0353337Y0104716D01*
X0353277Y0104778D01*
X0353215Y0104838D01*
X0353151Y0104894D01*
X0353084Y0104948D01*
X0353014Y0104999D01*
X0352943Y0105047D01*
X0352870Y0105091D01*
X0352794Y0105133D01*
X0352717Y0105171D01*
X0352639Y0105205D01*
X0352558Y0105236D01*
X0352477Y0105264D01*
X0352395Y0105288D01*
X0352311Y0105308D01*
X0352227Y0105325D01*
X0352142Y0105338D01*
X0352057Y0105348D01*
X0351971Y0105353D01*
X0351885Y0105355D01*
X0351885Y0105354D02*
X0348027Y0105354D01*
X0348027Y0105355D02*
X0347941Y0105353D01*
X0347855Y0105348D01*
X0347770Y0105338D01*
X0347685Y0105325D01*
X0347601Y0105308D01*
X0347517Y0105288D01*
X0347435Y0105264D01*
X0347354Y0105236D01*
X0347273Y0105205D01*
X0347195Y0105171D01*
X0347118Y0105133D01*
X0347043Y0105091D01*
X0346969Y0105047D01*
X0346898Y0104999D01*
X0346828Y0104948D01*
X0346761Y0104894D01*
X0346697Y0104838D01*
X0346635Y0104778D01*
X0346575Y0104716D01*
X0346519Y0104652D01*
X0346465Y0104585D01*
X0346414Y0104515D01*
X0346366Y0104444D01*
X0346322Y0104371D01*
X0346280Y0104295D01*
X0346242Y0104218D01*
X0346208Y0104140D01*
X0346177Y0104059D01*
X0346149Y0103978D01*
X0346125Y0103896D01*
X0346105Y0103812D01*
X0346088Y0103728D01*
X0346075Y0103643D01*
X0346065Y0103558D01*
X0346060Y0103472D01*
X0346058Y0103386D01*
X0344050Y0101457D02*
X0344052Y0101610D01*
X0344058Y0101764D01*
X0344068Y0101917D01*
X0344082Y0102069D01*
X0344100Y0102222D01*
X0344122Y0102373D01*
X0344147Y0102524D01*
X0344177Y0102675D01*
X0344211Y0102825D01*
X0344248Y0102973D01*
X0344289Y0103121D01*
X0344334Y0103267D01*
X0344383Y0103413D01*
X0344436Y0103557D01*
X0344492Y0103699D01*
X0344552Y0103840D01*
X0344616Y0103980D01*
X0344683Y0104118D01*
X0344754Y0104254D01*
X0344829Y0104388D01*
X0344906Y0104520D01*
X0344988Y0104650D01*
X0345072Y0104778D01*
X0345160Y0104904D01*
X0345251Y0105027D01*
X0345345Y0105148D01*
X0345443Y0105266D01*
X0345543Y0105382D01*
X0345647Y0105495D01*
X0345753Y0105606D01*
X0345862Y0105714D01*
X0345974Y0105819D01*
X0346088Y0105920D01*
X0346206Y0106019D01*
X0346325Y0106115D01*
X0346447Y0106208D01*
X0346572Y0106297D01*
X0346699Y0106384D01*
X0346828Y0106466D01*
X0346959Y0106546D01*
X0347092Y0106622D01*
X0347227Y0106695D01*
X0347364Y0106764D01*
X0347503Y0106829D01*
X0347643Y0106891D01*
X0347785Y0106949D01*
X0347928Y0107004D01*
X0348073Y0107055D01*
X0348219Y0107102D01*
X0348366Y0107145D01*
X0348514Y0107184D01*
X0348663Y0107220D01*
X0348813Y0107251D01*
X0348964Y0107279D01*
X0349115Y0107303D01*
X0349268Y0107323D01*
X0349420Y0107339D01*
X0349573Y0107351D01*
X0349726Y0107359D01*
X0349879Y0107363D01*
X0350033Y0107363D01*
X0350186Y0107359D01*
X0350339Y0107351D01*
X0350492Y0107339D01*
X0350644Y0107323D01*
X0350797Y0107303D01*
X0350948Y0107279D01*
X0351099Y0107251D01*
X0351249Y0107220D01*
X0351398Y0107184D01*
X0351546Y0107145D01*
X0351693Y0107102D01*
X0351839Y0107055D01*
X0351984Y0107004D01*
X0352127Y0106949D01*
X0352269Y0106891D01*
X0352409Y0106829D01*
X0352548Y0106764D01*
X0352685Y0106695D01*
X0352820Y0106622D01*
X0352953Y0106546D01*
X0353084Y0106466D01*
X0353213Y0106384D01*
X0353340Y0106297D01*
X0353465Y0106208D01*
X0353587Y0106115D01*
X0353706Y0106019D01*
X0353824Y0105920D01*
X0353938Y0105819D01*
X0354050Y0105714D01*
X0354159Y0105606D01*
X0354265Y0105495D01*
X0354369Y0105382D01*
X0354469Y0105266D01*
X0354567Y0105148D01*
X0354661Y0105027D01*
X0354752Y0104904D01*
X0354840Y0104778D01*
X0354924Y0104650D01*
X0355006Y0104520D01*
X0355083Y0104388D01*
X0355158Y0104254D01*
X0355229Y0104118D01*
X0355296Y0103980D01*
X0355360Y0103840D01*
X0355420Y0103699D01*
X0355476Y0103557D01*
X0355529Y0103413D01*
X0355578Y0103267D01*
X0355623Y0103121D01*
X0355664Y0102973D01*
X0355701Y0102825D01*
X0355735Y0102675D01*
X0355765Y0102524D01*
X0355790Y0102373D01*
X0355812Y0102222D01*
X0355830Y0102069D01*
X0355844Y0101917D01*
X0355854Y0101764D01*
X0355860Y0101610D01*
X0355862Y0101457D01*
X0355860Y0101304D01*
X0355854Y0101150D01*
X0355844Y0100997D01*
X0355830Y0100845D01*
X0355812Y0100692D01*
X0355790Y0100541D01*
X0355765Y0100390D01*
X0355735Y0100239D01*
X0355701Y0100089D01*
X0355664Y0099941D01*
X0355623Y0099793D01*
X0355578Y0099647D01*
X0355529Y0099501D01*
X0355476Y0099357D01*
X0355420Y0099215D01*
X0355360Y0099074D01*
X0355296Y0098934D01*
X0355229Y0098796D01*
X0355158Y0098660D01*
X0355083Y0098526D01*
X0355006Y0098394D01*
X0354924Y0098264D01*
X0354840Y0098136D01*
X0354752Y0098010D01*
X0354661Y0097887D01*
X0354567Y0097766D01*
X0354469Y0097648D01*
X0354369Y0097532D01*
X0354265Y0097419D01*
X0354159Y0097308D01*
X0354050Y0097200D01*
X0353938Y0097095D01*
X0353824Y0096994D01*
X0353706Y0096895D01*
X0353587Y0096799D01*
X0353465Y0096706D01*
X0353340Y0096617D01*
X0353213Y0096530D01*
X0353084Y0096448D01*
X0352953Y0096368D01*
X0352820Y0096292D01*
X0352685Y0096219D01*
X0352548Y0096150D01*
X0352409Y0096085D01*
X0352269Y0096023D01*
X0352127Y0095965D01*
X0351984Y0095910D01*
X0351839Y0095859D01*
X0351693Y0095812D01*
X0351546Y0095769D01*
X0351398Y0095730D01*
X0351249Y0095694D01*
X0351099Y0095663D01*
X0350948Y0095635D01*
X0350797Y0095611D01*
X0350644Y0095591D01*
X0350492Y0095575D01*
X0350339Y0095563D01*
X0350186Y0095555D01*
X0350033Y0095551D01*
X0349879Y0095551D01*
X0349726Y0095555D01*
X0349573Y0095563D01*
X0349420Y0095575D01*
X0349268Y0095591D01*
X0349115Y0095611D01*
X0348964Y0095635D01*
X0348813Y0095663D01*
X0348663Y0095694D01*
X0348514Y0095730D01*
X0348366Y0095769D01*
X0348219Y0095812D01*
X0348073Y0095859D01*
X0347928Y0095910D01*
X0347785Y0095965D01*
X0347643Y0096023D01*
X0347503Y0096085D01*
X0347364Y0096150D01*
X0347227Y0096219D01*
X0347092Y0096292D01*
X0346959Y0096368D01*
X0346828Y0096448D01*
X0346699Y0096530D01*
X0346572Y0096617D01*
X0346447Y0096706D01*
X0346325Y0096799D01*
X0346206Y0096895D01*
X0346088Y0096994D01*
X0345974Y0097095D01*
X0345862Y0097200D01*
X0345753Y0097308D01*
X0345647Y0097419D01*
X0345543Y0097532D01*
X0345443Y0097648D01*
X0345345Y0097766D01*
X0345251Y0097887D01*
X0345160Y0098010D01*
X0345072Y0098136D01*
X0344988Y0098264D01*
X0344906Y0098394D01*
X0344829Y0098526D01*
X0344754Y0098660D01*
X0344683Y0098796D01*
X0344616Y0098934D01*
X0344552Y0099074D01*
X0344492Y0099215D01*
X0344436Y0099357D01*
X0344383Y0099501D01*
X0344334Y0099647D01*
X0344289Y0099793D01*
X0344248Y0099941D01*
X0344211Y0100089D01*
X0344177Y0100239D01*
X0344147Y0100390D01*
X0344122Y0100541D01*
X0344100Y0100692D01*
X0344082Y0100845D01*
X0344068Y0100997D01*
X0344058Y0101150D01*
X0344052Y0101304D01*
X0344050Y0101457D01*
X0356916Y0088222D02*
X0352676Y0083982D01*
X0346401Y0083982D01*
X0345563Y0084820D01*
X0363191Y0094497D02*
X0367430Y0098737D01*
X0367430Y0105012D01*
X0366592Y0105850D01*
X0354349Y0118093D02*
X0353511Y0118931D01*
X0347236Y0118931D01*
X0342996Y0114691D01*
X0302779Y0120832D02*
X0302781Y0120872D01*
X0302787Y0120911D01*
X0302797Y0120950D01*
X0302810Y0120987D01*
X0302828Y0121023D01*
X0302849Y0121057D01*
X0302873Y0121089D01*
X0302900Y0121118D01*
X0302930Y0121145D01*
X0302962Y0121168D01*
X0302997Y0121188D01*
X0303033Y0121204D01*
X0303071Y0121217D01*
X0303110Y0121226D01*
X0303149Y0121231D01*
X0303189Y0121232D01*
X0303229Y0121229D01*
X0303268Y0121222D01*
X0303306Y0121211D01*
X0303344Y0121197D01*
X0303379Y0121178D01*
X0303412Y0121157D01*
X0303444Y0121132D01*
X0303472Y0121104D01*
X0303498Y0121074D01*
X0303520Y0121041D01*
X0303539Y0121006D01*
X0303555Y0120969D01*
X0303567Y0120931D01*
X0303575Y0120892D01*
X0303579Y0120852D01*
X0303579Y0120812D01*
X0303575Y0120772D01*
X0303567Y0120733D01*
X0303555Y0120695D01*
X0303539Y0120658D01*
X0303520Y0120623D01*
X0303498Y0120590D01*
X0303472Y0120560D01*
X0303444Y0120532D01*
X0303412Y0120507D01*
X0303379Y0120486D01*
X0303344Y0120467D01*
X0303306Y0120453D01*
X0303268Y0120442D01*
X0303229Y0120435D01*
X0303189Y0120432D01*
X0303149Y0120433D01*
X0303110Y0120438D01*
X0303071Y0120447D01*
X0303033Y0120460D01*
X0302997Y0120476D01*
X0302962Y0120496D01*
X0302930Y0120519D01*
X0302900Y0120546D01*
X0302873Y0120575D01*
X0302849Y0120607D01*
X0302828Y0120641D01*
X0302810Y0120677D01*
X0302797Y0120714D01*
X0302787Y0120753D01*
X0302781Y0120792D01*
X0302779Y0120832D01*
X0328676Y0152106D02*
X0328676Y0157106D01*
X0341176Y0154606D02*
X0346176Y0154606D01*
X0343676Y0157106D02*
X0343676Y0152106D01*
X0366676Y0154606D02*
X0371676Y0154606D01*
X0369176Y0157106D02*
X0369176Y0152106D01*
X0362712Y0193819D02*
X0352830Y0193819D01*
X0347830Y0197756D02*
X0347830Y0209882D01*
X0352948Y0213819D02*
X0362712Y0213819D01*
X0367830Y0209882D02*
X0367830Y0197756D01*
X0352830Y0203819D02*
X0352832Y0203960D01*
X0352838Y0204101D01*
X0352848Y0204241D01*
X0352862Y0204381D01*
X0352880Y0204521D01*
X0352901Y0204660D01*
X0352927Y0204799D01*
X0352956Y0204937D01*
X0352990Y0205073D01*
X0353027Y0205209D01*
X0353068Y0205344D01*
X0353113Y0205478D01*
X0353162Y0205610D01*
X0353214Y0205741D01*
X0353270Y0205870D01*
X0353330Y0205997D01*
X0353393Y0206123D01*
X0353459Y0206247D01*
X0353530Y0206370D01*
X0353603Y0206490D01*
X0353680Y0206608D01*
X0353760Y0206724D01*
X0353844Y0206837D01*
X0353930Y0206948D01*
X0354020Y0207057D01*
X0354113Y0207163D01*
X0354208Y0207266D01*
X0354307Y0207367D01*
X0354408Y0207465D01*
X0354512Y0207560D01*
X0354619Y0207652D01*
X0354728Y0207741D01*
X0354840Y0207826D01*
X0354954Y0207909D01*
X0355070Y0207989D01*
X0355189Y0208065D01*
X0355310Y0208137D01*
X0355432Y0208207D01*
X0355557Y0208272D01*
X0355683Y0208335D01*
X0355811Y0208393D01*
X0355941Y0208448D01*
X0356072Y0208500D01*
X0356205Y0208547D01*
X0356339Y0208591D01*
X0356474Y0208632D01*
X0356610Y0208668D01*
X0356747Y0208700D01*
X0356885Y0208729D01*
X0357023Y0208754D01*
X0357163Y0208774D01*
X0357303Y0208791D01*
X0357443Y0208804D01*
X0357584Y0208813D01*
X0357724Y0208818D01*
X0357865Y0208819D01*
X0358006Y0208816D01*
X0358147Y0208809D01*
X0358287Y0208798D01*
X0358427Y0208783D01*
X0358567Y0208764D01*
X0358706Y0208742D01*
X0358844Y0208715D01*
X0358982Y0208685D01*
X0359118Y0208650D01*
X0359254Y0208612D01*
X0359388Y0208570D01*
X0359522Y0208524D01*
X0359654Y0208475D01*
X0359784Y0208421D01*
X0359913Y0208364D01*
X0360040Y0208304D01*
X0360166Y0208240D01*
X0360289Y0208172D01*
X0360411Y0208101D01*
X0360531Y0208027D01*
X0360648Y0207949D01*
X0360763Y0207868D01*
X0360876Y0207784D01*
X0360987Y0207697D01*
X0361095Y0207606D01*
X0361200Y0207513D01*
X0361303Y0207416D01*
X0361403Y0207317D01*
X0361500Y0207215D01*
X0361594Y0207110D01*
X0361685Y0207003D01*
X0361773Y0206893D01*
X0361858Y0206781D01*
X0361940Y0206666D01*
X0362019Y0206549D01*
X0362094Y0206430D01*
X0362166Y0206309D01*
X0362234Y0206186D01*
X0362299Y0206061D01*
X0362361Y0205934D01*
X0362418Y0205805D01*
X0362473Y0205675D01*
X0362523Y0205544D01*
X0362570Y0205411D01*
X0362613Y0205277D01*
X0362652Y0205141D01*
X0362687Y0205005D01*
X0362719Y0204868D01*
X0362746Y0204730D01*
X0362770Y0204591D01*
X0362790Y0204451D01*
X0362806Y0204311D01*
X0362818Y0204171D01*
X0362826Y0204030D01*
X0362830Y0203889D01*
X0362830Y0203749D01*
X0362826Y0203608D01*
X0362818Y0203467D01*
X0362806Y0203327D01*
X0362790Y0203187D01*
X0362770Y0203047D01*
X0362746Y0202908D01*
X0362719Y0202770D01*
X0362687Y0202633D01*
X0362652Y0202497D01*
X0362613Y0202361D01*
X0362570Y0202227D01*
X0362523Y0202094D01*
X0362473Y0201963D01*
X0362418Y0201833D01*
X0362361Y0201704D01*
X0362299Y0201577D01*
X0362234Y0201452D01*
X0362166Y0201329D01*
X0362094Y0201208D01*
X0362019Y0201089D01*
X0361940Y0200972D01*
X0361858Y0200857D01*
X0361773Y0200745D01*
X0361685Y0200635D01*
X0361594Y0200528D01*
X0361500Y0200423D01*
X0361403Y0200321D01*
X0361303Y0200222D01*
X0361200Y0200125D01*
X0361095Y0200032D01*
X0360987Y0199941D01*
X0360876Y0199854D01*
X0360763Y0199770D01*
X0360648Y0199689D01*
X0360531Y0199611D01*
X0360411Y0199537D01*
X0360289Y0199466D01*
X0360166Y0199398D01*
X0360040Y0199334D01*
X0359913Y0199274D01*
X0359784Y0199217D01*
X0359654Y0199163D01*
X0359522Y0199114D01*
X0359388Y0199068D01*
X0359254Y0199026D01*
X0359118Y0198988D01*
X0358982Y0198953D01*
X0358844Y0198923D01*
X0358706Y0198896D01*
X0358567Y0198874D01*
X0358427Y0198855D01*
X0358287Y0198840D01*
X0358147Y0198829D01*
X0358006Y0198822D01*
X0357865Y0198819D01*
X0357724Y0198820D01*
X0357584Y0198825D01*
X0357443Y0198834D01*
X0357303Y0198847D01*
X0357163Y0198864D01*
X0357023Y0198884D01*
X0356885Y0198909D01*
X0356747Y0198938D01*
X0356610Y0198970D01*
X0356474Y0199006D01*
X0356339Y0199047D01*
X0356205Y0199091D01*
X0356072Y0199138D01*
X0355941Y0199190D01*
X0355811Y0199245D01*
X0355683Y0199303D01*
X0355557Y0199366D01*
X0355432Y0199431D01*
X0355310Y0199501D01*
X0355189Y0199573D01*
X0355070Y0199649D01*
X0354954Y0199729D01*
X0354840Y0199812D01*
X0354728Y0199897D01*
X0354619Y0199986D01*
X0354512Y0200078D01*
X0354408Y0200173D01*
X0354307Y0200271D01*
X0354208Y0200372D01*
X0354113Y0200475D01*
X0354020Y0200581D01*
X0353930Y0200690D01*
X0353844Y0200801D01*
X0353760Y0200914D01*
X0353680Y0201030D01*
X0353603Y0201148D01*
X0353530Y0201268D01*
X0353459Y0201391D01*
X0353393Y0201515D01*
X0353330Y0201641D01*
X0353270Y0201768D01*
X0353214Y0201897D01*
X0353162Y0202028D01*
X0353113Y0202160D01*
X0353068Y0202294D01*
X0353027Y0202429D01*
X0352990Y0202565D01*
X0352956Y0202701D01*
X0352927Y0202839D01*
X0352901Y0202978D01*
X0352880Y0203117D01*
X0352862Y0203257D01*
X0352848Y0203397D01*
X0352838Y0203537D01*
X0352832Y0203678D01*
X0352830Y0203819D01*
X0352830Y0225315D02*
X0362712Y0225315D01*
X0367830Y0229252D02*
X0367830Y0241378D01*
X0362712Y0245315D02*
X0352948Y0245315D01*
X0347830Y0241378D02*
X0347830Y0229252D01*
X0352830Y0235315D02*
X0352832Y0235456D01*
X0352838Y0235597D01*
X0352848Y0235737D01*
X0352862Y0235877D01*
X0352880Y0236017D01*
X0352901Y0236156D01*
X0352927Y0236295D01*
X0352956Y0236433D01*
X0352990Y0236569D01*
X0353027Y0236705D01*
X0353068Y0236840D01*
X0353113Y0236974D01*
X0353162Y0237106D01*
X0353214Y0237237D01*
X0353270Y0237366D01*
X0353330Y0237493D01*
X0353393Y0237619D01*
X0353459Y0237743D01*
X0353530Y0237866D01*
X0353603Y0237986D01*
X0353680Y0238104D01*
X0353760Y0238220D01*
X0353844Y0238333D01*
X0353930Y0238444D01*
X0354020Y0238553D01*
X0354113Y0238659D01*
X0354208Y0238762D01*
X0354307Y0238863D01*
X0354408Y0238961D01*
X0354512Y0239056D01*
X0354619Y0239148D01*
X0354728Y0239237D01*
X0354840Y0239322D01*
X0354954Y0239405D01*
X0355070Y0239485D01*
X0355189Y0239561D01*
X0355310Y0239633D01*
X0355432Y0239703D01*
X0355557Y0239768D01*
X0355683Y0239831D01*
X0355811Y0239889D01*
X0355941Y0239944D01*
X0356072Y0239996D01*
X0356205Y0240043D01*
X0356339Y0240087D01*
X0356474Y0240128D01*
X0356610Y0240164D01*
X0356747Y0240196D01*
X0356885Y0240225D01*
X0357023Y0240250D01*
X0357163Y0240270D01*
X0357303Y0240287D01*
X0357443Y0240300D01*
X0357584Y0240309D01*
X0357724Y0240314D01*
X0357865Y0240315D01*
X0358006Y0240312D01*
X0358147Y0240305D01*
X0358287Y0240294D01*
X0358427Y0240279D01*
X0358567Y0240260D01*
X0358706Y0240238D01*
X0358844Y0240211D01*
X0358982Y0240181D01*
X0359118Y0240146D01*
X0359254Y0240108D01*
X0359388Y0240066D01*
X0359522Y0240020D01*
X0359654Y0239971D01*
X0359784Y0239917D01*
X0359913Y0239860D01*
X0360040Y0239800D01*
X0360166Y0239736D01*
X0360289Y0239668D01*
X0360411Y0239597D01*
X0360531Y0239523D01*
X0360648Y0239445D01*
X0360763Y0239364D01*
X0360876Y0239280D01*
X0360987Y0239193D01*
X0361095Y0239102D01*
X0361200Y0239009D01*
X0361303Y0238912D01*
X0361403Y0238813D01*
X0361500Y0238711D01*
X0361594Y0238606D01*
X0361685Y0238499D01*
X0361773Y0238389D01*
X0361858Y0238277D01*
X0361940Y0238162D01*
X0362019Y0238045D01*
X0362094Y0237926D01*
X0362166Y0237805D01*
X0362234Y0237682D01*
X0362299Y0237557D01*
X0362361Y0237430D01*
X0362418Y0237301D01*
X0362473Y0237171D01*
X0362523Y0237040D01*
X0362570Y0236907D01*
X0362613Y0236773D01*
X0362652Y0236637D01*
X0362687Y0236501D01*
X0362719Y0236364D01*
X0362746Y0236226D01*
X0362770Y0236087D01*
X0362790Y0235947D01*
X0362806Y0235807D01*
X0362818Y0235667D01*
X0362826Y0235526D01*
X0362830Y0235385D01*
X0362830Y0235245D01*
X0362826Y0235104D01*
X0362818Y0234963D01*
X0362806Y0234823D01*
X0362790Y0234683D01*
X0362770Y0234543D01*
X0362746Y0234404D01*
X0362719Y0234266D01*
X0362687Y0234129D01*
X0362652Y0233993D01*
X0362613Y0233857D01*
X0362570Y0233723D01*
X0362523Y0233590D01*
X0362473Y0233459D01*
X0362418Y0233329D01*
X0362361Y0233200D01*
X0362299Y0233073D01*
X0362234Y0232948D01*
X0362166Y0232825D01*
X0362094Y0232704D01*
X0362019Y0232585D01*
X0361940Y0232468D01*
X0361858Y0232353D01*
X0361773Y0232241D01*
X0361685Y0232131D01*
X0361594Y0232024D01*
X0361500Y0231919D01*
X0361403Y0231817D01*
X0361303Y0231718D01*
X0361200Y0231621D01*
X0361095Y0231528D01*
X0360987Y0231437D01*
X0360876Y0231350D01*
X0360763Y0231266D01*
X0360648Y0231185D01*
X0360531Y0231107D01*
X0360411Y0231033D01*
X0360289Y0230962D01*
X0360166Y0230894D01*
X0360040Y0230830D01*
X0359913Y0230770D01*
X0359784Y0230713D01*
X0359654Y0230659D01*
X0359522Y0230610D01*
X0359388Y0230564D01*
X0359254Y0230522D01*
X0359118Y0230484D01*
X0358982Y0230449D01*
X0358844Y0230419D01*
X0358706Y0230392D01*
X0358567Y0230370D01*
X0358427Y0230351D01*
X0358287Y0230336D01*
X0358147Y0230325D01*
X0358006Y0230318D01*
X0357865Y0230315D01*
X0357724Y0230316D01*
X0357584Y0230321D01*
X0357443Y0230330D01*
X0357303Y0230343D01*
X0357163Y0230360D01*
X0357023Y0230380D01*
X0356885Y0230405D01*
X0356747Y0230434D01*
X0356610Y0230466D01*
X0356474Y0230502D01*
X0356339Y0230543D01*
X0356205Y0230587D01*
X0356072Y0230634D01*
X0355941Y0230686D01*
X0355811Y0230741D01*
X0355683Y0230799D01*
X0355557Y0230862D01*
X0355432Y0230927D01*
X0355310Y0230997D01*
X0355189Y0231069D01*
X0355070Y0231145D01*
X0354954Y0231225D01*
X0354840Y0231308D01*
X0354728Y0231393D01*
X0354619Y0231482D01*
X0354512Y0231574D01*
X0354408Y0231669D01*
X0354307Y0231767D01*
X0354208Y0231868D01*
X0354113Y0231971D01*
X0354020Y0232077D01*
X0353930Y0232186D01*
X0353844Y0232297D01*
X0353760Y0232410D01*
X0353680Y0232526D01*
X0353603Y0232644D01*
X0353530Y0232764D01*
X0353459Y0232887D01*
X0353393Y0233011D01*
X0353330Y0233137D01*
X0353270Y0233264D01*
X0353214Y0233393D01*
X0353162Y0233524D01*
X0353113Y0233656D01*
X0353068Y0233790D01*
X0353027Y0233925D01*
X0352990Y0234061D01*
X0352956Y0234197D01*
X0352927Y0234335D01*
X0352901Y0234474D01*
X0352880Y0234613D01*
X0352862Y0234753D01*
X0352848Y0234893D01*
X0352838Y0235033D01*
X0352832Y0235174D01*
X0352830Y0235315D01*
X0332824Y0226457D02*
X0332826Y0226497D01*
X0332832Y0226536D01*
X0332842Y0226575D01*
X0332855Y0226612D01*
X0332873Y0226648D01*
X0332894Y0226682D01*
X0332918Y0226714D01*
X0332945Y0226743D01*
X0332975Y0226770D01*
X0333007Y0226793D01*
X0333042Y0226813D01*
X0333078Y0226829D01*
X0333116Y0226842D01*
X0333155Y0226851D01*
X0333194Y0226856D01*
X0333234Y0226857D01*
X0333274Y0226854D01*
X0333313Y0226847D01*
X0333351Y0226836D01*
X0333389Y0226822D01*
X0333424Y0226803D01*
X0333457Y0226782D01*
X0333489Y0226757D01*
X0333517Y0226729D01*
X0333543Y0226699D01*
X0333565Y0226666D01*
X0333584Y0226631D01*
X0333600Y0226594D01*
X0333612Y0226556D01*
X0333620Y0226517D01*
X0333624Y0226477D01*
X0333624Y0226437D01*
X0333620Y0226397D01*
X0333612Y0226358D01*
X0333600Y0226320D01*
X0333584Y0226283D01*
X0333565Y0226248D01*
X0333543Y0226215D01*
X0333517Y0226185D01*
X0333489Y0226157D01*
X0333457Y0226132D01*
X0333424Y0226111D01*
X0333389Y0226092D01*
X0333351Y0226078D01*
X0333313Y0226067D01*
X0333274Y0226060D01*
X0333234Y0226057D01*
X0333194Y0226058D01*
X0333155Y0226063D01*
X0333116Y0226072D01*
X0333078Y0226085D01*
X0333042Y0226101D01*
X0333007Y0226121D01*
X0332975Y0226144D01*
X0332945Y0226171D01*
X0332918Y0226200D01*
X0332894Y0226232D01*
X0332873Y0226266D01*
X0332855Y0226302D01*
X0332842Y0226339D01*
X0332832Y0226378D01*
X0332826Y0226417D01*
X0332824Y0226457D01*
X0316098Y0243189D02*
X0311767Y0243189D01*
X0316098Y0243189D02*
X0316098Y0258937D01*
X0311767Y0258937D01*
X0316918Y0260276D02*
X0316920Y0260316D01*
X0316926Y0260355D01*
X0316936Y0260394D01*
X0316949Y0260431D01*
X0316967Y0260467D01*
X0316988Y0260501D01*
X0317012Y0260533D01*
X0317039Y0260562D01*
X0317069Y0260589D01*
X0317101Y0260612D01*
X0317136Y0260632D01*
X0317172Y0260648D01*
X0317210Y0260661D01*
X0317249Y0260670D01*
X0317288Y0260675D01*
X0317328Y0260676D01*
X0317368Y0260673D01*
X0317407Y0260666D01*
X0317445Y0260655D01*
X0317483Y0260641D01*
X0317518Y0260622D01*
X0317551Y0260601D01*
X0317583Y0260576D01*
X0317611Y0260548D01*
X0317637Y0260518D01*
X0317659Y0260485D01*
X0317678Y0260450D01*
X0317694Y0260413D01*
X0317706Y0260375D01*
X0317714Y0260336D01*
X0317718Y0260296D01*
X0317718Y0260256D01*
X0317714Y0260216D01*
X0317706Y0260177D01*
X0317694Y0260139D01*
X0317678Y0260102D01*
X0317659Y0260067D01*
X0317637Y0260034D01*
X0317611Y0260004D01*
X0317583Y0259976D01*
X0317551Y0259951D01*
X0317518Y0259930D01*
X0317483Y0259911D01*
X0317445Y0259897D01*
X0317407Y0259886D01*
X0317368Y0259879D01*
X0317328Y0259876D01*
X0317288Y0259877D01*
X0317249Y0259882D01*
X0317210Y0259891D01*
X0317172Y0259904D01*
X0317136Y0259920D01*
X0317101Y0259940D01*
X0317069Y0259963D01*
X0317039Y0259990D01*
X0317012Y0260019D01*
X0316988Y0260051D01*
X0316967Y0260085D01*
X0316949Y0260121D01*
X0316936Y0260158D01*
X0316926Y0260197D01*
X0316920Y0260236D01*
X0316918Y0260276D01*
X0302712Y0258937D02*
X0296806Y0258937D01*
X0296806Y0255394D01*
X0296806Y0246732D02*
X0296806Y0243189D01*
X0302712Y0243189D01*
X0337745Y0069173D02*
X0337747Y0069213D01*
X0337753Y0069252D01*
X0337763Y0069291D01*
X0337776Y0069328D01*
X0337794Y0069364D01*
X0337815Y0069398D01*
X0337839Y0069430D01*
X0337866Y0069459D01*
X0337896Y0069486D01*
X0337928Y0069509D01*
X0337963Y0069529D01*
X0337999Y0069545D01*
X0338037Y0069558D01*
X0338076Y0069567D01*
X0338115Y0069572D01*
X0338155Y0069573D01*
X0338195Y0069570D01*
X0338234Y0069563D01*
X0338272Y0069552D01*
X0338310Y0069538D01*
X0338345Y0069519D01*
X0338378Y0069498D01*
X0338410Y0069473D01*
X0338438Y0069445D01*
X0338464Y0069415D01*
X0338486Y0069382D01*
X0338505Y0069347D01*
X0338521Y0069310D01*
X0338533Y0069272D01*
X0338541Y0069233D01*
X0338545Y0069193D01*
X0338545Y0069153D01*
X0338541Y0069113D01*
X0338533Y0069074D01*
X0338521Y0069036D01*
X0338505Y0068999D01*
X0338486Y0068964D01*
X0338464Y0068931D01*
X0338438Y0068901D01*
X0338410Y0068873D01*
X0338378Y0068848D01*
X0338345Y0068827D01*
X0338310Y0068808D01*
X0338272Y0068794D01*
X0338234Y0068783D01*
X0338195Y0068776D01*
X0338155Y0068773D01*
X0338115Y0068774D01*
X0338076Y0068779D01*
X0338037Y0068788D01*
X0337999Y0068801D01*
X0337963Y0068817D01*
X0337928Y0068837D01*
X0337896Y0068860D01*
X0337866Y0068887D01*
X0337839Y0068916D01*
X0337815Y0068948D01*
X0337794Y0068982D01*
X0337776Y0069018D01*
X0337763Y0069055D01*
X0337753Y0069094D01*
X0337747Y0069133D01*
X0337745Y0069173D01*
X0339129Y0066614D02*
X0336176Y0066614D01*
X0336176Y0060118D01*
X0342082Y0049882D02*
X0353893Y0049882D01*
X0359798Y0060118D02*
X0359798Y0066614D01*
X0356846Y0066614D01*
X0139169Y0065287D02*
X0139169Y0058587D01*
X0139289Y0052957D02*
X0139289Y0051887D01*
X0139489Y0051887D01*
X0139489Y0051877D01*
D11*
X0333693Y0098973D02*
X0335571Y0098973D01*
X0335624Y0098975D01*
X0335676Y0098981D01*
X0335728Y0098990D01*
X0335779Y0099004D01*
X0335829Y0099021D01*
X0335877Y0099041D01*
X0335924Y0099065D01*
X0335969Y0099093D01*
X0336012Y0099124D01*
X0336053Y0099157D01*
X0336091Y0099194D01*
X0336126Y0099233D01*
X0336158Y0099275D01*
X0336187Y0099319D01*
X0336213Y0099365D01*
X0336235Y0099413D01*
X0336254Y0099462D01*
X0336270Y0099512D01*
X0336281Y0099564D01*
X0336289Y0099616D01*
X0336293Y0099669D01*
X0336293Y0099721D01*
X0336289Y0099774D01*
X0336281Y0099826D01*
X0336270Y0099878D01*
X0336254Y0099928D01*
X0336235Y0099977D01*
X0336213Y0100025D01*
X0336187Y0100071D01*
X0336158Y0100115D01*
X0336126Y0100157D01*
X0336091Y0100196D01*
X0336053Y0100233D01*
X0336012Y0100266D01*
X0335969Y0100297D01*
X0335924Y0100325D01*
X0335877Y0100349D01*
X0335829Y0100369D01*
X0335779Y0100386D01*
X0335728Y0100400D01*
X0335676Y0100409D01*
X0335624Y0100415D01*
X0335571Y0100417D01*
X0333693Y0100417D01*
X0333693Y0102116D02*
X0333693Y0102838D01*
X0333693Y0102116D02*
X0336293Y0102116D01*
X0335138Y0102116D02*
X0335138Y0102838D01*
X0335136Y0102891D01*
X0335130Y0102943D01*
X0335121Y0102995D01*
X0335107Y0103046D01*
X0335090Y0103096D01*
X0335070Y0103144D01*
X0335046Y0103191D01*
X0335018Y0103236D01*
X0334987Y0103279D01*
X0334954Y0103320D01*
X0334917Y0103358D01*
X0334878Y0103393D01*
X0334836Y0103425D01*
X0334792Y0103454D01*
X0334746Y0103480D01*
X0334698Y0103502D01*
X0334649Y0103521D01*
X0334599Y0103537D01*
X0334547Y0103548D01*
X0334495Y0103556D01*
X0334442Y0103560D01*
X0334390Y0103560D01*
X0334337Y0103556D01*
X0334285Y0103548D01*
X0334233Y0103537D01*
X0334183Y0103521D01*
X0334134Y0103502D01*
X0334086Y0103480D01*
X0334040Y0103454D01*
X0333996Y0103425D01*
X0333954Y0103393D01*
X0333915Y0103358D01*
X0333878Y0103320D01*
X0333845Y0103279D01*
X0333814Y0103236D01*
X0333786Y0103191D01*
X0333762Y0103144D01*
X0333742Y0103096D01*
X0333725Y0103046D01*
X0333711Y0102995D01*
X0333702Y0102943D01*
X0333696Y0102891D01*
X0333694Y0102838D01*
D12*
X0266718Y0050837D03*
X0231285Y0050837D03*
X0195852Y0050837D03*
X0160419Y0050837D03*
X0124986Y0050837D03*
X0089552Y0050837D03*
D13*
X0063535Y0061768D03*
X0236987Y0062583D03*
X0237145Y0062583D03*
X0238877Y0062583D03*
X0300035Y0132165D03*
X0300035Y0135630D03*
X0300035Y0137835D03*
X0300035Y0138937D03*
X0297200Y0138937D03*
X0297200Y0137835D03*
X0298145Y0141929D03*
X0299090Y0141929D03*
X0300035Y0143346D03*
X0300035Y0145394D03*
X0300035Y0146811D03*
X0300035Y0148228D03*
X0300035Y0150276D03*
X0302121Y0150945D03*
X0302121Y0152047D03*
X0301019Y0154252D03*
X0304956Y0154252D03*
X0304956Y0156772D03*
X0301019Y0159606D03*
X0300192Y0160512D03*
X0300035Y0164606D03*
X0300035Y0166024D03*
X0300035Y0168701D03*
X0300035Y0170591D03*
X0300035Y0172008D03*
X0300035Y0173583D03*
X0300035Y0175472D03*
X0297200Y0173583D03*
X0297200Y0172008D03*
X0297200Y0177677D03*
X0297200Y0178780D03*
X0297200Y0168701D03*
X0297200Y0166024D03*
X0297200Y0164606D03*
X0297200Y0163346D03*
X0304956Y0162756D03*
X0297200Y0148228D03*
X0297200Y0146811D03*
X0297200Y0144606D03*
X0295783Y0143346D03*
X0304956Y0145433D03*
X0357747Y0183055D03*
D14*
X0304956Y0161102D03*
X0304956Y0158110D03*
X0299247Y0161220D03*
X0300192Y0152717D03*
X0295783Y0146732D03*
X0298932Y0133819D03*
X0295783Y0172087D03*
X0300350Y0177126D03*
X0358247Y0255004D03*
X0062905Y0061846D03*
D15*
X0295940Y0132165D03*
X0295940Y0135630D03*
X0305113Y0148425D03*
X0300861Y0154252D03*
X0300861Y0156772D03*
X0300861Y0159606D03*
X0300035Y0177677D03*
X0357275Y0183055D03*
D16*
X0305901Y0150945D03*
X0305743Y0150945D03*
X0305586Y0150945D03*
X0305428Y0150945D03*
X0305271Y0150945D03*
X0305113Y0150945D03*
X0304956Y0150945D03*
X0303696Y0150945D03*
X0303539Y0150945D03*
X0303381Y0150945D03*
X0303224Y0150945D03*
X0303224Y0149528D03*
X0303381Y0149528D03*
X0303539Y0149528D03*
X0303696Y0149528D03*
X0303696Y0147480D03*
X0303539Y0147480D03*
X0303381Y0147480D03*
X0303224Y0147480D03*
X0303854Y0147480D03*
X0303854Y0145433D03*
X0304011Y0145433D03*
X0304169Y0145433D03*
X0304326Y0145433D03*
X0304484Y0145433D03*
X0303696Y0145433D03*
X0303539Y0145433D03*
X0303381Y0145433D03*
X0303224Y0145433D03*
X0303066Y0145433D03*
X0302909Y0145433D03*
X0302751Y0145433D03*
X0302594Y0145433D03*
X0302436Y0145433D03*
X0302279Y0145433D03*
X0302121Y0145433D03*
X0301964Y0145433D03*
X0301806Y0145433D03*
X0299877Y0143346D03*
X0299720Y0143346D03*
X0299562Y0143346D03*
X0299405Y0143346D03*
X0299247Y0143346D03*
X0299090Y0143346D03*
X0298932Y0143346D03*
X0298775Y0143346D03*
X0298617Y0143346D03*
X0298460Y0143346D03*
X0297200Y0143346D03*
X0297043Y0143346D03*
X0296885Y0143346D03*
X0296728Y0143346D03*
X0296570Y0143346D03*
X0296413Y0143346D03*
X0296255Y0143346D03*
X0296098Y0143346D03*
X0295940Y0143346D03*
X0298302Y0145236D03*
X0298302Y0148228D03*
X0298460Y0148228D03*
X0298617Y0148228D03*
X0298775Y0148228D03*
X0298932Y0148228D03*
X0299090Y0148228D03*
X0299247Y0148228D03*
X0299405Y0148228D03*
X0299562Y0148228D03*
X0299720Y0148228D03*
X0299877Y0148228D03*
X0298302Y0150118D03*
X0298302Y0151535D03*
X0298145Y0151693D03*
X0299090Y0151693D03*
X0301176Y0154252D03*
X0301334Y0154252D03*
X0301491Y0154252D03*
X0301649Y0154252D03*
X0301806Y0154252D03*
X0301964Y0154252D03*
X0302121Y0154252D03*
X0302279Y0154252D03*
X0302436Y0154252D03*
X0303539Y0154252D03*
X0303696Y0154252D03*
X0303854Y0154252D03*
X0304011Y0154252D03*
X0304169Y0154252D03*
X0304326Y0154252D03*
X0304484Y0154252D03*
X0304641Y0154252D03*
X0304798Y0154252D03*
X0303696Y0152835D03*
X0303539Y0152835D03*
X0303381Y0152835D03*
X0303224Y0152835D03*
X0303539Y0156772D03*
X0303696Y0156772D03*
X0303854Y0156772D03*
X0304011Y0156772D03*
X0304169Y0156772D03*
X0304326Y0156772D03*
X0304484Y0156772D03*
X0304641Y0156772D03*
X0304798Y0156772D03*
X0304641Y0158031D03*
X0304326Y0158189D03*
X0303066Y0158819D03*
X0302751Y0158976D03*
X0302909Y0160394D03*
X0303066Y0160394D03*
X0303224Y0160551D03*
X0304326Y0161024D03*
X0304641Y0161181D03*
X0304798Y0161181D03*
X0304641Y0162756D03*
X0304484Y0162756D03*
X0304326Y0162756D03*
X0304169Y0162756D03*
X0304011Y0162756D03*
X0303854Y0162756D03*
X0303696Y0162756D03*
X0303539Y0162756D03*
X0303381Y0162756D03*
X0303224Y0162756D03*
X0303066Y0162756D03*
X0302909Y0162756D03*
X0302751Y0162756D03*
X0302594Y0162756D03*
X0302436Y0162756D03*
X0302279Y0162756D03*
X0302121Y0162756D03*
X0301964Y0162756D03*
X0301806Y0162756D03*
X0298775Y0162559D03*
X0298617Y0162559D03*
X0298460Y0162559D03*
X0298302Y0161299D03*
X0298145Y0161299D03*
X0298302Y0159409D03*
X0299090Y0159409D03*
X0301334Y0159606D03*
X0301334Y0156772D03*
X0301491Y0156772D03*
X0301649Y0156772D03*
X0301806Y0156772D03*
X0301964Y0156772D03*
X0302121Y0156772D03*
X0302279Y0156772D03*
X0302436Y0156772D03*
X0301176Y0156772D03*
X0298775Y0164606D03*
X0298617Y0164606D03*
X0298460Y0164606D03*
X0298460Y0166024D03*
X0298617Y0166024D03*
X0298775Y0166024D03*
X0298932Y0166024D03*
X0299090Y0166024D03*
X0299247Y0166024D03*
X0299405Y0166024D03*
X0299562Y0166024D03*
X0299720Y0166024D03*
X0299877Y0166024D03*
X0298302Y0166024D03*
X0298302Y0168701D03*
X0298460Y0168701D03*
X0298460Y0170591D03*
X0298617Y0170591D03*
X0298775Y0170591D03*
X0298932Y0170591D03*
X0299090Y0170591D03*
X0299247Y0170591D03*
X0299405Y0170591D03*
X0299562Y0170591D03*
X0299720Y0170591D03*
X0298302Y0170591D03*
X0298302Y0173583D03*
X0298460Y0173583D03*
X0298460Y0175472D03*
X0298617Y0175472D03*
X0298775Y0175472D03*
X0298932Y0175472D03*
X0299090Y0175472D03*
X0299247Y0175472D03*
X0299405Y0175472D03*
X0299562Y0175472D03*
X0299720Y0175472D03*
X0298302Y0175472D03*
X0298302Y0176890D03*
X0298460Y0176890D03*
X0298617Y0176890D03*
X0298775Y0176890D03*
X0298775Y0178780D03*
X0298617Y0178780D03*
X0298460Y0178780D03*
X0298302Y0178780D03*
X0300192Y0178780D03*
X0300350Y0178780D03*
X0298775Y0140354D03*
X0298617Y0140354D03*
X0298460Y0140354D03*
X0298460Y0138937D03*
X0298617Y0138937D03*
X0298775Y0138937D03*
X0298932Y0138937D03*
X0298302Y0138937D03*
X0298302Y0137047D03*
X0298460Y0137047D03*
X0298775Y0137047D03*
X0298932Y0137047D03*
X0298932Y0135630D03*
X0298775Y0135630D03*
X0298617Y0135630D03*
X0298460Y0135630D03*
X0298302Y0135630D03*
X0298145Y0135630D03*
X0297987Y0135630D03*
X0299090Y0135630D03*
X0299247Y0135630D03*
X0299405Y0135630D03*
X0299562Y0135630D03*
X0299720Y0135630D03*
X0296255Y0135472D03*
X0296255Y0132165D03*
X0298145Y0132165D03*
X0298302Y0132165D03*
X0298460Y0132165D03*
X0298617Y0132165D03*
X0298775Y0132165D03*
X0298932Y0132165D03*
X0299090Y0132165D03*
X0299247Y0132165D03*
X0299405Y0132165D03*
X0299562Y0132165D03*
X0238720Y0062583D03*
X0238562Y0062583D03*
X0238405Y0062583D03*
X0238247Y0062583D03*
X0238090Y0062583D03*
X0237932Y0062583D03*
X0237775Y0062583D03*
X0237617Y0062583D03*
X0237460Y0062583D03*
X0237302Y0062583D03*
X0063377Y0061768D03*
X0356987Y0255240D03*
X0357145Y0255240D03*
X0357302Y0255240D03*
D17*
X0357460Y0255161D03*
X0359035Y0255161D03*
X0300035Y0178858D03*
X0299877Y0175551D03*
X0299877Y0173504D03*
X0299720Y0173504D03*
X0299562Y0173504D03*
X0299405Y0173504D03*
X0299247Y0173504D03*
X0299090Y0173504D03*
X0298932Y0173504D03*
X0298775Y0173504D03*
X0298617Y0173504D03*
X0298617Y0172087D03*
X0298460Y0172087D03*
X0298302Y0172087D03*
X0298145Y0172087D03*
X0297987Y0172087D03*
X0297830Y0172087D03*
X0297673Y0172087D03*
X0297515Y0172087D03*
X0297358Y0172087D03*
X0296570Y0172087D03*
X0296413Y0172087D03*
X0296255Y0172087D03*
X0296098Y0172087D03*
X0295940Y0172087D03*
X0297200Y0169882D03*
X0298617Y0168622D03*
X0298775Y0168622D03*
X0298932Y0168622D03*
X0299090Y0168622D03*
X0299247Y0168622D03*
X0299405Y0168622D03*
X0299562Y0168622D03*
X0299720Y0168622D03*
X0299877Y0168622D03*
X0299877Y0170669D03*
X0299877Y0172087D03*
X0299720Y0172087D03*
X0299562Y0172087D03*
X0299405Y0172087D03*
X0299247Y0172087D03*
X0299090Y0172087D03*
X0298932Y0172087D03*
X0298775Y0172087D03*
X0297200Y0174764D03*
X0297200Y0167205D03*
X0300035Y0163425D03*
X0301176Y0159685D03*
X0301019Y0156693D03*
X0299090Y0156339D03*
X0298932Y0156339D03*
X0298775Y0156339D03*
X0298617Y0156339D03*
X0298460Y0156339D03*
X0298302Y0156339D03*
X0298145Y0156339D03*
X0297987Y0156339D03*
X0297830Y0156339D03*
X0297673Y0156339D03*
X0297515Y0156339D03*
X0297358Y0156339D03*
X0297200Y0156339D03*
X0297043Y0156339D03*
X0296885Y0156339D03*
X0296728Y0156339D03*
X0296570Y0156339D03*
X0296413Y0156339D03*
X0296255Y0156339D03*
X0296098Y0156339D03*
X0298145Y0153504D03*
X0298302Y0153504D03*
X0298460Y0150197D03*
X0298617Y0150197D03*
X0298775Y0150197D03*
X0298932Y0150197D03*
X0299090Y0150197D03*
X0299247Y0150197D03*
X0299405Y0150197D03*
X0299562Y0150197D03*
X0299720Y0150197D03*
X0299877Y0150197D03*
X0297200Y0149409D03*
X0297358Y0146732D03*
X0297515Y0146732D03*
X0297673Y0146732D03*
X0297830Y0146732D03*
X0297987Y0146732D03*
X0298145Y0146732D03*
X0298302Y0146732D03*
X0298460Y0146732D03*
X0298617Y0146732D03*
X0298775Y0146732D03*
X0298932Y0146732D03*
X0299090Y0146732D03*
X0299247Y0146732D03*
X0299405Y0146732D03*
X0299562Y0146732D03*
X0299720Y0146732D03*
X0299877Y0146732D03*
X0299877Y0145315D03*
X0299720Y0145315D03*
X0299562Y0145315D03*
X0299405Y0145315D03*
X0299247Y0145315D03*
X0299090Y0145315D03*
X0298932Y0145315D03*
X0298775Y0145315D03*
X0298617Y0145315D03*
X0298460Y0145315D03*
X0296570Y0146732D03*
X0296413Y0146732D03*
X0296255Y0146732D03*
X0296098Y0146732D03*
X0295940Y0146732D03*
X0304641Y0145354D03*
X0304798Y0145354D03*
X0306058Y0150866D03*
X0304798Y0158110D03*
X0304798Y0162835D03*
X0298617Y0136969D03*
X0299877Y0135551D03*
X0298775Y0133819D03*
X0299720Y0132087D03*
X0299877Y0132087D03*
X0296098Y0132087D03*
X0296098Y0135551D03*
D18*
X0298302Y0142008D03*
X0298932Y0142008D03*
X0296728Y0146732D03*
X0301964Y0148504D03*
X0297043Y0152717D03*
X0295940Y0156339D03*
X0297043Y0160433D03*
X0298145Y0167362D03*
X0296728Y0172087D03*
X0357775Y0254846D03*
X0357932Y0254846D03*
D19*
X0358405Y0255319D03*
X0358562Y0255319D03*
X0358720Y0255319D03*
X0358877Y0255319D03*
X0298932Y0178701D03*
X0298145Y0178701D03*
X0298145Y0176969D03*
X0298932Y0176969D03*
X0298145Y0166102D03*
X0298302Y0164528D03*
X0298932Y0164528D03*
X0298932Y0162638D03*
X0298302Y0162638D03*
X0298145Y0159488D03*
X0301491Y0159685D03*
X0302751Y0160315D03*
X0302909Y0158898D03*
X0303224Y0158740D03*
X0304484Y0158110D03*
X0304484Y0161102D03*
X0303854Y0152756D03*
X0303066Y0152756D03*
X0303854Y0151024D03*
X0303854Y0149449D03*
X0304011Y0149291D03*
X0303066Y0149291D03*
X0303066Y0147559D03*
X0304011Y0147559D03*
X0304956Y0148504D03*
X0299247Y0151772D03*
X0298302Y0143425D03*
X0297200Y0141378D03*
X0298145Y0140591D03*
X0298302Y0140433D03*
X0298932Y0140433D03*
X0299090Y0140591D03*
X0300035Y0141378D03*
X0296413Y0135551D03*
X0298617Y0133819D03*
X0296570Y0132244D03*
X0296413Y0132244D03*
D20*
X0296728Y0132323D03*
X0298460Y0133898D03*
X0296570Y0135472D03*
X0302121Y0148425D03*
X0303066Y0151102D03*
X0297200Y0152638D03*
X0299247Y0159567D03*
X0301649Y0159606D03*
D21*
X0301806Y0159685D03*
X0297200Y0160433D03*
X0296728Y0135394D03*
X0298302Y0133819D03*
X0296885Y0132402D03*
X0358692Y0183134D03*
D22*
X0358850Y0183055D03*
X0301964Y0159606D03*
X0300035Y0160512D03*
X0300035Y0152795D03*
X0299877Y0141457D03*
X0297043Y0135315D03*
X0296885Y0135315D03*
X0297043Y0132480D03*
X0297200Y0132480D03*
X0301137Y0177835D03*
D23*
X0297358Y0160433D03*
X0302121Y0159685D03*
X0302279Y0148504D03*
X0304798Y0148504D03*
X0297358Y0141378D03*
X0297200Y0135236D03*
X0298145Y0133819D03*
X0297358Y0132559D03*
X0359007Y0183134D03*
D24*
X0359165Y0183055D03*
X0302279Y0159606D03*
X0297358Y0152638D03*
X0297358Y0135157D03*
X0297515Y0132638D03*
D25*
X0297358Y0138307D03*
X0299877Y0138307D03*
X0299562Y0141299D03*
X0299405Y0141299D03*
X0297830Y0141299D03*
X0297673Y0141299D03*
X0302279Y0151575D03*
X0299720Y0152638D03*
X0297515Y0152638D03*
X0302594Y0159606D03*
X0299877Y0160512D03*
X0297515Y0160354D03*
X0297515Y0166654D03*
X0297358Y0166654D03*
X0297673Y0166654D03*
X0297830Y0166654D03*
X0297358Y0169331D03*
X0297358Y0174213D03*
X0297358Y0178150D03*
X0299720Y0178150D03*
X0300822Y0177835D03*
X0359480Y0183055D03*
D26*
X0304641Y0151654D03*
X0302436Y0151654D03*
X0299562Y0152559D03*
X0297673Y0152559D03*
X0297358Y0148937D03*
X0297358Y0144055D03*
X0297987Y0141220D03*
X0299247Y0141220D03*
X0299720Y0138228D03*
X0297515Y0138228D03*
X0302594Y0148504D03*
X0304484Y0148504D03*
X0299247Y0157126D03*
X0298932Y0160118D03*
X0299405Y0160276D03*
X0299562Y0160433D03*
X0299720Y0160433D03*
X0297673Y0160433D03*
X0297358Y0163898D03*
X0299877Y0163898D03*
X0297515Y0169409D03*
X0297515Y0174291D03*
X0297515Y0178071D03*
X0300507Y0177913D03*
X0300665Y0177913D03*
D27*
X0300980Y0177756D03*
X0299877Y0178228D03*
X0297987Y0166575D03*
X0302436Y0159685D03*
X0299877Y0152717D03*
X0302436Y0148504D03*
X0304641Y0148504D03*
X0304798Y0151496D03*
X0299720Y0141378D03*
X0297515Y0141378D03*
X0297515Y0135079D03*
X0297673Y0135079D03*
X0297673Y0132717D03*
X0359322Y0183134D03*
D28*
X0359165Y0186520D03*
X0359165Y0179591D03*
X0304484Y0151732D03*
X0304326Y0151732D03*
X0302594Y0151732D03*
X0299405Y0152480D03*
X0298932Y0152323D03*
X0297515Y0149016D03*
X0297515Y0144134D03*
X0297673Y0138150D03*
X0299562Y0138150D03*
X0297830Y0160354D03*
X0297515Y0163819D03*
X0299720Y0163819D03*
X0297673Y0169488D03*
X0297673Y0174370D03*
X0297673Y0177992D03*
X0299405Y0177992D03*
X0299562Y0177992D03*
D29*
X0299247Y0177913D03*
X0299090Y0177913D03*
X0297987Y0177913D03*
X0297830Y0177913D03*
X0297830Y0174449D03*
X0297987Y0174449D03*
X0297987Y0169567D03*
X0297830Y0169567D03*
X0297830Y0163740D03*
X0297673Y0163740D03*
X0299405Y0163740D03*
X0299562Y0163740D03*
X0298775Y0160276D03*
X0298617Y0160276D03*
X0299405Y0157283D03*
X0300035Y0157283D03*
X0298775Y0152402D03*
X0297987Y0152559D03*
X0297830Y0152559D03*
X0297830Y0149094D03*
X0297673Y0149094D03*
X0297673Y0144213D03*
X0297830Y0144213D03*
X0297830Y0138071D03*
X0297987Y0138071D03*
X0299247Y0138071D03*
X0299405Y0138071D03*
X0302751Y0148504D03*
X0302909Y0148504D03*
X0304169Y0148504D03*
X0304326Y0148504D03*
X0304169Y0151811D03*
X0304011Y0151811D03*
X0302909Y0151811D03*
X0302751Y0151811D03*
X0359007Y0186598D03*
X0359322Y0186441D03*
X0359480Y0186283D03*
X0359480Y0179827D03*
X0359322Y0179669D03*
X0359665Y0252169D03*
X0359980Y0252327D03*
X0356200Y0252169D03*
D30*
X0297830Y0133898D03*
D31*
X0297987Y0133268D03*
X0303539Y0159606D03*
X0303696Y0159606D03*
X0358535Y0179591D03*
X0358692Y0179591D03*
X0358535Y0186520D03*
X0358377Y0186520D03*
X0358405Y0251933D03*
X0358562Y0251933D03*
X0358720Y0251933D03*
X0358247Y0251933D03*
X0358090Y0251933D03*
X0357932Y0251933D03*
X0357775Y0251933D03*
X0357617Y0251933D03*
X0357460Y0251933D03*
X0357302Y0251933D03*
X0357145Y0251933D03*
X0356200Y0258075D03*
X0356358Y0258232D03*
X0356515Y0258232D03*
X0356673Y0258390D03*
X0356830Y0258390D03*
X0356987Y0258390D03*
X0358247Y0258547D03*
X0358405Y0258547D03*
X0358562Y0258547D03*
X0358720Y0258547D03*
X0359822Y0258075D03*
X0239507Y0065417D03*
X0239665Y0065260D03*
X0239192Y0065575D03*
X0239035Y0065575D03*
X0238720Y0065732D03*
X0238562Y0065732D03*
X0238405Y0065732D03*
X0238247Y0065732D03*
X0238090Y0065732D03*
X0237932Y0065732D03*
X0237775Y0065732D03*
X0237617Y0065732D03*
X0237460Y0065732D03*
X0237302Y0065732D03*
X0237145Y0065732D03*
X0236987Y0065575D03*
X0236830Y0065575D03*
X0236673Y0065575D03*
X0236515Y0065417D03*
X0236358Y0065417D03*
X0236200Y0065260D03*
X0236200Y0059906D03*
X0236358Y0059748D03*
X0236515Y0059748D03*
X0236673Y0059591D03*
X0236830Y0059591D03*
X0237145Y0059433D03*
X0237302Y0059433D03*
X0237460Y0059433D03*
X0237617Y0059433D03*
X0237775Y0059433D03*
X0238247Y0059433D03*
X0238405Y0059433D03*
X0238562Y0059433D03*
X0238720Y0059433D03*
X0239192Y0059591D03*
X0239507Y0059748D03*
X0239665Y0059906D03*
X0064322Y0064445D03*
X0064165Y0064602D03*
X0063850Y0064760D03*
X0063377Y0064917D03*
X0063220Y0064917D03*
X0063062Y0064917D03*
X0062905Y0064917D03*
X0062747Y0064917D03*
X0061330Y0064760D03*
X0061173Y0064760D03*
X0060858Y0059248D03*
X0060700Y0059248D03*
X0061015Y0059091D03*
X0061173Y0059091D03*
X0061330Y0059091D03*
X0062117Y0058933D03*
X0062275Y0058933D03*
X0062432Y0058933D03*
X0062590Y0058933D03*
X0062747Y0058933D03*
X0063535Y0059091D03*
D32*
X0064007Y0059091D03*
X0060858Y0064760D03*
X0060543Y0064602D03*
X0298145Y0137992D03*
X0299090Y0137992D03*
X0298145Y0144291D03*
X0297987Y0144291D03*
X0297987Y0149173D03*
X0298145Y0149173D03*
X0298460Y0152480D03*
X0298617Y0152480D03*
X0299562Y0157362D03*
X0299720Y0157362D03*
X0299877Y0157362D03*
X0298460Y0160354D03*
X0297987Y0160354D03*
X0297987Y0163661D03*
X0298145Y0163661D03*
X0299090Y0163661D03*
X0299247Y0163661D03*
X0303381Y0159606D03*
X0298145Y0169646D03*
X0298145Y0174528D03*
X0358850Y0179591D03*
X0359007Y0179591D03*
X0358850Y0186520D03*
X0359350Y0252091D03*
X0359507Y0252091D03*
X0359822Y0252248D03*
X0356515Y0252091D03*
X0356358Y0252091D03*
X0356043Y0252248D03*
D33*
X0357617Y0254925D03*
X0358090Y0254925D03*
X0357590Y0183055D03*
X0357432Y0183055D03*
X0304956Y0152047D03*
X0299247Y0153425D03*
X0239035Y0062583D03*
D34*
X0239980Y0065024D03*
X0239822Y0065181D03*
X0239980Y0060142D03*
X0239822Y0059984D03*
X0300861Y0145354D03*
X0300861Y0162835D03*
X0358377Y0179669D03*
X0359980Y0257839D03*
X0358090Y0258469D03*
X0357617Y0258469D03*
X0357460Y0258469D03*
X0357302Y0258469D03*
X0357145Y0258469D03*
X0064480Y0064209D03*
X0062590Y0064839D03*
X0062432Y0064839D03*
X0061960Y0059012D03*
X0061802Y0059012D03*
X0061645Y0059012D03*
X0061487Y0059012D03*
D35*
X0301019Y0145433D03*
X0301491Y0145433D03*
X0304169Y0159606D03*
X0301491Y0162756D03*
X0301176Y0162756D03*
X0301019Y0162756D03*
X0357432Y0179748D03*
X0357590Y0179748D03*
X0357590Y0186362D03*
X0357432Y0186362D03*
D36*
X0357275Y0186283D03*
X0357117Y0186283D03*
X0357117Y0179827D03*
X0357275Y0179827D03*
X0301334Y0162835D03*
X0301334Y0145354D03*
X0301176Y0145354D03*
X0061960Y0064524D03*
D37*
X0062117Y0064681D03*
X0235885Y0064866D03*
X0235885Y0060299D03*
X0301649Y0145354D03*
X0301649Y0162835D03*
X0357747Y0179669D03*
X0357905Y0179669D03*
X0358062Y0179669D03*
X0357905Y0186441D03*
X0357747Y0186441D03*
D38*
X0358062Y0186520D03*
X0358220Y0186520D03*
X0358220Y0179591D03*
X0304011Y0159606D03*
X0303854Y0159606D03*
X0303381Y0155512D03*
X0303224Y0155512D03*
X0303066Y0155512D03*
X0302909Y0155512D03*
X0302751Y0155512D03*
X0302594Y0155512D03*
X0236043Y0065102D03*
X0236043Y0060063D03*
X0063377Y0059091D03*
X0062905Y0059091D03*
X0062275Y0064760D03*
X0356043Y0257917D03*
X0357775Y0258390D03*
X0357932Y0258390D03*
D39*
X0293200Y0175713D02*
X0289775Y0175713D01*
X0289263Y0175673D01*
X0288830Y0175594D01*
X0288436Y0175476D01*
X0288121Y0175280D01*
X0287846Y0175004D01*
X0287649Y0174650D01*
X0287531Y0174217D01*
X0287491Y0173665D01*
X0287491Y0173429D01*
X0287531Y0173193D01*
X0287688Y0172720D01*
X0287846Y0172484D01*
X0288003Y0172287D01*
X0288161Y0172130D01*
X0288397Y0171972D01*
X0288397Y0171933D01*
X0287610Y0171933D01*
X0287610Y0170476D01*
X0293200Y0170476D01*
X0293200Y0172012D01*
X0289893Y0172012D01*
X0289539Y0172051D01*
X0289263Y0172169D01*
X0289066Y0172287D01*
X0288869Y0172445D01*
X0288751Y0172642D01*
X0288712Y0172878D01*
X0288673Y0173193D01*
X0288712Y0173429D01*
X0288751Y0173626D01*
X0288869Y0173823D01*
X0289027Y0173941D01*
X0289224Y0174059D01*
X0289460Y0174098D01*
X0289736Y0174138D01*
X0290050Y0174177D01*
X0293200Y0174177D01*
X0293200Y0175713D01*
X0293200Y0175473D02*
X0288431Y0175473D01*
X0288016Y0175174D02*
X0293200Y0175174D01*
X0293200Y0174876D02*
X0287775Y0174876D01*
X0287629Y0174577D02*
X0293200Y0174577D01*
X0293200Y0174279D02*
X0287548Y0174279D01*
X0287514Y0173980D02*
X0289093Y0173980D01*
X0288785Y0173682D02*
X0287493Y0173682D01*
X0287499Y0173383D02*
X0288704Y0173383D01*
X0288686Y0173085D02*
X0287567Y0173085D01*
X0287666Y0172786D02*
X0288727Y0172786D01*
X0288844Y0172488D02*
X0287843Y0172488D01*
X0288101Y0172189D02*
X0289230Y0172189D01*
X0287610Y0171891D02*
X0293200Y0171891D01*
X0293200Y0171592D02*
X0287610Y0171592D01*
X0287610Y0171294D02*
X0293200Y0171294D01*
X0293200Y0170995D02*
X0287610Y0170995D01*
X0287610Y0170697D02*
X0293200Y0170697D01*
X0293200Y0169650D02*
X0287610Y0169650D01*
X0287610Y0168114D01*
X0290956Y0168114D01*
X0291271Y0168075D01*
X0291547Y0167957D01*
X0291783Y0167839D01*
X0291940Y0167681D01*
X0292058Y0167484D01*
X0292098Y0167248D01*
X0292137Y0166933D01*
X0292098Y0166697D01*
X0292058Y0166500D01*
X0291940Y0166303D01*
X0291625Y0166067D01*
X0291389Y0166028D01*
X0290759Y0165949D01*
X0287610Y0165949D01*
X0287610Y0164453D01*
X0291547Y0164453D01*
X0291980Y0164531D01*
X0292373Y0164650D01*
X0292728Y0164846D01*
X0292964Y0165122D01*
X0293161Y0165476D01*
X0293318Y0165909D01*
X0293358Y0166461D01*
X0293318Y0166697D01*
X0293279Y0166972D01*
X0293200Y0167209D01*
X0293121Y0167406D01*
X0293003Y0167642D01*
X0292846Y0167839D01*
X0292649Y0167996D01*
X0292413Y0168154D01*
X0292413Y0168193D01*
X0293200Y0168193D01*
X0293200Y0169650D01*
X0293200Y0169503D02*
X0287610Y0169503D01*
X0287610Y0169204D02*
X0293200Y0169204D01*
X0293200Y0168906D02*
X0287610Y0168906D01*
X0287610Y0168607D02*
X0293200Y0168607D01*
X0293200Y0168309D02*
X0287610Y0168309D01*
X0287610Y0165921D02*
X0293319Y0165921D01*
X0293340Y0166219D02*
X0291828Y0166219D01*
X0292062Y0166518D02*
X0293348Y0166518D01*
X0293301Y0166816D02*
X0292118Y0166816D01*
X0292114Y0167115D02*
X0293231Y0167115D01*
X0293118Y0167413D02*
X0292070Y0167413D01*
X0291910Y0167712D02*
X0292947Y0167712D01*
X0292628Y0168010D02*
X0291422Y0168010D01*
X0293214Y0165622D02*
X0287610Y0165622D01*
X0287610Y0165324D02*
X0293076Y0165324D01*
X0292881Y0165025D02*
X0287610Y0165025D01*
X0287610Y0164727D02*
X0292512Y0164727D01*
X0293200Y0162917D02*
X0293200Y0161421D01*
X0288633Y0161421D01*
X0288633Y0159886D01*
X0288515Y0160043D01*
X0287885Y0160673D01*
X0287767Y0160831D01*
X0287610Y0160949D01*
X0287610Y0161421D01*
X0286822Y0161421D01*
X0286507Y0161539D01*
X0286232Y0161657D01*
X0285995Y0161854D01*
X0285798Y0162130D01*
X0285641Y0162445D01*
X0285523Y0162839D01*
X0285523Y0163980D01*
X0285562Y0164059D01*
X0286665Y0164059D01*
X0286665Y0163390D01*
X0286704Y0163232D01*
X0286783Y0163075D01*
X0286901Y0162996D01*
X0286980Y0162957D01*
X0287137Y0162957D01*
X0287295Y0162917D01*
X0287610Y0162917D01*
X0287610Y0163980D01*
X0288633Y0163980D01*
X0288633Y0162917D01*
X0293200Y0162917D01*
X0293200Y0162637D02*
X0285583Y0162637D01*
X0285523Y0162935D02*
X0287222Y0162935D01*
X0287610Y0162935D02*
X0288633Y0162935D01*
X0288633Y0163234D02*
X0287610Y0163234D01*
X0287610Y0163532D02*
X0288633Y0163532D01*
X0288633Y0163831D02*
X0287610Y0163831D01*
X0286665Y0163831D02*
X0285523Y0163831D01*
X0285523Y0163532D02*
X0286665Y0163532D01*
X0286704Y0163234D02*
X0285523Y0163234D01*
X0285694Y0162338D02*
X0293200Y0162338D01*
X0293200Y0162040D02*
X0285863Y0162040D01*
X0286131Y0161741D02*
X0293200Y0161741D01*
X0293200Y0161443D02*
X0286764Y0161443D01*
X0287610Y0161144D02*
X0288633Y0161144D01*
X0288633Y0160846D02*
X0287747Y0160846D01*
X0288011Y0160547D02*
X0288633Y0160547D01*
X0288633Y0160249D02*
X0288310Y0160249D01*
X0288585Y0159950D02*
X0288633Y0159950D01*
X0288187Y0159652D02*
X0287610Y0159652D01*
X0287610Y0159950D02*
X0287894Y0159950D01*
X0287610Y0160240D02*
X0289657Y0158154D01*
X0293200Y0160476D01*
X0293200Y0158626D01*
X0290720Y0157091D01*
X0291271Y0156500D01*
X0293200Y0156500D01*
X0293200Y0154965D01*
X0286350Y0154965D01*
X0285523Y0156500D01*
X0289617Y0156500D01*
X0287610Y0158429D01*
X0287610Y0160240D01*
X0287610Y0159353D02*
X0288480Y0159353D01*
X0288773Y0159055D02*
X0287610Y0159055D01*
X0287610Y0158756D02*
X0289065Y0158756D01*
X0289358Y0158458D02*
X0287610Y0158458D01*
X0287890Y0158159D02*
X0289651Y0158159D01*
X0289665Y0158159D02*
X0292446Y0158159D01*
X0291964Y0157861D02*
X0288201Y0157861D01*
X0288512Y0157562D02*
X0291482Y0157562D01*
X0290999Y0157264D02*
X0288823Y0157264D01*
X0289133Y0156965D02*
X0290837Y0156965D01*
X0291115Y0156667D02*
X0289444Y0156667D01*
X0290121Y0158458D02*
X0292928Y0158458D01*
X0293200Y0158756D02*
X0290576Y0158756D01*
X0291032Y0159055D02*
X0293200Y0159055D01*
X0293200Y0159353D02*
X0291487Y0159353D01*
X0291942Y0159652D02*
X0293200Y0159652D01*
X0293200Y0159950D02*
X0292398Y0159950D01*
X0292853Y0160249D02*
X0293200Y0160249D01*
X0293200Y0156368D02*
X0285594Y0156368D01*
X0285755Y0156070D02*
X0293200Y0156070D01*
X0293200Y0155771D02*
X0285915Y0155771D01*
X0286076Y0155473D02*
X0293200Y0155473D01*
X0293200Y0155174D02*
X0286237Y0155174D01*
X0287531Y0154374D02*
X0288948Y0154374D01*
X0288948Y0154335D01*
X0288909Y0154256D01*
X0288909Y0153823D01*
X0288948Y0153429D01*
X0289027Y0153114D01*
X0289184Y0152839D01*
X0289421Y0152642D01*
X0289696Y0152484D01*
X0289972Y0152406D01*
X0290326Y0152327D01*
X0293200Y0152327D01*
X0293200Y0150791D01*
X0287885Y0150791D01*
X0287846Y0150988D01*
X0287806Y0151146D01*
X0287806Y0151343D01*
X0287767Y0151539D01*
X0287728Y0151697D01*
X0287649Y0152091D01*
X0287610Y0152248D01*
X0288673Y0152248D01*
X0288397Y0152406D01*
X0288200Y0152563D01*
X0287964Y0152760D01*
X0287806Y0152957D01*
X0287649Y0153232D01*
X0287570Y0153469D01*
X0287491Y0153744D01*
X0287491Y0154295D01*
X0287531Y0154335D01*
X0287531Y0154374D01*
X0287491Y0154279D02*
X0288920Y0154279D01*
X0288909Y0153980D02*
X0287491Y0153980D01*
X0287509Y0153682D02*
X0288923Y0153682D01*
X0288960Y0153383D02*
X0287599Y0153383D01*
X0287733Y0153085D02*
X0289044Y0153085D01*
X0289247Y0152786D02*
X0287943Y0152786D01*
X0288294Y0152488D02*
X0289690Y0152488D01*
X0287624Y0152189D02*
X0293200Y0152189D01*
X0293200Y0151891D02*
X0287689Y0151891D01*
X0287754Y0151592D02*
X0293200Y0151592D01*
X0293200Y0151293D02*
X0287806Y0151293D01*
X0287844Y0150995D02*
X0293200Y0150995D01*
X0293200Y0150122D02*
X0293200Y0148587D01*
X0293161Y0148587D01*
X0293121Y0148547D01*
X0293082Y0148547D01*
X0293043Y0148508D01*
X0292924Y0148508D01*
X0292885Y0148469D01*
X0292649Y0148469D01*
X0292767Y0148390D01*
X0292846Y0148272D01*
X0292924Y0148193D01*
X0293003Y0148075D01*
X0293043Y0147957D01*
X0293121Y0147839D01*
X0293279Y0147366D01*
X0293279Y0147248D01*
X0293318Y0147130D01*
X0293318Y0146972D01*
X0293358Y0146854D01*
X0293358Y0146421D01*
X0293318Y0146224D01*
X0293318Y0146028D01*
X0293279Y0145870D01*
X0293200Y0145673D01*
X0293121Y0145516D01*
X0293043Y0145398D01*
X0292964Y0145240D01*
X0292846Y0145122D01*
X0292728Y0145043D01*
X0292570Y0144925D01*
X0292452Y0144846D01*
X0292255Y0144807D01*
X0292098Y0144728D01*
X0291901Y0144728D01*
X0291704Y0144689D01*
X0291271Y0144768D01*
X0290917Y0144886D01*
X0290641Y0145043D01*
X0290405Y0145319D01*
X0290247Y0145594D01*
X0290129Y0145909D01*
X0290050Y0146224D01*
X0290011Y0146579D01*
X0290838Y0146894D01*
X0290877Y0146776D01*
X0290917Y0146697D01*
X0290956Y0146657D01*
X0291035Y0146500D01*
X0291074Y0146461D01*
X0291113Y0146382D01*
X0291350Y0146264D01*
X0291428Y0146264D01*
X0291507Y0146224D01*
X0291704Y0146224D01*
X0291822Y0146264D01*
X0291901Y0146264D01*
X0291980Y0146303D01*
X0292019Y0146343D01*
X0292098Y0146382D01*
X0292137Y0146461D01*
X0292176Y0146500D01*
X0292255Y0146657D01*
X0292255Y0146736D01*
X0292295Y0146815D01*
X0292295Y0146894D01*
X0292334Y0146972D01*
X0292334Y0147169D01*
X0292295Y0147366D01*
X0292295Y0147563D01*
X0292216Y0147720D01*
X0292176Y0147878D01*
X0292098Y0147996D01*
X0292019Y0148075D01*
X0291901Y0148154D01*
X0291822Y0148232D01*
X0291586Y0148311D01*
X0291507Y0148350D01*
X0291389Y0148390D01*
X0290484Y0148390D01*
X0290562Y0148311D01*
X0290562Y0148232D01*
X0290641Y0148075D01*
X0290641Y0147996D01*
X0290680Y0147917D01*
X0290680Y0147760D01*
X0289893Y0147563D01*
X0289814Y0147839D01*
X0289736Y0148075D01*
X0289617Y0148272D01*
X0289460Y0148390D01*
X0289027Y0148390D01*
X0288791Y0148272D01*
X0288751Y0148232D01*
X0288673Y0148193D01*
X0288554Y0147957D01*
X0288554Y0147878D01*
X0288515Y0147799D01*
X0288515Y0147091D01*
X0288712Y0146697D01*
X0288869Y0146539D01*
X0288948Y0146500D01*
X0289066Y0146461D01*
X0289145Y0146421D01*
X0289342Y0146421D01*
X0289342Y0144886D01*
X0288869Y0144965D01*
X0288633Y0145043D01*
X0288476Y0145161D01*
X0288279Y0145280D01*
X0288121Y0145398D01*
X0288003Y0145555D01*
X0287767Y0145949D01*
X0287688Y0146146D01*
X0287649Y0146343D01*
X0287570Y0146579D01*
X0287531Y0146815D01*
X0287491Y0147012D01*
X0287491Y0147917D01*
X0287531Y0148114D01*
X0287531Y0148350D01*
X0287570Y0148547D01*
X0287649Y0148744D01*
X0287688Y0148941D01*
X0287767Y0149138D01*
X0288121Y0149610D01*
X0288279Y0149728D01*
X0288436Y0149807D01*
X0288633Y0149886D01*
X0288830Y0149925D01*
X0292255Y0149925D01*
X0292334Y0149965D01*
X0292688Y0149965D01*
X0292767Y0150004D01*
X0292846Y0150004D01*
X0292924Y0150043D01*
X0293043Y0150043D01*
X0293121Y0150083D01*
X0293161Y0150122D01*
X0293200Y0150122D01*
X0293200Y0150099D02*
X0293138Y0150099D01*
X0293200Y0149801D02*
X0288424Y0149801D01*
X0288040Y0149502D02*
X0293200Y0149502D01*
X0293200Y0149204D02*
X0287817Y0149204D01*
X0287681Y0148905D02*
X0293200Y0148905D01*
X0293200Y0148607D02*
X0287594Y0148607D01*
X0287531Y0148308D02*
X0288864Y0148308D01*
X0288581Y0148010D02*
X0287510Y0148010D01*
X0287491Y0147711D02*
X0288515Y0147711D01*
X0288515Y0147413D02*
X0287491Y0147413D01*
X0287491Y0147114D02*
X0288515Y0147114D01*
X0288652Y0146816D02*
X0287531Y0146816D01*
X0287591Y0146517D02*
X0288913Y0146517D01*
X0289342Y0146219D02*
X0287674Y0146219D01*
X0287784Y0145920D02*
X0289342Y0145920D01*
X0289342Y0145622D02*
X0287963Y0145622D01*
X0288220Y0145323D02*
X0289342Y0145323D01*
X0289342Y0145025D02*
X0288689Y0145025D01*
X0288830Y0143941D02*
X0289342Y0144098D01*
X0289893Y0144217D01*
X0290484Y0144256D01*
X0290444Y0142720D01*
X0290090Y0142720D01*
X0289775Y0142681D01*
X0289460Y0142563D01*
X0289184Y0142445D01*
X0288948Y0142248D01*
X0288791Y0142012D01*
X0288673Y0141736D01*
X0288633Y0141382D01*
X0288673Y0141067D01*
X0288791Y0140752D01*
X0288948Y0140555D01*
X0289184Y0140358D01*
X0289460Y0140240D01*
X0289775Y0140122D01*
X0290090Y0140083D01*
X0290759Y0140083D01*
X0291389Y0140240D01*
X0291665Y0140358D01*
X0291861Y0140555D01*
X0292058Y0140791D01*
X0292137Y0141067D01*
X0292176Y0141421D01*
X0292137Y0141736D01*
X0292058Y0142051D01*
X0291861Y0142287D01*
X0291665Y0142445D01*
X0291389Y0142563D01*
X0292019Y0143902D01*
X0292452Y0143665D01*
X0292806Y0143311D01*
X0293121Y0142878D01*
X0293279Y0142406D01*
X0293358Y0141815D01*
X0293239Y0141106D01*
X0293121Y0140870D01*
X0292885Y0140476D01*
X0292491Y0140161D01*
X0292491Y0140122D01*
X0296507Y0140122D01*
X0296153Y0139768D01*
X0295680Y0139177D01*
X0295326Y0138823D01*
X0295169Y0138626D01*
X0287885Y0138626D01*
X0287846Y0138783D01*
X0287806Y0138980D01*
X0287806Y0139177D01*
X0287767Y0139335D01*
X0287728Y0139531D01*
X0287688Y0139689D01*
X0287610Y0140083D01*
X0288318Y0140083D01*
X0288121Y0140240D01*
X0287964Y0140398D01*
X0287806Y0140594D01*
X0287570Y0140988D01*
X0287491Y0141461D01*
X0287491Y0141736D01*
X0287531Y0142327D01*
X0287728Y0142878D01*
X0288003Y0143311D01*
X0288397Y0143665D01*
X0288830Y0143941D01*
X0288657Y0143831D02*
X0290473Y0143831D01*
X0291986Y0143831D01*
X0292149Y0143831D01*
X0292019Y0143902D02*
X0291389Y0142563D01*
X0291074Y0142681D01*
X0290759Y0142720D01*
X0290444Y0142720D01*
X0290484Y0144256D01*
X0291035Y0144217D01*
X0291547Y0144098D01*
X0292019Y0143902D01*
X0291845Y0143532D02*
X0292585Y0143532D01*
X0292863Y0143234D02*
X0291705Y0143234D01*
X0290457Y0143234D01*
X0287954Y0143234D01*
X0287764Y0142935D02*
X0290450Y0142935D01*
X0291564Y0142935D01*
X0293080Y0142935D01*
X0293202Y0142637D02*
X0291424Y0142637D01*
X0291193Y0142637D01*
X0291798Y0142338D02*
X0293288Y0142338D01*
X0293328Y0142040D02*
X0292061Y0142040D01*
X0292136Y0141741D02*
X0293345Y0141741D01*
X0293295Y0141443D02*
X0292174Y0141443D01*
X0292146Y0141144D02*
X0293246Y0141144D01*
X0293107Y0140846D02*
X0292074Y0140846D01*
X0291853Y0140547D02*
X0292928Y0140547D01*
X0292600Y0140249D02*
X0291409Y0140249D01*
X0289440Y0140249D02*
X0288113Y0140249D01*
X0287844Y0140547D02*
X0288958Y0140547D01*
X0288756Y0140846D02*
X0287656Y0140846D01*
X0287544Y0141144D02*
X0288663Y0141144D01*
X0288640Y0141443D02*
X0287494Y0141443D01*
X0287492Y0141741D02*
X0288675Y0141741D01*
X0288809Y0142040D02*
X0287512Y0142040D01*
X0287535Y0142338D02*
X0289056Y0142338D01*
X0289656Y0142637D02*
X0287641Y0142637D01*
X0288249Y0143532D02*
X0290465Y0143532D01*
X0291845Y0143532D01*
X0291413Y0144129D02*
X0290480Y0144129D01*
X0289486Y0144129D01*
X0290673Y0145025D02*
X0292703Y0145025D01*
X0293005Y0145323D02*
X0290402Y0145323D01*
X0290237Y0145622D02*
X0293174Y0145622D01*
X0293291Y0145920D02*
X0290127Y0145920D01*
X0290052Y0146219D02*
X0293318Y0146219D01*
X0293358Y0146517D02*
X0292185Y0146517D01*
X0292295Y0146816D02*
X0293358Y0146816D01*
X0293318Y0147114D02*
X0292334Y0147114D01*
X0292295Y0147413D02*
X0293263Y0147413D01*
X0293164Y0147711D02*
X0292220Y0147711D01*
X0292084Y0148010D02*
X0293025Y0148010D01*
X0292821Y0148308D02*
X0291594Y0148308D01*
X0290641Y0148010D02*
X0289757Y0148010D01*
X0289851Y0147711D02*
X0290486Y0147711D01*
X0290705Y0147711D01*
X0290720Y0147681D02*
X0290720Y0147602D01*
X0290759Y0147484D01*
X0290759Y0147327D01*
X0290798Y0147209D01*
X0290798Y0147051D01*
X0290838Y0146972D01*
X0290838Y0146894D01*
X0290011Y0146579D01*
X0289932Y0147287D01*
X0289893Y0147563D01*
X0290680Y0147760D01*
X0290720Y0147681D01*
X0290759Y0147413D02*
X0289914Y0147413D01*
X0289952Y0147114D02*
X0290798Y0147114D01*
X0290864Y0146816D02*
X0290633Y0146816D01*
X0289985Y0146816D01*
X0290018Y0146517D02*
X0291026Y0146517D01*
X0290562Y0148308D02*
X0289568Y0148308D01*
X0291499Y0144726D02*
X0291890Y0144726D01*
X0287636Y0139950D02*
X0296335Y0139950D01*
X0296060Y0139652D02*
X0287698Y0139652D01*
X0287763Y0139353D02*
X0295821Y0139353D01*
X0295558Y0139055D02*
X0287806Y0139055D01*
X0287853Y0138756D02*
X0295273Y0138756D01*
X0292924Y0137209D02*
X0293121Y0136815D01*
X0293239Y0136382D01*
X0293318Y0135909D01*
X0293358Y0135437D01*
X0293318Y0134965D01*
X0293239Y0134492D01*
X0293121Y0134059D01*
X0292924Y0133665D01*
X0292649Y0133350D01*
X0292295Y0133075D01*
X0291901Y0132917D01*
X0291389Y0132839D01*
X0291389Y0134295D01*
X0291625Y0134295D01*
X0291822Y0134374D01*
X0291980Y0134492D01*
X0292216Y0134807D01*
X0292255Y0135043D01*
X0292295Y0135240D01*
X0292334Y0135476D01*
X0292295Y0135634D01*
X0292295Y0135791D01*
X0292255Y0135949D01*
X0292176Y0136106D01*
X0292058Y0136264D01*
X0291940Y0136382D01*
X0291625Y0136461D01*
X0291468Y0136421D01*
X0291310Y0136343D01*
X0291192Y0136185D01*
X0291074Y0135988D01*
X0290995Y0135752D01*
X0290838Y0135122D01*
X0290759Y0134728D01*
X0290680Y0134374D01*
X0290562Y0134059D01*
X0290444Y0133783D01*
X0290287Y0133508D01*
X0290129Y0133272D01*
X0289893Y0133114D01*
X0289617Y0132996D01*
X0289263Y0132957D01*
X0288791Y0132996D01*
X0288397Y0133154D01*
X0288082Y0133429D01*
X0287846Y0133705D01*
X0287649Y0134098D01*
X0287570Y0134492D01*
X0287491Y0134925D01*
X0287491Y0135831D01*
X0287570Y0136264D01*
X0287688Y0136657D01*
X0287846Y0137012D01*
X0288082Y0137327D01*
X0288397Y0137563D01*
X0288791Y0137760D01*
X0289263Y0137839D01*
X0289263Y0136382D01*
X0289066Y0136343D01*
X0288869Y0136264D01*
X0288751Y0136185D01*
X0288673Y0136067D01*
X0288594Y0135909D01*
X0288515Y0135713D01*
X0288515Y0135043D01*
X0288554Y0134925D01*
X0288594Y0134768D01*
X0288633Y0134650D01*
X0288869Y0134492D01*
X0289027Y0134492D01*
X0289184Y0134531D01*
X0289342Y0134650D01*
X0289460Y0134807D01*
X0289578Y0135043D01*
X0289657Y0135280D01*
X0289696Y0135594D01*
X0289932Y0136539D01*
X0290011Y0136894D01*
X0290326Y0137445D01*
X0290523Y0137681D01*
X0290759Y0137839D01*
X0291035Y0137957D01*
X0291389Y0137996D01*
X0291901Y0137917D01*
X0292334Y0137760D01*
X0292649Y0137524D01*
X0292924Y0137209D01*
X0292877Y0137263D02*
X0290222Y0137263D01*
X0290052Y0136965D02*
X0293046Y0136965D01*
X0293162Y0136666D02*
X0289961Y0136666D01*
X0289889Y0136368D02*
X0291361Y0136368D01*
X0291123Y0136069D02*
X0289815Y0136069D01*
X0289740Y0135771D02*
X0291002Y0135771D01*
X0290925Y0135472D02*
X0289681Y0135472D01*
X0289622Y0135174D02*
X0290851Y0135174D01*
X0290789Y0134875D02*
X0289494Y0134875D01*
X0289245Y0134577D02*
X0290725Y0134577D01*
X0290645Y0134278D02*
X0287613Y0134278D01*
X0287555Y0134577D02*
X0288742Y0134577D01*
X0288567Y0134875D02*
X0287500Y0134875D01*
X0287491Y0135174D02*
X0288515Y0135174D01*
X0288515Y0135472D02*
X0287491Y0135472D01*
X0287491Y0135771D02*
X0288538Y0135771D01*
X0288674Y0136069D02*
X0287535Y0136069D01*
X0287601Y0136368D02*
X0289193Y0136368D01*
X0289263Y0136666D02*
X0287692Y0136666D01*
X0287825Y0136965D02*
X0289263Y0136965D01*
X0289263Y0137263D02*
X0288034Y0137263D01*
X0288396Y0137562D02*
X0289263Y0137562D01*
X0290424Y0137562D02*
X0292598Y0137562D01*
X0292057Y0137860D02*
X0290810Y0137860D01*
X0291954Y0136368D02*
X0293242Y0136368D01*
X0293292Y0136069D02*
X0292195Y0136069D01*
X0292295Y0135771D02*
X0293330Y0135771D01*
X0293355Y0135472D02*
X0292333Y0135472D01*
X0292281Y0135174D02*
X0293336Y0135174D01*
X0293303Y0134875D02*
X0292227Y0134875D01*
X0292043Y0134577D02*
X0293254Y0134577D01*
X0293181Y0134278D02*
X0291389Y0134278D01*
X0291389Y0133980D02*
X0293082Y0133980D01*
X0292932Y0133681D02*
X0291389Y0133681D01*
X0291389Y0133383D02*
X0292677Y0133383D01*
X0292307Y0133084D02*
X0291389Y0133084D01*
X0290386Y0133681D02*
X0287866Y0133681D01*
X0287708Y0133980D02*
X0290528Y0133980D01*
X0290203Y0133383D02*
X0288135Y0133383D01*
X0288570Y0133084D02*
X0289823Y0133084D01*
X0286468Y0158114D02*
X0281428Y0158114D01*
X0280720Y0158193D01*
X0280484Y0158272D01*
X0280247Y0158390D01*
X0280050Y0158508D01*
X0279932Y0158705D01*
X0279814Y0158862D01*
X0279657Y0159256D01*
X0279617Y0159492D01*
X0279617Y0159807D01*
X0279657Y0159965D01*
X0279657Y0160043D01*
X0279696Y0160122D01*
X0279736Y0160083D01*
X0279814Y0159925D01*
X0279854Y0159807D01*
X0280011Y0159650D01*
X0280129Y0159571D01*
X0280247Y0159531D01*
X0280365Y0159531D01*
X0280484Y0159571D01*
X0280641Y0159650D01*
X0280759Y0159768D01*
X0280838Y0159886D01*
X0280917Y0160083D01*
X0280956Y0160280D01*
X0280956Y0160594D01*
X0280877Y0160909D01*
X0280720Y0161146D01*
X0280523Y0161303D01*
X0280287Y0161382D01*
X0280011Y0161382D01*
X0279736Y0161264D01*
X0279421Y0160988D01*
X0279066Y0160673D01*
X0278751Y0160398D01*
X0278397Y0160201D01*
X0278043Y0160122D01*
X0277728Y0160122D01*
X0277373Y0160240D01*
X0277098Y0160437D01*
X0276783Y0160791D01*
X0276547Y0161224D01*
X0276468Y0161657D01*
X0276468Y0162051D01*
X0276586Y0162406D01*
X0276704Y0162720D01*
X0276822Y0162957D01*
X0276940Y0163114D01*
X0276980Y0163154D01*
X0276980Y0163035D01*
X0276940Y0162917D01*
X0276940Y0162799D01*
X0276980Y0162642D01*
X0277019Y0162445D01*
X0277098Y0162287D01*
X0277216Y0162130D01*
X0277334Y0162051D01*
X0277452Y0162012D01*
X0277531Y0161972D01*
X0277649Y0161933D01*
X0277767Y0161972D01*
X0277924Y0162012D01*
X0278043Y0162091D01*
X0278200Y0162169D01*
X0278318Y0162287D01*
X0278397Y0162406D01*
X0278515Y0162563D01*
X0278594Y0162681D01*
X0278751Y0162996D01*
X0278751Y0163272D01*
X0278712Y0163390D01*
X0278633Y0163508D01*
X0278397Y0163587D01*
X0278082Y0163587D01*
X0278239Y0163902D01*
X0278594Y0164217D01*
X0279066Y0164492D01*
X0279617Y0164689D01*
X0280247Y0164807D01*
X0280956Y0164768D01*
X0281665Y0164571D01*
X0282373Y0164177D01*
X0282728Y0163902D01*
X0283043Y0163587D01*
X0283318Y0163272D01*
X0283554Y0162878D01*
X0283712Y0162484D01*
X0283830Y0162051D01*
X0283909Y0161579D01*
X0283909Y0160831D01*
X0283948Y0160594D01*
X0284066Y0160398D01*
X0284381Y0160004D01*
X0284617Y0159807D01*
X0285129Y0159295D01*
X0285405Y0159098D01*
X0285641Y0158862D01*
X0285877Y0158665D01*
X0286074Y0158469D01*
X0286232Y0158350D01*
X0286350Y0158232D01*
X0286468Y0158154D01*
X0286468Y0158114D01*
X0286459Y0158159D02*
X0281023Y0158159D01*
X0280134Y0158458D02*
X0286088Y0158458D01*
X0285768Y0158756D02*
X0279894Y0158756D01*
X0279737Y0159055D02*
X0285448Y0159055D01*
X0285071Y0159353D02*
X0279641Y0159353D01*
X0279617Y0159652D02*
X0280009Y0159652D01*
X0279802Y0159950D02*
X0279653Y0159950D01*
X0278922Y0160547D02*
X0277000Y0160547D01*
X0276753Y0160846D02*
X0279260Y0160846D01*
X0279599Y0161144D02*
X0276590Y0161144D01*
X0276507Y0161443D02*
X0283909Y0161443D01*
X0283909Y0161144D02*
X0280721Y0161144D01*
X0280893Y0160846D02*
X0283909Y0160846D01*
X0283976Y0160547D02*
X0280956Y0160547D01*
X0280950Y0160249D02*
X0284185Y0160249D01*
X0284446Y0159950D02*
X0280864Y0159950D01*
X0280643Y0159652D02*
X0284773Y0159652D01*
X0283882Y0161741D02*
X0276468Y0161741D01*
X0276468Y0162040D02*
X0277368Y0162040D01*
X0277072Y0162338D02*
X0276564Y0162338D01*
X0276673Y0162637D02*
X0276981Y0162637D01*
X0276946Y0162935D02*
X0276811Y0162935D01*
X0277967Y0162040D02*
X0283832Y0162040D01*
X0283752Y0162338D02*
X0278352Y0162338D01*
X0278564Y0162637D02*
X0283651Y0162637D01*
X0283520Y0162935D02*
X0278721Y0162935D01*
X0278751Y0163234D02*
X0283341Y0163234D01*
X0283090Y0163532D02*
X0278559Y0163532D01*
X0278204Y0163831D02*
X0282798Y0163831D01*
X0282435Y0164129D02*
X0278496Y0164129D01*
X0278956Y0164428D02*
X0281922Y0164428D01*
X0281104Y0164727D02*
X0279818Y0164727D01*
X0278483Y0160249D02*
X0277361Y0160249D01*
D40*
X0341635Y0078259D02*
X0342032Y0078385D01*
X0342236Y0078426D01*
X0342651Y0078467D01*
X0353287Y0078467D01*
X0353362Y0078460D01*
X0353777Y0078418D01*
X0354176Y0078299D01*
X0354368Y0078220D01*
X0354732Y0078017D01*
X0355053Y0077752D01*
X0355193Y0077598D01*
X0355326Y0077437D01*
X0355445Y0077267D01*
X0355642Y0076899D01*
X0355766Y0076501D01*
X0355801Y0076296D01*
X0355836Y0075881D01*
X0355794Y0075466D01*
X0355746Y0075265D01*
X0355684Y0075065D01*
X0355612Y0074871D01*
X0355413Y0074504D01*
X0355150Y0074180D01*
X0355002Y0074035D01*
X0354675Y0073777D01*
X0354309Y0073578D01*
X0353913Y0073448D01*
X0353710Y0073405D01*
X0353295Y0073363D01*
X0344406Y0073362D01*
X0344402Y0073437D01*
X0344394Y0077240D01*
X0344601Y0077251D01*
X0345631Y0074420D01*
X0345790Y0074417D01*
X0346415Y0074417D01*
X0346586Y0074426D01*
X0347092Y0076049D01*
X0347154Y0076221D01*
X0347707Y0074427D01*
X0347908Y0074417D01*
X0348534Y0074417D01*
X0348680Y0074420D01*
X0349694Y0077222D01*
X0349738Y0077351D01*
X0349853Y0077352D01*
X0349853Y0074430D01*
X0350049Y0074417D01*
X0350674Y0074417D01*
X0350816Y0074420D01*
X0350812Y0077317D01*
X0351016Y0077284D01*
X0351012Y0074423D01*
X0351095Y0074417D01*
X0351929Y0074417D01*
X0351975Y0074417D01*
X0351975Y0077224D01*
X0352548Y0076926D01*
X0352289Y0076546D01*
X0352232Y0076349D01*
X0352160Y0075938D01*
X0352174Y0075733D01*
X0352247Y0075322D01*
X0352339Y0075139D01*
X0352568Y0074791D01*
X0352920Y0074568D01*
X0353106Y0074480D01*
X0353517Y0074409D01*
X0353723Y0074386D01*
X0353860Y0074366D01*
X0353860Y0075151D01*
X0353744Y0075169D01*
X0353539Y0075205D01*
X0353361Y0075304D01*
X0353233Y0075462D01*
X0353156Y0075653D01*
X0353126Y0075860D01*
X0353150Y0076066D01*
X0353214Y0076261D01*
X0353330Y0076431D01*
X0353499Y0076548D01*
X0353703Y0076592D01*
X0353860Y0076578D01*
X0353860Y0077203D01*
X0353862Y0077386D01*
X0353625Y0077385D01*
X0353214Y0077313D01*
X0353014Y0077263D01*
X0352663Y0077038D01*
X0352551Y0076931D01*
X0351978Y0077217D01*
X0351978Y0077361D01*
X0351014Y0077361D01*
X0351016Y0077280D01*
X0350812Y0077313D01*
X0350817Y0077361D01*
X0350051Y0077361D01*
X0349902Y0077352D01*
X0349634Y0077361D01*
X0348799Y0077361D01*
X0348753Y0077209D01*
X0348202Y0075389D01*
X0348163Y0075530D01*
X0347627Y0077361D01*
X0347450Y0077361D01*
X0346824Y0077361D01*
X0346689Y0077357D01*
X0346157Y0075474D01*
X0346098Y0075465D01*
X0345567Y0077265D01*
X0345540Y0077361D01*
X0344565Y0077361D01*
X0344607Y0077252D01*
X0344391Y0077239D01*
X0344393Y0077361D01*
X0343439Y0077361D01*
X0343434Y0077247D01*
X0343434Y0077009D01*
X0343338Y0077082D01*
X0343176Y0077213D01*
X0342992Y0077309D01*
X0342792Y0077368D01*
X0342585Y0077391D01*
X0342378Y0077378D01*
X0342173Y0077342D01*
X0341975Y0077279D01*
X0341793Y0077177D01*
X0341632Y0077046D01*
X0341494Y0076890D01*
X0341381Y0076716D01*
X0341295Y0076526D01*
X0341242Y0076325D01*
X0341209Y0076120D01*
X0341193Y0075912D01*
X0341208Y0075704D01*
X0341236Y0075498D01*
X0341286Y0075295D01*
X0341369Y0075104D01*
X0341475Y0074926D01*
X0341606Y0074764D01*
X0341761Y0074625D01*
X0341942Y0074522D01*
X0342136Y0074447D01*
X0342338Y0074401D01*
X0342546Y0074381D01*
X0342753Y0074395D01*
X0342956Y0074443D01*
X0343144Y0074533D01*
X0343308Y0074659D01*
X0343434Y0074777D01*
X0343434Y0073526D01*
X0343429Y0073362D01*
X0342763Y0073362D01*
X0342555Y0073371D01*
X0342140Y0073413D01*
X0341742Y0073534D01*
X0341551Y0073617D01*
X0341188Y0073822D01*
X0340867Y0074087D01*
X0340596Y0074404D01*
X0340480Y0074576D01*
X0340285Y0074944D01*
X0340161Y0075342D01*
X0340129Y0075547D01*
X0340108Y0075755D01*
X0340096Y0075962D01*
X0340138Y0076377D01*
X0340190Y0076579D01*
X0340252Y0076778D01*
X0340327Y0076972D01*
X0340526Y0077338D01*
X0340790Y0077660D01*
X0340941Y0077803D01*
X0341102Y0077936D01*
X0341269Y0078060D01*
X0341635Y0078259D01*
X0341599Y0078239D02*
X0354322Y0078239D01*
X0354421Y0078190D02*
X0341509Y0078190D01*
X0341420Y0078142D02*
X0354508Y0078142D01*
X0354595Y0078093D02*
X0341331Y0078093D01*
X0341248Y0078045D02*
X0354682Y0078045D01*
X0354757Y0077996D02*
X0341183Y0077996D01*
X0341117Y0077948D02*
X0354816Y0077948D01*
X0354875Y0077899D02*
X0341057Y0077899D01*
X0340998Y0077850D02*
X0354934Y0077850D01*
X0354992Y0077802D02*
X0340939Y0077802D01*
X0340888Y0077753D02*
X0355051Y0077753D01*
X0355096Y0077705D02*
X0340837Y0077705D01*
X0340787Y0077656D02*
X0355140Y0077656D01*
X0355183Y0077608D02*
X0340747Y0077608D01*
X0340707Y0077559D02*
X0355224Y0077559D01*
X0355264Y0077511D02*
X0340667Y0077511D01*
X0340628Y0077462D02*
X0355304Y0077462D01*
X0355342Y0077414D02*
X0340588Y0077414D01*
X0340548Y0077365D02*
X0342306Y0077365D01*
X0342094Y0077317D02*
X0340514Y0077317D01*
X0340488Y0077268D02*
X0341956Y0077268D01*
X0341869Y0077220D02*
X0340461Y0077220D01*
X0340435Y0077171D02*
X0341785Y0077171D01*
X0341726Y0077123D02*
X0340409Y0077123D01*
X0340382Y0077074D02*
X0341667Y0077074D01*
X0341614Y0077026D02*
X0340356Y0077026D01*
X0340330Y0076977D02*
X0341571Y0076977D01*
X0341528Y0076929D02*
X0340310Y0076929D01*
X0340291Y0076880D02*
X0341488Y0076880D01*
X0341456Y0076832D02*
X0340273Y0076832D01*
X0340254Y0076783D02*
X0341425Y0076783D01*
X0341394Y0076735D02*
X0340238Y0076735D01*
X0340223Y0076686D02*
X0341368Y0076686D01*
X0341346Y0076638D02*
X0340208Y0076638D01*
X0340193Y0076589D02*
X0341323Y0076589D01*
X0341301Y0076541D02*
X0340180Y0076541D01*
X0340168Y0076492D02*
X0341286Y0076492D01*
X0341273Y0076444D02*
X0340155Y0076444D01*
X0340143Y0076395D02*
X0341260Y0076395D01*
X0341248Y0076347D02*
X0340135Y0076347D01*
X0340130Y0076298D02*
X0341238Y0076298D01*
X0341230Y0076250D02*
X0340125Y0076250D01*
X0340121Y0076201D02*
X0341222Y0076201D01*
X0341214Y0076153D02*
X0340116Y0076153D01*
X0340111Y0076104D02*
X0341208Y0076104D01*
X0341204Y0076056D02*
X0340106Y0076056D01*
X0340101Y0076007D02*
X0341200Y0076007D01*
X0341197Y0075959D02*
X0340097Y0075959D01*
X0340099Y0075910D02*
X0341193Y0075910D01*
X0341197Y0075862D02*
X0340102Y0075862D01*
X0340105Y0075813D02*
X0341200Y0075813D01*
X0341203Y0075764D02*
X0340107Y0075764D01*
X0340112Y0075716D02*
X0341207Y0075716D01*
X0341213Y0075667D02*
X0340117Y0075667D01*
X0340121Y0075619D02*
X0341219Y0075619D01*
X0341226Y0075570D02*
X0340126Y0075570D01*
X0340133Y0075522D02*
X0341233Y0075522D01*
X0341242Y0075473D02*
X0340141Y0075473D01*
X0340148Y0075425D02*
X0341254Y0075425D01*
X0341266Y0075376D02*
X0340156Y0075376D01*
X0340166Y0075328D02*
X0341278Y0075328D01*
X0341293Y0075279D02*
X0340181Y0075279D01*
X0340196Y0075231D02*
X0341314Y0075231D01*
X0341335Y0075182D02*
X0340211Y0075182D01*
X0340226Y0075134D02*
X0341357Y0075134D01*
X0341381Y0075085D02*
X0340241Y0075085D01*
X0340256Y0075037D02*
X0341410Y0075037D01*
X0341438Y0074988D02*
X0340271Y0074988D01*
X0340287Y0074940D02*
X0341467Y0074940D01*
X0341503Y0074891D02*
X0340313Y0074891D01*
X0340339Y0074843D02*
X0341542Y0074843D01*
X0341581Y0074794D02*
X0340364Y0074794D01*
X0340390Y0074746D02*
X0341626Y0074746D01*
X0341680Y0074697D02*
X0340415Y0074697D01*
X0340441Y0074649D02*
X0341734Y0074649D01*
X0341804Y0074600D02*
X0340467Y0074600D01*
X0340496Y0074552D02*
X0341889Y0074552D01*
X0341990Y0074503D02*
X0340529Y0074503D01*
X0340562Y0074455D02*
X0342117Y0074455D01*
X0342314Y0074406D02*
X0340595Y0074406D01*
X0340636Y0074358D02*
X0343434Y0074358D01*
X0343434Y0074406D02*
X0342801Y0074406D01*
X0342980Y0074455D02*
X0343434Y0074455D01*
X0343434Y0074503D02*
X0343082Y0074503D01*
X0343168Y0074552D02*
X0343434Y0074552D01*
X0343434Y0074600D02*
X0343232Y0074600D01*
X0343295Y0074649D02*
X0343434Y0074649D01*
X0343434Y0074697D02*
X0343349Y0074697D01*
X0343401Y0074746D02*
X0343434Y0074746D01*
X0343434Y0074309D02*
X0340677Y0074309D01*
X0340719Y0074261D02*
X0343434Y0074261D01*
X0343434Y0074212D02*
X0340760Y0074212D01*
X0340801Y0074164D02*
X0343434Y0074164D01*
X0343434Y0074115D02*
X0340843Y0074115D01*
X0340891Y0074067D02*
X0343434Y0074067D01*
X0343434Y0074018D02*
X0340950Y0074018D01*
X0341009Y0073970D02*
X0343434Y0073970D01*
X0343434Y0073921D02*
X0341068Y0073921D01*
X0341127Y0073873D02*
X0343434Y0073873D01*
X0343434Y0073824D02*
X0341185Y0073824D01*
X0341270Y0073776D02*
X0343434Y0073776D01*
X0343434Y0073727D02*
X0341356Y0073727D01*
X0341442Y0073679D02*
X0343434Y0073679D01*
X0343434Y0073630D02*
X0341527Y0073630D01*
X0341633Y0073581D02*
X0343434Y0073581D01*
X0343434Y0073533D02*
X0341746Y0073533D01*
X0341905Y0073484D02*
X0343433Y0073484D01*
X0343431Y0073436D02*
X0342064Y0073436D01*
X0342392Y0073387D02*
X0343430Y0073387D01*
X0344402Y0073436D02*
X0353855Y0073436D01*
X0354023Y0073484D02*
X0344402Y0073484D01*
X0344402Y0073533D02*
X0354171Y0073533D01*
X0354315Y0073581D02*
X0344402Y0073581D01*
X0344402Y0073630D02*
X0354405Y0073630D01*
X0354494Y0073679D02*
X0344402Y0073679D01*
X0344402Y0073727D02*
X0354583Y0073727D01*
X0354673Y0073776D02*
X0344401Y0073776D01*
X0344401Y0073824D02*
X0354735Y0073824D01*
X0354796Y0073873D02*
X0344401Y0073873D01*
X0344401Y0073921D02*
X0354858Y0073921D01*
X0354919Y0073970D02*
X0344401Y0073970D01*
X0344401Y0074018D02*
X0354980Y0074018D01*
X0355034Y0074067D02*
X0344401Y0074067D01*
X0344401Y0074115D02*
X0355084Y0074115D01*
X0355133Y0074164D02*
X0344401Y0074164D01*
X0344401Y0074212D02*
X0355176Y0074212D01*
X0355215Y0074261D02*
X0344400Y0074261D01*
X0344400Y0074309D02*
X0355255Y0074309D01*
X0355294Y0074358D02*
X0344400Y0074358D01*
X0344400Y0074406D02*
X0353546Y0074406D01*
X0353254Y0074455D02*
X0351975Y0074455D01*
X0351975Y0074503D02*
X0353057Y0074503D01*
X0352955Y0074552D02*
X0351975Y0074552D01*
X0351975Y0074600D02*
X0352869Y0074600D01*
X0352793Y0074649D02*
X0351975Y0074649D01*
X0351975Y0074697D02*
X0352716Y0074697D01*
X0352639Y0074746D02*
X0351975Y0074746D01*
X0351975Y0074794D02*
X0352566Y0074794D01*
X0352534Y0074843D02*
X0351975Y0074843D01*
X0351975Y0074891D02*
X0352502Y0074891D01*
X0352470Y0074940D02*
X0351975Y0074940D01*
X0351975Y0074988D02*
X0352438Y0074988D01*
X0352406Y0075037D02*
X0351975Y0075037D01*
X0351975Y0075085D02*
X0352374Y0075085D01*
X0352342Y0075134D02*
X0351975Y0075134D01*
X0351975Y0075182D02*
X0352317Y0075182D01*
X0352293Y0075231D02*
X0351975Y0075231D01*
X0351975Y0075279D02*
X0352268Y0075279D01*
X0352246Y0075328D02*
X0351975Y0075328D01*
X0351975Y0075376D02*
X0352237Y0075376D01*
X0352229Y0075425D02*
X0351975Y0075425D01*
X0351975Y0075473D02*
X0352220Y0075473D01*
X0352211Y0075522D02*
X0351975Y0075522D01*
X0351975Y0075570D02*
X0352203Y0075570D01*
X0352194Y0075619D02*
X0351975Y0075619D01*
X0351975Y0075667D02*
X0352186Y0075667D01*
X0352177Y0075716D02*
X0351975Y0075716D01*
X0351975Y0075764D02*
X0352172Y0075764D01*
X0352168Y0075813D02*
X0351975Y0075813D01*
X0351975Y0075862D02*
X0352165Y0075862D01*
X0352162Y0075910D02*
X0351975Y0075910D01*
X0351975Y0075959D02*
X0352163Y0075959D01*
X0352172Y0076007D02*
X0351975Y0076007D01*
X0351975Y0076056D02*
X0352180Y0076056D01*
X0352189Y0076104D02*
X0351975Y0076104D01*
X0351975Y0076153D02*
X0352197Y0076153D01*
X0352206Y0076201D02*
X0351975Y0076201D01*
X0351975Y0076250D02*
X0352214Y0076250D01*
X0352223Y0076298D02*
X0351975Y0076298D01*
X0351975Y0076347D02*
X0352232Y0076347D01*
X0352245Y0076395D02*
X0351975Y0076395D01*
X0351975Y0076444D02*
X0352259Y0076444D01*
X0352274Y0076492D02*
X0351975Y0076492D01*
X0351975Y0076541D02*
X0352288Y0076541D01*
X0352319Y0076589D02*
X0351975Y0076589D01*
X0351975Y0076638D02*
X0352352Y0076638D01*
X0352385Y0076686D02*
X0351975Y0076686D01*
X0351975Y0076735D02*
X0352418Y0076735D01*
X0352451Y0076783D02*
X0351975Y0076783D01*
X0351975Y0076832D02*
X0352484Y0076832D01*
X0352517Y0076880D02*
X0351975Y0076880D01*
X0351975Y0076929D02*
X0352543Y0076929D01*
X0352600Y0076977D02*
X0352458Y0076977D01*
X0352450Y0076977D02*
X0351975Y0076977D01*
X0351975Y0077026D02*
X0352356Y0077026D01*
X0352361Y0077026D02*
X0352650Y0077026D01*
X0352720Y0077074D02*
X0352264Y0077074D01*
X0352263Y0077074D02*
X0351975Y0077074D01*
X0351975Y0077123D02*
X0352167Y0077123D01*
X0352169Y0077123D02*
X0352796Y0077123D01*
X0352871Y0077171D02*
X0352076Y0077171D01*
X0352069Y0077171D02*
X0351975Y0077171D01*
X0351975Y0077220D02*
X0351978Y0077220D01*
X0351982Y0077220D02*
X0352947Y0077220D01*
X0353037Y0077268D02*
X0351978Y0077268D01*
X0351978Y0077317D02*
X0353234Y0077317D01*
X0353513Y0077365D02*
X0342802Y0077365D01*
X0342964Y0077317D02*
X0343437Y0077317D01*
X0343435Y0077268D02*
X0343069Y0077268D01*
X0343163Y0077220D02*
X0343434Y0077220D01*
X0343434Y0077171D02*
X0343228Y0077171D01*
X0343287Y0077123D02*
X0343434Y0077123D01*
X0343434Y0077074D02*
X0343347Y0077074D01*
X0343411Y0077026D02*
X0343434Y0077026D01*
X0343073Y0076541D02*
X0342563Y0076541D01*
X0342642Y0076577D02*
X0342459Y0076494D01*
X0342313Y0076354D01*
X0342212Y0076174D01*
X0342181Y0075970D01*
X0342183Y0075766D01*
X0342219Y0075564D01*
X0342320Y0075384D01*
X0342471Y0075248D01*
X0342656Y0075171D01*
X0342858Y0075153D01*
X0343060Y0075195D01*
X0343225Y0075319D01*
X0343338Y0075487D01*
X0343404Y0075679D01*
X0343433Y0075883D01*
X0343402Y0076087D01*
X0343332Y0076277D01*
X0343213Y0076442D01*
X0343046Y0076560D01*
X0342844Y0076601D01*
X0342642Y0076577D01*
X0342745Y0076589D02*
X0342903Y0076589D01*
X0343142Y0076492D02*
X0342457Y0076492D01*
X0342407Y0076444D02*
X0343211Y0076444D01*
X0343247Y0076395D02*
X0342356Y0076395D01*
X0342309Y0076347D02*
X0343282Y0076347D01*
X0343317Y0076298D02*
X0342282Y0076298D01*
X0342254Y0076250D02*
X0343342Y0076250D01*
X0343360Y0076201D02*
X0342227Y0076201D01*
X0342209Y0076153D02*
X0343377Y0076153D01*
X0343395Y0076104D02*
X0342201Y0076104D01*
X0342194Y0076056D02*
X0343406Y0076056D01*
X0343414Y0076007D02*
X0342186Y0076007D01*
X0342181Y0075959D02*
X0343421Y0075959D01*
X0343429Y0075910D02*
X0342181Y0075910D01*
X0342182Y0075862D02*
X0343430Y0075862D01*
X0343423Y0075813D02*
X0342182Y0075813D01*
X0342183Y0075764D02*
X0343416Y0075764D01*
X0343409Y0075716D02*
X0342192Y0075716D01*
X0342201Y0075667D02*
X0343400Y0075667D01*
X0343383Y0075619D02*
X0342209Y0075619D01*
X0342218Y0075570D02*
X0343367Y0075570D01*
X0343350Y0075522D02*
X0342243Y0075522D01*
X0342270Y0075473D02*
X0343329Y0075473D01*
X0343296Y0075425D02*
X0342297Y0075425D01*
X0342328Y0075376D02*
X0343263Y0075376D01*
X0343231Y0075328D02*
X0342382Y0075328D01*
X0342436Y0075279D02*
X0343172Y0075279D01*
X0343108Y0075231D02*
X0342513Y0075231D01*
X0342629Y0075182D02*
X0343001Y0075182D01*
X0344399Y0075182D02*
X0345353Y0075182D01*
X0345371Y0075134D02*
X0344399Y0075134D01*
X0344399Y0075085D02*
X0345389Y0075085D01*
X0345406Y0075037D02*
X0344399Y0075037D01*
X0344399Y0074988D02*
X0345424Y0074988D01*
X0345442Y0074940D02*
X0344399Y0074940D01*
X0344399Y0074891D02*
X0345459Y0074891D01*
X0345477Y0074843D02*
X0344399Y0074843D01*
X0344399Y0074794D02*
X0345495Y0074794D01*
X0345512Y0074746D02*
X0344399Y0074746D01*
X0344400Y0074697D02*
X0345530Y0074697D01*
X0345547Y0074649D02*
X0344400Y0074649D01*
X0344400Y0074600D02*
X0345565Y0074600D01*
X0345583Y0074552D02*
X0344400Y0074552D01*
X0344400Y0074503D02*
X0345600Y0074503D01*
X0345618Y0074455D02*
X0344400Y0074455D01*
X0344398Y0075231D02*
X0345336Y0075231D01*
X0345318Y0075279D02*
X0344398Y0075279D01*
X0344398Y0075328D02*
X0345300Y0075328D01*
X0345283Y0075376D02*
X0344398Y0075376D01*
X0344398Y0075425D02*
X0345265Y0075425D01*
X0345248Y0075473D02*
X0344398Y0075473D01*
X0344398Y0075522D02*
X0345230Y0075522D01*
X0345212Y0075570D02*
X0344398Y0075570D01*
X0344398Y0075619D02*
X0345195Y0075619D01*
X0345177Y0075667D02*
X0344398Y0075667D01*
X0344397Y0075716D02*
X0345159Y0075716D01*
X0345142Y0075764D02*
X0344397Y0075764D01*
X0344397Y0075813D02*
X0345124Y0075813D01*
X0345106Y0075862D02*
X0344397Y0075862D01*
X0344397Y0075910D02*
X0345089Y0075910D01*
X0345071Y0075959D02*
X0344397Y0075959D01*
X0344397Y0076007D02*
X0345053Y0076007D01*
X0345036Y0076056D02*
X0344397Y0076056D01*
X0344397Y0076104D02*
X0345018Y0076104D01*
X0345001Y0076153D02*
X0344397Y0076153D01*
X0344396Y0076201D02*
X0344983Y0076201D01*
X0344965Y0076250D02*
X0344396Y0076250D01*
X0344396Y0076298D02*
X0344948Y0076298D01*
X0344930Y0076347D02*
X0344396Y0076347D01*
X0344396Y0076395D02*
X0344912Y0076395D01*
X0344895Y0076444D02*
X0344396Y0076444D01*
X0344396Y0076492D02*
X0344877Y0076492D01*
X0344859Y0076541D02*
X0344396Y0076541D01*
X0344396Y0076589D02*
X0344842Y0076589D01*
X0344824Y0076638D02*
X0344396Y0076638D01*
X0344395Y0076686D02*
X0344807Y0076686D01*
X0344789Y0076735D02*
X0344395Y0076735D01*
X0344395Y0076783D02*
X0344771Y0076783D01*
X0344754Y0076832D02*
X0344395Y0076832D01*
X0344395Y0076880D02*
X0344736Y0076880D01*
X0344718Y0076929D02*
X0344395Y0076929D01*
X0344395Y0076977D02*
X0344701Y0076977D01*
X0344683Y0077026D02*
X0344395Y0077026D01*
X0344395Y0077074D02*
X0344665Y0077074D01*
X0344648Y0077123D02*
X0344395Y0077123D01*
X0344394Y0077171D02*
X0344630Y0077171D01*
X0344612Y0077220D02*
X0344394Y0077220D01*
X0344392Y0077268D02*
X0344600Y0077268D01*
X0344582Y0077317D02*
X0344393Y0077317D01*
X0345552Y0077317D02*
X0346678Y0077317D01*
X0346664Y0077268D02*
X0345566Y0077268D01*
X0345581Y0077220D02*
X0346650Y0077220D01*
X0346637Y0077171D02*
X0345595Y0077171D01*
X0345609Y0077123D02*
X0346623Y0077123D01*
X0346609Y0077074D02*
X0345624Y0077074D01*
X0345638Y0077026D02*
X0346595Y0077026D01*
X0346582Y0076977D02*
X0345652Y0076977D01*
X0345666Y0076929D02*
X0346568Y0076929D01*
X0346554Y0076880D02*
X0345681Y0076880D01*
X0345695Y0076832D02*
X0346541Y0076832D01*
X0346527Y0076783D02*
X0345709Y0076783D01*
X0345724Y0076735D02*
X0346513Y0076735D01*
X0346499Y0076686D02*
X0345738Y0076686D01*
X0345752Y0076638D02*
X0346486Y0076638D01*
X0346472Y0076589D02*
X0345767Y0076589D01*
X0345781Y0076541D02*
X0346458Y0076541D01*
X0346445Y0076492D02*
X0345795Y0076492D01*
X0345810Y0076444D02*
X0346431Y0076444D01*
X0346417Y0076395D02*
X0345824Y0076395D01*
X0345838Y0076347D02*
X0346404Y0076347D01*
X0346390Y0076298D02*
X0345853Y0076298D01*
X0345867Y0076250D02*
X0346376Y0076250D01*
X0346362Y0076201D02*
X0345881Y0076201D01*
X0345895Y0076153D02*
X0346349Y0076153D01*
X0346335Y0076104D02*
X0345910Y0076104D01*
X0345924Y0076056D02*
X0346321Y0076056D01*
X0346308Y0076007D02*
X0345938Y0076007D01*
X0345953Y0075959D02*
X0346294Y0075959D01*
X0346280Y0075910D02*
X0345967Y0075910D01*
X0345981Y0075862D02*
X0346266Y0075862D01*
X0346253Y0075813D02*
X0345996Y0075813D01*
X0346010Y0075764D02*
X0346239Y0075764D01*
X0346225Y0075716D02*
X0346024Y0075716D01*
X0346039Y0075667D02*
X0346212Y0075667D01*
X0346198Y0075619D02*
X0346053Y0075619D01*
X0346067Y0075570D02*
X0346184Y0075570D01*
X0346170Y0075522D02*
X0346082Y0075522D01*
X0346096Y0075473D02*
X0346155Y0075473D01*
X0346852Y0075279D02*
X0347444Y0075279D01*
X0347459Y0075231D02*
X0346837Y0075231D01*
X0346821Y0075182D02*
X0347474Y0075182D01*
X0347489Y0075134D02*
X0346806Y0075134D01*
X0346791Y0075085D02*
X0347504Y0075085D01*
X0347519Y0075037D02*
X0346776Y0075037D01*
X0346761Y0074988D02*
X0347534Y0074988D01*
X0347549Y0074940D02*
X0346746Y0074940D01*
X0346731Y0074891D02*
X0347564Y0074891D01*
X0347579Y0074843D02*
X0346716Y0074843D01*
X0346700Y0074794D02*
X0347593Y0074794D01*
X0347608Y0074746D02*
X0346685Y0074746D01*
X0346670Y0074697D02*
X0347623Y0074697D01*
X0347638Y0074649D02*
X0346655Y0074649D01*
X0346640Y0074600D02*
X0347653Y0074600D01*
X0347668Y0074552D02*
X0346625Y0074552D01*
X0346610Y0074503D02*
X0347683Y0074503D01*
X0347698Y0074455D02*
X0346595Y0074455D01*
X0346867Y0075328D02*
X0347429Y0075328D01*
X0347414Y0075376D02*
X0346882Y0075376D01*
X0346897Y0075425D02*
X0347399Y0075425D01*
X0347384Y0075473D02*
X0346912Y0075473D01*
X0346927Y0075522D02*
X0347369Y0075522D01*
X0347354Y0075570D02*
X0346942Y0075570D01*
X0346958Y0075619D02*
X0347339Y0075619D01*
X0347324Y0075667D02*
X0346973Y0075667D01*
X0346988Y0075716D02*
X0347309Y0075716D01*
X0347294Y0075764D02*
X0347003Y0075764D01*
X0347018Y0075813D02*
X0347279Y0075813D01*
X0347264Y0075862D02*
X0347033Y0075862D01*
X0347048Y0075910D02*
X0347249Y0075910D01*
X0347234Y0075959D02*
X0347063Y0075959D01*
X0347079Y0076007D02*
X0347220Y0076007D01*
X0347205Y0076056D02*
X0347094Y0076056D01*
X0347112Y0076104D02*
X0347190Y0076104D01*
X0347175Y0076153D02*
X0347129Y0076153D01*
X0347146Y0076201D02*
X0347160Y0076201D01*
X0347910Y0076395D02*
X0348507Y0076395D01*
X0348492Y0076347D02*
X0347924Y0076347D01*
X0347938Y0076298D02*
X0348477Y0076298D01*
X0348463Y0076250D02*
X0347952Y0076250D01*
X0347967Y0076201D02*
X0348448Y0076201D01*
X0348433Y0076153D02*
X0347981Y0076153D01*
X0347995Y0076104D02*
X0348418Y0076104D01*
X0348404Y0076056D02*
X0348009Y0076056D01*
X0348023Y0076007D02*
X0348389Y0076007D01*
X0348374Y0075959D02*
X0348038Y0075959D01*
X0348052Y0075910D02*
X0348360Y0075910D01*
X0348345Y0075862D02*
X0348066Y0075862D01*
X0348080Y0075813D02*
X0348330Y0075813D01*
X0348316Y0075764D02*
X0348095Y0075764D01*
X0348109Y0075716D02*
X0348301Y0075716D01*
X0348286Y0075667D02*
X0348123Y0075667D01*
X0348137Y0075619D02*
X0348272Y0075619D01*
X0348257Y0075570D02*
X0348151Y0075570D01*
X0348165Y0075522D02*
X0348242Y0075522D01*
X0348227Y0075473D02*
X0348179Y0075473D01*
X0348192Y0075425D02*
X0348213Y0075425D01*
X0348956Y0075182D02*
X0349853Y0075182D01*
X0349853Y0075134D02*
X0348938Y0075134D01*
X0348921Y0075085D02*
X0349853Y0075085D01*
X0349853Y0075037D02*
X0348903Y0075037D01*
X0348886Y0074988D02*
X0349853Y0074988D01*
X0349853Y0074940D02*
X0348868Y0074940D01*
X0348851Y0074891D02*
X0349853Y0074891D01*
X0349853Y0074843D02*
X0348833Y0074843D01*
X0348816Y0074794D02*
X0349853Y0074794D01*
X0349853Y0074746D02*
X0348798Y0074746D01*
X0348780Y0074697D02*
X0349853Y0074697D01*
X0349853Y0074649D02*
X0348763Y0074649D01*
X0348745Y0074600D02*
X0349853Y0074600D01*
X0349853Y0074552D02*
X0348728Y0074552D01*
X0348710Y0074503D02*
X0349853Y0074503D01*
X0349853Y0074455D02*
X0348693Y0074455D01*
X0348973Y0075231D02*
X0349853Y0075231D01*
X0349853Y0075279D02*
X0348991Y0075279D01*
X0349009Y0075328D02*
X0349853Y0075328D01*
X0349853Y0075376D02*
X0349026Y0075376D01*
X0349044Y0075425D02*
X0349853Y0075425D01*
X0349853Y0075473D02*
X0349061Y0075473D01*
X0349079Y0075522D02*
X0349853Y0075522D01*
X0349853Y0075570D02*
X0349096Y0075570D01*
X0349114Y0075619D02*
X0349853Y0075619D01*
X0349853Y0075667D02*
X0349131Y0075667D01*
X0349149Y0075716D02*
X0349853Y0075716D01*
X0349853Y0075764D02*
X0349166Y0075764D01*
X0349184Y0075813D02*
X0349853Y0075813D01*
X0349853Y0075862D02*
X0349202Y0075862D01*
X0349219Y0075910D02*
X0349853Y0075910D01*
X0349853Y0075959D02*
X0349237Y0075959D01*
X0349254Y0076007D02*
X0349853Y0076007D01*
X0349853Y0076056D02*
X0349272Y0076056D01*
X0349289Y0076104D02*
X0349853Y0076104D01*
X0349853Y0076153D02*
X0349307Y0076153D01*
X0349324Y0076201D02*
X0349853Y0076201D01*
X0349853Y0076250D02*
X0349342Y0076250D01*
X0349359Y0076298D02*
X0349853Y0076298D01*
X0349853Y0076347D02*
X0349377Y0076347D01*
X0349395Y0076395D02*
X0349853Y0076395D01*
X0349853Y0076444D02*
X0349412Y0076444D01*
X0349430Y0076492D02*
X0349853Y0076492D01*
X0349853Y0076541D02*
X0349447Y0076541D01*
X0349465Y0076589D02*
X0349853Y0076589D01*
X0349853Y0076638D02*
X0349482Y0076638D01*
X0349500Y0076686D02*
X0349853Y0076686D01*
X0349853Y0076735D02*
X0349517Y0076735D01*
X0349535Y0076783D02*
X0349853Y0076783D01*
X0349853Y0076832D02*
X0349552Y0076832D01*
X0349570Y0076880D02*
X0349853Y0076880D01*
X0349853Y0076929D02*
X0349588Y0076929D01*
X0349605Y0076977D02*
X0349853Y0076977D01*
X0349853Y0077026D02*
X0349623Y0077026D01*
X0349640Y0077074D02*
X0349853Y0077074D01*
X0349853Y0077123D02*
X0349658Y0077123D01*
X0349675Y0077171D02*
X0349853Y0077171D01*
X0349853Y0077220D02*
X0349693Y0077220D01*
X0349710Y0077268D02*
X0349853Y0077268D01*
X0349853Y0077317D02*
X0349726Y0077317D01*
X0348786Y0077317D02*
X0347640Y0077317D01*
X0347654Y0077268D02*
X0348771Y0077268D01*
X0348756Y0077220D02*
X0347668Y0077220D01*
X0347682Y0077171D02*
X0348742Y0077171D01*
X0348727Y0077123D02*
X0347697Y0077123D01*
X0347711Y0077074D02*
X0348712Y0077074D01*
X0348698Y0077026D02*
X0347725Y0077026D01*
X0347739Y0076977D02*
X0348683Y0076977D01*
X0348668Y0076929D02*
X0347753Y0076929D01*
X0347768Y0076880D02*
X0348653Y0076880D01*
X0348639Y0076832D02*
X0347782Y0076832D01*
X0347796Y0076783D02*
X0348624Y0076783D01*
X0348609Y0076735D02*
X0347810Y0076735D01*
X0347824Y0076686D02*
X0348595Y0076686D01*
X0348580Y0076638D02*
X0347839Y0076638D01*
X0347853Y0076589D02*
X0348565Y0076589D01*
X0348551Y0076541D02*
X0347867Y0076541D01*
X0347881Y0076492D02*
X0348536Y0076492D01*
X0348521Y0076444D02*
X0347896Y0076444D01*
X0350813Y0076444D02*
X0351014Y0076444D01*
X0351015Y0076492D02*
X0350813Y0076492D01*
X0350813Y0076541D02*
X0351015Y0076541D01*
X0351015Y0076589D02*
X0350813Y0076589D01*
X0350813Y0076638D02*
X0351015Y0076638D01*
X0351015Y0076686D02*
X0350813Y0076686D01*
X0350813Y0076735D02*
X0351015Y0076735D01*
X0351015Y0076783D02*
X0350813Y0076783D01*
X0350813Y0076832D02*
X0351015Y0076832D01*
X0351015Y0076880D02*
X0350813Y0076880D01*
X0350813Y0076929D02*
X0351015Y0076929D01*
X0351015Y0076977D02*
X0350812Y0076977D01*
X0350812Y0077026D02*
X0351015Y0077026D01*
X0351015Y0077074D02*
X0350812Y0077074D01*
X0350812Y0077123D02*
X0351015Y0077123D01*
X0351015Y0077171D02*
X0350812Y0077171D01*
X0350812Y0077220D02*
X0351016Y0077220D01*
X0351016Y0077268D02*
X0350812Y0077268D01*
X0350812Y0077317D02*
X0351015Y0077317D01*
X0350812Y0077317D02*
X0350812Y0077317D01*
X0350813Y0076395D02*
X0351014Y0076395D01*
X0351014Y0076347D02*
X0350813Y0076347D01*
X0350813Y0076298D02*
X0351014Y0076298D01*
X0351014Y0076250D02*
X0350813Y0076250D01*
X0350814Y0076201D02*
X0351014Y0076201D01*
X0351014Y0076153D02*
X0350814Y0076153D01*
X0350814Y0076104D02*
X0351014Y0076104D01*
X0351014Y0076056D02*
X0350814Y0076056D01*
X0350814Y0076007D02*
X0351014Y0076007D01*
X0351014Y0075959D02*
X0350814Y0075959D01*
X0350814Y0075910D02*
X0351014Y0075910D01*
X0351014Y0075862D02*
X0350814Y0075862D01*
X0350814Y0075813D02*
X0351014Y0075813D01*
X0351014Y0075764D02*
X0350814Y0075764D01*
X0350814Y0075716D02*
X0351013Y0075716D01*
X0351013Y0075667D02*
X0350814Y0075667D01*
X0350814Y0075619D02*
X0351013Y0075619D01*
X0351013Y0075570D02*
X0350814Y0075570D01*
X0350814Y0075522D02*
X0351013Y0075522D01*
X0351013Y0075473D02*
X0350815Y0075473D01*
X0350815Y0075425D02*
X0351013Y0075425D01*
X0351013Y0075376D02*
X0350815Y0075376D01*
X0350815Y0075328D02*
X0351013Y0075328D01*
X0351013Y0075279D02*
X0350815Y0075279D01*
X0350815Y0075231D02*
X0351013Y0075231D01*
X0351013Y0075182D02*
X0350815Y0075182D01*
X0350815Y0075134D02*
X0351013Y0075134D01*
X0351013Y0075085D02*
X0350815Y0075085D01*
X0350815Y0075037D02*
X0351013Y0075037D01*
X0351012Y0074988D02*
X0350815Y0074988D01*
X0350815Y0074940D02*
X0351012Y0074940D01*
X0351012Y0074891D02*
X0350815Y0074891D01*
X0350815Y0074843D02*
X0351012Y0074843D01*
X0351012Y0074794D02*
X0350815Y0074794D01*
X0350816Y0074746D02*
X0351012Y0074746D01*
X0351012Y0074697D02*
X0350816Y0074697D01*
X0350816Y0074649D02*
X0351012Y0074649D01*
X0351012Y0074600D02*
X0350816Y0074600D01*
X0350816Y0074552D02*
X0351012Y0074552D01*
X0351012Y0074503D02*
X0350816Y0074503D01*
X0350816Y0074455D02*
X0351012Y0074455D01*
X0353228Y0075473D02*
X0355795Y0075473D01*
X0355800Y0075522D02*
X0353209Y0075522D01*
X0353189Y0075570D02*
X0355805Y0075570D01*
X0355810Y0075619D02*
X0353170Y0075619D01*
X0353154Y0075667D02*
X0355815Y0075667D01*
X0355820Y0075716D02*
X0353147Y0075716D01*
X0353139Y0075764D02*
X0355825Y0075764D01*
X0355829Y0075813D02*
X0353132Y0075813D01*
X0353126Y0075862D02*
X0355834Y0075862D01*
X0355834Y0075910D02*
X0353131Y0075910D01*
X0353137Y0075959D02*
X0355830Y0075959D01*
X0355826Y0076007D02*
X0353143Y0076007D01*
X0353149Y0076056D02*
X0355822Y0076056D01*
X0355817Y0076104D02*
X0353162Y0076104D01*
X0353178Y0076153D02*
X0355813Y0076153D01*
X0355809Y0076201D02*
X0353194Y0076201D01*
X0353210Y0076250D02*
X0355805Y0076250D01*
X0355801Y0076298D02*
X0353239Y0076298D01*
X0353272Y0076347D02*
X0355792Y0076347D01*
X0355784Y0076395D02*
X0353305Y0076395D01*
X0353348Y0076444D02*
X0355776Y0076444D01*
X0355767Y0076492D02*
X0353419Y0076492D01*
X0353489Y0076541D02*
X0355753Y0076541D01*
X0355738Y0076589D02*
X0353860Y0076589D01*
X0353860Y0076638D02*
X0355723Y0076638D01*
X0355708Y0076686D02*
X0353860Y0076686D01*
X0353860Y0076735D02*
X0355693Y0076735D01*
X0355678Y0076783D02*
X0353860Y0076783D01*
X0353860Y0076832D02*
X0355663Y0076832D01*
X0355648Y0076880D02*
X0353860Y0076880D01*
X0353860Y0076929D02*
X0355626Y0076929D01*
X0355600Y0076977D02*
X0353860Y0076977D01*
X0353860Y0077026D02*
X0355574Y0077026D01*
X0355548Y0077074D02*
X0353860Y0077074D01*
X0353860Y0077123D02*
X0355522Y0077123D01*
X0355496Y0077171D02*
X0353860Y0077171D01*
X0353860Y0077220D02*
X0355470Y0077220D01*
X0355443Y0077268D02*
X0353861Y0077268D01*
X0353862Y0077317D02*
X0355409Y0077317D01*
X0355376Y0077365D02*
X0353862Y0077365D01*
X0353732Y0076589D02*
X0353691Y0076589D01*
X0353263Y0075425D02*
X0355784Y0075425D01*
X0355773Y0075376D02*
X0353303Y0075376D01*
X0353342Y0075328D02*
X0355761Y0075328D01*
X0355749Y0075279D02*
X0353406Y0075279D01*
X0353492Y0075231D02*
X0355735Y0075231D01*
X0355720Y0075182D02*
X0353667Y0075182D01*
X0353860Y0075134D02*
X0355705Y0075134D01*
X0355690Y0075085D02*
X0353860Y0075085D01*
X0353860Y0075037D02*
X0355673Y0075037D01*
X0355655Y0074988D02*
X0353860Y0074988D01*
X0353860Y0074940D02*
X0355637Y0074940D01*
X0355619Y0074891D02*
X0353860Y0074891D01*
X0353860Y0074843D02*
X0355597Y0074843D01*
X0355570Y0074794D02*
X0353860Y0074794D01*
X0353860Y0074746D02*
X0355544Y0074746D01*
X0355518Y0074697D02*
X0353860Y0074697D01*
X0353860Y0074649D02*
X0355491Y0074649D01*
X0355465Y0074600D02*
X0353860Y0074600D01*
X0353860Y0074552D02*
X0355439Y0074552D01*
X0355412Y0074503D02*
X0353860Y0074503D01*
X0353860Y0074455D02*
X0355373Y0074455D01*
X0355333Y0074406D02*
X0353860Y0074406D01*
X0353539Y0073387D02*
X0344405Y0073387D01*
X0341725Y0078287D02*
X0354205Y0078287D01*
X0354054Y0078336D02*
X0341877Y0078336D01*
X0342029Y0078384D02*
X0353891Y0078384D01*
X0353632Y0078433D02*
X0342300Y0078433D01*
D41*
X0241082Y0062583D03*
X0234783Y0062583D03*
X0065582Y0061925D03*
X0061802Y0064130D03*
X0061645Y0064130D03*
X0061487Y0064130D03*
X0059283Y0061925D03*
D42*
X0059440Y0061925D03*
X0065424Y0061925D03*
X0234940Y0062583D03*
X0240924Y0062583D03*
X0354283Y0183055D03*
X0360582Y0183055D03*
D43*
X0240767Y0062583D03*
X0235098Y0062583D03*
X0065267Y0061925D03*
X0059598Y0061925D03*
D44*
X0059913Y0061925D03*
X0064952Y0061925D03*
X0235255Y0062583D03*
X0240610Y0062583D03*
D45*
X0240452Y0062583D03*
X0235413Y0062583D03*
X0354598Y0183055D03*
X0360267Y0183055D03*
X0360610Y0255240D03*
X0355255Y0255240D03*
X0064795Y0061925D03*
X0060070Y0061925D03*
D46*
X0060228Y0061925D03*
X0064637Y0061925D03*
X0235570Y0062583D03*
X0240295Y0062583D03*
X0355413Y0255240D03*
X0360452Y0255240D03*
D47*
X0360295Y0255240D03*
X0355570Y0255240D03*
X0354755Y0183055D03*
X0360110Y0183055D03*
X0240137Y0062583D03*
X0235728Y0062583D03*
X0060385Y0061925D03*
D48*
X0060543Y0059327D03*
X0063692Y0059012D03*
X0063850Y0059012D03*
X0064165Y0059169D03*
X0064322Y0059327D03*
X0064480Y0059484D03*
X0064007Y0064681D03*
X0063692Y0064839D03*
X0063535Y0064839D03*
X0061015Y0064839D03*
X0060700Y0064681D03*
X0236987Y0059512D03*
X0237932Y0059354D03*
X0238090Y0059354D03*
X0238877Y0059512D03*
X0239035Y0059512D03*
X0239350Y0059669D03*
X0239350Y0065496D03*
X0238877Y0065654D03*
X0358692Y0186598D03*
X0358877Y0252012D03*
X0359035Y0252012D03*
X0359192Y0252012D03*
X0356987Y0252012D03*
X0356830Y0252012D03*
X0356673Y0252012D03*
X0358877Y0258469D03*
X0359035Y0258469D03*
X0359192Y0258469D03*
X0359350Y0258311D03*
X0359507Y0258311D03*
X0359665Y0258154D03*
D49*
X0360767Y0255240D03*
X0355098Y0255240D03*
X0354440Y0183055D03*
X0360424Y0183055D03*
X0065110Y0061925D03*
X0059755Y0061925D03*
D50*
X0063062Y0059799D03*
X0063220Y0059799D03*
D51*
X0354913Y0183055D03*
X0359952Y0183055D03*
X0360137Y0255240D03*
X0355728Y0255240D03*
D52*
X0355885Y0255240D03*
X0355070Y0183055D03*
X0359795Y0183055D03*
D53*
X0359637Y0183055D03*
X0355228Y0183055D03*
D54*
X0355385Y0183055D03*
D55*
X0355543Y0180457D03*
X0355700Y0180457D03*
X0355858Y0180299D03*
X0356015Y0180299D03*
X0356173Y0180142D03*
X0356330Y0180142D03*
X0356645Y0179984D03*
X0355700Y0185654D03*
X0355543Y0185654D03*
X0355858Y0185811D03*
X0356015Y0185811D03*
X0356173Y0185969D03*
X0356330Y0185969D03*
X0356645Y0186126D03*
D56*
X0356802Y0186205D03*
X0356960Y0186205D03*
X0356487Y0186047D03*
X0356487Y0180063D03*
X0356802Y0179906D03*
X0356960Y0179906D03*
D57*
X0354783Y0255240D03*
X0361082Y0255240D03*
D58*
X0360924Y0255240D03*
X0354940Y0255240D03*
D59*
X0324885Y0077457D03*
X0324885Y0071157D03*
D60*
X0324885Y0071315D03*
X0324885Y0077299D03*
D61*
X0324806Y0077142D03*
D62*
X0324885Y0076984D03*
X0324885Y0071630D03*
D63*
X0324885Y0071787D03*
X0324885Y0076827D03*
D64*
X0324885Y0076669D03*
X0324885Y0071945D03*
D65*
X0324885Y0072102D03*
X0324885Y0076512D03*
D66*
X0320633Y0076354D03*
D67*
X0325751Y0076354D03*
X0330633Y0075252D03*
D68*
X0329846Y0076354D03*
D69*
X0330554Y0075882D03*
X0330554Y0072732D03*
X0330397Y0072575D03*
X0319373Y0072417D03*
X0319216Y0072732D03*
X0319216Y0075882D03*
X0319373Y0076197D03*
D70*
X0322287Y0076197D03*
X0322444Y0073835D03*
D71*
X0325594Y0076197D03*
D72*
X0330239Y0076197D03*
X0330554Y0073205D03*
X0330082Y0072260D03*
X0319058Y0073362D03*
X0319058Y0073520D03*
X0319058Y0073677D03*
X0319058Y0073835D03*
X0319058Y0073992D03*
X0319058Y0074150D03*
X0319058Y0074307D03*
X0319058Y0074465D03*
X0319058Y0074622D03*
X0319058Y0074780D03*
X0319058Y0074937D03*
X0319058Y0075094D03*
X0319058Y0075252D03*
D73*
X0319295Y0076039D03*
X0319295Y0072575D03*
X0319452Y0072260D03*
D74*
X0322287Y0073677D03*
X0323547Y0074465D03*
X0323547Y0074622D03*
X0323704Y0075094D03*
X0322129Y0076039D03*
X0325121Y0073677D03*
X0325751Y0072732D03*
D75*
X0326066Y0072260D03*
X0325594Y0076039D03*
D76*
X0330318Y0076039D03*
X0330633Y0075724D03*
X0330633Y0075567D03*
X0330633Y0075409D03*
X0330633Y0073047D03*
X0330633Y0072890D03*
X0330318Y0072417D03*
X0319137Y0072890D03*
X0319137Y0073047D03*
X0319137Y0073205D03*
X0319137Y0075409D03*
X0319137Y0075567D03*
X0319137Y0075724D03*
D77*
X0322129Y0075724D03*
X0322129Y0075882D03*
X0322129Y0073362D03*
X0321972Y0072260D03*
X0325594Y0073047D03*
X0325279Y0074150D03*
X0325436Y0075094D03*
X0325436Y0075252D03*
D78*
X0325594Y0075882D03*
X0327641Y0075094D03*
X0324964Y0073362D03*
X0322602Y0073992D03*
D79*
X0323625Y0074780D03*
X0323625Y0074937D03*
X0325515Y0075567D03*
X0325515Y0075724D03*
X0327720Y0075252D03*
X0325830Y0072575D03*
D80*
X0325358Y0074307D03*
X0325358Y0074465D03*
X0325358Y0074622D03*
X0325358Y0074780D03*
X0325358Y0074937D03*
X0322050Y0075409D03*
X0322050Y0075567D03*
X0322050Y0074465D03*
X0322050Y0073205D03*
X0322050Y0073047D03*
X0321893Y0072417D03*
D81*
X0322208Y0073520D03*
X0323625Y0075252D03*
X0325515Y0075409D03*
X0325200Y0073992D03*
X0325200Y0073835D03*
X0325673Y0072890D03*
X0327720Y0073205D03*
D82*
X0321972Y0072890D03*
X0321972Y0072732D03*
X0321972Y0072575D03*
X0321972Y0074622D03*
X0321972Y0074780D03*
X0321972Y0074937D03*
X0321972Y0075094D03*
X0321972Y0075252D03*
D83*
X0330554Y0075094D03*
X0330554Y0073362D03*
D84*
X0329531Y0073677D03*
X0329531Y0074780D03*
X0329531Y0074937D03*
D85*
X0329452Y0074622D03*
X0329452Y0074465D03*
X0329452Y0074307D03*
X0329452Y0074150D03*
X0329452Y0073992D03*
X0329452Y0073835D03*
D86*
X0324885Y0073205D03*
X0322838Y0074307D03*
D87*
X0322680Y0074150D03*
D88*
X0325043Y0073520D03*
X0325987Y0072417D03*
X0327720Y0073362D03*
D89*
X0329610Y0073520D03*
D90*
X0324885Y0071472D03*
M02*
