G75*
%MOIN*%
%OFA0B0*%
%FSLAX25Y25*%
%IPPOS*%
%LPD*%
%AMOC8*
5,1,8,0,0,1.08239X$1,22.5*
%
%ADD10R,0.04816X0.08162*%
%ADD11C,0.04816*%
%ADD12C,0.07887*%
%ADD13C,0.04343*%
%ADD14C,0.03753*%
%ADD15C,0.04934*%
%ADD16C,0.12800*%
%ADD17C,0.04808*%
%ADD18C,0.06706*%
%ADD19R,0.05524X0.01981*%
%ADD20R,0.08661X0.07874*%
%ADD21C,0.04737*%
%ADD22R,0.05800X0.03300*%
%ADD23C,0.00500*%
%ADD24C,0.08200*%
D10*
X0071885Y0243524D03*
X0081885Y0243524D03*
X0091885Y0243524D03*
X0101885Y0243524D03*
X0111885Y0243524D03*
X0121885Y0243524D03*
X0131885Y0243524D03*
X0141885Y0243524D03*
X0151885Y0243524D03*
X0161885Y0243524D03*
X0171885Y0243524D03*
X0181885Y0243524D03*
X0191885Y0243524D03*
X0201885Y0243524D03*
X0211885Y0243524D03*
X0221885Y0243524D03*
X0231885Y0243524D03*
X0241885Y0243524D03*
X0251885Y0243524D03*
X0261885Y0243524D03*
X0261885Y0266083D03*
X0251885Y0266083D03*
X0241885Y0266083D03*
X0231885Y0266083D03*
X0221885Y0266083D03*
X0211885Y0266083D03*
X0201885Y0266083D03*
X0191885Y0266083D03*
X0181885Y0266083D03*
X0171885Y0266083D03*
X0161885Y0266083D03*
X0151885Y0266083D03*
X0141885Y0266083D03*
X0131885Y0266083D03*
X0121885Y0266083D03*
X0111885Y0266083D03*
X0101885Y0266083D03*
X0091885Y0266083D03*
X0081885Y0266083D03*
X0071885Y0266083D03*
D11*
X0071885Y0259803D03*
X0081885Y0259803D03*
X0091885Y0259803D03*
X0101885Y0259803D03*
X0111885Y0259803D03*
X0121885Y0259803D03*
X0131885Y0259803D03*
X0141885Y0259803D03*
X0151885Y0259803D03*
X0161885Y0259803D03*
X0171885Y0259803D03*
X0181885Y0259803D03*
X0191885Y0259803D03*
X0201885Y0259803D03*
X0211885Y0259803D03*
X0221885Y0259803D03*
X0231885Y0259803D03*
X0241885Y0259803D03*
X0251885Y0259803D03*
X0261885Y0259803D03*
X0261885Y0249803D03*
X0251885Y0249803D03*
X0241885Y0249803D03*
X0231885Y0249803D03*
X0221885Y0249803D03*
X0211885Y0249803D03*
X0201885Y0249803D03*
X0191885Y0249803D03*
X0181885Y0249803D03*
X0171885Y0249803D03*
X0161885Y0249803D03*
X0151885Y0249803D03*
X0141885Y0249803D03*
X0131885Y0249803D03*
X0121885Y0249803D03*
X0111885Y0249803D03*
X0101885Y0249803D03*
X0091885Y0249803D03*
X0081885Y0249803D03*
X0071885Y0249803D03*
D12*
X0076885Y0254803D03*
X0256885Y0254803D03*
D13*
X0302712Y0251063D03*
X0302712Y0066024D03*
D14*
X0344667Y0106746D03*
D15*
X0355245Y0096167D03*
D16*
X0052712Y0062087D03*
X0281058Y0062087D03*
X0281058Y0255000D03*
X0052712Y0255000D03*
D17*
X0307554Y0111457D03*
X0307554Y0101457D03*
X0307554Y0091457D03*
X0317554Y0091457D03*
X0317554Y0101457D03*
X0317554Y0111457D03*
D18*
X0321216Y0154606D03*
X0351137Y0154606D03*
D19*
X0120035Y0153622D03*
X0120035Y0151654D03*
X0120035Y0149685D03*
X0120035Y0147717D03*
X0120035Y0145748D03*
X0120035Y0143780D03*
X0120035Y0141811D03*
X0120035Y0139843D03*
X0120035Y0137874D03*
X0120035Y0135906D03*
X0120035Y0133937D03*
X0120035Y0131969D03*
X0120035Y0130000D03*
X0120035Y0128031D03*
X0120035Y0126063D03*
X0120035Y0124094D03*
X0120035Y0122126D03*
X0120035Y0120157D03*
X0120035Y0118189D03*
X0120035Y0116220D03*
X0120035Y0155591D03*
X0120035Y0157559D03*
X0120035Y0159528D03*
X0120035Y0161496D03*
X0120035Y0163465D03*
X0120035Y0165433D03*
X0120035Y0167402D03*
X0120035Y0169370D03*
X0120035Y0171339D03*
X0120035Y0173307D03*
X0120035Y0175276D03*
X0120035Y0177244D03*
X0120035Y0179213D03*
X0120035Y0181181D03*
X0120035Y0183150D03*
X0120035Y0185118D03*
X0120035Y0187087D03*
X0120035Y0189055D03*
X0120035Y0191024D03*
X0120035Y0192992D03*
D20*
X0107633Y0199488D03*
X0107633Y0109724D03*
D21*
X0046806Y0083740D03*
X0351767Y0256969D03*
D22*
X0128932Y0135307D03*
X0128932Y0131307D03*
D23*
X0128432Y0132557D02*
X0129432Y0132557D01*
X0129432Y0134057D01*
X0128432Y0134057D01*
X0128432Y0132557D01*
X0128432Y0133054D02*
X0129432Y0133054D01*
X0129432Y0133553D02*
X0128432Y0133553D01*
X0128432Y0134051D02*
X0129432Y0134051D01*
D24*
X0333932Y0263307D03*
X0343932Y0263307D03*
M02*
