G75*
%MOIN*%
%OFA0B0*%
%FSLAX25Y25*%
%IPPOS*%
%LPD*%
%AMOC8*
5,1,8,0,0,1.08239X$1,22.5*
%
%ADD10R,0.03000X0.06000*%
%ADD11C,0.00118*%
%ADD12C,0.02756*%
%ADD13C,0.03543*%
%ADD14R,0.07283X0.04331*%
%ADD15R,0.07480X0.07874*%
%ADD16R,0.04724X0.07874*%
%ADD17R,0.02362X0.05315*%
%ADD18R,0.00591X0.01378*%
%ADD19R,0.01378X0.00591*%
%ADD20R,0.03937X0.03937*%
%ADD21R,0.04331X0.03937*%
%ADD22R,0.03937X0.04331*%
%ADD23R,0.04724X0.02362*%
%ADD24R,0.06500X0.03937*%
D10*
X0350330Y0192819D03*
X0365330Y0192819D03*
X0365330Y0214819D03*
X0365330Y0224315D03*
X0350330Y0224315D03*
X0350330Y0214819D03*
X0350330Y0246315D03*
X0365330Y0246315D03*
D11*
X0301774Y0254231D02*
X0302081Y0253213D01*
X0302080Y0253213D02*
X0301990Y0253181D01*
X0301900Y0253146D01*
X0301812Y0253107D01*
X0301726Y0253064D01*
X0301642Y0253017D01*
X0301560Y0252968D01*
X0301480Y0252914D01*
X0301402Y0252858D01*
X0301326Y0252799D01*
X0301253Y0252736D01*
X0301183Y0252670D01*
X0301115Y0252602D01*
X0301050Y0252531D01*
X0300988Y0252457D01*
X0300930Y0252381D01*
X0300874Y0252303D01*
X0300822Y0252222D01*
X0300773Y0252139D01*
X0300727Y0252055D01*
X0300685Y0251968D01*
X0300647Y0251880D01*
X0300612Y0251790D01*
X0300581Y0251699D01*
X0299561Y0251995D01*
X0299560Y0251996D01*
X0299595Y0252103D01*
X0299634Y0252209D01*
X0299676Y0252314D01*
X0299722Y0252417D01*
X0299771Y0252518D01*
X0299823Y0252618D01*
X0299879Y0252716D01*
X0299937Y0252812D01*
X0299999Y0252907D01*
X0300064Y0252999D01*
X0300132Y0253089D01*
X0300203Y0253176D01*
X0300277Y0253261D01*
X0300354Y0253344D01*
X0300433Y0253424D01*
X0300515Y0253502D01*
X0300599Y0253576D01*
X0300686Y0253648D01*
X0300776Y0253717D01*
X0300867Y0253783D01*
X0300961Y0253846D01*
X0301056Y0253906D01*
X0301154Y0253962D01*
X0301253Y0254016D01*
X0301354Y0254066D01*
X0301457Y0254112D01*
X0301561Y0254155D01*
X0301666Y0254195D01*
X0301773Y0254231D01*
X0301805Y0254125D01*
X0301698Y0254089D01*
X0301593Y0254049D01*
X0301489Y0254005D01*
X0301386Y0253958D01*
X0301285Y0253907D01*
X0301186Y0253853D01*
X0301089Y0253796D01*
X0300994Y0253735D01*
X0300901Y0253671D01*
X0300810Y0253604D01*
X0300722Y0253534D01*
X0300636Y0253461D01*
X0300553Y0253385D01*
X0300472Y0253306D01*
X0300394Y0253225D01*
X0300319Y0253141D01*
X0300247Y0253054D01*
X0300177Y0252965D01*
X0300111Y0252873D01*
X0300048Y0252780D01*
X0299989Y0252684D01*
X0299932Y0252586D01*
X0299879Y0252487D01*
X0299830Y0252385D01*
X0299784Y0252282D01*
X0299741Y0252178D01*
X0299702Y0252072D01*
X0299667Y0251965D01*
X0299773Y0251934D01*
X0299808Y0252037D01*
X0299845Y0252139D01*
X0299886Y0252240D01*
X0299931Y0252340D01*
X0299979Y0252437D01*
X0300030Y0252534D01*
X0300084Y0252628D01*
X0300142Y0252720D01*
X0300203Y0252811D01*
X0300267Y0252899D01*
X0300333Y0252985D01*
X0300403Y0253068D01*
X0300476Y0253150D01*
X0300551Y0253228D01*
X0300629Y0253304D01*
X0300709Y0253378D01*
X0300792Y0253448D01*
X0300877Y0253516D01*
X0300965Y0253581D01*
X0301055Y0253642D01*
X0301147Y0253701D01*
X0301240Y0253756D01*
X0301336Y0253808D01*
X0301433Y0253857D01*
X0301532Y0253903D01*
X0301632Y0253945D01*
X0301734Y0253984D01*
X0301837Y0254019D01*
X0301869Y0253912D01*
X0301766Y0253877D01*
X0301665Y0253838D01*
X0301565Y0253796D01*
X0301466Y0253750D01*
X0301369Y0253700D01*
X0301274Y0253648D01*
X0301181Y0253591D01*
X0301090Y0253532D01*
X0301001Y0253469D01*
X0300914Y0253404D01*
X0300829Y0253335D01*
X0300748Y0253263D01*
X0300668Y0253189D01*
X0300592Y0253111D01*
X0300518Y0253031D01*
X0300447Y0252949D01*
X0300379Y0252864D01*
X0300314Y0252776D01*
X0300253Y0252687D01*
X0300194Y0252595D01*
X0300139Y0252501D01*
X0300087Y0252405D01*
X0300039Y0252308D01*
X0299994Y0252209D01*
X0299952Y0252108D01*
X0299914Y0252006D01*
X0299880Y0251903D01*
X0299987Y0251872D01*
X0300021Y0251975D01*
X0300059Y0252077D01*
X0300101Y0252177D01*
X0300146Y0252276D01*
X0300195Y0252373D01*
X0300248Y0252468D01*
X0300304Y0252562D01*
X0300364Y0252653D01*
X0300426Y0252742D01*
X0300492Y0252828D01*
X0300561Y0252912D01*
X0300634Y0252993D01*
X0300709Y0253072D01*
X0300787Y0253148D01*
X0300867Y0253221D01*
X0300951Y0253291D01*
X0301036Y0253358D01*
X0301124Y0253421D01*
X0301215Y0253482D01*
X0301308Y0253539D01*
X0301402Y0253592D01*
X0301499Y0253642D01*
X0301597Y0253689D01*
X0301697Y0253732D01*
X0301799Y0253771D01*
X0301901Y0253806D01*
X0301933Y0253700D01*
X0301835Y0253666D01*
X0301737Y0253628D01*
X0301641Y0253587D01*
X0301547Y0253542D01*
X0301454Y0253494D01*
X0301363Y0253443D01*
X0301274Y0253388D01*
X0301187Y0253330D01*
X0301102Y0253269D01*
X0301020Y0253204D01*
X0300940Y0253137D01*
X0300862Y0253067D01*
X0300788Y0252994D01*
X0300715Y0252918D01*
X0300646Y0252840D01*
X0300580Y0252759D01*
X0300516Y0252676D01*
X0300456Y0252591D01*
X0300399Y0252504D01*
X0300345Y0252414D01*
X0300294Y0252323D01*
X0300247Y0252229D01*
X0300203Y0252134D01*
X0300163Y0252038D01*
X0300126Y0251940D01*
X0300093Y0251841D01*
X0300200Y0251810D01*
X0300233Y0251909D01*
X0300270Y0252006D01*
X0300311Y0252102D01*
X0300355Y0252197D01*
X0300402Y0252290D01*
X0300454Y0252380D01*
X0300508Y0252469D01*
X0300566Y0252556D01*
X0300628Y0252640D01*
X0300692Y0252722D01*
X0300760Y0252802D01*
X0300830Y0252879D01*
X0300903Y0252953D01*
X0300980Y0253024D01*
X0301058Y0253092D01*
X0301140Y0253157D01*
X0301223Y0253220D01*
X0301310Y0253278D01*
X0301398Y0253334D01*
X0301488Y0253386D01*
X0301580Y0253435D01*
X0301674Y0253480D01*
X0301770Y0253522D01*
X0301867Y0253559D01*
X0301966Y0253594D01*
X0301998Y0253487D01*
X0301903Y0253455D01*
X0301810Y0253418D01*
X0301719Y0253378D01*
X0301629Y0253335D01*
X0301540Y0253288D01*
X0301454Y0253238D01*
X0301370Y0253185D01*
X0301287Y0253129D01*
X0301207Y0253069D01*
X0301129Y0253007D01*
X0301054Y0252941D01*
X0300981Y0252873D01*
X0300911Y0252802D01*
X0300843Y0252728D01*
X0300778Y0252652D01*
X0300717Y0252574D01*
X0300658Y0252493D01*
X0300602Y0252410D01*
X0300550Y0252325D01*
X0300501Y0252238D01*
X0300455Y0252149D01*
X0300413Y0252059D01*
X0300374Y0251967D01*
X0300338Y0251874D01*
X0300307Y0251779D01*
X0300413Y0251748D01*
X0300445Y0251842D01*
X0300481Y0251935D01*
X0300520Y0252026D01*
X0300562Y0252116D01*
X0300609Y0252204D01*
X0300658Y0252290D01*
X0300712Y0252374D01*
X0300768Y0252456D01*
X0300827Y0252536D01*
X0300890Y0252613D01*
X0300956Y0252688D01*
X0301024Y0252760D01*
X0301096Y0252829D01*
X0301170Y0252895D01*
X0301246Y0252959D01*
X0301325Y0253019D01*
X0301406Y0253076D01*
X0301490Y0253130D01*
X0301576Y0253181D01*
X0301663Y0253228D01*
X0301752Y0253272D01*
X0301843Y0253312D01*
X0301936Y0253348D01*
X0302030Y0253381D01*
X0302062Y0253275D01*
X0301972Y0253243D01*
X0301884Y0253208D01*
X0301797Y0253170D01*
X0301712Y0253128D01*
X0301629Y0253083D01*
X0301547Y0253035D01*
X0301468Y0252984D01*
X0301390Y0252929D01*
X0301315Y0252872D01*
X0301242Y0252811D01*
X0301171Y0252748D01*
X0301103Y0252682D01*
X0301038Y0252613D01*
X0300975Y0252542D01*
X0300915Y0252468D01*
X0300859Y0252392D01*
X0300805Y0252314D01*
X0300754Y0252234D01*
X0300707Y0252152D01*
X0300663Y0252068D01*
X0300622Y0251982D01*
X0300584Y0251895D01*
X0300550Y0251807D01*
X0300520Y0251717D01*
X0303649Y0247895D02*
X0303342Y0248913D01*
X0303343Y0248913D02*
X0303433Y0248945D01*
X0303523Y0248980D01*
X0303611Y0249019D01*
X0303697Y0249062D01*
X0303781Y0249109D01*
X0303863Y0249158D01*
X0303943Y0249212D01*
X0304021Y0249268D01*
X0304097Y0249327D01*
X0304170Y0249390D01*
X0304240Y0249456D01*
X0304308Y0249524D01*
X0304373Y0249595D01*
X0304435Y0249669D01*
X0304493Y0249745D01*
X0304549Y0249823D01*
X0304601Y0249904D01*
X0304650Y0249987D01*
X0304696Y0250071D01*
X0304738Y0250158D01*
X0304776Y0250246D01*
X0304811Y0250336D01*
X0304842Y0250427D01*
X0305862Y0250131D01*
X0305863Y0250130D01*
X0305828Y0250023D01*
X0305789Y0249917D01*
X0305747Y0249812D01*
X0305701Y0249709D01*
X0305652Y0249608D01*
X0305600Y0249508D01*
X0305544Y0249410D01*
X0305486Y0249314D01*
X0305424Y0249219D01*
X0305359Y0249127D01*
X0305291Y0249037D01*
X0305220Y0248950D01*
X0305146Y0248865D01*
X0305069Y0248782D01*
X0304990Y0248702D01*
X0304908Y0248624D01*
X0304824Y0248550D01*
X0304737Y0248478D01*
X0304647Y0248409D01*
X0304556Y0248343D01*
X0304462Y0248280D01*
X0304367Y0248220D01*
X0304269Y0248164D01*
X0304170Y0248110D01*
X0304069Y0248060D01*
X0303966Y0248014D01*
X0303862Y0247971D01*
X0303757Y0247931D01*
X0303650Y0247895D01*
X0303618Y0248001D01*
X0303725Y0248037D01*
X0303830Y0248077D01*
X0303934Y0248121D01*
X0304037Y0248168D01*
X0304138Y0248219D01*
X0304237Y0248273D01*
X0304334Y0248330D01*
X0304429Y0248391D01*
X0304522Y0248455D01*
X0304613Y0248522D01*
X0304701Y0248592D01*
X0304787Y0248665D01*
X0304870Y0248741D01*
X0304951Y0248820D01*
X0305029Y0248901D01*
X0305104Y0248985D01*
X0305176Y0249072D01*
X0305246Y0249161D01*
X0305312Y0249253D01*
X0305375Y0249346D01*
X0305434Y0249442D01*
X0305491Y0249540D01*
X0305544Y0249639D01*
X0305593Y0249741D01*
X0305639Y0249844D01*
X0305682Y0249948D01*
X0305721Y0250054D01*
X0305756Y0250161D01*
X0305650Y0250192D01*
X0305615Y0250089D01*
X0305578Y0249987D01*
X0305537Y0249886D01*
X0305492Y0249786D01*
X0305444Y0249689D01*
X0305393Y0249592D01*
X0305339Y0249498D01*
X0305281Y0249406D01*
X0305220Y0249315D01*
X0305156Y0249227D01*
X0305090Y0249141D01*
X0305020Y0249058D01*
X0304947Y0248976D01*
X0304872Y0248898D01*
X0304794Y0248822D01*
X0304714Y0248748D01*
X0304631Y0248678D01*
X0304546Y0248610D01*
X0304458Y0248545D01*
X0304368Y0248484D01*
X0304276Y0248425D01*
X0304183Y0248370D01*
X0304087Y0248318D01*
X0303990Y0248269D01*
X0303891Y0248223D01*
X0303791Y0248181D01*
X0303689Y0248142D01*
X0303586Y0248107D01*
X0303554Y0248214D01*
X0303657Y0248249D01*
X0303758Y0248288D01*
X0303858Y0248330D01*
X0303957Y0248376D01*
X0304054Y0248426D01*
X0304149Y0248478D01*
X0304242Y0248535D01*
X0304333Y0248594D01*
X0304422Y0248657D01*
X0304509Y0248722D01*
X0304594Y0248791D01*
X0304675Y0248863D01*
X0304755Y0248937D01*
X0304831Y0249015D01*
X0304905Y0249095D01*
X0304976Y0249177D01*
X0305044Y0249262D01*
X0305109Y0249350D01*
X0305170Y0249439D01*
X0305229Y0249531D01*
X0305284Y0249625D01*
X0305336Y0249721D01*
X0305384Y0249818D01*
X0305429Y0249917D01*
X0305471Y0250018D01*
X0305509Y0250120D01*
X0305543Y0250223D01*
X0305436Y0250254D01*
X0305402Y0250151D01*
X0305364Y0250049D01*
X0305322Y0249949D01*
X0305277Y0249850D01*
X0305228Y0249753D01*
X0305175Y0249658D01*
X0305119Y0249564D01*
X0305059Y0249473D01*
X0304997Y0249384D01*
X0304931Y0249298D01*
X0304862Y0249214D01*
X0304789Y0249133D01*
X0304714Y0249054D01*
X0304636Y0248978D01*
X0304556Y0248905D01*
X0304472Y0248835D01*
X0304387Y0248768D01*
X0304299Y0248705D01*
X0304208Y0248644D01*
X0304115Y0248587D01*
X0304021Y0248534D01*
X0303924Y0248484D01*
X0303826Y0248437D01*
X0303726Y0248394D01*
X0303624Y0248355D01*
X0303522Y0248320D01*
X0303490Y0248426D01*
X0303588Y0248460D01*
X0303686Y0248498D01*
X0303782Y0248539D01*
X0303876Y0248584D01*
X0303969Y0248632D01*
X0304060Y0248683D01*
X0304149Y0248738D01*
X0304236Y0248796D01*
X0304321Y0248857D01*
X0304403Y0248922D01*
X0304483Y0248989D01*
X0304561Y0249059D01*
X0304635Y0249132D01*
X0304708Y0249208D01*
X0304777Y0249286D01*
X0304843Y0249367D01*
X0304907Y0249450D01*
X0304967Y0249535D01*
X0305024Y0249622D01*
X0305078Y0249712D01*
X0305129Y0249803D01*
X0305176Y0249897D01*
X0305220Y0249992D01*
X0305260Y0250088D01*
X0305297Y0250186D01*
X0305330Y0250285D01*
X0305223Y0250316D01*
X0305190Y0250217D01*
X0305153Y0250120D01*
X0305112Y0250024D01*
X0305068Y0249929D01*
X0305021Y0249836D01*
X0304969Y0249746D01*
X0304915Y0249657D01*
X0304857Y0249570D01*
X0304795Y0249486D01*
X0304731Y0249404D01*
X0304663Y0249324D01*
X0304593Y0249247D01*
X0304520Y0249173D01*
X0304443Y0249102D01*
X0304365Y0249034D01*
X0304283Y0248969D01*
X0304200Y0248906D01*
X0304113Y0248848D01*
X0304025Y0248792D01*
X0303935Y0248740D01*
X0303843Y0248691D01*
X0303749Y0248646D01*
X0303653Y0248604D01*
X0303556Y0248567D01*
X0303457Y0248532D01*
X0303425Y0248639D01*
X0303520Y0248671D01*
X0303613Y0248708D01*
X0303704Y0248748D01*
X0303794Y0248791D01*
X0303883Y0248838D01*
X0303969Y0248888D01*
X0304053Y0248941D01*
X0304136Y0248997D01*
X0304216Y0249057D01*
X0304294Y0249119D01*
X0304369Y0249185D01*
X0304442Y0249253D01*
X0304512Y0249324D01*
X0304580Y0249398D01*
X0304645Y0249474D01*
X0304706Y0249552D01*
X0304765Y0249633D01*
X0304821Y0249716D01*
X0304873Y0249801D01*
X0304922Y0249888D01*
X0304968Y0249977D01*
X0305010Y0250067D01*
X0305049Y0250159D01*
X0305085Y0250252D01*
X0305116Y0250347D01*
X0305010Y0250378D01*
X0304978Y0250284D01*
X0304942Y0250191D01*
X0304903Y0250100D01*
X0304861Y0250010D01*
X0304814Y0249922D01*
X0304765Y0249836D01*
X0304711Y0249752D01*
X0304655Y0249670D01*
X0304596Y0249590D01*
X0304533Y0249513D01*
X0304467Y0249438D01*
X0304399Y0249366D01*
X0304327Y0249297D01*
X0304253Y0249231D01*
X0304177Y0249167D01*
X0304098Y0249107D01*
X0304017Y0249050D01*
X0303933Y0248996D01*
X0303847Y0248945D01*
X0303760Y0248898D01*
X0303671Y0248854D01*
X0303580Y0248814D01*
X0303487Y0248778D01*
X0303393Y0248745D01*
X0303361Y0248851D01*
X0303451Y0248883D01*
X0303539Y0248918D01*
X0303626Y0248956D01*
X0303711Y0248998D01*
X0303794Y0249043D01*
X0303876Y0249091D01*
X0303955Y0249142D01*
X0304033Y0249197D01*
X0304108Y0249254D01*
X0304181Y0249315D01*
X0304252Y0249378D01*
X0304320Y0249444D01*
X0304385Y0249513D01*
X0304448Y0249584D01*
X0304508Y0249658D01*
X0304564Y0249734D01*
X0304618Y0249812D01*
X0304669Y0249892D01*
X0304716Y0249974D01*
X0304760Y0250058D01*
X0304801Y0250144D01*
X0304839Y0250231D01*
X0304873Y0250319D01*
X0304903Y0250409D01*
X0299543Y0250126D02*
X0300561Y0250433D01*
X0300561Y0250432D02*
X0300593Y0250342D01*
X0300628Y0250252D01*
X0300667Y0250164D01*
X0300710Y0250078D01*
X0300757Y0249994D01*
X0300806Y0249912D01*
X0300860Y0249832D01*
X0300916Y0249754D01*
X0300975Y0249678D01*
X0301038Y0249605D01*
X0301104Y0249535D01*
X0301172Y0249467D01*
X0301243Y0249402D01*
X0301317Y0249340D01*
X0301393Y0249282D01*
X0301471Y0249226D01*
X0301552Y0249174D01*
X0301635Y0249125D01*
X0301719Y0249079D01*
X0301806Y0249037D01*
X0301894Y0248999D01*
X0301984Y0248964D01*
X0302075Y0248933D01*
X0301779Y0247913D01*
X0301778Y0247912D01*
X0301671Y0247947D01*
X0301565Y0247986D01*
X0301460Y0248028D01*
X0301357Y0248074D01*
X0301256Y0248123D01*
X0301156Y0248175D01*
X0301058Y0248231D01*
X0300962Y0248289D01*
X0300867Y0248351D01*
X0300775Y0248416D01*
X0300685Y0248484D01*
X0300598Y0248555D01*
X0300513Y0248629D01*
X0300430Y0248706D01*
X0300350Y0248785D01*
X0300272Y0248867D01*
X0300198Y0248951D01*
X0300126Y0249038D01*
X0300057Y0249128D01*
X0299991Y0249219D01*
X0299928Y0249313D01*
X0299868Y0249408D01*
X0299812Y0249506D01*
X0299758Y0249605D01*
X0299708Y0249706D01*
X0299662Y0249809D01*
X0299619Y0249913D01*
X0299579Y0250018D01*
X0299543Y0250125D01*
X0299649Y0250157D01*
X0299685Y0250050D01*
X0299725Y0249945D01*
X0299769Y0249841D01*
X0299816Y0249738D01*
X0299867Y0249637D01*
X0299921Y0249538D01*
X0299978Y0249441D01*
X0300039Y0249346D01*
X0300103Y0249253D01*
X0300170Y0249162D01*
X0300240Y0249074D01*
X0300313Y0248988D01*
X0300389Y0248905D01*
X0300468Y0248824D01*
X0300549Y0248746D01*
X0300633Y0248671D01*
X0300720Y0248599D01*
X0300809Y0248529D01*
X0300901Y0248463D01*
X0300994Y0248400D01*
X0301090Y0248341D01*
X0301188Y0248284D01*
X0301287Y0248231D01*
X0301389Y0248182D01*
X0301492Y0248136D01*
X0301596Y0248093D01*
X0301702Y0248054D01*
X0301809Y0248019D01*
X0301840Y0248125D01*
X0301737Y0248160D01*
X0301635Y0248197D01*
X0301534Y0248238D01*
X0301434Y0248283D01*
X0301337Y0248331D01*
X0301240Y0248382D01*
X0301146Y0248436D01*
X0301054Y0248494D01*
X0300963Y0248555D01*
X0300875Y0248619D01*
X0300789Y0248685D01*
X0300706Y0248755D01*
X0300624Y0248828D01*
X0300546Y0248903D01*
X0300470Y0248981D01*
X0300396Y0249061D01*
X0300326Y0249144D01*
X0300258Y0249229D01*
X0300193Y0249317D01*
X0300132Y0249407D01*
X0300073Y0249499D01*
X0300018Y0249592D01*
X0299966Y0249688D01*
X0299917Y0249785D01*
X0299871Y0249884D01*
X0299829Y0249984D01*
X0299790Y0250086D01*
X0299755Y0250189D01*
X0299862Y0250221D01*
X0299897Y0250118D01*
X0299936Y0250017D01*
X0299978Y0249917D01*
X0300024Y0249818D01*
X0300074Y0249721D01*
X0300126Y0249626D01*
X0300183Y0249533D01*
X0300242Y0249442D01*
X0300305Y0249353D01*
X0300370Y0249266D01*
X0300439Y0249181D01*
X0300511Y0249100D01*
X0300585Y0249020D01*
X0300663Y0248944D01*
X0300743Y0248870D01*
X0300825Y0248799D01*
X0300910Y0248731D01*
X0300998Y0248666D01*
X0301087Y0248605D01*
X0301179Y0248546D01*
X0301273Y0248491D01*
X0301369Y0248439D01*
X0301466Y0248391D01*
X0301565Y0248346D01*
X0301666Y0248304D01*
X0301768Y0248266D01*
X0301871Y0248232D01*
X0301902Y0248339D01*
X0301799Y0248373D01*
X0301697Y0248411D01*
X0301597Y0248453D01*
X0301498Y0248498D01*
X0301401Y0248547D01*
X0301306Y0248600D01*
X0301212Y0248656D01*
X0301121Y0248716D01*
X0301032Y0248778D01*
X0300946Y0248844D01*
X0300862Y0248913D01*
X0300781Y0248986D01*
X0300702Y0249061D01*
X0300626Y0249139D01*
X0300553Y0249219D01*
X0300483Y0249303D01*
X0300416Y0249388D01*
X0300353Y0249476D01*
X0300292Y0249567D01*
X0300235Y0249660D01*
X0300182Y0249754D01*
X0300132Y0249851D01*
X0300085Y0249949D01*
X0300042Y0250049D01*
X0300003Y0250151D01*
X0299968Y0250253D01*
X0300074Y0250285D01*
X0300108Y0250187D01*
X0300146Y0250089D01*
X0300187Y0249993D01*
X0300232Y0249899D01*
X0300280Y0249806D01*
X0300331Y0249715D01*
X0300386Y0249626D01*
X0300444Y0249539D01*
X0300505Y0249454D01*
X0300570Y0249372D01*
X0300637Y0249292D01*
X0300707Y0249214D01*
X0300780Y0249140D01*
X0300856Y0249067D01*
X0300934Y0248998D01*
X0301015Y0248932D01*
X0301098Y0248868D01*
X0301183Y0248808D01*
X0301270Y0248751D01*
X0301360Y0248697D01*
X0301451Y0248646D01*
X0301545Y0248599D01*
X0301640Y0248555D01*
X0301736Y0248515D01*
X0301834Y0248478D01*
X0301933Y0248445D01*
X0301964Y0248552D01*
X0301865Y0248585D01*
X0301768Y0248622D01*
X0301672Y0248663D01*
X0301577Y0248707D01*
X0301484Y0248754D01*
X0301394Y0248806D01*
X0301305Y0248860D01*
X0301218Y0248918D01*
X0301134Y0248980D01*
X0301052Y0249044D01*
X0300972Y0249112D01*
X0300895Y0249182D01*
X0300821Y0249255D01*
X0300750Y0249332D01*
X0300682Y0249410D01*
X0300617Y0249492D01*
X0300554Y0249575D01*
X0300496Y0249662D01*
X0300440Y0249750D01*
X0300388Y0249840D01*
X0300339Y0249932D01*
X0300294Y0250026D01*
X0300252Y0250122D01*
X0300215Y0250219D01*
X0300180Y0250318D01*
X0300287Y0250350D01*
X0300319Y0250255D01*
X0300356Y0250162D01*
X0300396Y0250071D01*
X0300439Y0249981D01*
X0300486Y0249892D01*
X0300536Y0249806D01*
X0300589Y0249722D01*
X0300645Y0249639D01*
X0300705Y0249559D01*
X0300767Y0249481D01*
X0300833Y0249406D01*
X0300901Y0249333D01*
X0300972Y0249263D01*
X0301046Y0249195D01*
X0301122Y0249130D01*
X0301200Y0249069D01*
X0301281Y0249010D01*
X0301364Y0248954D01*
X0301449Y0248902D01*
X0301536Y0248853D01*
X0301625Y0248807D01*
X0301715Y0248765D01*
X0301807Y0248726D01*
X0301900Y0248690D01*
X0301995Y0248659D01*
X0302026Y0248765D01*
X0301932Y0248797D01*
X0301839Y0248833D01*
X0301748Y0248872D01*
X0301658Y0248914D01*
X0301570Y0248961D01*
X0301484Y0249010D01*
X0301400Y0249064D01*
X0301318Y0249120D01*
X0301238Y0249179D01*
X0301161Y0249242D01*
X0301086Y0249308D01*
X0301014Y0249376D01*
X0300945Y0249448D01*
X0300879Y0249522D01*
X0300815Y0249598D01*
X0300755Y0249677D01*
X0300698Y0249758D01*
X0300644Y0249842D01*
X0300593Y0249928D01*
X0300546Y0250015D01*
X0300502Y0250104D01*
X0300462Y0250195D01*
X0300426Y0250288D01*
X0300393Y0250382D01*
X0300499Y0250414D01*
X0300531Y0250324D01*
X0300566Y0250236D01*
X0300604Y0250149D01*
X0300646Y0250064D01*
X0300691Y0249981D01*
X0300739Y0249899D01*
X0300790Y0249820D01*
X0300845Y0249742D01*
X0300902Y0249667D01*
X0300963Y0249594D01*
X0301026Y0249523D01*
X0301092Y0249455D01*
X0301161Y0249390D01*
X0301232Y0249327D01*
X0301306Y0249267D01*
X0301382Y0249211D01*
X0301460Y0249157D01*
X0301540Y0249106D01*
X0301622Y0249059D01*
X0301706Y0249015D01*
X0301792Y0248974D01*
X0301879Y0248936D01*
X0301967Y0248902D01*
X0302057Y0248872D01*
X0305880Y0252000D02*
X0304862Y0251693D01*
X0304862Y0251694D02*
X0304830Y0251784D01*
X0304795Y0251874D01*
X0304756Y0251962D01*
X0304713Y0252048D01*
X0304666Y0252132D01*
X0304617Y0252214D01*
X0304563Y0252294D01*
X0304507Y0252372D01*
X0304448Y0252448D01*
X0304385Y0252521D01*
X0304319Y0252591D01*
X0304251Y0252659D01*
X0304180Y0252724D01*
X0304106Y0252786D01*
X0304030Y0252844D01*
X0303952Y0252900D01*
X0303871Y0252952D01*
X0303788Y0253001D01*
X0303704Y0253047D01*
X0303617Y0253089D01*
X0303529Y0253127D01*
X0303439Y0253162D01*
X0303348Y0253193D01*
X0303644Y0254213D01*
X0303645Y0254214D01*
X0303752Y0254179D01*
X0303858Y0254140D01*
X0303963Y0254098D01*
X0304066Y0254052D01*
X0304167Y0254003D01*
X0304267Y0253951D01*
X0304365Y0253895D01*
X0304461Y0253837D01*
X0304556Y0253775D01*
X0304648Y0253710D01*
X0304738Y0253642D01*
X0304825Y0253571D01*
X0304910Y0253497D01*
X0304993Y0253420D01*
X0305073Y0253341D01*
X0305151Y0253259D01*
X0305225Y0253175D01*
X0305297Y0253088D01*
X0305366Y0252998D01*
X0305432Y0252907D01*
X0305495Y0252813D01*
X0305555Y0252718D01*
X0305611Y0252620D01*
X0305665Y0252521D01*
X0305715Y0252420D01*
X0305761Y0252317D01*
X0305804Y0252213D01*
X0305844Y0252108D01*
X0305880Y0252001D01*
X0305774Y0251969D01*
X0305738Y0252076D01*
X0305698Y0252181D01*
X0305654Y0252285D01*
X0305607Y0252388D01*
X0305556Y0252489D01*
X0305502Y0252588D01*
X0305445Y0252685D01*
X0305384Y0252780D01*
X0305320Y0252873D01*
X0305253Y0252964D01*
X0305183Y0253052D01*
X0305110Y0253138D01*
X0305034Y0253221D01*
X0304955Y0253302D01*
X0304874Y0253380D01*
X0304790Y0253455D01*
X0304703Y0253527D01*
X0304614Y0253597D01*
X0304522Y0253663D01*
X0304429Y0253726D01*
X0304333Y0253785D01*
X0304235Y0253842D01*
X0304136Y0253895D01*
X0304034Y0253944D01*
X0303931Y0253990D01*
X0303827Y0254033D01*
X0303721Y0254072D01*
X0303614Y0254107D01*
X0303583Y0254001D01*
X0303686Y0253966D01*
X0303788Y0253929D01*
X0303889Y0253888D01*
X0303989Y0253843D01*
X0304086Y0253795D01*
X0304183Y0253744D01*
X0304277Y0253690D01*
X0304369Y0253632D01*
X0304460Y0253571D01*
X0304548Y0253507D01*
X0304634Y0253441D01*
X0304717Y0253371D01*
X0304799Y0253298D01*
X0304877Y0253223D01*
X0304953Y0253145D01*
X0305027Y0253065D01*
X0305097Y0252982D01*
X0305165Y0252897D01*
X0305230Y0252809D01*
X0305291Y0252719D01*
X0305350Y0252627D01*
X0305405Y0252534D01*
X0305457Y0252438D01*
X0305506Y0252341D01*
X0305552Y0252242D01*
X0305594Y0252142D01*
X0305633Y0252040D01*
X0305668Y0251937D01*
X0305561Y0251905D01*
X0305526Y0252008D01*
X0305487Y0252109D01*
X0305445Y0252209D01*
X0305399Y0252308D01*
X0305349Y0252405D01*
X0305297Y0252500D01*
X0305240Y0252593D01*
X0305181Y0252684D01*
X0305118Y0252773D01*
X0305053Y0252860D01*
X0304984Y0252945D01*
X0304912Y0253026D01*
X0304838Y0253106D01*
X0304760Y0253182D01*
X0304680Y0253256D01*
X0304598Y0253327D01*
X0304513Y0253395D01*
X0304425Y0253460D01*
X0304336Y0253521D01*
X0304244Y0253580D01*
X0304150Y0253635D01*
X0304054Y0253687D01*
X0303957Y0253735D01*
X0303858Y0253780D01*
X0303757Y0253822D01*
X0303655Y0253860D01*
X0303552Y0253894D01*
X0303521Y0253787D01*
X0303624Y0253753D01*
X0303726Y0253715D01*
X0303826Y0253673D01*
X0303925Y0253628D01*
X0304022Y0253579D01*
X0304117Y0253526D01*
X0304211Y0253470D01*
X0304302Y0253410D01*
X0304391Y0253348D01*
X0304477Y0253282D01*
X0304561Y0253213D01*
X0304642Y0253140D01*
X0304721Y0253065D01*
X0304797Y0252987D01*
X0304870Y0252907D01*
X0304940Y0252823D01*
X0305007Y0252738D01*
X0305070Y0252650D01*
X0305131Y0252559D01*
X0305188Y0252466D01*
X0305241Y0252372D01*
X0305291Y0252275D01*
X0305338Y0252177D01*
X0305381Y0252077D01*
X0305420Y0251975D01*
X0305455Y0251873D01*
X0305349Y0251841D01*
X0305315Y0251939D01*
X0305277Y0252037D01*
X0305236Y0252133D01*
X0305191Y0252227D01*
X0305143Y0252320D01*
X0305092Y0252411D01*
X0305037Y0252500D01*
X0304979Y0252587D01*
X0304918Y0252672D01*
X0304853Y0252754D01*
X0304786Y0252834D01*
X0304716Y0252912D01*
X0304643Y0252986D01*
X0304567Y0253059D01*
X0304489Y0253128D01*
X0304408Y0253194D01*
X0304325Y0253258D01*
X0304240Y0253318D01*
X0304153Y0253375D01*
X0304063Y0253429D01*
X0303972Y0253480D01*
X0303878Y0253527D01*
X0303783Y0253571D01*
X0303687Y0253611D01*
X0303589Y0253648D01*
X0303490Y0253681D01*
X0303459Y0253574D01*
X0303558Y0253541D01*
X0303655Y0253504D01*
X0303751Y0253463D01*
X0303846Y0253419D01*
X0303939Y0253372D01*
X0304029Y0253320D01*
X0304118Y0253266D01*
X0304205Y0253208D01*
X0304289Y0253146D01*
X0304371Y0253082D01*
X0304451Y0253014D01*
X0304528Y0252944D01*
X0304602Y0252871D01*
X0304673Y0252794D01*
X0304741Y0252716D01*
X0304806Y0252634D01*
X0304869Y0252551D01*
X0304927Y0252464D01*
X0304983Y0252376D01*
X0305035Y0252286D01*
X0305084Y0252194D01*
X0305129Y0252100D01*
X0305171Y0252004D01*
X0305208Y0251907D01*
X0305243Y0251808D01*
X0305136Y0251776D01*
X0305104Y0251871D01*
X0305067Y0251964D01*
X0305027Y0252055D01*
X0304984Y0252145D01*
X0304937Y0252234D01*
X0304887Y0252320D01*
X0304834Y0252404D01*
X0304778Y0252487D01*
X0304718Y0252567D01*
X0304656Y0252645D01*
X0304590Y0252720D01*
X0304522Y0252793D01*
X0304451Y0252863D01*
X0304377Y0252931D01*
X0304301Y0252996D01*
X0304223Y0253057D01*
X0304142Y0253116D01*
X0304059Y0253172D01*
X0303974Y0253224D01*
X0303887Y0253273D01*
X0303798Y0253319D01*
X0303708Y0253361D01*
X0303616Y0253400D01*
X0303523Y0253436D01*
X0303428Y0253467D01*
X0303397Y0253361D01*
X0303491Y0253329D01*
X0303584Y0253293D01*
X0303675Y0253254D01*
X0303765Y0253212D01*
X0303853Y0253165D01*
X0303939Y0253116D01*
X0304023Y0253062D01*
X0304105Y0253006D01*
X0304185Y0252947D01*
X0304262Y0252884D01*
X0304337Y0252818D01*
X0304409Y0252750D01*
X0304478Y0252678D01*
X0304544Y0252604D01*
X0304608Y0252528D01*
X0304668Y0252449D01*
X0304725Y0252368D01*
X0304779Y0252284D01*
X0304830Y0252198D01*
X0304877Y0252111D01*
X0304921Y0252022D01*
X0304961Y0251931D01*
X0304997Y0251838D01*
X0305030Y0251744D01*
X0304924Y0251712D01*
X0304892Y0251802D01*
X0304857Y0251890D01*
X0304819Y0251977D01*
X0304777Y0252062D01*
X0304732Y0252145D01*
X0304684Y0252227D01*
X0304633Y0252306D01*
X0304578Y0252384D01*
X0304521Y0252459D01*
X0304460Y0252532D01*
X0304397Y0252603D01*
X0304331Y0252671D01*
X0304262Y0252736D01*
X0304191Y0252799D01*
X0304117Y0252859D01*
X0304041Y0252915D01*
X0303963Y0252969D01*
X0303883Y0253020D01*
X0303801Y0253067D01*
X0303717Y0253111D01*
X0303631Y0253152D01*
X0303544Y0253190D01*
X0303456Y0253224D01*
X0303366Y0253254D01*
X0299543Y0065086D02*
X0300561Y0065393D01*
X0300561Y0065392D02*
X0300593Y0065302D01*
X0300628Y0065212D01*
X0300667Y0065124D01*
X0300710Y0065038D01*
X0300757Y0064954D01*
X0300806Y0064872D01*
X0300860Y0064792D01*
X0300916Y0064714D01*
X0300975Y0064638D01*
X0301038Y0064565D01*
X0301104Y0064495D01*
X0301172Y0064427D01*
X0301243Y0064362D01*
X0301317Y0064300D01*
X0301393Y0064242D01*
X0301471Y0064186D01*
X0301552Y0064134D01*
X0301635Y0064085D01*
X0301719Y0064039D01*
X0301806Y0063997D01*
X0301894Y0063959D01*
X0301984Y0063924D01*
X0302075Y0063893D01*
X0301779Y0062873D01*
X0301778Y0062872D01*
X0301671Y0062907D01*
X0301565Y0062946D01*
X0301460Y0062988D01*
X0301357Y0063034D01*
X0301256Y0063083D01*
X0301156Y0063135D01*
X0301058Y0063191D01*
X0300962Y0063249D01*
X0300867Y0063311D01*
X0300775Y0063376D01*
X0300685Y0063444D01*
X0300598Y0063515D01*
X0300513Y0063589D01*
X0300430Y0063666D01*
X0300350Y0063745D01*
X0300272Y0063827D01*
X0300198Y0063911D01*
X0300126Y0063998D01*
X0300057Y0064088D01*
X0299991Y0064179D01*
X0299928Y0064273D01*
X0299868Y0064368D01*
X0299812Y0064466D01*
X0299758Y0064565D01*
X0299708Y0064666D01*
X0299662Y0064769D01*
X0299619Y0064873D01*
X0299579Y0064978D01*
X0299543Y0065085D01*
X0299649Y0065117D01*
X0299685Y0065010D01*
X0299725Y0064905D01*
X0299769Y0064801D01*
X0299816Y0064698D01*
X0299867Y0064597D01*
X0299921Y0064498D01*
X0299978Y0064401D01*
X0300039Y0064306D01*
X0300103Y0064213D01*
X0300170Y0064122D01*
X0300240Y0064034D01*
X0300313Y0063948D01*
X0300389Y0063865D01*
X0300468Y0063784D01*
X0300549Y0063706D01*
X0300633Y0063631D01*
X0300720Y0063559D01*
X0300809Y0063489D01*
X0300901Y0063423D01*
X0300994Y0063360D01*
X0301090Y0063301D01*
X0301188Y0063244D01*
X0301287Y0063191D01*
X0301389Y0063142D01*
X0301492Y0063096D01*
X0301596Y0063053D01*
X0301702Y0063014D01*
X0301809Y0062979D01*
X0301840Y0063085D01*
X0301737Y0063120D01*
X0301635Y0063157D01*
X0301534Y0063198D01*
X0301434Y0063243D01*
X0301337Y0063291D01*
X0301240Y0063342D01*
X0301146Y0063396D01*
X0301054Y0063454D01*
X0300963Y0063515D01*
X0300875Y0063579D01*
X0300789Y0063645D01*
X0300706Y0063715D01*
X0300624Y0063788D01*
X0300546Y0063863D01*
X0300470Y0063941D01*
X0300396Y0064021D01*
X0300326Y0064104D01*
X0300258Y0064189D01*
X0300193Y0064277D01*
X0300132Y0064367D01*
X0300073Y0064459D01*
X0300018Y0064552D01*
X0299966Y0064648D01*
X0299917Y0064745D01*
X0299871Y0064844D01*
X0299829Y0064944D01*
X0299790Y0065046D01*
X0299755Y0065149D01*
X0299862Y0065181D01*
X0299897Y0065078D01*
X0299936Y0064977D01*
X0299978Y0064877D01*
X0300024Y0064778D01*
X0300074Y0064681D01*
X0300126Y0064586D01*
X0300183Y0064493D01*
X0300242Y0064402D01*
X0300305Y0064313D01*
X0300370Y0064226D01*
X0300439Y0064141D01*
X0300511Y0064060D01*
X0300585Y0063980D01*
X0300663Y0063904D01*
X0300743Y0063830D01*
X0300825Y0063759D01*
X0300910Y0063691D01*
X0300998Y0063626D01*
X0301087Y0063565D01*
X0301179Y0063506D01*
X0301273Y0063451D01*
X0301369Y0063399D01*
X0301466Y0063351D01*
X0301565Y0063306D01*
X0301666Y0063264D01*
X0301768Y0063226D01*
X0301871Y0063192D01*
X0301902Y0063299D01*
X0301799Y0063333D01*
X0301697Y0063371D01*
X0301597Y0063413D01*
X0301498Y0063458D01*
X0301401Y0063507D01*
X0301306Y0063560D01*
X0301212Y0063616D01*
X0301121Y0063676D01*
X0301032Y0063738D01*
X0300946Y0063804D01*
X0300862Y0063873D01*
X0300781Y0063946D01*
X0300702Y0064021D01*
X0300626Y0064099D01*
X0300553Y0064179D01*
X0300483Y0064263D01*
X0300416Y0064348D01*
X0300353Y0064436D01*
X0300292Y0064527D01*
X0300235Y0064620D01*
X0300182Y0064714D01*
X0300132Y0064811D01*
X0300085Y0064909D01*
X0300042Y0065009D01*
X0300003Y0065111D01*
X0299968Y0065213D01*
X0300074Y0065245D01*
X0300108Y0065147D01*
X0300146Y0065049D01*
X0300187Y0064953D01*
X0300232Y0064859D01*
X0300280Y0064766D01*
X0300331Y0064675D01*
X0300386Y0064586D01*
X0300444Y0064499D01*
X0300505Y0064414D01*
X0300570Y0064332D01*
X0300637Y0064252D01*
X0300707Y0064174D01*
X0300780Y0064100D01*
X0300856Y0064027D01*
X0300934Y0063958D01*
X0301015Y0063892D01*
X0301098Y0063828D01*
X0301183Y0063768D01*
X0301270Y0063711D01*
X0301360Y0063657D01*
X0301451Y0063606D01*
X0301545Y0063559D01*
X0301640Y0063515D01*
X0301736Y0063475D01*
X0301834Y0063438D01*
X0301933Y0063405D01*
X0301964Y0063512D01*
X0301865Y0063545D01*
X0301768Y0063582D01*
X0301672Y0063623D01*
X0301577Y0063667D01*
X0301484Y0063714D01*
X0301394Y0063766D01*
X0301305Y0063820D01*
X0301218Y0063878D01*
X0301134Y0063940D01*
X0301052Y0064004D01*
X0300972Y0064072D01*
X0300895Y0064142D01*
X0300821Y0064215D01*
X0300750Y0064292D01*
X0300682Y0064370D01*
X0300617Y0064452D01*
X0300554Y0064535D01*
X0300496Y0064622D01*
X0300440Y0064710D01*
X0300388Y0064800D01*
X0300339Y0064892D01*
X0300294Y0064986D01*
X0300252Y0065082D01*
X0300215Y0065179D01*
X0300180Y0065278D01*
X0300287Y0065310D01*
X0300319Y0065215D01*
X0300356Y0065122D01*
X0300396Y0065031D01*
X0300439Y0064941D01*
X0300486Y0064852D01*
X0300536Y0064766D01*
X0300589Y0064682D01*
X0300645Y0064599D01*
X0300705Y0064519D01*
X0300767Y0064441D01*
X0300833Y0064366D01*
X0300901Y0064293D01*
X0300972Y0064223D01*
X0301046Y0064155D01*
X0301122Y0064090D01*
X0301200Y0064029D01*
X0301281Y0063970D01*
X0301364Y0063914D01*
X0301449Y0063862D01*
X0301536Y0063813D01*
X0301625Y0063767D01*
X0301715Y0063725D01*
X0301807Y0063686D01*
X0301900Y0063650D01*
X0301995Y0063619D01*
X0302026Y0063725D01*
X0301932Y0063757D01*
X0301839Y0063793D01*
X0301748Y0063832D01*
X0301658Y0063874D01*
X0301570Y0063921D01*
X0301484Y0063970D01*
X0301400Y0064024D01*
X0301318Y0064080D01*
X0301238Y0064139D01*
X0301161Y0064202D01*
X0301086Y0064268D01*
X0301014Y0064336D01*
X0300945Y0064408D01*
X0300879Y0064482D01*
X0300815Y0064558D01*
X0300755Y0064637D01*
X0300698Y0064718D01*
X0300644Y0064802D01*
X0300593Y0064888D01*
X0300546Y0064975D01*
X0300502Y0065064D01*
X0300462Y0065155D01*
X0300426Y0065248D01*
X0300393Y0065342D01*
X0300499Y0065374D01*
X0300531Y0065284D01*
X0300566Y0065196D01*
X0300604Y0065109D01*
X0300646Y0065024D01*
X0300691Y0064941D01*
X0300739Y0064859D01*
X0300790Y0064780D01*
X0300845Y0064702D01*
X0300902Y0064627D01*
X0300963Y0064554D01*
X0301026Y0064483D01*
X0301092Y0064415D01*
X0301161Y0064350D01*
X0301232Y0064287D01*
X0301306Y0064227D01*
X0301382Y0064171D01*
X0301460Y0064117D01*
X0301540Y0064066D01*
X0301622Y0064019D01*
X0301706Y0063975D01*
X0301792Y0063934D01*
X0301879Y0063896D01*
X0301967Y0063862D01*
X0302057Y0063832D01*
X0305880Y0066961D02*
X0304862Y0066654D01*
X0304862Y0066655D02*
X0304830Y0066745D01*
X0304795Y0066835D01*
X0304756Y0066923D01*
X0304713Y0067009D01*
X0304666Y0067093D01*
X0304617Y0067175D01*
X0304563Y0067255D01*
X0304507Y0067333D01*
X0304448Y0067409D01*
X0304385Y0067482D01*
X0304319Y0067552D01*
X0304251Y0067620D01*
X0304180Y0067685D01*
X0304106Y0067747D01*
X0304030Y0067805D01*
X0303952Y0067861D01*
X0303871Y0067913D01*
X0303788Y0067962D01*
X0303704Y0068008D01*
X0303617Y0068050D01*
X0303529Y0068088D01*
X0303439Y0068123D01*
X0303348Y0068154D01*
X0303644Y0069174D01*
X0303645Y0069175D01*
X0303752Y0069140D01*
X0303858Y0069101D01*
X0303963Y0069059D01*
X0304066Y0069013D01*
X0304167Y0068964D01*
X0304267Y0068912D01*
X0304365Y0068856D01*
X0304461Y0068798D01*
X0304556Y0068736D01*
X0304648Y0068671D01*
X0304738Y0068603D01*
X0304825Y0068532D01*
X0304910Y0068458D01*
X0304993Y0068381D01*
X0305073Y0068302D01*
X0305151Y0068220D01*
X0305225Y0068136D01*
X0305297Y0068049D01*
X0305366Y0067959D01*
X0305432Y0067868D01*
X0305495Y0067774D01*
X0305555Y0067679D01*
X0305611Y0067581D01*
X0305665Y0067482D01*
X0305715Y0067381D01*
X0305761Y0067278D01*
X0305804Y0067174D01*
X0305844Y0067069D01*
X0305880Y0066962D01*
X0305774Y0066930D01*
X0305738Y0067037D01*
X0305698Y0067142D01*
X0305654Y0067246D01*
X0305607Y0067349D01*
X0305556Y0067450D01*
X0305502Y0067549D01*
X0305445Y0067646D01*
X0305384Y0067741D01*
X0305320Y0067834D01*
X0305253Y0067925D01*
X0305183Y0068013D01*
X0305110Y0068099D01*
X0305034Y0068182D01*
X0304955Y0068263D01*
X0304874Y0068341D01*
X0304790Y0068416D01*
X0304703Y0068488D01*
X0304614Y0068558D01*
X0304522Y0068624D01*
X0304429Y0068687D01*
X0304333Y0068746D01*
X0304235Y0068803D01*
X0304136Y0068856D01*
X0304034Y0068905D01*
X0303931Y0068951D01*
X0303827Y0068994D01*
X0303721Y0069033D01*
X0303614Y0069068D01*
X0303583Y0068962D01*
X0303686Y0068927D01*
X0303788Y0068890D01*
X0303889Y0068849D01*
X0303989Y0068804D01*
X0304086Y0068756D01*
X0304183Y0068705D01*
X0304277Y0068651D01*
X0304369Y0068593D01*
X0304460Y0068532D01*
X0304548Y0068468D01*
X0304634Y0068402D01*
X0304717Y0068332D01*
X0304799Y0068259D01*
X0304877Y0068184D01*
X0304953Y0068106D01*
X0305027Y0068026D01*
X0305097Y0067943D01*
X0305165Y0067858D01*
X0305230Y0067770D01*
X0305291Y0067680D01*
X0305350Y0067588D01*
X0305405Y0067495D01*
X0305457Y0067399D01*
X0305506Y0067302D01*
X0305552Y0067203D01*
X0305594Y0067103D01*
X0305633Y0067001D01*
X0305668Y0066898D01*
X0305561Y0066866D01*
X0305526Y0066969D01*
X0305487Y0067070D01*
X0305445Y0067170D01*
X0305399Y0067269D01*
X0305349Y0067366D01*
X0305297Y0067461D01*
X0305240Y0067554D01*
X0305181Y0067645D01*
X0305118Y0067734D01*
X0305053Y0067821D01*
X0304984Y0067906D01*
X0304912Y0067987D01*
X0304838Y0068067D01*
X0304760Y0068143D01*
X0304680Y0068217D01*
X0304598Y0068288D01*
X0304513Y0068356D01*
X0304425Y0068421D01*
X0304336Y0068482D01*
X0304244Y0068541D01*
X0304150Y0068596D01*
X0304054Y0068648D01*
X0303957Y0068696D01*
X0303858Y0068741D01*
X0303757Y0068783D01*
X0303655Y0068821D01*
X0303552Y0068855D01*
X0303521Y0068748D01*
X0303624Y0068714D01*
X0303726Y0068676D01*
X0303826Y0068634D01*
X0303925Y0068589D01*
X0304022Y0068540D01*
X0304117Y0068487D01*
X0304211Y0068431D01*
X0304302Y0068371D01*
X0304391Y0068309D01*
X0304477Y0068243D01*
X0304561Y0068174D01*
X0304642Y0068101D01*
X0304721Y0068026D01*
X0304797Y0067948D01*
X0304870Y0067868D01*
X0304940Y0067784D01*
X0305007Y0067699D01*
X0305070Y0067611D01*
X0305131Y0067520D01*
X0305188Y0067427D01*
X0305241Y0067333D01*
X0305291Y0067236D01*
X0305338Y0067138D01*
X0305381Y0067038D01*
X0305420Y0066936D01*
X0305455Y0066834D01*
X0305349Y0066802D01*
X0305315Y0066900D01*
X0305277Y0066998D01*
X0305236Y0067094D01*
X0305191Y0067188D01*
X0305143Y0067281D01*
X0305092Y0067372D01*
X0305037Y0067461D01*
X0304979Y0067548D01*
X0304918Y0067633D01*
X0304853Y0067715D01*
X0304786Y0067795D01*
X0304716Y0067873D01*
X0304643Y0067947D01*
X0304567Y0068020D01*
X0304489Y0068089D01*
X0304408Y0068155D01*
X0304325Y0068219D01*
X0304240Y0068279D01*
X0304153Y0068336D01*
X0304063Y0068390D01*
X0303972Y0068441D01*
X0303878Y0068488D01*
X0303783Y0068532D01*
X0303687Y0068572D01*
X0303589Y0068609D01*
X0303490Y0068642D01*
X0303459Y0068535D01*
X0303558Y0068502D01*
X0303655Y0068465D01*
X0303751Y0068424D01*
X0303846Y0068380D01*
X0303939Y0068333D01*
X0304029Y0068281D01*
X0304118Y0068227D01*
X0304205Y0068169D01*
X0304289Y0068107D01*
X0304371Y0068043D01*
X0304451Y0067975D01*
X0304528Y0067905D01*
X0304602Y0067832D01*
X0304673Y0067755D01*
X0304741Y0067677D01*
X0304806Y0067595D01*
X0304869Y0067512D01*
X0304927Y0067425D01*
X0304983Y0067337D01*
X0305035Y0067247D01*
X0305084Y0067155D01*
X0305129Y0067061D01*
X0305171Y0066965D01*
X0305208Y0066868D01*
X0305243Y0066769D01*
X0305136Y0066737D01*
X0305104Y0066832D01*
X0305067Y0066925D01*
X0305027Y0067016D01*
X0304984Y0067106D01*
X0304937Y0067195D01*
X0304887Y0067281D01*
X0304834Y0067365D01*
X0304778Y0067448D01*
X0304718Y0067528D01*
X0304656Y0067606D01*
X0304590Y0067681D01*
X0304522Y0067754D01*
X0304451Y0067824D01*
X0304377Y0067892D01*
X0304301Y0067957D01*
X0304223Y0068018D01*
X0304142Y0068077D01*
X0304059Y0068133D01*
X0303974Y0068185D01*
X0303887Y0068234D01*
X0303798Y0068280D01*
X0303708Y0068322D01*
X0303616Y0068361D01*
X0303523Y0068397D01*
X0303428Y0068428D01*
X0303397Y0068322D01*
X0303491Y0068290D01*
X0303584Y0068254D01*
X0303675Y0068215D01*
X0303765Y0068173D01*
X0303853Y0068126D01*
X0303939Y0068077D01*
X0304023Y0068023D01*
X0304105Y0067967D01*
X0304185Y0067908D01*
X0304262Y0067845D01*
X0304337Y0067779D01*
X0304409Y0067711D01*
X0304478Y0067639D01*
X0304544Y0067565D01*
X0304608Y0067489D01*
X0304668Y0067410D01*
X0304725Y0067329D01*
X0304779Y0067245D01*
X0304830Y0067159D01*
X0304877Y0067072D01*
X0304921Y0066983D01*
X0304961Y0066892D01*
X0304997Y0066799D01*
X0305030Y0066705D01*
X0304924Y0066673D01*
X0304892Y0066763D01*
X0304857Y0066851D01*
X0304819Y0066938D01*
X0304777Y0067023D01*
X0304732Y0067106D01*
X0304684Y0067188D01*
X0304633Y0067267D01*
X0304578Y0067345D01*
X0304521Y0067420D01*
X0304460Y0067493D01*
X0304397Y0067564D01*
X0304331Y0067632D01*
X0304262Y0067697D01*
X0304191Y0067760D01*
X0304117Y0067820D01*
X0304041Y0067876D01*
X0303963Y0067930D01*
X0303883Y0067981D01*
X0303801Y0068028D01*
X0303717Y0068072D01*
X0303631Y0068113D01*
X0303544Y0068151D01*
X0303456Y0068185D01*
X0303366Y0068215D01*
X0303649Y0062855D02*
X0303342Y0063873D01*
X0303343Y0063873D02*
X0303433Y0063905D01*
X0303523Y0063940D01*
X0303611Y0063979D01*
X0303697Y0064022D01*
X0303781Y0064069D01*
X0303863Y0064118D01*
X0303943Y0064172D01*
X0304021Y0064228D01*
X0304097Y0064287D01*
X0304170Y0064350D01*
X0304240Y0064416D01*
X0304308Y0064484D01*
X0304373Y0064555D01*
X0304435Y0064629D01*
X0304493Y0064705D01*
X0304549Y0064783D01*
X0304601Y0064864D01*
X0304650Y0064947D01*
X0304696Y0065031D01*
X0304738Y0065118D01*
X0304776Y0065206D01*
X0304811Y0065296D01*
X0304842Y0065387D01*
X0305862Y0065091D01*
X0305863Y0065090D01*
X0305828Y0064983D01*
X0305789Y0064877D01*
X0305747Y0064772D01*
X0305701Y0064669D01*
X0305652Y0064568D01*
X0305600Y0064468D01*
X0305544Y0064370D01*
X0305486Y0064274D01*
X0305424Y0064179D01*
X0305359Y0064087D01*
X0305291Y0063997D01*
X0305220Y0063910D01*
X0305146Y0063825D01*
X0305069Y0063742D01*
X0304990Y0063662D01*
X0304908Y0063584D01*
X0304824Y0063510D01*
X0304737Y0063438D01*
X0304647Y0063369D01*
X0304556Y0063303D01*
X0304462Y0063240D01*
X0304367Y0063180D01*
X0304269Y0063124D01*
X0304170Y0063070D01*
X0304069Y0063020D01*
X0303966Y0062974D01*
X0303862Y0062931D01*
X0303757Y0062891D01*
X0303650Y0062855D01*
X0303618Y0062961D01*
X0303725Y0062997D01*
X0303830Y0063037D01*
X0303934Y0063081D01*
X0304037Y0063128D01*
X0304138Y0063179D01*
X0304237Y0063233D01*
X0304334Y0063290D01*
X0304429Y0063351D01*
X0304522Y0063415D01*
X0304613Y0063482D01*
X0304701Y0063552D01*
X0304787Y0063625D01*
X0304870Y0063701D01*
X0304951Y0063780D01*
X0305029Y0063861D01*
X0305104Y0063945D01*
X0305176Y0064032D01*
X0305246Y0064121D01*
X0305312Y0064213D01*
X0305375Y0064306D01*
X0305434Y0064402D01*
X0305491Y0064500D01*
X0305544Y0064599D01*
X0305593Y0064701D01*
X0305639Y0064804D01*
X0305682Y0064908D01*
X0305721Y0065014D01*
X0305756Y0065121D01*
X0305650Y0065152D01*
X0305615Y0065049D01*
X0305578Y0064947D01*
X0305537Y0064846D01*
X0305492Y0064746D01*
X0305444Y0064649D01*
X0305393Y0064552D01*
X0305339Y0064458D01*
X0305281Y0064366D01*
X0305220Y0064275D01*
X0305156Y0064187D01*
X0305090Y0064101D01*
X0305020Y0064018D01*
X0304947Y0063936D01*
X0304872Y0063858D01*
X0304794Y0063782D01*
X0304714Y0063708D01*
X0304631Y0063638D01*
X0304546Y0063570D01*
X0304458Y0063505D01*
X0304368Y0063444D01*
X0304276Y0063385D01*
X0304183Y0063330D01*
X0304087Y0063278D01*
X0303990Y0063229D01*
X0303891Y0063183D01*
X0303791Y0063141D01*
X0303689Y0063102D01*
X0303586Y0063067D01*
X0303554Y0063174D01*
X0303657Y0063209D01*
X0303758Y0063248D01*
X0303858Y0063290D01*
X0303957Y0063336D01*
X0304054Y0063386D01*
X0304149Y0063438D01*
X0304242Y0063495D01*
X0304333Y0063554D01*
X0304422Y0063617D01*
X0304509Y0063682D01*
X0304594Y0063751D01*
X0304675Y0063823D01*
X0304755Y0063897D01*
X0304831Y0063975D01*
X0304905Y0064055D01*
X0304976Y0064137D01*
X0305044Y0064222D01*
X0305109Y0064310D01*
X0305170Y0064399D01*
X0305229Y0064491D01*
X0305284Y0064585D01*
X0305336Y0064681D01*
X0305384Y0064778D01*
X0305429Y0064877D01*
X0305471Y0064978D01*
X0305509Y0065080D01*
X0305543Y0065183D01*
X0305436Y0065214D01*
X0305402Y0065111D01*
X0305364Y0065009D01*
X0305322Y0064909D01*
X0305277Y0064810D01*
X0305228Y0064713D01*
X0305175Y0064618D01*
X0305119Y0064524D01*
X0305059Y0064433D01*
X0304997Y0064344D01*
X0304931Y0064258D01*
X0304862Y0064174D01*
X0304789Y0064093D01*
X0304714Y0064014D01*
X0304636Y0063938D01*
X0304556Y0063865D01*
X0304472Y0063795D01*
X0304387Y0063728D01*
X0304299Y0063665D01*
X0304208Y0063604D01*
X0304115Y0063547D01*
X0304021Y0063494D01*
X0303924Y0063444D01*
X0303826Y0063397D01*
X0303726Y0063354D01*
X0303624Y0063315D01*
X0303522Y0063280D01*
X0303490Y0063386D01*
X0303588Y0063420D01*
X0303686Y0063458D01*
X0303782Y0063499D01*
X0303876Y0063544D01*
X0303969Y0063592D01*
X0304060Y0063643D01*
X0304149Y0063698D01*
X0304236Y0063756D01*
X0304321Y0063817D01*
X0304403Y0063882D01*
X0304483Y0063949D01*
X0304561Y0064019D01*
X0304635Y0064092D01*
X0304708Y0064168D01*
X0304777Y0064246D01*
X0304843Y0064327D01*
X0304907Y0064410D01*
X0304967Y0064495D01*
X0305024Y0064582D01*
X0305078Y0064672D01*
X0305129Y0064763D01*
X0305176Y0064857D01*
X0305220Y0064952D01*
X0305260Y0065048D01*
X0305297Y0065146D01*
X0305330Y0065245D01*
X0305223Y0065276D01*
X0305190Y0065177D01*
X0305153Y0065080D01*
X0305112Y0064984D01*
X0305068Y0064889D01*
X0305021Y0064796D01*
X0304969Y0064706D01*
X0304915Y0064617D01*
X0304857Y0064530D01*
X0304795Y0064446D01*
X0304731Y0064364D01*
X0304663Y0064284D01*
X0304593Y0064207D01*
X0304520Y0064133D01*
X0304443Y0064062D01*
X0304365Y0063994D01*
X0304283Y0063929D01*
X0304200Y0063866D01*
X0304113Y0063808D01*
X0304025Y0063752D01*
X0303935Y0063700D01*
X0303843Y0063651D01*
X0303749Y0063606D01*
X0303653Y0063564D01*
X0303556Y0063527D01*
X0303457Y0063492D01*
X0303425Y0063599D01*
X0303520Y0063631D01*
X0303613Y0063668D01*
X0303704Y0063708D01*
X0303794Y0063751D01*
X0303883Y0063798D01*
X0303969Y0063848D01*
X0304053Y0063901D01*
X0304136Y0063957D01*
X0304216Y0064017D01*
X0304294Y0064079D01*
X0304369Y0064145D01*
X0304442Y0064213D01*
X0304512Y0064284D01*
X0304580Y0064358D01*
X0304645Y0064434D01*
X0304706Y0064512D01*
X0304765Y0064593D01*
X0304821Y0064676D01*
X0304873Y0064761D01*
X0304922Y0064848D01*
X0304968Y0064937D01*
X0305010Y0065027D01*
X0305049Y0065119D01*
X0305085Y0065212D01*
X0305116Y0065307D01*
X0305010Y0065338D01*
X0304978Y0065244D01*
X0304942Y0065151D01*
X0304903Y0065060D01*
X0304861Y0064970D01*
X0304814Y0064882D01*
X0304765Y0064796D01*
X0304711Y0064712D01*
X0304655Y0064630D01*
X0304596Y0064550D01*
X0304533Y0064473D01*
X0304467Y0064398D01*
X0304399Y0064326D01*
X0304327Y0064257D01*
X0304253Y0064191D01*
X0304177Y0064127D01*
X0304098Y0064067D01*
X0304017Y0064010D01*
X0303933Y0063956D01*
X0303847Y0063905D01*
X0303760Y0063858D01*
X0303671Y0063814D01*
X0303580Y0063774D01*
X0303487Y0063738D01*
X0303393Y0063705D01*
X0303361Y0063811D01*
X0303451Y0063843D01*
X0303539Y0063878D01*
X0303626Y0063916D01*
X0303711Y0063958D01*
X0303794Y0064003D01*
X0303876Y0064051D01*
X0303955Y0064102D01*
X0304033Y0064157D01*
X0304108Y0064214D01*
X0304181Y0064275D01*
X0304252Y0064338D01*
X0304320Y0064404D01*
X0304385Y0064473D01*
X0304448Y0064544D01*
X0304508Y0064618D01*
X0304564Y0064694D01*
X0304618Y0064772D01*
X0304669Y0064852D01*
X0304716Y0064934D01*
X0304760Y0065018D01*
X0304801Y0065104D01*
X0304839Y0065191D01*
X0304873Y0065279D01*
X0304903Y0065369D01*
X0301774Y0069192D02*
X0302081Y0068174D01*
X0302080Y0068174D02*
X0301990Y0068142D01*
X0301900Y0068107D01*
X0301812Y0068068D01*
X0301726Y0068025D01*
X0301642Y0067978D01*
X0301560Y0067929D01*
X0301480Y0067875D01*
X0301402Y0067819D01*
X0301326Y0067760D01*
X0301253Y0067697D01*
X0301183Y0067631D01*
X0301115Y0067563D01*
X0301050Y0067492D01*
X0300988Y0067418D01*
X0300930Y0067342D01*
X0300874Y0067264D01*
X0300822Y0067183D01*
X0300773Y0067100D01*
X0300727Y0067016D01*
X0300685Y0066929D01*
X0300647Y0066841D01*
X0300612Y0066751D01*
X0300581Y0066660D01*
X0299561Y0066956D01*
X0299560Y0066957D01*
X0299595Y0067064D01*
X0299634Y0067170D01*
X0299676Y0067275D01*
X0299722Y0067378D01*
X0299771Y0067479D01*
X0299823Y0067579D01*
X0299879Y0067677D01*
X0299937Y0067773D01*
X0299999Y0067868D01*
X0300064Y0067960D01*
X0300132Y0068050D01*
X0300203Y0068137D01*
X0300277Y0068222D01*
X0300354Y0068305D01*
X0300433Y0068385D01*
X0300515Y0068463D01*
X0300599Y0068537D01*
X0300686Y0068609D01*
X0300776Y0068678D01*
X0300867Y0068744D01*
X0300961Y0068807D01*
X0301056Y0068867D01*
X0301154Y0068923D01*
X0301253Y0068977D01*
X0301354Y0069027D01*
X0301457Y0069073D01*
X0301561Y0069116D01*
X0301666Y0069156D01*
X0301773Y0069192D01*
X0301805Y0069086D01*
X0301698Y0069050D01*
X0301593Y0069010D01*
X0301489Y0068966D01*
X0301386Y0068919D01*
X0301285Y0068868D01*
X0301186Y0068814D01*
X0301089Y0068757D01*
X0300994Y0068696D01*
X0300901Y0068632D01*
X0300810Y0068565D01*
X0300722Y0068495D01*
X0300636Y0068422D01*
X0300553Y0068346D01*
X0300472Y0068267D01*
X0300394Y0068186D01*
X0300319Y0068102D01*
X0300247Y0068015D01*
X0300177Y0067926D01*
X0300111Y0067834D01*
X0300048Y0067741D01*
X0299989Y0067645D01*
X0299932Y0067547D01*
X0299879Y0067448D01*
X0299830Y0067346D01*
X0299784Y0067243D01*
X0299741Y0067139D01*
X0299702Y0067033D01*
X0299667Y0066926D01*
X0299773Y0066895D01*
X0299808Y0066998D01*
X0299845Y0067100D01*
X0299886Y0067201D01*
X0299931Y0067301D01*
X0299979Y0067398D01*
X0300030Y0067495D01*
X0300084Y0067589D01*
X0300142Y0067681D01*
X0300203Y0067772D01*
X0300267Y0067860D01*
X0300333Y0067946D01*
X0300403Y0068029D01*
X0300476Y0068111D01*
X0300551Y0068189D01*
X0300629Y0068265D01*
X0300709Y0068339D01*
X0300792Y0068409D01*
X0300877Y0068477D01*
X0300965Y0068542D01*
X0301055Y0068603D01*
X0301147Y0068662D01*
X0301240Y0068717D01*
X0301336Y0068769D01*
X0301433Y0068818D01*
X0301532Y0068864D01*
X0301632Y0068906D01*
X0301734Y0068945D01*
X0301837Y0068980D01*
X0301869Y0068873D01*
X0301766Y0068838D01*
X0301665Y0068799D01*
X0301565Y0068757D01*
X0301466Y0068711D01*
X0301369Y0068661D01*
X0301274Y0068609D01*
X0301181Y0068552D01*
X0301090Y0068493D01*
X0301001Y0068430D01*
X0300914Y0068365D01*
X0300829Y0068296D01*
X0300748Y0068224D01*
X0300668Y0068150D01*
X0300592Y0068072D01*
X0300518Y0067992D01*
X0300447Y0067910D01*
X0300379Y0067825D01*
X0300314Y0067737D01*
X0300253Y0067648D01*
X0300194Y0067556D01*
X0300139Y0067462D01*
X0300087Y0067366D01*
X0300039Y0067269D01*
X0299994Y0067170D01*
X0299952Y0067069D01*
X0299914Y0066967D01*
X0299880Y0066864D01*
X0299987Y0066833D01*
X0300021Y0066936D01*
X0300059Y0067038D01*
X0300101Y0067138D01*
X0300146Y0067237D01*
X0300195Y0067334D01*
X0300248Y0067429D01*
X0300304Y0067523D01*
X0300364Y0067614D01*
X0300426Y0067703D01*
X0300492Y0067789D01*
X0300561Y0067873D01*
X0300634Y0067954D01*
X0300709Y0068033D01*
X0300787Y0068109D01*
X0300867Y0068182D01*
X0300951Y0068252D01*
X0301036Y0068319D01*
X0301124Y0068382D01*
X0301215Y0068443D01*
X0301308Y0068500D01*
X0301402Y0068553D01*
X0301499Y0068603D01*
X0301597Y0068650D01*
X0301697Y0068693D01*
X0301799Y0068732D01*
X0301901Y0068767D01*
X0301933Y0068661D01*
X0301835Y0068627D01*
X0301737Y0068589D01*
X0301641Y0068548D01*
X0301547Y0068503D01*
X0301454Y0068455D01*
X0301363Y0068404D01*
X0301274Y0068349D01*
X0301187Y0068291D01*
X0301102Y0068230D01*
X0301020Y0068165D01*
X0300940Y0068098D01*
X0300862Y0068028D01*
X0300788Y0067955D01*
X0300715Y0067879D01*
X0300646Y0067801D01*
X0300580Y0067720D01*
X0300516Y0067637D01*
X0300456Y0067552D01*
X0300399Y0067465D01*
X0300345Y0067375D01*
X0300294Y0067284D01*
X0300247Y0067190D01*
X0300203Y0067095D01*
X0300163Y0066999D01*
X0300126Y0066901D01*
X0300093Y0066802D01*
X0300200Y0066771D01*
X0300233Y0066870D01*
X0300270Y0066967D01*
X0300311Y0067063D01*
X0300355Y0067158D01*
X0300402Y0067251D01*
X0300454Y0067341D01*
X0300508Y0067430D01*
X0300566Y0067517D01*
X0300628Y0067601D01*
X0300692Y0067683D01*
X0300760Y0067763D01*
X0300830Y0067840D01*
X0300903Y0067914D01*
X0300980Y0067985D01*
X0301058Y0068053D01*
X0301140Y0068118D01*
X0301223Y0068181D01*
X0301310Y0068239D01*
X0301398Y0068295D01*
X0301488Y0068347D01*
X0301580Y0068396D01*
X0301674Y0068441D01*
X0301770Y0068483D01*
X0301867Y0068520D01*
X0301966Y0068555D01*
X0301998Y0068448D01*
X0301903Y0068416D01*
X0301810Y0068379D01*
X0301719Y0068339D01*
X0301629Y0068296D01*
X0301540Y0068249D01*
X0301454Y0068199D01*
X0301370Y0068146D01*
X0301287Y0068090D01*
X0301207Y0068030D01*
X0301129Y0067968D01*
X0301054Y0067902D01*
X0300981Y0067834D01*
X0300911Y0067763D01*
X0300843Y0067689D01*
X0300778Y0067613D01*
X0300717Y0067535D01*
X0300658Y0067454D01*
X0300602Y0067371D01*
X0300550Y0067286D01*
X0300501Y0067199D01*
X0300455Y0067110D01*
X0300413Y0067020D01*
X0300374Y0066928D01*
X0300338Y0066835D01*
X0300307Y0066740D01*
X0300413Y0066709D01*
X0300445Y0066803D01*
X0300481Y0066896D01*
X0300520Y0066987D01*
X0300562Y0067077D01*
X0300609Y0067165D01*
X0300658Y0067251D01*
X0300712Y0067335D01*
X0300768Y0067417D01*
X0300827Y0067497D01*
X0300890Y0067574D01*
X0300956Y0067649D01*
X0301024Y0067721D01*
X0301096Y0067790D01*
X0301170Y0067856D01*
X0301246Y0067920D01*
X0301325Y0067980D01*
X0301406Y0068037D01*
X0301490Y0068091D01*
X0301576Y0068142D01*
X0301663Y0068189D01*
X0301752Y0068233D01*
X0301843Y0068273D01*
X0301936Y0068309D01*
X0302030Y0068342D01*
X0302062Y0068236D01*
X0301972Y0068204D01*
X0301884Y0068169D01*
X0301797Y0068131D01*
X0301712Y0068089D01*
X0301629Y0068044D01*
X0301547Y0067996D01*
X0301468Y0067945D01*
X0301390Y0067890D01*
X0301315Y0067833D01*
X0301242Y0067772D01*
X0301171Y0067709D01*
X0301103Y0067643D01*
X0301038Y0067574D01*
X0300975Y0067503D01*
X0300915Y0067429D01*
X0300859Y0067353D01*
X0300805Y0067275D01*
X0300754Y0067195D01*
X0300707Y0067113D01*
X0300663Y0067029D01*
X0300622Y0066943D01*
X0300584Y0066856D01*
X0300550Y0066768D01*
X0300520Y0066678D01*
D12*
X0299562Y0071142D03*
X0299562Y0060906D03*
X0299562Y0245945D03*
X0299562Y0256181D03*
D13*
X0313027Y0255787D03*
X0313027Y0251063D03*
X0313027Y0246339D03*
X0313027Y0070748D03*
X0313027Y0066024D03*
X0313027Y0061299D03*
D14*
G36*
X0348702Y0089346D02*
X0343554Y0084198D01*
X0340492Y0087260D01*
X0345640Y0092408D01*
X0348702Y0089346D01*
G37*
G36*
X0344805Y0093243D02*
X0339657Y0088095D01*
X0336595Y0091157D01*
X0341743Y0096305D01*
X0344805Y0093243D01*
G37*
G36*
X0340907Y0097141D02*
X0335759Y0091993D01*
X0332697Y0095055D01*
X0337845Y0100203D01*
X0340907Y0097141D01*
G37*
G36*
X0363317Y0111756D02*
X0358169Y0106608D01*
X0355107Y0109670D01*
X0360255Y0114818D01*
X0363317Y0111756D01*
G37*
G36*
X0367215Y0107859D02*
X0362067Y0102711D01*
X0359005Y0105773D01*
X0364153Y0110921D01*
X0367215Y0107859D01*
G37*
G36*
X0359420Y0115654D02*
X0354272Y0110506D01*
X0351210Y0113568D01*
X0356358Y0118716D01*
X0359420Y0115654D01*
G37*
D15*
G36*
X0343887Y0112815D02*
X0338598Y0107526D01*
X0333031Y0113093D01*
X0338320Y0118382D01*
X0343887Y0112815D01*
G37*
G36*
X0366881Y0089820D02*
X0361592Y0084531D01*
X0356025Y0090098D01*
X0361314Y0095387D01*
X0366881Y0089820D01*
G37*
D16*
X0359011Y0053524D03*
X0336964Y0053524D03*
D17*
X0342082Y0067992D03*
X0346019Y0067992D03*
X0349956Y0067992D03*
X0353893Y0067992D03*
D18*
X0329287Y0206575D03*
X0327318Y0206575D03*
X0325350Y0206575D03*
X0323381Y0206575D03*
X0321413Y0206575D03*
X0319444Y0206575D03*
X0317476Y0206575D03*
X0315507Y0206575D03*
X0315507Y0224685D03*
X0317476Y0224685D03*
X0319444Y0224685D03*
X0321413Y0224685D03*
X0323381Y0224685D03*
X0325350Y0224685D03*
X0327318Y0224685D03*
X0329287Y0224685D03*
D19*
X0331452Y0222520D03*
X0331452Y0220551D03*
X0331452Y0218583D03*
X0331452Y0216614D03*
X0331452Y0214646D03*
X0331452Y0212677D03*
X0331452Y0210709D03*
X0331452Y0208740D03*
X0313342Y0208740D03*
X0313342Y0210709D03*
X0313342Y0212677D03*
X0313342Y0214646D03*
X0313342Y0216614D03*
X0313342Y0218583D03*
X0313342Y0220551D03*
X0313342Y0222520D03*
D20*
X0319444Y0218583D03*
X0325350Y0218583D03*
X0325350Y0212677D03*
X0319444Y0212677D03*
D21*
X0319050Y0197913D03*
X0325743Y0197913D03*
X0336767Y0205787D03*
X0343460Y0205787D03*
X0343460Y0215630D03*
X0336767Y0215630D03*
X0336767Y0225472D03*
X0343460Y0225472D03*
X0309995Y0264843D03*
X0303302Y0264843D03*
X0309208Y0129016D03*
X0309208Y0123110D03*
X0315901Y0123110D03*
X0315901Y0129016D03*
X0309798Y0078031D03*
X0303106Y0078031D03*
X0321019Y0060118D03*
X0327712Y0060118D03*
X0327712Y0054016D03*
X0321019Y0054016D03*
X0309995Y0052244D03*
X0303302Y0052244D03*
D22*
X0302712Y0212283D03*
X0302712Y0218976D03*
X0314523Y0231969D03*
X0314523Y0238661D03*
X0322397Y0247717D03*
X0322397Y0254409D03*
X0330271Y0238661D03*
X0330271Y0231969D03*
X0186767Y0251654D03*
X0186767Y0258346D03*
D23*
X0301531Y0116457D03*
X0301531Y0111457D03*
X0301531Y0106457D03*
X0301531Y0101457D03*
X0301531Y0096457D03*
X0301531Y0091457D03*
X0301531Y0086457D03*
X0323578Y0086457D03*
X0323578Y0091457D03*
X0323578Y0096457D03*
X0323578Y0101457D03*
X0323578Y0106457D03*
X0323578Y0111457D03*
X0323578Y0116457D03*
D24*
X0068157Y0055787D03*
X0068157Y0068386D03*
X0088448Y0068386D03*
X0088448Y0055787D03*
X0103590Y0055787D03*
X0103590Y0068386D03*
X0123881Y0068386D03*
X0123881Y0055787D03*
X0139023Y0055787D03*
X0139023Y0068386D03*
X0159314Y0068386D03*
X0159314Y0055787D03*
X0174456Y0055787D03*
X0174456Y0068386D03*
X0194747Y0068386D03*
X0194747Y0055787D03*
X0209889Y0055787D03*
X0209889Y0068386D03*
X0230180Y0068386D03*
X0230180Y0055787D03*
X0245322Y0055787D03*
X0245322Y0068386D03*
X0265613Y0068386D03*
X0265613Y0055787D03*
M02*
