%
M48
M72
T01C0.0150
T02C0.0200
T03C0.0295
T04C0.0354
T05C0.0394
T06C0.0402
T07C0.0413
T08C0.0709
T09C0.1200
%
T01
X12555Y11696
X12948Y15240
X14000Y15968
X13244Y16716
X13104Y17364
X12500Y17557
X12500Y17057
X15393Y16968
X16393Y16968
X17393Y16968
X16492Y15854
X22393Y20468
X22393Y20968
X22003Y21972
X24189Y22366
X27893Y20968
X27893Y20468
X28614Y20633
X30426Y20988
X31196Y21185
X31866Y21598
X32397Y21421
X32614Y21795
X33439Y21972
X31842Y22661
X33342Y23661
X29342Y23161
X31846Y20594
X32240Y20200
X32633Y19807
X31846Y19807
X30963Y19651
X30473Y19923
X30071Y19413
X30409Y18370
X31413Y18429
X32043Y17641
X31728Y17169
X30724Y17248
X29393Y18468
X27909Y18035
X27122Y17248
X28696Y16657
X28696Y15673
X29090Y15279
X30192Y13311
X29877Y12326
X28015Y10948
X26492Y10948
X25547Y11342
X24759Y12130
X27122Y12917
X31334Y10870
X31525Y9275
X30937Y7283
X32870Y7287
X33427Y6446
X33913Y4905
X34917Y4649
X34917Y4230
X31452Y4256
X29090Y5633
X27122Y4846
X26761Y5968
X26493Y6568
X26196Y6992
X25940Y6618
X24956Y6224
X25153Y4452
X24366Y8980
X32240Y12720
X34602Y11145
X35271Y11106
X36964Y8389
X39133Y14098
X42389Y16421
X46164Y17057
X46164Y17557
X46768Y17364
X46908Y16716
X47664Y15968
X46613Y15240
X49058Y16968
X50058Y16968
X51058Y16968
X50156Y15854
X46219Y11696
X34208Y16263
X33545Y17641
X33027Y18941
X32633Y20594
X25685Y25240
X24700Y25240
X25153Y26700
X27122Y27093
X26761Y28215
X26493Y28815
X26196Y29239
X25940Y28865
X24956Y28471
X24366Y31227
X26492Y33196
X25547Y33589
X24759Y34377
X27122Y35164
X29877Y34574
X30192Y35558
X32240Y34967
X34602Y33393
X35271Y33353
X36964Y30637
X33427Y28694
X32870Y29534
X30937Y29530
X31525Y31522
X31334Y33117
X28015Y33196
X29090Y37526
X28696Y37920
X28696Y38904
X27909Y40282
X27122Y39495
X24759Y39770
X22393Y42715
X22393Y43215
X22003Y44219
X24189Y44613
X24700Y47487
X25685Y47487
X22692Y47487
X18677Y47231
X17673Y47290
X16689Y46581
X15192Y44337
X14129Y43432
X12161Y43826
X9405Y44219
X8224Y44219
X8696Y46365
X6649Y47369
X12692Y47487
X13736Y46581
X16964Y43826
X16570Y43432
X17712Y43432
X18460Y43826
X13104Y39611
X12500Y39804
X12500Y39304
X13244Y38963
X14000Y38215
X12948Y37487
X15393Y39215
X16393Y39215
X17393Y39215
X16492Y38101
X12555Y33944
X8724Y38668
X5468Y36345
X12692Y25240
X13736Y24334
X15192Y22090
X14129Y21185
X12161Y21578
X9405Y21972
X8224Y21972
X8696Y24118
X6649Y25122
X16689Y24334
X17673Y25043
X18677Y24984
X22692Y25240
X18460Y21578
X17712Y21185
X16964Y21578
X16570Y21185
X24759Y17523
X31452Y26503
X33913Y27152
X34917Y26896
X34917Y26477
X40314Y25122
X42361Y24118
X41889Y21972
X43070Y21972
X45826Y21578
X47794Y21185
X48857Y22090
X50235Y21185
X50629Y21578
X51377Y21185
X52125Y21578
X55668Y21972
X56058Y20968
X56058Y20468
X57853Y22366
X61558Y20968
X61558Y20468
X62279Y20633
X64090Y20988
X64861Y21185
X65530Y21598
X66062Y21421
X66278Y21795
X67104Y21972
X65507Y22661
X67007Y23661
X68581Y26477
X68581Y26896
X67577Y27152
X67091Y28694
X66534Y29534
X64601Y29530
X65190Y31522
X64999Y33117
X63542Y34574
X63857Y35558
X65904Y34967
X68266Y33393
X68936Y33353
X70629Y30637
X65117Y26503
X62755Y27881
X60786Y27093
X60426Y28215
X60158Y28815
X59861Y29239
X59605Y28865
X58621Y28471
X58818Y26700
X58365Y25240
X59349Y25240
X56357Y25240
X52341Y24984
X51337Y25043
X50353Y24334
X47400Y24334
X46357Y25240
X58030Y31227
X60156Y33196
X59211Y33589
X58424Y34377
X60786Y35164
X61680Y33196
X62755Y37526
X62361Y37920
X62361Y38904
X61574Y40282
X60786Y39495
X58424Y39770
X56058Y42715
X56058Y43215
X55668Y44219
X57853Y44613
X61558Y43215
X61558Y42715
X62279Y42881
X64090Y43235
X64861Y43432
X65530Y43845
X66062Y43668
X66278Y44042
X67104Y44219
X66298Y42841
X65904Y42448
X65511Y42841
X65511Y42054
X66298Y42054
X66692Y41188
X67209Y39889
X65707Y39889
X65392Y39416
X64389Y39495
X64074Y40617
X63058Y40715
X63736Y41660
X64138Y42170
X64628Y41899
X65077Y40676
X67873Y38511
X65507Y44908
X67007Y45908
X63007Y45408
X59349Y47487
X58365Y47487
X56357Y47487
X52341Y47231
X51337Y47290
X50353Y46581
X47400Y46581
X46357Y47487
X42361Y46365
X40314Y47369
X41889Y44219
X43070Y44219
X45826Y43826
X47794Y43432
X48857Y44337
X50235Y43432
X50629Y43826
X51377Y43432
X52125Y43826
X46768Y39611
X46164Y39804
X46164Y39304
X46908Y38963
X47664Y38215
X46613Y37487
X49058Y39215
X50058Y39215
X51058Y39215
X50156Y38101
X46219Y33944
X42389Y38668
X39133Y36345
X34208Y38511
X33545Y39889
X33027Y41188
X32633Y42054
X32240Y42448
X32633Y42841
X31846Y42841
X31196Y43432
X31866Y43845
X32397Y43668
X32614Y44042
X33439Y44219
X31842Y44908
X33342Y45908
X29342Y45408
X30426Y43235
X30473Y42170
X30963Y41899
X31846Y42054
X31413Y40676
X30409Y40617
X29393Y40715
X30071Y41660
X28614Y42881
X27893Y42715
X27893Y43215
X32043Y39889
X31728Y39416
X30724Y39495
X29090Y27881
X8724Y16421
X5468Y14098
X58030Y8980
X59211Y11342
X60156Y10948
X61680Y10948
X60786Y12917
X58424Y12130
X62361Y15673
X62755Y15279
X62361Y16657
X60786Y17248
X61574Y18035
X63058Y18468
X64074Y18370
X65077Y18429
X65707Y17641
X65392Y17169
X64389Y17248
X67209Y17641
X66692Y18941
X66298Y19807
X65904Y20200
X65511Y19807
X65511Y20594
X66298Y20594
X64628Y19651
X64138Y19923
X63736Y19413
X67873Y16263
X63857Y13311
X63542Y12326
X64999Y10870
X65190Y9275
X64601Y7283
X66534Y7287
X67091Y6446
X67577Y4905
X68581Y4649
X68581Y4230
X65117Y4256
X62755Y5633
X60786Y4846
X60426Y5968
X60158Y6568
X59861Y6992
X59605Y6618
X58621Y6224
X58818Y4452
X68266Y11145
X68936Y11106
X65904Y12720
X70629Y8389
X58424Y17523
X63007Y23161
T02
X64420Y30030
X65420Y30030
X65420Y31030
X64420Y31030
X64420Y32030
X65420Y32030
X65420Y9783
X65420Y8783
X64420Y8783
X64420Y9783
X64420Y7783
X65420Y7783
X31755Y7783
X30755Y7783
X30755Y8783
X30755Y9783
X31755Y9783
X31755Y8783
X31755Y30030
X30755Y30030
X30755Y31030
X30755Y32030
X31755Y32030
X31755Y31030
T03
X34467Y31559
X34467Y9312
X68131Y9312
X68131Y31559
T04
X63936Y27487
X63936Y24244
X63936Y5240
X30271Y5240
X30271Y24244
X30271Y27487
X30271Y46491
X63936Y46491
T05
X64329Y38038
X64329Y35046
X64329Y15791
X64329Y12799
X30665Y12799
X30665Y15791
X30665Y35046
X30665Y38038
T06
X26189Y45865
X26189Y46865
X25189Y46865
X24189Y46865
X23189Y46865
X22189Y46865
X21189Y46865
X21189Y45865
X22189Y45865
X23189Y45865
X24189Y45865
X25189Y45865
X20189Y45865
X19189Y45865
X18189Y45865
X17189Y45865
X17189Y46865
X18189Y46865
X19189Y46865
X20189Y46865
X16189Y46865
X15189Y46865
X14189Y46865
X13189Y46865
X13189Y45865
X14189Y45865
X15189Y45865
X16189Y45865
X12189Y45865
X11189Y45865
X10189Y45865
X9189Y45865
X8189Y45865
X8189Y46865
X9189Y46865
X10189Y46865
X11189Y46865
X12189Y46865
X7189Y46865
X7189Y45865
X7189Y24618
X8189Y24618
X9189Y24618
X10189Y24618
X11189Y24618
X12189Y24618
X13189Y24618
X14189Y24618
X15189Y24618
X16189Y24618
X17189Y24618
X18189Y24618
X19189Y24618
X20189Y24618
X21189Y24618
X22189Y24618
X23189Y24618
X24189Y24618
X25189Y24618
X26189Y24618
X26189Y23618
X25189Y23618
X24189Y23618
X23189Y23618
X22189Y23618
X21189Y23618
X20189Y23618
X19189Y23618
X18189Y23618
X17189Y23618
X16189Y23618
X15189Y23618
X14189Y23618
X13189Y23618
X12189Y23618
X11189Y23618
X10189Y23618
X9189Y23618
X8189Y23618
X7189Y23618
X40853Y23618
X41853Y23618
X42853Y23618
X43853Y23618
X43853Y24618
X42853Y24618
X41853Y24618
X40853Y24618
X44853Y24618
X45853Y24618
X46853Y24618
X47853Y24618
X48853Y24618
X49853Y24618
X50853Y24618
X51853Y24618
X52853Y24618
X53853Y24618
X54853Y24618
X55853Y24618
X56853Y24618
X57853Y24618
X58853Y24618
X59853Y24618
X59853Y23618
X58853Y23618
X57853Y23618
X56853Y23618
X55853Y23618
X54853Y23618
X53853Y23618
X52853Y23618
X51853Y23618
X50853Y23618
X49853Y23618
X48853Y23618
X47853Y23618
X46853Y23618
X45853Y23618
X44853Y23618
X44853Y45865
X45853Y45865
X46853Y45865
X47853Y45865
X47853Y46865
X46853Y46865
X45853Y46865
X44853Y46865
X43853Y46865
X42853Y46865
X41853Y46865
X40853Y46865
X40853Y45865
X41853Y45865
X42853Y45865
X43853Y45865
X48853Y45865
X49853Y45865
X50853Y45865
X51853Y45865
X52853Y45865
X52853Y46865
X51853Y46865
X50853Y46865
X49853Y46865
X48853Y46865
X53853Y46865
X54853Y46865
X55853Y46865
X56853Y46865
X56853Y45865
X55853Y45865
X54853Y45865
X53853Y45865
X57853Y45865
X58853Y45865
X59853Y45865
X59853Y46865
X58853Y46865
X57853Y46865
T07
X69189Y30501
X69189Y8254
X35525Y8254
X35525Y30501
T08
X41353Y24118
X25689Y24118
X7689Y24118
X7689Y46365
X25689Y46365
X41353Y46365
X59353Y46365
X59353Y24118
T09
X5271Y4846
X28106Y4846
X38936Y4846
X61770Y4846
X61770Y24137
X61770Y27093
X38936Y27093
X38936Y24137
X28106Y24137
X28106Y27093
X5271Y27093
X5271Y24137
X5271Y46385
X28106Y46385
X38936Y46385
X61770Y46385
M30
